<?xml version="1.0" standalone="no"?>
<!DOCTYPE svg PUBLIC "-//W3C//DTD SVG 1.1//EN" "http://www.w3.org/Graphics/SVG/1.1/DTD/svg11.dtd" >
<svg xmlns="http://www.w3.org/2000/svg" xmlns:xlink="http://www.w3.org/1999/xlink" version="1.1">
<metadata>
Created by FontForge 20201107 at Tue Apr 18 16:54:44 2023
 By 
Copyright (c) 2016-2023 by TypeType. All rights reserved.
</metadata>
<defs>
<font id="TTDogma-Bd" horiz-adv-x="590" >
  <font-face 
    font-family="TT Dogma"
    font-weight="700"
    font-stretch="normal"
    units-per-em="1000"
    panose-1="2 11 1 3 3 1 1 2 2 4"
    ascent="800"
    descent="-200"
    x-height="485"
    cap-height="700"
    bbox="-505 -395 1438 1088"
    underline-thickness="78"
    underline-position="-200"
    unicode-range="U+000D-FB06"
  />
<missing-glyph horiz-adv-x="900" 
d="M100 0v284h45v-139h33v139h50v31h-128v126l19 -61h23l34 106l33 -106h23l54 170h-32l-34 -110l-35 110h-19l-35 -110l-31 103v157h700v-150h-110v-170h110v-91q-6 13 -19.5 20t-30.5 7q-27 0 -43.5 -14.5t-16.5 -34.5q0 -22 14.5 -32.5t39.5 -17.5q17 -5 25.5 -9.5
t8.5 -13.5q0 -21 -28 -21q-14 0 -21 7t-7 18h-33q0 -24 17 -39.5t44 -15.5q17 0 30.5 6.5t19.5 13.5v-163h-700zM311 380h33v62h24l35 -62h37l-40 67q36 17 36 50q0 22 -16 37.5t-41 15.5h-68v-170zM469 550v-170h33v170h-33zM580 519v-139h32v139h50v31h-132v-31h50z
M344 473v46h35q10 0 17 -6.5t7 -16.5q0 -12 -7.5 -17.5t-16.5 -5.5h-35zM800 483h-78v36h78v-36zM800 411h-78v41h78v-41zM387.5 167.5q22.5 24.5 22.5 61.5t-23 62t-59 25t-59 -25t-23 -62t22.5 -61.5t59.5 -24.5t59.5 24.5zM633 162q19 19 19 47v106h-32v-106
q0 -15 -9.5 -25t-25.5 -10q-17 0 -26.5 10.5t-9.5 24.5v106h-32v-106q0 -28 19.5 -47t48.5 -19t48 19zM800 224q-15 14 -46 22q-16 5 -23 9t-7 12q0 9 7.5 14.5t18.5 5.5q10 0 18 -7t8 -18h24v-38zM291.5 190q-14.5 16 -14.5 39q0 25 14 40.5t37 15.5q24 0 37.5 -15.5
t13.5 -40.5q0 -23 -14.5 -39t-36.5 -16t-36.5 16z" />
    <glyph glyph-name="f_f.liga" unicode="ff" horiz-adv-x="685" 
d="M110 0v360h-80v125h80v33q0 83 43.5 129t119.5 46q24 0 48 -4.5t39 -10.5v-125q-24 12 -52 12q-30 0 -46.5 -14.5t-16.5 -42.5v-23h183v50q0 84 43 129.5t119 45.5q25 0 49 -4.5t39 -10.5v-125q-26 13 -53 13q-30 0 -46 -17t-16 -48v-33h105v-125h-105v-360h-135v360
h-183v-360h-135z" />
    <glyph glyph-name="fi.liga" unicode="fi" horiz-adv-x="633" 
d="M110 0v360h-80v125h80v50q0 84 43.5 129.5t119.5 45.5q24 0 48 -4.5t39 -10.5v-125q-26 13 -52 13q-30 0 -46.5 -17t-16.5 -48v-33h318v-485h-135v360h-183v-360h-135zM440.5 579.5q-22.5 21.5 -22.5 53.5q0 31 22.5 53t54.5 22t55 -22t23 -53q0 -32 -22.5 -53.5
t-55.5 -21.5q-32 0 -54.5 21.5z" />
    <glyph glyph-name="f_f_i.liga" unicode="ffi" horiz-adv-x="950" 
d="M110 0v360h-80v125h80v33q0 83 43.5 129t119.5 46q24 0 48 -4.5t39 -10.5v-125q-24 12 -52 12q-30 0 -46.5 -14.5t-16.5 -42.5v-23h183v50q0 84 43 129.5t119 45.5q25 0 49 -4.5t39 -10.5v-125q-26 13 -53 13q-30 0 -46 -17t-16 -48v-33h317v-485h-135v360h-182v-360
h-135v360h-183v-360h-135zM757.5 579.5q-22.5 21.5 -22.5 53.5q0 31 23 53t55 22t54.5 -22t22.5 -53q0 -32 -22.5 -53.5t-54.5 -21.5q-33 0 -55.5 21.5z" />
    <glyph glyph-name=".notdef" horiz-adv-x="900" 
d="M100 0v284h45v-139h33v139h50v31h-128v126l19 -61h23l34 106l33 -106h23l54 170h-32l-34 -110l-35 110h-19l-35 -110l-31 103v157h700v-150h-110v-170h110v-91q-6 13 -19.5 20t-30.5 7q-27 0 -43.5 -14.5t-16.5 -34.5q0 -22 14.5 -32.5t39.5 -17.5q17 -5 25.5 -9.5
t8.5 -13.5q0 -21 -28 -21q-14 0 -21 7t-7 18h-33q0 -24 17 -39.5t44 -15.5q17 0 30.5 6.5t19.5 13.5v-163h-700zM311 380h33v62h24l35 -62h37l-40 67q36 17 36 50q0 22 -16 37.5t-41 15.5h-68v-170zM469 550v-170h33v170h-33zM580 519v-139h32v139h50v31h-132v-31h50z
M344 473v46h35q10 0 17 -6.5t7 -16.5q0 -12 -7.5 -17.5t-16.5 -5.5h-35zM800 483h-78v36h78v-36zM800 411h-78v41h78v-41zM387.5 167.5q22.5 24.5 22.5 61.5t-23 62t-59 25t-59 -25t-23 -62t22.5 -61.5t59.5 -24.5t59.5 24.5zM633 162q19 19 19 47v106h-32v-106
q0 -15 -9.5 -25t-25.5 -10q-17 0 -26.5 10.5t-9.5 24.5v106h-32v-106q0 -28 19.5 -47t48.5 -19t48 19zM800 224q-15 14 -46 22q-16 5 -23 9t-7 12q0 9 7.5 14.5t18.5 5.5q10 0 18 -7t8 -18h24v-38zM291.5 190q-14.5 16 -14.5 39q0 25 14 40.5t37 15.5q24 0 37.5 -15.5
t13.5 -40.5q0 -23 -14.5 -39t-36.5 -16t-36.5 16z" />
    <glyph glyph-name=".null" horiz-adv-x="600" 
 />
    <glyph glyph-name="nonmarkingreturn" unicode="&#xd;" horiz-adv-x="0" 
 />
    <glyph glyph-name="space" unicode=" " horiz-adv-x="230" 
 />
    <glyph glyph-name="exclam" unicode="!" horiz-adv-x="330" 
d="M218 203h-105l-28 497h160zM108 13q-23 23 -23 55t23 54.5t57 22.5t57 -22.5t23 -54.5t-23 -55t-57 -23t-57 23z" />
    <glyph glyph-name="quotedbl" unicode="&#x22;" horiz-adv-x="420" 
d="M175 453h-120v247h120v-247zM365 453h-120v247h120v-247z" />
    <glyph glyph-name="numbersign" unicode="#" horiz-adv-x="765" 
d="M241 0h-118l37 185h-135l20 98h135l28 135h-130l20 97h130l37 185h119l-38 -185h141l37 185h119l-38 -185h135l-20 -97h-135l-27 -135h130l-20 -98h-130l-38 -185h-118l37 185h-140zM326 418l-27 -135h140l28 135h-141z" />
    <glyph glyph-name="dollar" unicode="$" horiz-adv-x="607" 
d="M514 67.5q-51 -57.5 -138 -75.5v-112h-130v109q-72 10 -127 42.5t-84 71.5l94 92q30 -32 71.5 -54.5t93.5 -22.5q53 0 83 24t30 57q0 34 -31 53t-97 41q-68 23 -111 44.5t-74 63.5t-31 109q0 74 50 128t133 71v111h130v-111q59 -10 104.5 -37t68.5 -56l-94 -92
q-23 23 -58 41t-75 18q-49 0 -75.5 -21t-26.5 -51q0 -34 31 -53t98 -41q68 -23 111 -44.5t74 -63.5t31 -109q0 -75 -51 -132.5z" />
    <glyph glyph-name="percent" unicode="%" horiz-adv-x="835" 
d="M122.5 407.5q-39.5 22.5 -62 60.5t-22.5 81t23 81t62 60.5t85 22.5t85 -22.5t62 -60.5t23 -81t-22.5 -81t-62 -60.5t-85.5 -22.5t-85.5 22.5zM260 0h-125l440 700h125zM258 498q20 21 20 51t-20 50.5t-50 20.5t-50 -20.5t-20 -50.5t20 -51t50 -21t50 21zM542.5 9.5
q-39.5 22.5 -62 60.5t-22.5 82q0 43 23 81t62 60.5t85 22.5t85 -22.5t62 -60.5t23 -81q0 -44 -22.5 -82t-62 -60.5t-85.5 -22.5t-85.5 22.5zM678 101q20 21 20 51t-20 50.5t-50 20.5t-50 -20.5t-20 -50.5t20 -51t50 -21t50 21z" />
    <glyph glyph-name="ampersand" unicode="&#x26;" horiz-adv-x="643" 
d="M144.5 10q-49.5 25 -77 67t-27.5 93q0 67 42 120.5t95 81.5q-35 33 -63.5 81t-28.5 94q0 45 24 83.5t67 61.5t97 23q52 0 94.5 -23t66.5 -61t24 -83q0 -51 -36.5 -100.5t-81.5 -77.5l110 -132q11 18 20.5 48t9.5 62h125q0 -59 -19 -116t-43 -89q11 -13 28 -24t34 -11
q13 0 28 5v-116q-24 -12 -63 -12q-38 0 -72 21.5t-53 48.5q-25 -27 -75.5 -48.5t-110.5 -21.5q-65 0 -114.5 25zM315 487q20 28 20 54t-17 42.5t-45 16.5q-30 0 -47.5 -16.5t-17.5 -42.5t19 -54t43 -49q25 21 45 49zM331 112.5q28 12.5 42 27.5l-121 149q-30 -21 -52 -49.5
t-22 -59.5q0 -35 26 -57.5t68 -22.5q31 0 59 12.5z" />
    <glyph glyph-name="quotesingle" unicode="'" horiz-adv-x="230" 
d="M175 453h-120v247h120v-247z" />
    <glyph glyph-name="parenleft" unicode="(" horiz-adv-x="378" 
d="M250 -230q-43 45 -85 118.5t-69.5 168t-27.5 193.5t27.5 193.5t69.5 168t85 118.5l100 -62q-35 -41 -68.5 -106t-56 -146.5t-22.5 -165.5q0 -83 22.5 -165t56.5 -147t68 -106z" />
    <glyph glyph-name="parenright" unicode=")" horiz-adv-x="378" 
d="M28 -168q34 41 68 106t56.5 147t22.5 165q0 84 -22.5 165.5t-56 146.5t-68.5 106l100 62q43 -45 85 -118.5t69.5 -168t27.5 -193.5t-27.5 -193.5t-69.5 -168t-85 -118.5z" />
    <glyph glyph-name="asterisk" unicode="*" horiz-adv-x="420" 
d="M210 460l-65 -102l-75 60l73 87l-108 25l30 95l105 -42l-12 117h105l-13 -117l105 42l30 -95l-107 -25l72 -87l-75 -60z" />
    <glyph glyph-name="plus" unicode="+" horiz-adv-x="595" 
d="M357 65h-118v168h-167v122h167v168h118v-168h167v-122h-167v-168z" />
    <glyph glyph-name="comma" unicode="," horiz-adv-x="250" 
d="M220 80l-132 -208l-85 45l105 226z" />
    <glyph glyph-name="hyphen" unicode="-" horiz-adv-x="418" 
d="M370 235h-322v118h322v-118z" />
    <glyph glyph-name="period" unicode="." horiz-adv-x="250" 
d="M68 13q-23 23 -23 55t23 54.5t57 22.5t57 -22.5t23 -54.5t-23 -55t-57 -23t-57 23z" />
    <glyph glyph-name="slash" unicode="/" horiz-adv-x="428" 
d="M128 -210h-128l300 920h128z" />
    <glyph glyph-name="zero" unicode="0" horiz-adv-x="690" 
d="M193.5 29.5q-68.5 44.5 -108.5 127.5t-40 193q0 111 40 193.5t108.5 127t151.5 44.5t151.5 -44.5t108.5 -127t40 -193.5q0 -110 -40 -193t-108.5 -127.5t-151.5 -44.5t-151.5 44.5zM420 148q34 25 54.5 76.5t20.5 125.5q0 75 -20.5 126t-54.5 76.5t-75 25.5t-75 -25.5
t-54.5 -76.5t-20.5 -126q0 -74 20.5 -125.5t54.5 -76.5t75 -25t75 25z" />
    <glyph glyph-name="one" unicode="1" horiz-adv-x="403" 
d="M163 535q-45 -34 -130 -34v107q63 3 98.5 28.5t56.5 63.5h125v-700h-150v535z" />
    <glyph glyph-name="two" unicode="2" horiz-adv-x="578" 
d="M33 0q0 91 32 155.5t76 104t112 85.5q42 29 65.5 47.5t39 41.5t15.5 51q0 39 -26.5 63.5t-71.5 24.5q-42 0 -72 -24.5t-44 -54.5l-124 56q13 39 45.5 77t84 63t118.5 25q71 0 127 -30t87 -80.5t31 -111.5q0 -55 -23 -97t-56.5 -70t-89.5 -66q-51 -34 -81.5 -59.5
t-49.5 -57.5h300v-143h-495z" />
    <glyph glyph-name="three" unicode="3" horiz-adv-x="578" 
d="M120 19q-70 34 -105 76l93 95q21 -27 63 -48.5t92 -21.5q54 0 84.5 25.5t30.5 64.5q0 38 -30.5 63t-84.5 25h-73v130h73q45 0 70 21t25 56t-25 56.5t-70 21.5q-41 0 -77.5 -19t-55.5 -43l-92 94q33 38 97 69t141 31q72 0 125.5 -26t82.5 -70t29 -96q0 -57 -35.5 -98.5
t-78.5 -54.5q32 -9 63.5 -32t52 -59t20.5 -81q0 -59 -31.5 -107.5t-91 -77t-139.5 -28.5q-83 0 -153 34z" />
    <glyph glyph-name="four" unicode="4" horiz-adv-x="605" 
d="M495 0h-145v130h-322v153l302 417h165v-440h83v-130h-83v-130zM350 528l-186 -268h189v268h-3z" />
    <glyph glyph-name="five" unicode="5" horiz-adv-x="603" 
d="M145 19q-70 34 -105 76l93 95q21 -27 62 -48.5t90 -21.5q57 0 90 30t33 78t-33 77.5t-90 29.5q-35 0 -64 -15.5t-43 -34.5l-108 15l28 400h422v-137h-287l-10 -133q15 11 45 20.5t65 9.5q65 0 117.5 -30t82.5 -83t30 -119q0 -69 -33 -124.5t-93.5 -87t-138.5 -31.5
q-83 0 -153 34z" />
    <glyph glyph-name="six" unicode="6" horiz-adv-x="600" 
d="M445 437q56 -33 88 -89t32 -120q0 -66 -34 -122t-94.5 -88.5t-136.5 -32.5t-136.5 32.5t-94.5 88.5t-34 122q0 80 58 167l197 305h160l-156 -232q14 2 25 2q70 0 126 -33zM382 147.5q33 32.5 33 80.5q0 47 -33 79.5t-82 32.5t-82 -32.5t-33 -79.5t33 -80t82 -33t82 32.5z
" />
    <glyph glyph-name="seven" unicode="7" horiz-adv-x="535" 
d="M233 0h-160l270 563h-313v137h478v-125z" />
    <glyph glyph-name="eight" unicode="8" horiz-adv-x="615" 
d="M166.5 14q-60.5 29 -92 78t-31.5 108q0 63 38.5 110t83.5 65q-41 21 -68 60t-27 90t29 94.5t83 69.5t126 26q71 0 125 -26t83 -69.5t29 -94.5t-26.5 -90t-68.5 -60q46 -18 84.5 -65t38.5 -110q0 -59 -32 -108t-92 -78t-141 -29t-141.5 29zM371 452q24 22 24 56t-24 55.5
t-63 21.5t-63.5 -21.5t-24.5 -55.5t24.5 -56t63.5 -22t63 22zM388 141.5q30 26.5 30 68.5t-30 68.5t-80 26.5t-80 -26.5t-30 -68.5t30 -68.5t80 -26.5t80 26.5z" />
    <glyph glyph-name="nine" unicode="9" horiz-adv-x="600" 
d="M436.5 682.5q60.5 -32.5 94.5 -88t34 -121.5q0 -79 -57 -168l-198 -305h-160l156 232q-14 -2 -25 -2q-69 0 -125.5 33.5t-88.5 89.5t-32 120q0 66 34 121.5t94.5 88t136.5 32.5t136.5 -32.5zM382 392.5q33 32.5 33 80.5q0 47 -33 79.5t-82 32.5t-82 -32.5t-33 -79.5
t33 -80t82 -33t82 32.5z" />
    <glyph glyph-name="colon" unicode=":" horiz-adv-x="260" 
d="M73 353q-23 23 -23 55t23 54.5t57 22.5t57 -22.5t23 -54.5t-23 -55t-57 -23t-57 23zM73 13q-23 23 -23 55t23 54.5t57 22.5t57 -22.5t23 -54.5t-23 -55t-57 -23t-57 23z" />
    <glyph glyph-name="semicolon" unicode=";" horiz-adv-x="260" 
d="M85 353q-23 23 -23 55t23 54.5t57 22.5t57 -22.5t23 -54.5t-23 -55t-57 -23t-57 23zM225 80l-132 -208l-85 45l105 226z" />
    <glyph glyph-name="less" unicode="&#x3c;" horiz-adv-x="595" 
d="M514 125v-125l-433 200v90l433 200v-125l-266 -119v-2z" />
    <glyph glyph-name="equal" unicode="=" horiz-adv-x="595" 
d="M508 338h-420v115h420v-115zM508 138h-420v115h420v-115z" />
    <glyph glyph-name="greater" unicode="&#x3e;" horiz-adv-x="595" 
d="M514 200l-432 -200v125l265 119v2l-265 119v125l432 -200v-90z" />
    <glyph glyph-name="question" unicode="?" horiz-adv-x="555" 
d="M198 203q-8 24 -8 45q0 35 13.5 61.5t33 44.5t51.5 42q39 30 57 51t18 51q0 33 -25.5 55t-67.5 22q-46 0 -77.5 -25.5t-42.5 -56.5l-125 55q12 39 45 77.5t86.5 64t121.5 25.5q71 0 126 -27.5t85.5 -73.5t30.5 -99q0 -44 -15 -77t-37 -55.5t-57 -50.5q-43 -35 -63 -60
t-20 -62v-7h-130zM204 13q-23 23 -23 55t23 54.5t57 22.5t57 -22.5t23 -54.5t-23 -55t-57 -23t-57 23z" />
    <glyph glyph-name="at" unicode="@" horiz-adv-x="880" 
d="M248 -87.5q-90 52.5 -142.5 142t-52.5 195.5t52.5 195.5t142.5 142t197 52.5q112 0 201.5 -49.5t140.5 -134.5t51 -186q0 -100 -48 -155t-125 -55q-44 0 -76.5 21.5t-45.5 48.5h-3q-12 -27 -44 -48.5t-76 -21.5q-43 0 -81 24t-61 66.5t-23 94.5t22.5 94.5t60.5 66.5
t80 24q34 0 59.5 -14t36.5 -32h4v41h97v-220q0 -24 16 -40.5t37 -16.5q31 0 51.5 30.5t20.5 91.5q0 77 -38 140.5t-105 100.5t-152 37q-80 0 -147.5 -40t-107.5 -108.5t-40 -149.5t40 -149.5t107.5 -108.5t147.5 -40q59 0 108.5 19.5t74.5 43.5l57 -73q-31 -31 -96 -56.5
t-144 -25.5q-107 0 -197 52.5zM493.5 181q24.5 26 24.5 64q0 39 -24.5 64.5t-58.5 25.5t-58 -25.5t-24 -64.5t24 -64.5t58 -25.5t58.5 26z" />
    <glyph glyph-name="A" unicode="A" horiz-adv-x="730" 
d="M167 0h-157l272 700h167l271 -700h-159l-59 158h-277zM362 547l-93 -262h189l-93 262h-3z" />
    <glyph glyph-name="B" unicode="B" horiz-adv-x="695" 
d="M90 0v700h298q69 0 120.5 -25t79 -67t27.5 -92q0 -51 -27 -89.5t-67 -53.5q48 -16 88.5 -62t40.5 -111q0 -54 -29.5 -100t-84.5 -73t-128 -27h-318zM380 423q38 0 60.5 21.5t22.5 55.5t-23 56t-60 22h-140v-155h140zM400 123q43 0 70.5 26.5t27.5 65.5q0 40 -27.5 66.5
t-70.5 26.5h-160v-185h160z" />
    <glyph glyph-name="C" unicode="C" horiz-adv-x="755" 
d="M234 34q-87 49 -136.5 132.5t-49.5 183.5t49.5 184t136.5 132.5t194 48.5q101 0 177 -40t123 -95l-101 -90q-39 39 -85.5 63.5t-113.5 24.5q-63 0 -115.5 -30t-82.5 -82.5t-30 -115.5t30 -115t82.5 -82t115.5 -30q68 0 115.5 24.5t87.5 65.5l102 -90
q-49 -57 -126.5 -97.5t-178.5 -40.5q-107 0 -194 49z" />
    <glyph glyph-name="D" unicode="D" horiz-adv-x="758" 
d="M90 0v700h248q105 0 190 -47t133.5 -127t48.5 -176q0 -95 -48.5 -175.5t-133.5 -127.5t-190 -47h-248zM338 135q62 0 112.5 28t79 77.5t28.5 109.5q0 61 -28.5 110t-78.5 77t-113 28h-98v-430h98z" />
    <glyph glyph-name="E" unicode="E" horiz-adv-x="665" 
d="M615 0h-525v700h515v-135h-365v-142h285v-130h-285v-158h375v-135z" />
    <glyph glyph-name="F" unicode="F" horiz-adv-x="630" 
d="M240 0h-150v700h510v-142h-360v-160h280v-138h-280v-260z" />
    <glyph glyph-name="G" unicode="G" horiz-adv-x="793" 
d="M234 34q-87 49 -136.5 132.5t-49.5 183.5t49.5 184t136.5 132.5t194 48.5q101 0 177 -40t123 -95l-101 -90q-39 39 -85.5 63.5t-113.5 24.5q-63 0 -115.5 -30t-82.5 -82.5t-30 -115.5t30.5 -115t82.5 -82t115 -30q51 0 95 18t65 39v83h-143v117h290v-259q-25 -32 -70 -63
t-107 -52t-130 -21q-107 0 -194 49z" />
    <glyph glyph-name="H" unicode="H" horiz-adv-x="780" 
d="M240 0h-150v700h150v-275h300v275h150v-700h-150v285h-300v-285z" />
    <glyph glyph-name="I" unicode="I" horiz-adv-x="330" 
d="M240 0h-150v700h150v-700z" />
    <glyph glyph-name="J" unicode="J" horiz-adv-x="506" 
d="M62.5 10.5q-53.5 25.5 -77.5 57.5l90 97q15 -16 43.5 -29t59.5 -13q45 0 71.5 27.5t26.5 77.5v472h150v-472q0 -72 -30.5 -127t-85.5 -85.5t-127 -30.5q-67 0 -120.5 25.5z" />
    <glyph glyph-name="K" unicode="K" horiz-adv-x="720" 
d="M240 0h-150v700h150v-305l273 305h180l-260 -290l280 -410h-178l-202 298l-93 -103v-195z" />
    <glyph glyph-name="L" unicode="L" horiz-adv-x="583" 
d="M563 0h-473v700h150v-560h323v-140z" />
    <glyph glyph-name="M" unicode="M" horiz-adv-x="930" 
d="M240 0h-150v700h137l239 -304h2l239 304h133v-700h-150v461h-4l-221 -281l-221 281h-4v-461z" />
    <glyph glyph-name="N" unicode="N" horiz-adv-x="805" 
d="M238 0h-148v700h133l341 -450h4v450h147v-700h-132l-342 451h-3v-451z" />
    <glyph glyph-name="O" unicode="O" horiz-adv-x="855" 
d="M234 34q-87 49 -136.5 132.5t-49.5 183.5t49.5 184t136.5 132.5t194 48.5t193.5 -48.5t136.5 -132.5t50 -184t-50 -183.5t-137 -132.5t-193 -49q-107 0 -194 49zM543 153q52 30 82 82t30 115t-30 115t-82 82.5t-115 30.5t-115.5 -30t-82.5 -82.5t-30 -115.5t30.5 -115
t82.5 -82t115 -30t115 30z" />
    <glyph glyph-name="P" unicode="P" horiz-adv-x="665" 
d="M90 0v700h298q71 0 127.5 -31t88 -84.5t31.5 -119.5t-31.5 -119.5t-88 -84.5t-127.5 -31h-148v-230h-150zM383 365q43 0 72.5 29.5t29.5 70.5t-29.5 70.5t-72.5 29.5h-143v-200h143z" />
    <glyph glyph-name="Q" unicode="Q" horiz-adv-x="855" 
d="M815 -35v-128q-17 -5 -45 -5q-71 0 -130.5 23.5t-100 59.5t-59.5 73q-27 -3 -52 -3q-107 0 -194 49t-136.5 132.5t-49.5 183.5t49.5 184t136.5 132.5t194 48.5t193.5 -48.5t136.5 -132.5t50 -184q0 -102 -51.5 -186.5t-138.5 -131.5q19 -28 60.5 -50t94.5 -22q27 0 42 5z
M543 153q52 30 82 82t30 115t-30 115t-82 82.5t-115 30.5t-115.5 -30t-82.5 -82.5t-30 -115.5t30.5 -115t82.5 -82t115 -30t115 30z" />
    <glyph glyph-name="R" unicode="R" horiz-adv-x="710" 
d="M668 0h-163l-129 240h-136v-240h-150v700h310q70 0 125.5 -30t86.5 -82.5t31 -117.5q0 -67 -33.5 -121t-91.5 -83zM240 565v-190h155q43 0 70.5 27t27.5 68t-27.5 68t-70.5 27h-155z" />
    <glyph glyph-name="S" unicode="S" horiz-adv-x="607" 
d="M141 20.5q-71 35.5 -106 82.5l94 92q30 -32 71.5 -54.5t93.5 -22.5q53 0 83 24t30 57q0 34 -31 53t-97 41q-68 23 -111 44.5t-74 63.5t-31 109q0 58 32 105t89 73.5t128 26.5q80 0 143.5 -30.5t93.5 -68.5l-94 -92q-23 23 -58 41t-75 18q-49 0 -75.5 -21t-26.5 -51
q0 -34 31 -53t98 -41q68 -23 111 -44.5t74 -63.5t31 -109q0 -58 -32 -107.5t-91 -78.5t-137 -29q-93 0 -164 35.5z" />
    <glyph glyph-name="T" unicode="T" horiz-adv-x="595" 
d="M373 0h-150v560h-203v140h555v-140h-202v-560z" />
    <glyph glyph-name="U" unicode="U" horiz-adv-x="775" 
d="M228 23.5q-70 38.5 -109 106.5t-39 155v415h150v-415q0 -47 20.5 -84t56.5 -57.5t81 -20.5q43 0 79 21.5t57 58.5t21 82v415h150v-415q0 -87 -39 -155t-108.5 -106.5t-159.5 -38.5t-160 38.5z" />
    <glyph glyph-name="V" unicode="V" horiz-adv-x="715" 
d="M441 0h-167l-259 700h160l182 -526h3l185 526h155z" />
    <glyph glyph-name="W" unicode="W" horiz-adv-x="1065" 
d="M382 0h-137l-230 700h159l143 -471h3l148 471h133l148 -471h4l142 471h155l-230 -700h-137l-149 473h-3z" />
    <glyph glyph-name="X" unicode="X" horiz-adv-x="710" 
d="M191 0h-171l238 364l-218 336h175l140 -226h3l141 226h171l-217 -333l237 -367h-174l-161 257h-3z" />
    <glyph glyph-name="Y" unicode="Y" horiz-adv-x="675" 
d="M413 0h-150v245l-258 455h171l162 -300h4l159 300h169l-257 -455v-245z" />
    <glyph glyph-name="Z" unicode="Z" horiz-adv-x="640" 
d="M598 0h-550v143l352 415h-337v142h525v-142l-353 -415h363v-143z" />
    <glyph glyph-name="bracketleft" unicode="[" horiz-adv-x="355" 
d="M328 -210h-253v920h253v-122h-118v-676h118v-122z" />
    <glyph glyph-name="backslash" unicode="\" horiz-adv-x="428" 
d="M428 -210h-128l-300 920h128z" />
    <glyph glyph-name="bracketright" unicode="]" horiz-adv-x="355" 
d="M280 -210h-252v122h117v676h-117v122h252v-920z" />
    <glyph glyph-name="asciicircum" unicode="^" horiz-adv-x="595" 
d="M228 403h-115l135 297h100l135 -297h-115l-69 163h-3z" />
    <glyph glyph-name="underscore" unicode="_" horiz-adv-x="413" 
d="M423 -205h-433v110h433v-110z" />
    <glyph glyph-name="grave" unicode="`" horiz-adv-x="285" 
d="M255 558h-112l-113 150h145z" />
    <glyph glyph-name="a" unicode="a" horiz-adv-x="533" 
d="M370.5 469.5q48.5 -25.5 75.5 -69t27 -95.5v-305h-128v67h-3q-18 -29 -57 -53t-89 -24q-46 0 -82.5 19t-57.5 51.5t-21 69.5q0 62 39 102t111 54l153 29q-2 29 -25.5 49.5t-59.5 20.5q-62 0 -113 -57l-77 74q32 38 82.5 65.5t114.5 27.5q62 0 110.5 -25.5zM308.5 129
q29.5 31 29.5 81v16l-105 -21q-28 -5 -44 -20.5t-16 -34.5q0 -23 16.5 -37.5t45.5 -14.5q44 0 73.5 31z" />
    <glyph glyph-name="b" unicode="b" horiz-adv-x="618" 
d="M267 14.5q-41 24.5 -59 54.5h-3v-69h-135v700h135v-284h3q18 30 59 54.5t96 24.5q59 0 109.5 -32t80.5 -89.5t30 -130.5t-30 -130.5t-80.5 -90t-109.5 -32.5q-55 0 -96 24.5zM384.5 132q27.5 17 44 46t16.5 65q0 35 -16.5 64t-44 46t-59.5 17t-59.5 -17t-44 -46
t-16.5 -64q0 -36 16.5 -65t44 -46t59.5 -17t59.5 17z" />
    <glyph glyph-name="c" unicode="c" horiz-adv-x="526" 
d="M163.5 24q-59.5 34 -94 92t-34.5 127t34.5 127t94 91.5t131.5 33.5q71 0 125.5 -29.5t83.5 -68.5l-88 -81q-48 54 -116 54q-54 0 -90.5 -36.5t-36.5 -90.5q0 -55 36.5 -91.5t90.5 -36.5q68 0 120 56l88 -81q-32 -40 -87 -70t-126 -30q-72 0 -131.5 34z" />
    <glyph glyph-name="d" unicode="d" horiz-adv-x="618" 
d="M145.5 22.5q-50.5 32.5 -80.5 90t-30 130.5t30 130.5t80.5 89.5t109.5 32q55 0 96 -24.5t59 -54.5h3v284h135v-700h-135v69h-3q-18 -30 -59 -54.5t-96 -24.5q-59 0 -109.5 32.5zM352.5 132q27.5 17 44 46t16.5 65q0 35 -16.5 64t-44 46t-59.5 17t-59.5 -17t-44 -46
t-16.5 -64q0 -36 16.5 -65t44 -46t59.5 -17t59.5 17z" />
    <glyph glyph-name="e" unicode="e" horiz-adv-x="563" 
d="M163.5 24q-59.5 34 -94 92t-34.5 127t34 127t92 91.5t127 33.5t125 -32t88 -87t32 -123q0 -28 -5 -53h-353q6 -38 42.5 -66.5t87.5 -28.5q70 0 126 50l71 -85q-30 -32 -85 -56t-122 -24q-72 0 -131.5 34zM396 293q-9 40 -37.5 65t-70.5 25q-44 0 -73 -25t-41 -65h222z
" />
    <glyph glyph-name="f" unicode="f" horiz-adv-x="368" 
d="M110 0v360h-80v125h80v50q0 84 43.5 129.5t119.5 45.5q24 0 48 -4.5t39 -10.5v-125q-26 13 -52 13q-30 0 -46.5 -17t-16.5 -48v-33h105v-125h-105v-360h-135z" />
    <glyph glyph-name="g" unicode="g" horiz-adv-x="598" 
d="M136 -179q-60 31 -86 69l85 85q18 -24 53.5 -43.5t76.5 -19.5q60 0 96.5 37.5t36.5 98.5v44h-3q-18 -29 -58 -53t-92 -24q-56 0 -104 30.5t-77 85.5t-29 124t29 124t77 85.5t104 30.5q52 0 92 -23.5t58 -52.5h3v66h135v-437q0 -72 -34 -131t-94 -93t-135 -34
q-74 0 -134 31zM365.5 171.5q32.5 33.5 32.5 83.5q0 51 -32.5 84.5t-80.5 33.5q-47 0 -79.5 -33.5t-32.5 -84.5q0 -50 32.5 -83.5t79.5 -33.5q48 0 80.5 33.5z" />
    <glyph glyph-name="h" unicode="h" horiz-adv-x="595" 
d="M70 0v700h135v-284h3q18 30 56.5 54.5t88.5 24.5q53 0 94 -25t64.5 -71.5t23.5 -110.5v-288h-135v270q0 45 -25 71.5t-65 26.5q-46 0 -75.5 -31.5t-29.5 -81.5v-255h-135z" />
    <glyph glyph-name="i" unicode="i" horiz-adv-x="275" 
d="M205 0h-135v485h135v-485zM82.5 579.5q-22.5 21.5 -22.5 53.5q0 31 23 53t55 22t54.5 -22t22.5 -53q0 -32 -22.5 -53.5t-54.5 -21.5q-33 0 -55.5 21.5z" />
    <glyph glyph-name="j" unicode="j" horiz-adv-x="280" 
d="M-45 -195v125q31 -13 55 -13q31 0 48 17.5t17 50.5v500h135v-520q0 -84 -44.5 -129.5t-122.5 -45.5q-45 0 -88 15zM87.5 579.5q-22.5 21.5 -22.5 53.5q0 31 23 53t55 22t54.5 -22t22.5 -53q0 -32 -22.5 -53.5t-54.5 -21.5q-33 0 -55.5 21.5z" />
    <glyph glyph-name="k" unicode="k" horiz-adv-x="558" 
d="M205 0h-135v700h135v-407l175 192h163l-185 -200l195 -285h-153l-132 198l-63 -70v-128z" />
    <glyph glyph-name="l" unicode="l" horiz-adv-x="275" 
d="M205 0h-135v700h135v-700z" />
    <glyph glyph-name="m" unicode="m" horiz-adv-x="875" 
d="M65 0v485h135v-69h3q14 30 50 54.5t85 24.5q50 0 87 -25.5t52 -56.5h4q17 31 61.5 56.5t102.5 25.5q47 0 85.5 -25t61.5 -72t23 -110v-288h-135v275q0 44 -22.5 68.5t-57.5 24.5q-40 0 -66 -29t-26 -79v-260h-135v275q0 44 -22.5 68.5t-57.5 24.5q-41 0 -67 -29t-26 -79
v-260h-135z" />
    <glyph glyph-name="n" unicode="n" 
d="M65 0v485h135v-69h3q18 30 56.5 54.5t88.5 24.5q53 0 94 -25t64.5 -71.5t23.5 -110.5v-288h-135v270q0 45 -25 71.5t-65 26.5q-46 0 -75.5 -31.5t-29.5 -81.5v-255h-135z" />
    <glyph glyph-name="o" unicode="o" 
d="M163.5 24q-59.5 34 -94 92t-34.5 127t34.5 127t94 91.5t131.5 33.5q73 0 132.5 -33.5t93.5 -91.5t34 -127t-34 -127t-93.5 -92t-132.5 -34q-72 0 -131.5 34zM382 152q36 37 36 91t-36 90.5t-87 36.5t-86.5 -36.5t-35.5 -90.5t35.5 -91t86.5 -37t87 37z" />
    <glyph glyph-name="p" unicode="p" horiz-adv-x="613" 
d="M65 -210v695h135v-69h3q18 30 59 54.5t96 24.5q59 0 109.5 -32t80.5 -89.5t30 -130.5t-30 -130.5t-80.5 -90t-109.5 -32.5q-55 0 -96 24.5t-59 54.5h-3v-279h-135zM379.5 132q27.5 17 44 46t16.5 65q0 35 -16.5 64t-44 46t-59.5 17t-59.5 -17t-44 -46t-16.5 -64
q0 -36 16.5 -65t44 -46t59.5 -17t59.5 17z" />
    <glyph glyph-name="q" unicode="q" horiz-adv-x="613" 
d="M413 -210v279h-3q-18 -30 -59 -54.5t-96 -24.5q-59 0 -109.5 32.5t-80.5 90t-30 130.5t30 130.5t80.5 89.5t109.5 32q55 0 96 -24.5t59 -54.5h3v69h135v-695h-135zM352.5 132q27.5 17 44 46t16.5 65q0 35 -16.5 64t-44 46t-59.5 17t-59.5 -17t-44 -46t-16.5 -64
q0 -36 16.5 -65t44 -46t59.5 -17t59.5 17z" />
    <glyph glyph-name="r" unicode="r" horiz-adv-x="383" 
d="M65 0v485h135v-60h3q18 27 54.5 48.5t82.5 21.5h23v-145q-24 8 -45 8q-52 0 -85 -35.5t-33 -94.5v-228h-135z" />
    <glyph glyph-name="s" unicode="s" horiz-adv-x="465" 
d="M113 17.5q-56 27.5 -85 62.5l77 80q20 -22 52 -39.5t69 -17.5q31 0 47.5 11.5t16.5 30.5q0 18 -19.5 28.5t-61.5 23.5q-49 16 -80.5 31t-55 44.5t-23.5 76.5q0 40 22.5 73.5t65 53t100.5 19.5q61 0 111 -21.5t76 -48.5l-77 -80q-16 15 -40.5 26.5t-54.5 11.5
q-28 0 -44 -10.5t-16 -25.5q0 -17 18.5 -27t61.5 -24q49 -16 81 -31.5t55.5 -45.5t23.5 -77q0 -42 -23 -76.5t-68 -55t-107 -20.5q-66 0 -122 27.5z" />
    <glyph glyph-name="t" unicode="t" horiz-adv-x="395" 
d="M148.5 41q-43.5 46 -43.5 129v190h-80v125h43q24 0 38 15t14 43v97h120v-155h105v-125h-105v-170q0 -33 16.5 -50t46.5 -17q28 0 52 12v-125q-15 -6 -39 -10.5t-48 -4.5q-76 0 -119.5 46z" />
    <glyph glyph-name="u" unicode="u" 
d="M148.5 15q-41.5 25 -65 72t-23.5 111v287h135v-270q0 -44 25 -70.5t65 -26.5q46 0 75.5 31t29.5 81v255h135v-485h-135v69h-3q-17 -30 -56 -54.5t-88 -24.5q-53 0 -94.5 25z" />
    <glyph glyph-name="v" unicode="v" horiz-adv-x="525" 
d="M333 0h-140l-188 485h145l114 -324h3l113 324h140z" />
    <glyph glyph-name="w" unicode="w" horiz-adv-x="780" 
d="M291 0h-116l-170 485h144l92 -291h3l96 291h105l96 -291h3l92 291h139l-170 -485h-116l-97 297h-3z" />
    <glyph glyph-name="x" unicode="x" horiz-adv-x="542" 
d="M166 0h-151l167 250l-154 235h156l88 -148h3l89 148h151l-154 -235l166 -250h-156l-101 164h-3z" />
    <glyph glyph-name="y" unicode="y" horiz-adv-x="533" 
d="M384 485h139l-188 -525q-31 -88 -77 -129t-115 -41q-24 0 -46.5 4.5t-36.5 10.5v125q10 -5 25 -9.5t30 -4.5q31 0 51.5 15t31.5 39l15 33l-208 482h147l128 -321h3z" />
    <glyph glyph-name="z" unicode="z" horiz-adv-x="498" 
d="M463 0h-423v128l247 240h-237v117h403v-127l-247 -240h257v-118z" />
    <glyph glyph-name="braceleft" unicode="{" horiz-adv-x="393" 
d="M285 -210q-76 0 -119 42.5t-43 117.5v175q0 30 -17 47.5t-46 17.5h-15v120h15q29 0 46 17.5t17 47.5v175q0 75 43 117.5t119 42.5h80v-122h-45q-28 0 -45 -17.5t-17 -45.5v-165q0 -45 -24.5 -74t-55.5 -36q31 -6 55.5 -35t24.5 -75v-165q0 -28 17 -45.5t45 -17.5h45v-122
h-80z" />
    <glyph glyph-name="bar" unicode="|" horiz-adv-x="375" 
d="M255 -210h-135v920h135v-920z" />
    <glyph glyph-name="braceright" unicode="}" horiz-adv-x="393" 
d="M28 -210v122h45q28 0 45 17.5t17 45.5v165q0 46 24.5 75t55.5 35q-31 7 -55.5 36t-24.5 74v165q0 28 -17 45.5t-45 17.5h-45v122h80q76 0 119 -42.5t43 -117.5v-175q0 -30 17 -47.5t46 -17.5h15v-120h-15q-29 0 -46 -17.5t-17 -47.5v-175q0 -75 -43 -117.5t-119 -42.5
h-80z" />
    <glyph glyph-name="asciitilde" unicode="~" horiz-adv-x="595" 
d="M347.5 216.5q-23.5 8.5 -52.5 24.5q-25 14 -41.5 20.5t-36.5 6.5q-27 0 -48.5 -16.5t-31.5 -36.5l-90 68q14 39 53 70.5t94 31.5q31 0 54.5 -8.5t52.5 -24.5q25 -14 41.5 -20.5t36.5 -6.5q28 0 49 16t31 37l90 -68q-14 -39 -53 -70.5t-94 -31.5q-31 0 -54.5 8.5z" />
    <glyph glyph-name="uni00A0" unicode="&#xa0;" horiz-adv-x="230" 
 />
    <glyph glyph-name="exclamdown" unicode="&#xa1;" horiz-adv-x="330" 
d="M108 363q-23 23 -23 55t23 54.5t57 22.5t57 -22.5t23 -54.5t-23 -55t-57 -23t-57 23zM245 -210h-160l28 493h105z" />
    <glyph glyph-name="cent" unicode="&#xa2;" horiz-adv-x="526" 
d="M508 195q-24 -30 -63 -56t-89 -37v-117h-122v117q-58 13 -103 48.5t-70.5 87t-25.5 110.5t25.5 110.5t70.5 86.5t103 48v117h122v-117q50 -10 88 -36t60 -55l-88 -81q-48 54 -116 54q-54 0 -90.5 -36.5t-36.5 -90.5q0 -55 36.5 -91.5t90.5 -36.5q68 0 120 56z" />
    <glyph glyph-name="sterling" unicode="&#xa3;" horiz-adv-x="553" 
d="M245 198q0 -22 -7.5 -38.5t-18.5 -24.5h314v-135h-493v135q32 0 48.5 16.5t16.5 46.5v102h-62v75h62v107q0 70 28.5 123t80.5 81.5t121 28.5q67 0 120 -28t78 -65l-93 -91q-15 21 -40.5 35t-58.5 14q-42 0 -69 -28.5t-27 -77.5v-99h173v-75h-173v-102z" />
    <glyph glyph-name="currency" unicode="&#xa4;" horiz-adv-x="515" 
d="M108 125l-60 60l57 58q-10 14 -18.5 39.5t-8.5 52.5t8.5 52.5t18.5 40.5l-57 57l60 60l57 -57q15 11 40.5 19t52.5 8t52 -8t40 -19l57 57l61 -60l-57 -57q10 -15 18.5 -40.5t8.5 -52.5t-8.5 -52.5t-18.5 -39.5l57 -58l-61 -60l-57 58q-15 -11 -39.5 -19.5t-52.5 -8.5
t-53.5 8.5t-39.5 19.5zM327 266q28 28 28 69t-28 69.5t-69 28.5t-69.5 -28.5t-28.5 -69.5t28.5 -69t69.5 -28t69 28z" />
    <glyph glyph-name="yen" unicode="&#xa5;" horiz-adv-x="675" 
d="M503 700h167l-235 -409h123v-75h-145v-50h145v-75h-145v-91h-150v91h-145v75h145v50h-145v75h123l-236 409h168l162 -306h5z" />
    <glyph glyph-name="brokenbar" unicode="&#xa6;" horiz-adv-x="375" 
d="M255 330h-135v380h135v-380zM255 -210h-135v380h135v-380z" />
    <glyph glyph-name="section" unicode="&#xa7;" horiz-adv-x="548" 
d="M137.5 -86.5q-56.5 28.5 -82.5 63.5l80 81q18 -23 50 -42t68 -19q40 0 60 16.5t20 44.5q0 23 -25 39.5t-77 36.5q-55 22 -91.5 43t-63 55.5t-26.5 85.5q0 45 28.5 80.5t64.5 51.5q-25 14 -45 44t-20 66q0 41 24 76.5t69 57t104 21.5q63 0 113.5 -24t74.5 -53l-75 -80
q-17 17 -45 31t-55 14q-36 0 -53 -13t-17 -35q0 -23 24 -38.5t76 -36.5q53 -21 90 -41.5t63.5 -54.5t26.5 -84q0 -46 -29 -82.5t-64 -52.5q26 -15 47 -45.5t21 -66.5q0 -44 -25.5 -83t-73 -62t-109.5 -23q-71 0 -127.5 28.5zM323 223q17 8 31 26t14 41q0 28 -32 53t-77 40
l-34 12q-17 -8 -31 -26t-14 -41q0 -27 32 -52.5t74 -39.5z" />
    <glyph glyph-name="dieresis" unicode="&#xa8;" horiz-adv-x="420" 
d="M52 581.5q-22 21.5 -22 51.5t22 51t51 21q28 0 50 -21.5t22 -50.5q0 -30 -22 -51.5t-50 -21.5q-29 0 -51 21.5zM267 581.5q-22 21.5 -22 51.5t22 51t51 21q28 0 50 -21.5t22 -50.5q0 -30 -22 -51.5t-50 -21.5q-29 0 -51 21.5z" />
    <glyph glyph-name="copyright" unicode="&#xa9;" horiz-adv-x="875" 
d="M247.5 34q-85.5 49 -135 132.5t-49.5 183.5t49.5 184t135 132.5t190.5 48.5q104 0 190 -48.5t135.5 -132.5t49.5 -184t-49.5 -183.5t-135.5 -132.5t-190 -49q-105 0 -190.5 49zM579.5 104q65.5 39 104.5 104.5t39 141.5t-39 141.5t-104.5 104.5t-141.5 39t-141.5 -39
t-104.5 -104.5t-39 -141.5t39 -141.5t104.5 -104.5t141.5 -39t141.5 39zM343.5 181.5q-45.5 26.5 -72 71t-26.5 97.5t26.5 98t72 71t99.5 26t97 -24t63 -53l-58 -58q-13 18 -39.5 33t-57.5 15q-45 0 -76.5 -31.5t-31.5 -76.5t31.5 -76t76.5 -31q31 0 57.5 14.5t39.5 32.5
l58 -57q-20 -29 -63 -53.5t-97 -24.5t-99.5 26.5z" />
    <glyph glyph-name="ordfeminine" unicode="&#xaa;" horiz-adv-x="363" 
d="M61 406.5q-28 26.5 -28 68.5q0 37 26.5 63.5t73.5 34.5l97 17v2q-3 18 -17.5 29.5t-37.5 11.5t-42.5 -10t-29.5 -23l-55 50q16 23 51.5 41.5t80.5 18.5q65 0 102.5 -35.5t37.5 -96.5v-188h-90v38q-12 -18 -37.5 -33t-57.5 -15q-46 0 -74 26.5zM210 469q20 21 20 51v13
l-72 -15q-14 -3 -23.5 -13t-9.5 -22q0 -35 38 -35q27 0 47 21z" />
    <glyph glyph-name="guillemotleft" unicode="&#xab;" horiz-adv-x="550" 
d="M295 65h-132l-125 175l125 175h132l-125 -175zM513 65h-133l-125 175l125 175h133l-125 -175z" />
    <glyph glyph-name="logicalnot" unicode="&#xac;" horiz-adv-x="595" 
d="M499 170h-125v125h-278v123h403v-248z" />
    <glyph glyph-name="uni00AD" unicode="&#xad;" horiz-adv-x="418" 
d="M370 235h-322v118h322v-118z" />
    <glyph glyph-name="registered" unicode="&#xae;" horiz-adv-x="469" 
d="M335 699.5q45 -25.5 71 -69t26 -95.5t-26 -95.5t-71 -69t-100 -25.5t-100 25.5t-71 69t-26 95.5t26 95.5t71 69t100 25.5t100 -25.5zM331.5 441q38.5 37 38.5 94q0 58 -38.5 95t-96.5 37t-96.5 -37.5t-38.5 -94.5t38.5 -94t96.5 -37t96.5 37zM311 532.5
q-9 -14.5 -25 -22.5l39 -70h-60l-33 61h-18v-61h-59v194h94q32 0 51.5 -20t19.5 -47q0 -20 -9 -34.5zM238 547q10 0 16.5 5.5t6.5 14.5t-6.5 14t-16.5 5h-24v-39h24z" />
    <glyph glyph-name="macron" unicode="&#xaf;" horiz-adv-x="375" 
d="M345 583h-315v100h315v-100z" />
    <glyph glyph-name="degree" unicode="&#xb0;" horiz-adv-x="380" 
d="M111.5 435q-35.5 20 -56 54t-20.5 74t20.5 73.5t56 53.5t78.5 20t78.5 -20t56 -53.5t20.5 -73.5t-20.5 -74t-56 -54t-78.5 -20t-78.5 20zM234.5 518.5q18.5 18.5 18.5 44.5t-18.5 44t-44.5 18t-44 -18t-18 -44t18 -44.5t44 -18.5t44.5 18.5z" />
    <glyph glyph-name="plusminus" unicode="&#xb1;" horiz-adv-x="595" 
d="M356 170h-117v163h-168v122h168v165h117v-165h168v-122h-168v-163zM524 5h-453v118h453v-118z" />
    <glyph glyph-name="uni00B2" unicode="&#xb2;" horiz-adv-x="312" 
d="M24 445q0 49 17 84t40 56.5t56 44.5q27 19 38.5 30.5t11.5 25.5q0 15 -11 24.5t-29 9.5t-32 -11t-21 -28l-71 33q10 34 44.5 62.5t86.5 28.5q61 0 95.5 -31t34.5 -81q0 -40 -22 -65t-64 -54q-35 -23 -51 -41h135v-88h-258z" />
    <glyph glyph-name="uni00B3" unicode="&#xb3;" horiz-adv-x="310" 
d="M62.5 458.5q-37.5 18.5 -54.5 41.5l52 54q11 -14 32.5 -25t45.5 -11q26 0 39 10t13 27q0 18 -13 28t-39 10h-40v72h37q22 0 32.5 8.5t10.5 22.5q0 15 -10.5 23.5t-30.5 8.5t-38 -9t-29 -21l-52 53q16 20 51 37t79 17q58 0 93 -29.5t35 -70.5q0 -26 -15.5 -45t-35.5 -27
q24 -8 43.5 -30.5t19.5 -54.5q0 -28 -17 -53t-49 -40t-74 -15q-48 0 -85.5 18.5z" />
    <glyph glyph-name="acute" unicode="&#xb4;" horiz-adv-x="285" 
d="M142 558h-112l80 150h145z" />
    <glyph glyph-name="uni00B5" unicode="&#xb5;" horiz-adv-x="613" 
d="M583 123v-120q-8 -5 -23 -9t-31 -4q-49 0 -78.5 25t-35.5 52h-3q-18 -30 -59 -53.5t-96 -23.5q-32 0 -57 10v-210h-135v695h135v-270q0 -44 25 -70.5t65 -26.5q44 0 73.5 29.5t29.5 77.5v260h135v-332q0 -35 35 -35q10 0 20 5z" />
    <glyph glyph-name="paragraph" unicode="&#xb6;" horiz-adv-x="620" 
d="M213 335q-49 0 -90 25t-64.5 67.5t-23.5 90.5t23.5 90t64.5 67t90 25h322v-800h-120v668h-82v-668h-120v435z" />
    <glyph glyph-name="periodcentered" unicode="&#xb7;" horiz-adv-x="230" 
d="M58 196q-23 23 -23 55t23 54.5t57 22.5t57 -22.5t23 -54.5t-23 -55t-57 -23t-57 23z" />
    <glyph glyph-name="cedilla" unicode="&#xb8;" horiz-adv-x="293" 
d="M164 -47q42 -4 70.5 -29t28.5 -64q0 -41 -33 -69.5t-87 -28.5q-37 0 -66.5 12t-46.5 28l37 59q12 -11 30 -18t37 -7t30 7.5t11 21.5t-10.5 22t-25.5 8q-7 0 -15 -2t-12 -4l-33 32l44 97l65 -18z" />
    <glyph glyph-name="uni00B9" unicode="&#xb9;" horiz-adv-x="220" 
d="M80 693q-21 -17 -65 -17v74q31 1 52 16.5t28 33.5h78v-355h-93v248z" />
    <glyph glyph-name="ordmasculine" unicode="&#xba;" horiz-adv-x="400" 
d="M115 402q-38 22 -60 60t-22 83q0 46 22 83.5t60 59.5t85 22t85.5 -22t60.5 -59.5t22 -83.5q0 -45 -22 -83t-60.5 -60t-85.5 -22t-85 22zM252.5 491.5q20.5 21.5 20.5 53.5t-20.5 53.5t-52.5 21.5q-31 0 -51.5 -21.5t-20.5 -53.5t20.5 -53.5t51.5 -21.5q32 0 52.5 21.5z
" />
    <glyph glyph-name="guillemotright" unicode="&#xbb;" horiz-adv-x="550" 
d="M170 65h-132l125 175l-125 175h132l125 -175zM388 65h-133l125 175l-125 175h133l125 -175z" />
    <glyph glyph-name="onequarter.dlig" unicode="&#xbc;" horiz-adv-x="720" 
d="M80 593q-21 -17 -65 -17v74q31 1 52 16.5t28 33.5h78v-355h-93v248zM187 0h-125l436 700h125zM670 0h-90v69h-162v79l158 207h94v-204h38v-82h-38v-69zM581 252l-77 -104h79v104h-2z" />
    <glyph glyph-name="onehalf.dlig" unicode="&#xbd;" horiz-adv-x="757" 
d="M80 593q-21 -17 -65 -17v74q31 1 52 16.5t28 33.5h78v-355h-93v248zM187 0h-125l436 700h125zM469 0q0 49 17 84t40 56.5t56 44.5q27 19 38.5 30.5t11.5 25.5q0 15 -11 24.5t-29 9.5t-32 -11t-21 -28l-71 33q10 34 44.5 62.5t86.5 28.5q61 0 95.5 -31t34.5 -81
q0 -40 -22 -65t-64 -54q-35 -23 -51 -41h135v-88h-258z" />
    <glyph glyph-name="threequarters.dlig" unicode="&#xbe;" horiz-adv-x="790" 
d="M62.5 358.5q-37.5 18.5 -54.5 41.5l52 54q11 -14 32.5 -25t45.5 -11q26 0 39 10t13 27q0 18 -13 28t-39 10h-40v72h37q22 0 32.5 8.5t10.5 22.5q0 15 -10.5 23.5t-30.5 8.5t-38 -9t-29 -21l-52 53q16 20 51 37t79 17q58 0 93 -29.5t35 -70.5q0 -26 -15.5 -45t-35.5 -27
q24 -8 43.5 -30.5t19.5 -54.5q0 -28 -17 -53t-49 -40t-74 -15q-48 0 -85.5 18.5zM257 0h-125l436 700h125zM740 0h-90v69h-162v79l158 207h94v-204h38v-82h-38v-69zM651 252l-77 -104h79v104h-2z" />
    <glyph glyph-name="questiondown" unicode="&#xbf;" horiz-adv-x="515" 
d="M227 363q-23 23 -23 55t23 54.5t57 22.5t57 -22.5t23 -54.5t-23 -55t-57 -23t-57 23zM141 -197.5q-55 27.5 -85.5 73.5t-30.5 99q0 44 15.5 77t37.5 55t57 49q43 34 63 58.5t20 61.5v7h130q7 -21 7 -45q0 -50 -25 -81t-72 -64q-38 -28 -56.5 -49.5t-18.5 -51.5
q0 -33 25 -55t67 -22q46 0 77.5 25.5t42.5 56.5l125 -55q-11 -39 -44 -77.5t-86.5 -64t-121.5 -25.5q-72 0 -127 27.5z" />
    <glyph glyph-name="Agrave" unicode="&#xc0;" horiz-adv-x="730" 
d="M167 0h-157l272 700h167l271 -700h-159l-59 158h-277zM362 547l-93 -262h189l-93 262h-3zM432 785h-112l-113 150h145z" />
    <glyph glyph-name="Aacute" unicode="&#xc1;" horiz-adv-x="730" 
d="M167 0h-157l272 700h167l271 -700h-159l-59 158h-277zM362 547l-93 -262h189l-93 262h-3zM412 785h-112l80 150h145z" />
    <glyph glyph-name="Acircumflex" unicode="&#xc2;" horiz-adv-x="730" 
d="M167 0h-157l272 700h167l271 -700h-159l-59 158h-277zM362 547l-93 -262h189l-93 262h-3zM305 785h-125l124 150h122l124 -150h-125l-59 75h-2z" />
    <glyph glyph-name="Atilde" unicode="&#xc3;" horiz-adv-x="730" 
d="M167 0h-157l272 700h167l271 -700h-159l-59 158h-277zM362 547l-93 -262h189l-93 262h-3zM188 805q0 64 28 97.5t75 33.5q23 0 40 -8t40 -23q15 -11 25.5 -16t21.5 -5q38 0 38 52h86v-22q0 -64 -28 -97.5t-75 -33.5q-23 0 -40 8t-40 23q-15 11 -25.5 16t-21.5 5
q-37 0 -37 -52h-87v22z" />
    <glyph glyph-name="Adieresis" unicode="&#xc4;" horiz-adv-x="730" 
d="M167 0h-157l272 700h167l271 -700h-159l-59 158h-277zM362 547l-93 -262h189l-93 262h-3zM207 809q-22 21 -22 51t22 51.5t51 21.5q28 0 50 -21.5t22 -51.5q0 -29 -22 -50.5t-50 -21.5q-29 0 -51 21zM422 809q-22 21 -22 51t22 51.5t51 21.5q28 0 50 -21.5t22 -51.5
q0 -29 -22 -50.5t-50 -21.5q-29 0 -51 21z" />
    <glyph glyph-name="Aring" unicode="&#xc5;" horiz-adv-x="730" 
d="M167 0h-157l272 700h167l271 -700h-159l-59 158h-277zM362 547l-93 -262h189l-93 262h-3zM282 762q-34 32 -34 78t34 78t84 32t83.5 -32t33.5 -78t-33.5 -78t-83.5 -32t-84 32zM395.5 810q12.5 12 12.5 30t-12.5 30.5t-29.5 12.5q-18 0 -30.5 -12.5t-12.5 -30.5t12.5 -30
t30.5 -12q17 0 29.5 12z" />
    <glyph glyph-name="AE" unicode="&#xc6;" horiz-adv-x="1033" 
d="M160 0h-160l390 700h583v-135h-330v-143h250v-130h-250v-157h340v-135h-483v173h-244zM477 570l-150 -270h173v270h-23z" />
    <glyph glyph-name="Ccedilla" unicode="&#xc7;" horiz-adv-x="755" 
d="M733 123q-47 -55 -120 -95t-169 -43l-17 -32q42 -4 70.5 -29t28.5 -64q0 -41 -33 -69.5t-87 -28.5q-37 0 -66.5 12t-46.5 28l37 59q12 -11 30 -18t37 -7t30 7.5t11 21.5t-10.5 22t-25.5 8q-7 0 -15 -2t-12 -4l-33 32l31 68q-94 12 -168 63t-115.5 129t-41.5 169
q0 100 49.5 184t136.5 132.5t194 48.5q101 0 177 -40t123 -95l-101 -90q-39 39 -85.5 63.5t-113.5 24.5q-63 0 -115.5 -30t-82.5 -82.5t-30 -115.5t30 -115t82.5 -82t115.5 -30q68 0 115.5 24.5t87.5 65.5z" />
    <glyph glyph-name="Egrave" unicode="&#xc8;" horiz-adv-x="665" 
d="M615 0h-525v700h515v-135h-365v-142h285v-130h-285v-158h375v-135zM418 785h-112l-113 150h145z" />
    <glyph glyph-name="Eacute" unicode="&#xc9;" horiz-adv-x="665" 
d="M615 0h-525v700h515v-135h-365v-142h285v-130h-285v-158h375v-135zM398 785h-112l80 150h145z" />
    <glyph glyph-name="Ecircumflex" unicode="&#xca;" horiz-adv-x="665" 
d="M615 0h-525v700h515v-135h-365v-142h285v-130h-285v-158h375v-135zM291 785h-125l124 150h122l124 -150h-125l-59 75h-2z" />
    <glyph glyph-name="Edieresis" unicode="&#xcb;" horiz-adv-x="665" 
d="M615 0h-525v700h515v-135h-365v-142h285v-130h-285v-158h375v-135zM193 809q-22 21 -22 51t22 51.5t51 21.5q28 0 50 -21.5t22 -51.5q0 -29 -22 -50.5t-50 -21.5q-29 0 -51 21zM408 809q-22 21 -22 51t22 51.5t51 21.5q28 0 50 -21.5t22 -51.5q0 -29 -22 -50.5t-50 -21.5
q-29 0 -51 21z" />
    <glyph glyph-name="Igrave" unicode="&#xcc;" horiz-adv-x="330" 
d="M240 0h-150v700h150v-700zM231 785h-112l-113 150h145z" />
    <glyph glyph-name="Iacute" unicode="&#xcd;" horiz-adv-x="330" 
d="M240 0h-150v700h150v-700zM212 785h-112l80 150h145z" />
    <glyph glyph-name="Icircumflex" unicode="&#xce;" horiz-adv-x="330" 
d="M240 0h-150v700h150v-700zM105 785h-125l124 150h122l124 -150h-125l-59 75h-2z" />
    <glyph glyph-name="Idieresis" unicode="&#xcf;" horiz-adv-x="330" 
d="M240 0h-150v700h150v-700zM7 809q-22 21 -22 51t22 51.5t51 21.5q28 0 50 -21.5t22 -51.5q0 -29 -22 -50.5t-50 -21.5q-29 0 -51 21zM222 809q-22 21 -22 51t22 51.5t51 21.5q28 0 50 -21.5t22 -51.5q0 -29 -22 -50.5t-50 -21.5q-29 0 -51 21z" />
    <glyph glyph-name="Eth" unicode="&#xd0;" horiz-adv-x="778" 
d="M358 700q105 0 190 -47t133.5 -127t48.5 -176q0 -95 -48.5 -175.5t-133.5 -127.5t-190 -47h-248v312h-79v78h79v310h248zM358 135q62 0 112.5 28t79 77.5t28.5 109.5q0 61 -28.5 110t-78.5 77t-113 28h-98v-175h130v-78h-130v-177h98z" />
    <glyph glyph-name="Ntilde" unicode="&#xd1;" horiz-adv-x="805" 
d="M238 0h-148v700h133l341 -450h4v450h147v-700h-132l-342 451h-3v-451zM228 805q0 64 28 97.5t75 33.5q23 0 40 -8t40 -23q15 -11 25.5 -16t21.5 -5q38 0 38 52h86v-22q0 -64 -28 -97.5t-75 -33.5q-23 0 -40 8t-40 23q-15 11 -25.5 16t-21.5 5q-37 0 -37 -52h-87v22z" />
    <glyph glyph-name="Ograve" unicode="&#xd2;" horiz-adv-x="855" 
d="M234 34q-87 49 -136.5 132.5t-49.5 183.5t49.5 184t136.5 132.5t194 48.5t193.5 -48.5t136.5 -132.5t50 -184t-50 -183.5t-137 -132.5t-193 -49q-107 0 -194 49zM543 153q52 30 82 82t30 115t-30 115t-82 82.5t-115 30.5t-115.5 -30t-82.5 -82.5t-30 -115.5t30.5 -115
t82.5 -82t115 -30t115 30zM494 785h-112l-113 150h145z" />
    <glyph glyph-name="Oacute" unicode="&#xd3;" horiz-adv-x="855" 
d="M234 34q-87 49 -136.5 132.5t-49.5 183.5t49.5 184t136.5 132.5t194 48.5t193.5 -48.5t136.5 -132.5t50 -184t-50 -183.5t-137 -132.5t-193 -49q-107 0 -194 49zM543 153q52 30 82 82t30 115t-30 115t-82 82.5t-115 30.5t-115.5 -30t-82.5 -82.5t-30 -115.5t30.5 -115
t82.5 -82t115 -30t115 30zM475 785h-112l80 150h145z" />
    <glyph glyph-name="Ocircumflex" unicode="&#xd4;" horiz-adv-x="855" 
d="M234 34q-87 49 -136.5 132.5t-49.5 183.5t49.5 184t136.5 132.5t194 48.5t193.5 -48.5t136.5 -132.5t50 -184t-50 -183.5t-137 -132.5t-193 -49q-107 0 -194 49zM543 153q52 30 82 82t30 115t-30 115t-82 82.5t-115 30.5t-115.5 -30t-82.5 -82.5t-30 -115.5t30.5 -115
t82.5 -82t115 -30t115 30zM368 785h-125l124 150h122l124 -150h-125l-59 75h-2z" />
    <glyph glyph-name="Otilde" unicode="&#xd5;" horiz-adv-x="855" 
d="M234 34q-87 49 -136.5 132.5t-49.5 183.5t49.5 184t136.5 132.5t194 48.5t193.5 -48.5t136.5 -132.5t50 -184t-50 -183.5t-137 -132.5t-193 -49q-107 0 -194 49zM543 153q52 30 82 82t30 115t-30 115t-82 82.5t-115 30.5t-115.5 -30t-82.5 -82.5t-30 -115.5t30.5 -115
t82.5 -82t115 -30t115 30zM251 805q0 64 28 97.5t75 33.5q23 0 40 -8t40 -23q15 -11 25.5 -16t21.5 -5q38 0 38 52h86v-22q0 -64 -28 -97.5t-75 -33.5q-23 0 -40 8t-40 23q-15 11 -25.5 16t-21.5 5q-37 0 -37 -52h-87v22z" />
    <glyph glyph-name="Odieresis" unicode="&#xd6;" horiz-adv-x="855" 
d="M234 34q-87 49 -136.5 132.5t-49.5 183.5t49.5 184t136.5 132.5t194 48.5t193.5 -48.5t136.5 -132.5t50 -184t-50 -183.5t-137 -132.5t-193 -49q-107 0 -194 49zM543 153q52 30 82 82t30 115t-30 115t-82 82.5t-115 30.5t-115.5 -30t-82.5 -82.5t-30 -115.5t30.5 -115
t82.5 -82t115 -30t115 30zM270 809q-22 21 -22 51t22 51.5t51 21.5q28 0 50 -21.5t22 -51.5q0 -29 -22 -50.5t-50 -21.5q-29 0 -51 21zM485 809q-22 21 -22 51t22 51.5t51 21.5q28 0 50 -21.5t22 -51.5q0 -29 -22 -50.5t-50 -21.5q-29 0 -51 21z" />
    <glyph glyph-name="multiply" unicode="&#xd7;" horiz-adv-x="595" 
d="M298 230l-128 -127l-80 80l128 127l-128 128l80 80l128 -128l127 128l80 -80l-127 -128l127 -127l-80 -80z" />
    <glyph glyph-name="Oslash" unicode="&#xd8;" horiz-adv-x="855" 
d="M722 584q41 -48 63.5 -108t22.5 -126q0 -100 -50 -183.5t-137 -132.5t-193 -49q-67 0 -127.5 20t-109.5 57l-80 -78l-56 55l79 77q-41 48 -63.5 108t-22.5 126q0 100 49.5 184t136.5 132.5t194 48.5q68 0 128.5 -20.5t109.5 -57.5l79 78l56 -54zM240 220l322 315
q-61 43 -134 43q-63 0 -115.5 -30t-82.5 -82.5t-30 -115.5q0 -71 40 -130zM543 153q52 30 82 82t30 115q0 73 -39 129l-321 -314q58 -42 133 -42q63 0 115 30z" />
    <glyph glyph-name="Ugrave" unicode="&#xd9;" horiz-adv-x="775" 
d="M228 23.5q-70 38.5 -109 106.5t-39 155v415h150v-415q0 -47 20.5 -84t56.5 -57.5t81 -20.5q43 0 79 21.5t57 58.5t21 82v415h150v-415q0 -87 -39 -155t-108.5 -106.5t-159.5 -38.5t-160 38.5zM454 785h-112l-113 150h145z" />
    <glyph glyph-name="Uacute" unicode="&#xda;" horiz-adv-x="775" 
d="M228 23.5q-70 38.5 -109 106.5t-39 155v415h150v-415q0 -47 20.5 -84t56.5 -57.5t81 -20.5q43 0 79 21.5t57 58.5t21 82v415h150v-415q0 -87 -39 -155t-108.5 -106.5t-159.5 -38.5t-160 38.5zM435 785h-112l80 150h145z" />
    <glyph glyph-name="Ucircumflex" unicode="&#xdb;" horiz-adv-x="775" 
d="M228 23.5q-70 38.5 -109 106.5t-39 155v415h150v-415q0 -47 20.5 -84t56.5 -57.5t81 -20.5q43 0 79 21.5t57 58.5t21 82v415h150v-415q0 -87 -39 -155t-108.5 -106.5t-159.5 -38.5t-160 38.5zM328 785h-125l124 150h122l124 -150h-125l-59 75h-2z" />
    <glyph glyph-name="Udieresis" unicode="&#xdc;" horiz-adv-x="775" 
d="M228 23.5q-70 38.5 -109 106.5t-39 155v415h150v-415q0 -47 20.5 -84t56.5 -57.5t81 -20.5q43 0 79 21.5t57 58.5t21 82v415h150v-415q0 -87 -39 -155t-108.5 -106.5t-159.5 -38.5t-160 38.5zM230 809q-22 21 -22 51t22 51.5t51 21.5q28 0 50 -21.5t22 -51.5
q0 -29 -22 -50.5t-50 -21.5q-29 0 -51 21zM445 809q-22 21 -22 51t22 51.5t51 21.5q28 0 50 -21.5t22 -51.5q0 -29 -22 -50.5t-50 -21.5q-29 0 -51 21z" />
    <glyph glyph-name="Yacute" unicode="&#xdd;" horiz-adv-x="675" 
d="M413 0h-150v245l-258 455h171l162 -300h4l159 300h169l-257 -455v-245zM386 785h-112l80 150h145z" />
    <glyph glyph-name="Thorn" unicode="&#xde;" horiz-adv-x="738" 
d="M90 0v700h150v-117h225q71 0 126.5 -29.5t86 -80.5t30.5 -113t-30.5 -113t-86 -80t-126.5 -29h-225v-138h-150zM460 273q43 0 70.5 25.5t27.5 61.5q0 37 -27.5 62.5t-70.5 25.5h-220v-175h220z" />
    <glyph glyph-name="germandbls" unicode="&#xdf;" horiz-adv-x="613" 
d="M70 490q0 65 28.5 114.5t80.5 77.5t121 28q63 0 113.5 -26.5t78.5 -70t28 -93.5q0 -49 -24.5 -85.5t-55.5 -51.5q49 -16 89.5 -62t40.5 -111q0 -59 -29.5 -106.5t-83.5 -75.5t-125 -28h-47v130h48q42 0 69.5 25t27.5 60q0 37 -27.5 62.5t-69.5 25.5h-48v125h15
q39 0 63.5 23.5t24.5 56.5q0 32 -24.5 54.5t-63.5 22.5q-43 0 -69 -26t-26 -69v-490h-135v490z" />
    <glyph glyph-name="agrave" unicode="&#xe0;" horiz-adv-x="533" 
d="M370.5 469.5q48.5 -25.5 75.5 -69t27 -95.5v-305h-128v67h-3q-18 -29 -57 -53t-89 -24q-46 0 -82.5 19t-57.5 51.5t-21 69.5q0 62 39 102t111 54l153 29q-2 29 -25.5 49.5t-59.5 20.5q-62 0 -113 -57l-77 74q32 38 82.5 65.5t114.5 27.5q62 0 110.5 -25.5zM308.5 129
q29.5 31 29.5 81v16l-105 -21q-28 -5 -44 -20.5t-16 -34.5q0 -23 16.5 -37.5t45.5 -14.5q44 0 73.5 31zM342 558h-112l-113 150h145z" />
    <glyph glyph-name="aacute" unicode="&#xe1;" horiz-adv-x="533" 
d="M370.5 469.5q48.5 -25.5 75.5 -69t27 -95.5v-305h-128v67h-3q-18 -29 -57 -53t-89 -24q-46 0 -82.5 19t-57.5 51.5t-21 69.5q0 62 39 102t111 54l153 29q-2 29 -25.5 49.5t-59.5 20.5q-62 0 -113 -57l-77 74q32 38 82.5 65.5t114.5 27.5q62 0 110.5 -25.5zM308.5 129
q29.5 31 29.5 81v16l-105 -21q-28 -5 -44 -20.5t-16 -34.5q0 -23 16.5 -37.5t45.5 -14.5q44 0 73.5 31zM322 558h-112l80 150h145z" />
    <glyph glyph-name="acircumflex" unicode="&#xe2;" horiz-adv-x="533" 
d="M370.5 469.5q48.5 -25.5 75.5 -69t27 -95.5v-305h-128v67h-3q-18 -29 -57 -53t-89 -24q-46 0 -82.5 19t-57.5 51.5t-21 69.5q0 62 39 102t111 54l153 29q-2 29 -25.5 49.5t-59.5 20.5q-62 0 -113 -57l-77 74q32 38 82.5 65.5t114.5 27.5q62 0 110.5 -25.5zM308.5 129
q29.5 31 29.5 81v16l-105 -21q-28 -5 -44 -20.5t-16 -34.5q0 -23 16.5 -37.5t45.5 -14.5q44 0 73.5 31zM215 558h-125l124 150h122l124 -150h-125l-59 75h-2z" />
    <glyph glyph-name="atilde" unicode="&#xe3;" horiz-adv-x="533" 
d="M370.5 469.5q48.5 -25.5 75.5 -69t27 -95.5v-305h-128v67h-3q-18 -29 -57 -53t-89 -24q-46 0 -82.5 19t-57.5 51.5t-21 69.5q0 62 39 102t111 54l153 29q-2 29 -25.5 49.5t-59.5 20.5q-62 0 -113 -57l-77 74q32 38 82.5 65.5t114.5 27.5q62 0 110.5 -25.5zM308.5 129
q29.5 31 29.5 81v16l-105 -21q-28 -5 -44 -20.5t-16 -34.5q0 -23 16.5 -37.5t45.5 -14.5q44 0 73.5 31zM98 576q0 65 28 98.5t75 33.5q23 0 40 -8t40 -23q15 -11 25.5 -16t21.5 -5q38 0 38 52h86v-22q0 -64 -28 -98t-75 -34q-23 0 -40 8t-40 23q-15 11 -25.5 16t-21.5 5
q-37 0 -37 -52h-87v22z" />
    <glyph glyph-name="adieresis" unicode="&#xe4;" horiz-adv-x="533" 
d="M370.5 469.5q48.5 -25.5 75.5 -69t27 -95.5v-305h-128v67h-3q-18 -29 -57 -53t-89 -24q-46 0 -82.5 19t-57.5 51.5t-21 69.5q0 62 39 102t111 54l153 29q-2 29 -25.5 49.5t-59.5 20.5q-62 0 -113 -57l-77 74q32 38 82.5 65.5t114.5 27.5q62 0 110.5 -25.5zM308.5 129
q29.5 31 29.5 81v16l-105 -21q-28 -5 -44 -20.5t-16 -34.5q0 -23 16.5 -37.5t45.5 -14.5q44 0 73.5 31zM117 581.5q-22 21.5 -22 51.5t22 51t51 21q28 0 50 -21.5t22 -50.5q0 -30 -22 -51.5t-50 -21.5q-29 0 -51 21.5zM332 581.5q-22 21.5 -22 51.5t22 51t51 21
q28 0 50 -21.5t22 -50.5q0 -30 -22 -51.5t-50 -21.5q-29 0 -51 21.5z" />
    <glyph glyph-name="aring" unicode="&#xe5;" horiz-adv-x="533" 
d="M370.5 469.5q48.5 -25.5 75.5 -69t27 -95.5v-305h-128v67h-3q-18 -29 -57 -53t-89 -24q-46 0 -82.5 19t-57.5 51.5t-21 69.5q0 62 39 102t111 54l153 29q-2 29 -25.5 49.5t-59.5 20.5q-62 0 -113 -57l-77 74q32 38 82.5 65.5t114.5 27.5q62 0 110.5 -25.5zM308.5 129
q29.5 31 29.5 81v16l-105 -21q-28 -5 -44 -20.5t-16 -34.5q0 -23 16.5 -37.5t45.5 -14.5q44 0 73.5 31zM192 560q-34 32 -34 78t34 78t84 32t83.5 -32t33.5 -78t-33.5 -78t-83.5 -32t-84 32zM305.5 607.5q12.5 12.5 12.5 30.5t-12.5 30t-29.5 12q-18 0 -30.5 -12t-12.5 -30
t12.5 -30.5t30.5 -12.5q17 0 29.5 12.5z" />
    <glyph glyph-name="ae" unicode="&#xe6;" horiz-adv-x="863" 
d="M828 200h-340q5 -38 40 -66.5t83 -28.5q37 0 68.5 14.5t52.5 35.5l70 -85q-28 -30 -83.5 -55t-120.5 -25q-64 0 -113 28.5t-73 65.5h-5q-25 -36 -75.5 -65t-113.5 -29q-86 0 -134.5 40.5t-48.5 102.5q0 63 47 105.5t134 49.5l129 15q0 37 -24 59.5t-65 22.5
q-37 0 -67 -16.5t-49 -40.5l-77 74q31 38 81 65.5t111 27.5q54 0 97 -24t63 -55h5q24 31 70 55t103 24q67 0 121.5 -32t86.5 -87.5t32 -122.5q0 -28 -5 -53zM698 293q-9 40 -36 65t-67 25q-41 0 -69.5 -25t-38.5 -65h211zM314 129q31 31 31 78v7l-94 -9q-39 -1 -58.5 -16.5
t-19.5 -38.5t17 -37.5t48 -14.5q45 0 76 31z" />
    <glyph glyph-name="ccedilla" unicode="&#xe7;" horiz-adv-x="526" 
d="M508 90q-30 -37 -79.5 -66t-113.5 -33l-19 -38q42 -4 70.5 -29t28.5 -64q0 -41 -33 -69.5t-87 -28.5q-37 0 -66.5 12t-46.5 28l37 59q12 -11 30 -18t37 -7t30 7.5t11 21.5t-10.5 22t-25.5 8q-7 0 -15 -2t-12 -4l-33 32l33 74q-60 11 -107.5 46.5t-74.5 88t-27 113.5
q0 69 34.5 127t94 91.5t131.5 33.5q71 0 125.5 -29.5t83.5 -68.5l-88 -81q-48 54 -116 54q-54 0 -90.5 -36.5t-36.5 -90.5q0 -55 36.5 -91.5t90.5 -36.5q68 0 120 56z" />
    <glyph glyph-name="egrave" unicode="&#xe8;" horiz-adv-x="563" 
d="M163.5 24q-59.5 34 -94 92t-34.5 127t34 127t92 91.5t127 33.5t125 -32t88 -87t32 -123q0 -28 -5 -53h-353q6 -38 42.5 -66.5t87.5 -28.5q70 0 126 50l71 -85q-30 -32 -85 -56t-122 -24q-72 0 -131.5 34zM396 293q-9 40 -37.5 65t-70.5 25q-44 0 -73 -25t-41 -65h222z
M354 558h-112l-113 150h145z" />
    <glyph glyph-name="eacute" unicode="&#xe9;" horiz-adv-x="563" 
d="M163.5 24q-59.5 34 -94 92t-34.5 127t34 127t92 91.5t127 33.5t125 -32t88 -87t32 -123q0 -28 -5 -53h-353q6 -38 42.5 -66.5t87.5 -28.5q70 0 126 50l71 -85q-30 -32 -85 -56t-122 -24q-72 0 -131.5 34zM396 293q-9 40 -37.5 65t-70.5 25q-44 0 -73 -25t-41 -65h222z
M334 558h-112l80 150h145z" />
    <glyph glyph-name="ecircumflex" unicode="&#xea;" horiz-adv-x="563" 
d="M163.5 24q-59.5 34 -94 92t-34.5 127t34 127t92 91.5t127 33.5t125 -32t88 -87t32 -123q0 -28 -5 -53h-353q6 -38 42.5 -66.5t87.5 -28.5q70 0 126 50l71 -85q-30 -32 -85 -56t-122 -24q-72 0 -131.5 34zM396 293q-9 40 -37.5 65t-70.5 25q-44 0 -73 -25t-41 -65h222z
M228 558h-125l124 150h122l124 -150h-125l-59 75h-2z" />
    <glyph glyph-name="edieresis" unicode="&#xeb;" horiz-adv-x="563" 
d="M163.5 24q-59.5 34 -94 92t-34.5 127t34 127t92 91.5t127 33.5t125 -32t88 -87t32 -123q0 -28 -5 -53h-353q6 -38 42.5 -66.5t87.5 -28.5q70 0 126 50l71 -85q-30 -32 -85 -56t-122 -24q-72 0 -131.5 34zM396 293q-9 40 -37.5 65t-70.5 25q-44 0 -73 -25t-41 -65h222z
M130 581.5q-22 21.5 -22 51.5t22 51t51 21q28 0 50 -21.5t22 -50.5q0 -30 -22 -51.5t-50 -21.5q-29 0 -51 21.5zM345 581.5q-22 21.5 -22 51.5t22 51t51 21q28 0 50 -21.5t22 -50.5q0 -30 -22 -51.5t-50 -21.5q-29 0 -51 21.5z" />
    <glyph glyph-name="igrave" unicode="&#xec;" horiz-adv-x="275" 
d="M205 0h-135v485h135v-485zM204 558h-112l-113 150h145z" />
    <glyph glyph-name="iacute" unicode="&#xed;" horiz-adv-x="275" 
d="M205 0h-135v485h135v-485zM184 558h-112l80 150h145z" />
    <glyph glyph-name="icircumflex" unicode="&#xee;" horiz-adv-x="275" 
d="M205 0h-135v485h135v-485zM77 558h-125l124 150h122l124 -150h-125l-59 75h-2z" />
    <glyph glyph-name="idieresis" unicode="&#xef;" horiz-adv-x="275" 
d="M205 0h-135v485h135v-485zM-1 580.5q-21 20.5 -21 52.5q0 31 21 51.5t48 20.5t48 -20.5t21 -51.5q0 -32 -21 -52.5t-48 -20.5t-48 20.5zM179.5 580.5q-20.5 20.5 -20.5 52.5q0 31 20.5 51.5t48.5 20.5q27 0 47.5 -20.5t20.5 -51.5q0 -32 -20.5 -52.5t-47.5 -20.5
q-28 0 -48.5 20.5z" />
    <glyph glyph-name="eth" unicode="&#xf0;" horiz-adv-x="583" 
d="M383 642q79 -85 124.5 -185.5t45.5 -198.5q0 -76 -34.5 -137.5t-94.5 -96t-134 -34.5q-73 0 -132.5 32.5t-93.5 87.5t-34 120q0 66 33 121t90 87t125 32q38 0 68 -10t44 -22h5q-23 63 -107 147l-113 -68l-56 57l109 66q-61 51 -110 77l102 58q57 -34 106 -77l104 63
l56 -57zM352 126.5q28 16.5 44.5 44t16.5 59.5q0 50 -35.5 85t-87.5 35q-51 0 -86.5 -35t-35.5 -85q0 -32 16.5 -59.5t44.5 -44t61 -16.5q34 0 62 16.5z" />
    <glyph glyph-name="ntilde" unicode="&#xf1;" 
d="M65 0v485h135v-69h3q18 30 56.5 54.5t88.5 24.5q53 0 94 -25t64.5 -71.5t23.5 -110.5v-288h-135v270q0 45 -25 71.5t-65 26.5q-46 0 -75.5 -31.5t-29.5 -81.5v-255h-135zM125 576q0 65 28 98.5t75 33.5q23 0 40 -8t40 -23q15 -11 25.5 -16t21.5 -5q38 0 38 52h86v-22
q0 -64 -28 -98t-75 -34q-23 0 -40 8t-40 23q-15 11 -25.5 16t-21.5 5q-37 0 -37 -52h-87v22z" />
    <glyph glyph-name="ograve" unicode="&#xf2;" 
d="M163.5 24q-59.5 34 -94 92t-34.5 127t34.5 127t94 91.5t131.5 33.5q73 0 132.5 -33.5t93.5 -91.5t34 -127t-34 -127t-93.5 -92t-132.5 -34q-72 0 -131.5 34zM382 152q36 37 36 91t-36 90.5t-87 36.5t-86.5 -36.5t-35.5 -90.5t35.5 -91t86.5 -37t87 37zM362 558h-112
l-113 150h145z" />
    <glyph glyph-name="oacute" unicode="&#xf3;" 
d="M163.5 24q-59.5 34 -94 92t-34.5 127t34.5 127t94 91.5t131.5 33.5q73 0 132.5 -33.5t93.5 -91.5t34 -127t-34 -127t-93.5 -92t-132.5 -34q-72 0 -131.5 34zM382 152q36 37 36 91t-36 90.5t-87 36.5t-86.5 -36.5t-35.5 -90.5t35.5 -91t86.5 -37t87 37zM342 558h-112
l80 150h145z" />
    <glyph glyph-name="ocircumflex" unicode="&#xf4;" 
d="M163.5 24q-59.5 34 -94 92t-34.5 127t34.5 127t94 91.5t131.5 33.5q73 0 132.5 -33.5t93.5 -91.5t34 -127t-34 -127t-93.5 -92t-132.5 -34q-72 0 -131.5 34zM382 152q36 37 36 91t-36 90.5t-87 36.5t-86.5 -36.5t-35.5 -90.5t35.5 -91t86.5 -37t87 37zM235 558h-125
l124 150h122l124 -150h-125l-59 75h-2z" />
    <glyph glyph-name="otilde" unicode="&#xf5;" 
d="M163.5 24q-59.5 34 -94 92t-34.5 127t34.5 127t94 91.5t131.5 33.5q73 0 132.5 -33.5t93.5 -91.5t34 -127t-34 -127t-93.5 -92t-132.5 -34q-72 0 -131.5 34zM382 152q36 37 36 91t-36 90.5t-87 36.5t-86.5 -36.5t-35.5 -90.5t35.5 -91t86.5 -37t87 37zM118 576
q0 65 28 98.5t75 33.5q23 0 40 -8t40 -23q15 -11 25.5 -16t21.5 -5q38 0 38 52h86v-22q0 -64 -28 -98t-75 -34q-23 0 -40 8t-40 23q-15 11 -25.5 16t-21.5 5q-37 0 -37 -52h-87v22z" />
    <glyph glyph-name="odieresis" unicode="&#xf6;" 
d="M163.5 24q-59.5 34 -94 92t-34.5 127t34.5 127t94 91.5t131.5 33.5q73 0 132.5 -33.5t93.5 -91.5t34 -127t-34 -127t-93.5 -92t-132.5 -34q-72 0 -131.5 34zM382 152q36 37 36 91t-36 90.5t-87 36.5t-86.5 -36.5t-35.5 -90.5t35.5 -91t86.5 -37t87 37zM137 581.5
q-22 21.5 -22 51.5t22 51t51 21q28 0 50 -21.5t22 -50.5q0 -30 -22 -51.5t-50 -21.5q-29 0 -51 21.5zM352 581.5q-22 21.5 -22 51.5t22 51t51 21q28 0 50 -21.5t22 -50.5q0 -30 -22 -51.5t-50 -21.5q-29 0 -51 21.5z" />
    <glyph glyph-name="divide" unicode="&#xf7;" horiz-adv-x="595" 
d="M241 433q-23 23 -23 55t23 54.5t57 22.5t57 -22.5t23 -54.5t-23 -55t-57 -23t-57 23zM520 240h-445v110h445v-110zM241 48q-23 23 -23 55t23 54.5t57 22.5t57 -22.5t23 -54.5t-23 -55t-57 -23t-57 23z" />
    <glyph glyph-name="oslash" unicode="&#xf8;" 
d="M497 403q28 -33 43 -74t15 -86q0 -69 -34 -127t-93.5 -92t-132.5 -34q-84 0 -151 46l-54 -57l-49 47l53 55q-59 70 -59 162q0 69 34.5 127t94 91.5t131.5 33.5q85 0 152 -46l54 56l49 -47zM189 180l167 174q-29 16 -61 16q-51 0 -86.5 -36.5t-35.5 -90.5q0 -34 16 -63z
M382 152q36 37 36 91q0 35 -15 62l-167 -174q27 -16 59 -16q51 0 87 37z" />
    <glyph glyph-name="ugrave" unicode="&#xf9;" 
d="M148.5 15q-41.5 25 -65 72t-23.5 111v287h135v-270q0 -44 25 -70.5t65 -26.5q46 0 75.5 31t29.5 81v255h135v-485h-135v69h-3q-17 -30 -56 -54.5t-88 -24.5q-53 0 -94.5 25zM359 558h-112l-113 150h145z" />
    <glyph glyph-name="uacute" unicode="&#xfa;" 
d="M148.5 15q-41.5 25 -65 72t-23.5 111v287h135v-270q0 -44 25 -70.5t65 -26.5q46 0 75.5 31t29.5 81v255h135v-485h-135v69h-3q-17 -30 -56 -54.5t-88 -24.5q-53 0 -94.5 25zM339 558h-112l80 150h145z" />
    <glyph glyph-name="ucircumflex" unicode="&#xfb;" 
d="M148.5 15q-41.5 25 -65 72t-23.5 111v287h135v-270q0 -44 25 -70.5t65 -26.5q46 0 75.5 31t29.5 81v255h135v-485h-135v69h-3q-17 -30 -56 -54.5t-88 -24.5q-53 0 -94.5 25zM233 558h-125l124 150h122l124 -150h-125l-59 75h-2z" />
    <glyph glyph-name="udieresis" unicode="&#xfc;" 
d="M148.5 15q-41.5 25 -65 72t-23.5 111v287h135v-270q0 -44 25 -70.5t65 -26.5q46 0 75.5 31t29.5 81v255h135v-485h-135v69h-3q-17 -30 -56 -54.5t-88 -24.5q-53 0 -94.5 25zM135 581.5q-22 21.5 -22 51.5t22 51t51 21q28 0 50 -21.5t22 -50.5q0 -30 -22 -51.5t-50 -21.5
q-29 0 -51 21.5zM350 581.5q-22 21.5 -22 51.5t22 51t51 21q28 0 50 -21.5t22 -50.5q0 -30 -22 -51.5t-50 -21.5q-29 0 -51 21.5z" />
    <glyph glyph-name="yacute" unicode="&#xfd;" horiz-adv-x="533" 
d="M384 485h139l-188 -525q-31 -88 -77 -129t-115 -41q-24 0 -46.5 4.5t-36.5 10.5v125q10 -5 25 -9.5t30 -4.5q31 0 51.5 15t31.5 39l15 33l-208 482h147l128 -321h3zM314 558h-112l80 150h145z" />
    <glyph glyph-name="thorn" unicode="&#xfe;" horiz-adv-x="618" 
d="M70 -210v910h135v-284h3q18 30 59 54.5t96 24.5q59 0 109.5 -32t80.5 -89.5t30 -130.5t-30 -130.5t-80.5 -90t-109.5 -32.5q-55 0 -96 24.5t-59 54.5h-3v-279h-135zM384.5 132q27.5 17 44 46t16.5 65q0 35 -16.5 64t-44 46t-59.5 17t-59.5 -17t-44 -46t-16.5 -64
q0 -36 16.5 -65t44 -46t59.5 -17t59.5 17z" />
    <glyph glyph-name="ydieresis" unicode="&#xff;" horiz-adv-x="533" 
d="M384 485h139l-188 -525q-31 -88 -77 -129t-115 -41q-24 0 -46.5 4.5t-36.5 10.5v125q10 -5 25 -9.5t30 -4.5q31 0 51.5 15t31.5 39l15 33l-208 482h147l128 -321h3zM110 581.5q-22 21.5 -22 51.5t22 51t51 21q28 0 50 -21.5t22 -50.5q0 -30 -22 -51.5t-50 -21.5
q-29 0 -51 21.5zM325 581.5q-22 21.5 -22 51.5t22 51t51 21q28 0 50 -21.5t22 -50.5q0 -30 -22 -51.5t-50 -21.5q-29 0 -51 21.5z" />
    <glyph glyph-name="Amacron" unicode="&#x100;" horiz-adv-x="730" 
d="M167 0h-157l272 700h167l271 -700h-159l-59 158h-277zM362 547l-93 -262h189l-93 262h-3zM523 810h-315v100h315v-100z" />
    <glyph glyph-name="amacron" unicode="&#x101;" horiz-adv-x="533" 
d="M370.5 469.5q48.5 -25.5 75.5 -69t27 -95.5v-305h-128v67h-3q-18 -29 -57 -53t-89 -24q-46 0 -82.5 19t-57.5 51.5t-21 69.5q0 62 39 102t111 54l153 29q-2 29 -25.5 49.5t-59.5 20.5q-62 0 -113 -57l-77 74q32 38 82.5 65.5t114.5 27.5q62 0 110.5 -25.5zM308.5 129
q29.5 31 29.5 81v16l-105 -21q-28 -5 -44 -20.5t-16 -34.5q0 -23 16.5 -37.5t45.5 -14.5q44 0 73.5 31zM433 583h-315v100h315v-100z" />
    <glyph glyph-name="Abreve" unicode="&#x102;" horiz-adv-x="730" 
d="M167 0h-157l272 700h167l271 -700h-159l-59 158h-277zM362 547l-93 -262h189l-93 262h-3zM281 803q-37 20 -57.5 54.5t-20.5 77.5h99q0 -26 18 -43t45 -17q28 0 45.5 17t17.5 43h99q0 -66 -45 -109t-117 -43q-47 0 -84 20z" />
    <glyph glyph-name="abreve" unicode="&#x103;" horiz-adv-x="533" 
d="M370.5 469.5q48.5 -25.5 75.5 -69t27 -95.5v-305h-128v67h-3q-18 -29 -57 -53t-89 -24q-46 0 -82.5 19t-57.5 51.5t-21 69.5q0 62 39 102t111 54l153 29q-2 29 -25.5 49.5t-59.5 20.5q-62 0 -113 -57l-77 74q32 38 82.5 65.5t114.5 27.5q62 0 110.5 -25.5zM308.5 129
q29.5 31 29.5 81v16l-105 -21q-28 -5 -44 -20.5t-16 -34.5q0 -23 16.5 -37.5t45.5 -14.5q44 0 73.5 31zM158 599q-45 43 -45 109h99q0 -27 18 -44t45 -17q28 0 45.5 17t17.5 44h99q0 -67 -45 -109.5t-117 -42.5t-117 43z" />
    <glyph glyph-name="Aogonek" unicode="&#x104;" horiz-adv-x="730" 
d="M655 0q-96 -51 -96 -104q0 -18 13.5 -29t34.5 -11q27 0 48 10v-80q-28 -14 -74 -14q-50 0 -82.5 29.5t-32.5 73.5q0 35 24.5 69.5t70.5 56.5l-59 157h-277l-58 -158h-157l272 700h167l271 -700h-65zM362 547l-93 -262h189l-93 262h-3z" />
    <glyph glyph-name="aogonek" unicode="&#x105;" horiz-adv-x="533" 
d="M473 0q-96 -51 -96 -104q0 -18 13.5 -29t34.5 -11q27 0 48 10v-80q-28 -14 -74 -14q-50 0 -82.5 29.5t-32.5 73.5q0 35 24 68.5t68 56.5h-31v67h-3q-18 -29 -57 -53t-89 -24q-46 0 -82.5 19t-57.5 51.5t-21 69.5q0 62 39 102t111 54l153 29q-2 29 -25.5 49.5t-59.5 20.5
q-62 0 -113 -57l-77 74q32 38 82.5 65.5t114.5 27.5q62 0 110.5 -25.5t75.5 -69t27 -95.5v-305zM308.5 129q29.5 31 29.5 81v16l-105 -21q-28 -5 -44 -20.5t-16 -34.5q0 -23 16.5 -37.5t45.5 -14.5q44 0 73.5 31z" />
    <glyph glyph-name="Cacute" unicode="&#x106;" horiz-adv-x="755" 
d="M234 34q-87 49 -136.5 132.5t-49.5 183.5t49.5 184t136.5 132.5t194 48.5q101 0 177 -40t123 -95l-101 -90q-39 39 -85.5 63.5t-113.5 24.5q-63 0 -115.5 -30t-82.5 -82.5t-30 -115.5t30 -115t82.5 -82t115.5 -30q68 0 115.5 24.5t87.5 65.5l102 -90
q-49 -57 -126.5 -97.5t-178.5 -40.5q-107 0 -194 49zM475 785h-112l80 150h145z" />
    <glyph glyph-name="cacute" unicode="&#x107;" horiz-adv-x="526" 
d="M163.5 24q-59.5 34 -94 92t-34.5 127t34.5 127t94 91.5t131.5 33.5q71 0 125.5 -29.5t83.5 -68.5l-88 -81q-48 54 -116 54q-54 0 -90.5 -36.5t-36.5 -90.5q0 -55 36.5 -91.5t90.5 -36.5q68 0 120 56l88 -81q-32 -40 -87 -70t-126 -30q-72 0 -131.5 34zM334 558h-112
l80 150h145z" />
    <glyph glyph-name="Ccircumflex" unicode="&#x108;" horiz-adv-x="755" 
d="M234 34q-87 49 -136.5 132.5t-49.5 183.5t49.5 184t136.5 132.5t194 48.5q101 0 177 -40t123 -95l-101 -90q-39 39 -85.5 63.5t-113.5 24.5q-63 0 -115.5 -30t-82.5 -82.5t-30 -115.5t30 -115t82.5 -82t115.5 -30q68 0 115.5 24.5t87.5 65.5l102 -90
q-49 -57 -126.5 -97.5t-178.5 -40.5q-107 0 -194 49zM368 785h-125l124 150h122l124 -150h-125l-59 75h-2z" />
    <glyph glyph-name="ccircumflex" unicode="&#x109;" horiz-adv-x="526" 
d="M163.5 24q-59.5 34 -94 92t-34.5 127t34.5 127t94 91.5t131.5 33.5q71 0 125.5 -29.5t83.5 -68.5l-88 -81q-48 54 -116 54q-54 0 -90.5 -36.5t-36.5 -90.5q0 -55 36.5 -91.5t90.5 -36.5q68 0 120 56l88 -81q-32 -40 -87 -70t-126 -30q-72 0 -131.5 34zM228 558h-125
l124 150h122l124 -150h-125l-59 75h-2z" />
    <glyph glyph-name="Cdotaccent" unicode="&#x10a;" horiz-adv-x="755" 
d="M234 34q-87 49 -136.5 132.5t-49.5 183.5t49.5 184t136.5 132.5t194 48.5q101 0 177 -40t123 -95l-101 -90q-39 39 -85.5 63.5t-113.5 24.5q-63 0 -115.5 -30t-82.5 -82.5t-30 -115.5t30 -115t82.5 -82t115.5 -30q68 0 115.5 24.5t87.5 65.5l102 -90
q-49 -57 -126.5 -97.5t-178.5 -40.5q-107 0 -194 49zM373 807q-23 22 -23 53q0 32 22.5 53.5t55.5 21.5q32 0 54.5 -21.5t22.5 -53.5q0 -31 -22.5 -53t-54.5 -22t-55 22z" />
    <glyph glyph-name="cdotaccent" unicode="&#x10b;" horiz-adv-x="526" 
d="M163.5 24q-59.5 34 -94 92t-34.5 127t34.5 127t94 91.5t131.5 33.5q71 0 125.5 -29.5t83.5 -68.5l-88 -81q-48 54 -116 54q-54 0 -90.5 -36.5t-36.5 -90.5q0 -55 36.5 -91.5t90.5 -36.5q68 0 120 56l88 -81q-32 -40 -87 -70t-126 -30q-72 0 -131.5 34zM232.5 579.5
q-22.5 21.5 -22.5 53.5q0 31 23 53t55 22t54.5 -22t22.5 -53q0 -32 -22.5 -53.5t-54.5 -21.5q-33 0 -55.5 21.5z" />
    <glyph glyph-name="Ccaron" unicode="&#x10c;" horiz-adv-x="755" 
d="M234 34q-87 49 -136.5 132.5t-49.5 183.5t49.5 184t136.5 132.5t194 48.5q101 0 177 -40t123 -95l-101 -90q-39 39 -85.5 63.5t-113.5 24.5q-63 0 -115.5 -30t-82.5 -82.5t-30 -115.5t30 -115t82.5 -82t115.5 -30q68 0 115.5 24.5t87.5 65.5l102 -90
q-49 -57 -126.5 -97.5t-178.5 -40.5q-107 0 -194 49zM489 785h-122l-124 150h125l59 -75h2l59 75h125z" />
    <glyph glyph-name="ccaron" unicode="&#x10d;" horiz-adv-x="526" 
d="M163.5 24q-59.5 34 -94 92t-34.5 127t34.5 127t94 91.5t131.5 33.5q71 0 125.5 -29.5t83.5 -68.5l-88 -81q-48 54 -116 54q-54 0 -90.5 -36.5t-36.5 -90.5q0 -55 36.5 -91.5t90.5 -36.5q68 0 120 56l88 -81q-32 -40 -87 -70t-126 -30q-72 0 -131.5 34zM349 558h-122
l-124 150h125l59 -75h2l59 75h125z" />
    <glyph glyph-name="Dcaron" unicode="&#x10e;" horiz-adv-x="758" 
d="M90 0v700h248q105 0 190 -47t133.5 -127t48.5 -176q0 -95 -48.5 -175.5t-133.5 -127.5t-190 -47h-248zM338 135q62 0 112.5 28t79 77.5t28.5 109.5q0 61 -28.5 110t-78.5 77t-113 28h-98v-430h98zM436 785h-122l-124 150h125l59 -75h2l59 75h125z" />
    <glyph glyph-name="dcaron" unicode="&#x10f;" horiz-adv-x="618" 
d="M145.5 22.5q-50.5 32.5 -80.5 90t-30 130.5t30 130.5t80.5 89.5t109.5 32q55 0 96 -24.5t59 -54.5h3v284h135v-700h-135v69h-3q-18 -30 -59 -54.5t-96 -24.5q-59 0 -109.5 32.5zM352.5 132q27.5 17 44 46t16.5 65q0 35 -16.5 64t-44 46t-59.5 17t-59.5 -17t-44 -46
t-16.5 -64q0 -36 16.5 -65t44 -46t59.5 -17t59.5 17zM718 535h-105l28 180h127z" />
    <glyph glyph-name="Dcroat" unicode="&#x110;" horiz-adv-x="778" 
d="M358 700q105 0 190 -47t133.5 -127t48.5 -176q0 -95 -48.5 -175.5t-133.5 -127.5t-190 -47h-248v312h-79v78h79v310h248zM358 135q62 0 112.5 28t79 77.5t28.5 109.5q0 61 -28.5 110t-78.5 77t-113 28h-98v-175h130v-78h-130v-177h98z" />
    <glyph glyph-name="dcroat" unicode="&#x111;" horiz-adv-x="613" 
d="M610 617v-78h-72v-539h-135v67h-3q-18 -30 -58.5 -53.5t-93.5 -23.5q-57 0 -106 31.5t-78 87.5t-29 124t29 123.5t78 87t106 31.5q53 0 93.5 -23.5t58.5 -52.5h3v140h-150v78h150v83h135v-83h72zM370 143q33 35 33 90t-33 90t-82 35t-82 -35t-33 -90t33 -90t82 -35t82 35
z" />
    <glyph glyph-name="Emacron" unicode="&#x112;" horiz-adv-x="665" 
d="M615 0h-525v700h515v-135h-365v-142h285v-130h-285v-158h375v-135zM509 810h-315v100h315v-100z" />
    <glyph glyph-name="emacron" unicode="&#x113;" horiz-adv-x="563" 
d="M163.5 24q-59.5 34 -94 92t-34.5 127t34 127t92 91.5t127 33.5t125 -32t88 -87t32 -123q0 -28 -5 -53h-353q6 -38 42.5 -66.5t87.5 -28.5q70 0 126 50l71 -85q-30 -32 -85 -56t-122 -24q-72 0 -131.5 34zM396 293q-9 40 -37.5 65t-70.5 25q-44 0 -73 -25t-41 -65h222z
M445 583h-315v100h315v-100z" />
    <glyph glyph-name="Ebreve" unicode="&#x114;" horiz-adv-x="665" 
d="M615 0h-525v700h515v-135h-365v-142h285v-130h-285v-158h375v-135zM267 803q-37 20 -57.5 54.5t-20.5 77.5h99q0 -26 18 -43t45 -17q28 0 45.5 17t17.5 43h99q0 -66 -45 -109t-117 -43q-47 0 -84 20z" />
    <glyph glyph-name="ebreve" unicode="&#x115;" horiz-adv-x="563" 
d="M163.5 24q-59.5 34 -94 92t-34.5 127t34 127t92 91.5t127 33.5t125 -32t88 -87t32 -123q0 -28 -5 -53h-353q6 -38 42.5 -66.5t87.5 -28.5q70 0 126 50l71 -85q-30 -32 -85 -56t-122 -24q-72 0 -131.5 34zM396 293q-9 40 -37.5 65t-70.5 25q-44 0 -73 -25t-41 -65h222z
M171 599q-45 43 -45 109h99q0 -27 18 -44t45 -17q28 0 45.5 17t17.5 44h99q0 -67 -45 -109.5t-117 -42.5t-117 43z" />
    <glyph glyph-name="Edotaccent" unicode="&#x116;" horiz-adv-x="665" 
d="M615 0h-525v700h515v-135h-365v-142h285v-130h-285v-158h375v-135zM297 807q-23 22 -23 53q0 32 22.5 53.5t55.5 21.5q32 0 54.5 -21.5t22.5 -53.5q0 -31 -22.5 -53t-54.5 -22t-55 22z" />
    <glyph glyph-name="edotaccent" unicode="&#x117;" horiz-adv-x="563" 
d="M163.5 24q-59.5 34 -94 92t-34.5 127t34 127t92 91.5t127 33.5t125 -32t88 -87t32 -123q0 -28 -5 -53h-353q6 -38 42.5 -66.5t87.5 -28.5q70 0 126 50l71 -85q-30 -32 -85 -56t-122 -24q-72 0 -131.5 34zM396 293q-9 40 -37.5 65t-70.5 25q-44 0 -73 -25t-41 -65h222z
M232.5 579.5q-22.5 21.5 -22.5 53.5q0 31 23 53t55 22t54.5 -22t22.5 -53q0 -32 -22.5 -53.5t-54.5 -21.5q-33 0 -55.5 21.5z" />
    <glyph glyph-name="Eogonek" unicode="&#x118;" horiz-adv-x="665" 
d="M615 0q-96 -51 -96 -104q0 -18 13.5 -29t34.5 -11q27 0 48 10v-80q-28 -14 -74 -14q-50 0 -82.5 29.5t-32.5 73.5q0 35 24 68.5t68 56.5h-428v700h515v-135h-365v-142h285v-130h-285v-158h375v-135z" />
    <glyph glyph-name="eogonek" unicode="&#x119;" horiz-adv-x="563" 
d="M528 200h-353q6 -38 42.5 -66.5t87.5 -28.5q40 0 72.5 15t53.5 35l70 -85q-17 -17 -57 -45t-65.5 -60.5t-25.5 -64.5q0 -21 13 -32.5t37 -11.5t46 10v-80q-29 -14 -76 -14q-48 0 -80.5 30t-32.5 74q0 33 18 63t46 52q-7 -1 -24 -1q-72 0 -132.5 32t-96.5 90t-36 131
q0 69 34 127t92 91.5t127 33.5t125 -32t88 -87t32 -123q0 -28 -5 -53zM396 293q-9 40 -37.5 65t-70.5 25q-44 0 -73 -25t-41 -65h222z" />
    <glyph glyph-name="Ecaron" unicode="&#x11a;" horiz-adv-x="665" 
d="M615 0h-525v700h515v-135h-365v-142h285v-130h-285v-158h375v-135zM412 785h-122l-124 150h125l59 -75h2l59 75h125z" />
    <glyph glyph-name="ecaron" unicode="&#x11b;" horiz-adv-x="563" 
d="M163.5 24q-59.5 34 -94 92t-34.5 127t34 127t92 91.5t127 33.5t125 -32t88 -87t32 -123q0 -28 -5 -53h-353q6 -38 42.5 -66.5t87.5 -28.5q70 0 126 50l71 -85q-30 -32 -85 -56t-122 -24q-72 0 -131.5 34zM396 293q-9 40 -37.5 65t-70.5 25q-44 0 -73 -25t-41 -65h222z
M349 558h-122l-124 150h125l59 -75h2l59 75h125z" />
    <glyph glyph-name="Gcircumflex" unicode="&#x11c;" horiz-adv-x="793" 
d="M234 34q-87 49 -136.5 132.5t-49.5 183.5t49.5 184t136.5 132.5t194 48.5q101 0 177 -40t123 -95l-101 -90q-39 39 -85.5 63.5t-113.5 24.5q-63 0 -115.5 -30t-82.5 -82.5t-30 -115.5t30.5 -115t82.5 -82t115 -30q51 0 95 18t65 39v83h-143v117h290v-259q-25 -32 -70 -63
t-107 -52t-130 -21q-107 0 -194 49zM368 785h-125l124 150h122l124 -150h-125l-59 75h-2z" />
    <glyph glyph-name="gcircumflex" unicode="&#x11d;" horiz-adv-x="598" 
d="M136 -179q-60 31 -86 69l85 85q18 -24 53.5 -43.5t76.5 -19.5q60 0 96.5 37.5t36.5 98.5v44h-3q-18 -29 -58 -53t-92 -24q-56 0 -104 30.5t-77 85.5t-29 124t29 124t77 85.5t104 30.5q52 0 92 -23.5t58 -52.5h3v66h135v-437q0 -72 -34 -131t-94 -93t-135 -34
q-74 0 -134 31zM365.5 171.5q32.5 33.5 32.5 83.5q0 51 -32.5 84.5t-80.5 33.5q-47 0 -79.5 -33.5t-32.5 -84.5q0 -50 32.5 -83.5t79.5 -33.5q48 0 80.5 33.5zM235 558h-125l124 150h122l124 -150h-125l-59 75h-2z" />
    <glyph glyph-name="Gbreve" unicode="&#x11e;" horiz-adv-x="793" 
d="M234 34q-87 49 -136.5 132.5t-49.5 183.5t49.5 184t136.5 132.5t194 48.5q101 0 177 -40t123 -95l-101 -90q-39 39 -85.5 63.5t-113.5 24.5q-63 0 -115.5 -30t-82.5 -82.5t-30 -115.5t30.5 -115t82.5 -82t115 -30q51 0 95 18t65 39v83h-143v117h290v-259q-25 -32 -70 -63
t-107 -52t-130 -21q-107 0 -194 49zM344 803q-37 20 -57.5 54.5t-20.5 77.5h99q0 -26 18 -43t45 -17q28 0 45.5 17t17.5 43h99q0 -66 -45 -109t-117 -43q-47 0 -84 20z" />
    <glyph glyph-name="gbreve" unicode="&#x11f;" horiz-adv-x="598" 
d="M136 -179q-60 31 -86 69l85 85q18 -24 53.5 -43.5t76.5 -19.5q60 0 96.5 37.5t36.5 98.5v44h-3q-18 -29 -58 -53t-92 -24q-56 0 -104 30.5t-77 85.5t-29 124t29 124t77 85.5t104 30.5q52 0 92 -23.5t58 -52.5h3v66h135v-437q0 -72 -34 -131t-94 -93t-135 -34
q-74 0 -134 31zM365.5 171.5q32.5 33.5 32.5 83.5q0 51 -32.5 84.5t-80.5 33.5q-47 0 -79.5 -33.5t-32.5 -84.5q0 -50 32.5 -83.5t79.5 -33.5q48 0 80.5 33.5zM178 599q-45 43 -45 109h99q0 -27 18 -44t45 -17q28 0 45.5 17t17.5 44h99q0 -67 -45 -109.5t-117 -42.5t-117 43
z" />
    <glyph glyph-name="Gdotaccent" unicode="&#x120;" horiz-adv-x="793" 
d="M234 34q-87 49 -136.5 132.5t-49.5 183.5t49.5 184t136.5 132.5t194 48.5q101 0 177 -40t123 -95l-101 -90q-39 39 -85.5 63.5t-113.5 24.5q-63 0 -115.5 -30t-82.5 -82.5t-30 -115.5t30.5 -115t82.5 -82t115 -30q51 0 95 18t65 39v83h-143v117h290v-259q-25 -32 -70 -63
t-107 -52t-130 -21q-107 0 -194 49zM373 807q-23 22 -23 53q0 32 22.5 53.5t55.5 21.5q32 0 54.5 -21.5t22.5 -53.5q0 -31 -22.5 -53t-54.5 -22t-55 22z" />
    <glyph glyph-name="gdotaccent" unicode="&#x121;" horiz-adv-x="598" 
d="M136 -179q-60 31 -86 69l85 85q18 -24 53.5 -43.5t76.5 -19.5q60 0 96.5 37.5t36.5 98.5v44h-3q-18 -29 -58 -53t-92 -24q-56 0 -104 30.5t-77 85.5t-29 124t29 124t77 85.5t104 30.5q52 0 92 -23.5t58 -52.5h3v66h135v-437q0 -72 -34 -131t-94 -93t-135 -34
q-74 0 -134 31zM365.5 171.5q32.5 33.5 32.5 83.5q0 51 -32.5 84.5t-80.5 33.5q-47 0 -79.5 -33.5t-32.5 -84.5q0 -50 32.5 -83.5t79.5 -33.5q48 0 80.5 33.5zM240.5 579.5q-22.5 21.5 -22.5 53.5q0 31 23 53t55 22t54.5 -22t22.5 -53q0 -32 -22.5 -53.5t-54.5 -21.5
q-33 0 -55.5 21.5z" />
    <glyph glyph-name="uni0122" unicode="&#x122;" horiz-adv-x="793" 
d="M234 34q-87 49 -136.5 132.5t-49.5 183.5t49.5 184t136.5 132.5t194 48.5q101 0 177 -40t123 -95l-101 -90q-39 39 -85.5 63.5t-113.5 24.5q-63 0 -115.5 -30t-82.5 -82.5t-30 -115.5t30.5 -115t82.5 -82t115 -30q51 0 95 18t65 39v83h-143v117h290v-259q-25 -32 -70 -63
t-107 -52t-130 -21q-107 0 -194 49zM413 -230h-105l48 150h127z" />
    <glyph glyph-name="uni0123" unicode="&#x123;" horiz-adv-x="598" 
d="M136 -179q-60 31 -86 69l85 85q18 -24 53.5 -43.5t76.5 -19.5q60 0 96.5 37.5t36.5 98.5v44h-3q-18 -29 -58 -53t-92 -24q-56 0 -104 30.5t-77 85.5t-29 124t29 124t77 85.5t104 30.5q52 0 92 -23.5t58 -52.5h3v66h135v-437q0 -72 -34 -131t-94 -93t-135 -34
q-74 0 -134 31zM365.5 171.5q32.5 33.5 32.5 83.5q0 51 -32.5 84.5t-80.5 33.5q-47 0 -79.5 -33.5t-32.5 -84.5q0 -50 32.5 -83.5t79.5 -33.5q48 0 80.5 33.5zM350 558h-125l70 150h103z" />
    <glyph glyph-name="Hcircumflex" unicode="&#x124;" horiz-adv-x="780" 
d="M240 0h-150v700h150v-275h300v275h150v-700h-150v285h-300v-285zM331 785h-125l124 150h122l124 -150h-125l-59 75h-2z" />
    <glyph glyph-name="hcircumflex" unicode="&#x125;" horiz-adv-x="595" 
d="M70 0v700h135v-284h3q18 30 56.5 54.5t88.5 24.5q53 0 94 -25t64.5 -71.5t23.5 -110.5v-288h-135v270q0 45 -25 71.5t-65 26.5q-46 0 -75.5 -31.5t-29.5 -81.5v-255h-135zM240 785h-125l124 150h122l124 -150h-125l-59 75h-2z" />
    <glyph glyph-name="Hbar" unicode="&#x126;" horiz-adv-x="820" 
d="M710 589h79v-78h-79v-511h-150v285h-300v-285h-150v511h-79v78h79v111h150v-111h300v111h150v-111zM260 425h300v86h-300v-86z" />
    <glyph glyph-name="hbar" unicode="&#x127;" horiz-adv-x="600" 
d="M452 445q41 -25 64.5 -71.5t23.5 -110.5v-263h-135v245q0 45 -25 71.5t-65 26.5q-46 0 -75.5 -31.5t-29.5 -81.5v-230h-135v539h-72v78h72v83h135v-83h150v-78h-150v-148h3q18 30 56.5 54.5t88.5 24.5q53 0 94 -25z" />
    <glyph glyph-name="Itilde" unicode="&#x128;" horiz-adv-x="330" 
d="M240 0h-150v700h150v-700zM-12 805q0 64 28 97.5t75 33.5q23 0 40 -8t40 -23q15 -11 25.5 -16t21.5 -5q38 0 38 52h86v-22q0 -64 -28 -97.5t-75 -33.5q-23 0 -40 8t-40 23q-15 11 -25.5 16t-21.5 5q-37 0 -37 -52h-87v22z" />
    <glyph glyph-name="itilde" unicode="&#x129;" horiz-adv-x="275" 
d="M205 0h-135v485h135v-485zM-40 576q0 65 28 98.5t75 33.5q23 0 40 -8t40 -23q15 -11 25.5 -16t21.5 -5q38 0 38 52h86v-22q0 -64 -28 -98t-75 -34q-23 0 -40 8t-40 23q-15 11 -25.5 16t-21.5 5q-37 0 -37 -52h-87v22z" />
    <glyph glyph-name="Imacron" unicode="&#x12a;" horiz-adv-x="330" 
d="M240 0h-150v700h150v-700zM322 810h-315v100h315v-100z" />
    <glyph glyph-name="imacron" unicode="&#x12b;" horiz-adv-x="275" 
d="M205 0h-135v485h135v-485zM295 583h-315v100h315v-100z" />
    <glyph glyph-name="Ibreve" unicode="&#x12c;" horiz-adv-x="330" 
d="M240 0h-150v700h150v-700zM81 803q-37 20 -57.5 54.5t-20.5 77.5h99q0 -26 18 -43t45 -17q28 0 45.5 17t17.5 43h99q0 -66 -45 -109t-117 -43q-47 0 -84 20z" />
    <glyph glyph-name="ibreve" unicode="&#x12d;" horiz-adv-x="275" 
d="M205 0h-135v485h135v-485zM20 599q-45 43 -45 109h99q0 -27 18 -44t45 -17q28 0 45.5 17t17.5 44h99q0 -67 -45 -109.5t-117 -42.5t-117 43z" />
    <glyph glyph-name="Iogonek" unicode="&#x12e;" horiz-adv-x="330" 
d="M240 0q-96 -51 -96 -104q0 -18 13.5 -29t34.5 -11q27 0 48 10v-80q-28 -14 -74 -14q-50 0 -82.5 29.5t-32.5 73.5q0 35 23.5 68.5t66.5 56.5h-51v700h150v-700z" />
    <glyph glyph-name="iogonek" unicode="&#x12f;" horiz-adv-x="275" 
d="M82.5 579.5q-22.5 21.5 -22.5 53.5q0 31 23 53t55 22t54.5 -22t22.5 -53q0 -32 -22.5 -53.5t-54.5 -21.5q-33 0 -55.5 21.5zM70 0v485h135v-485q-96 -51 -96 -104q0 -18 13.5 -29t34.5 -11q27 0 48 10v-80q-28 -14 -74 -14q-50 0 -82.5 29.5t-32.5 73.5q0 35 23.5 68.5
t66.5 56.5h-36z" />
    <glyph glyph-name="Idotaccent" unicode="&#x130;" horiz-adv-x="330" 
d="M240 0h-150v700h150v-700zM111 807q-23 22 -23 53q0 32 22.5 53.5t55.5 21.5q32 0 54.5 -21.5t22.5 -53.5q0 -31 -22.5 -53t-54.5 -22t-55 22z" />
    <glyph glyph-name="dotlessi" unicode="&#x131;" horiz-adv-x="275" 
d="M205 0h-135v485h135v-485z" />
    <glyph glyph-name="IJ" unicode="&#x132;" horiz-adv-x="836" 
d="M240 0h-150v700h150v-700zM392.5 10.5q-53.5 25.5 -77.5 57.5l90 97q15 -16 43.5 -29t59.5 -13q45 0 71.5 27.5t26.5 77.5v472h150v-472q0 -72 -30.5 -127t-85.5 -85.5t-127 -30.5q-67 0 -120.5 25.5z" />
    <glyph glyph-name="ij" unicode="&#x133;" horiz-adv-x="555" 
d="M205 0h-135v485h135v-485zM82.5 579.5q-22.5 21.5 -22.5 53.5q0 31 23 53t55 22t54.5 -22t22.5 -53q0 -32 -22.5 -53.5t-54.5 -21.5q-33 0 -55.5 21.5zM230 -195v125q31 -13 55 -13q31 0 48 17.5t17 50.5v500h135v-520q0 -84 -44.5 -129.5t-122.5 -45.5q-45 0 -88 15z
M362.5 579.5q-22.5 21.5 -22.5 53.5q0 31 23 53t55 22t54.5 -22t22.5 -53q0 -32 -22.5 -53.5t-54.5 -21.5q-33 0 -55.5 21.5z" />
    <glyph glyph-name="Jcircumflex" unicode="&#x134;" horiz-adv-x="506" 
d="M62.5 10.5q-53.5 25.5 -77.5 57.5l90 97q15 -16 43.5 -29t59.5 -13q45 0 71.5 27.5t26.5 77.5v472h150v-472q0 -72 -30.5 -127t-85.5 -85.5t-127 -30.5q-67 0 -120.5 25.5zM291 785h-125l124 150h122l124 -150h-125l-59 75h-2z" />
    <glyph glyph-name="jcircumflex" unicode="&#x135;" horiz-adv-x="280" 
d="M-45 -195v125q31 -13 55 -13q31 0 48 17.5t17 50.5v500h135v-520q0 -84 -44.5 -129.5t-122.5 -45.5q-45 0 -88 15zM82 558h-125l124 150h122l124 -150h-125l-59 75h-2z" />
    <glyph glyph-name="uni0136" unicode="&#x136;" horiz-adv-x="720" 
d="M240 0h-150v700h150v-305l273 305h180l-260 -290l280 -410h-178l-202 298l-93 -103v-195zM377 -230h-105l48 150h127z" />
    <glyph glyph-name="uni0137" unicode="&#x137;" horiz-adv-x="558" 
d="M205 0h-135v700h135v-407l175 192h163l-185 -200l195 -285h-153l-132 198l-63 -70v-128zM295 -230h-105l48 150h127z" />
    <glyph glyph-name="Lacute" unicode="&#x139;" horiz-adv-x="583" 
d="M563 0h-473v700h150v-560h323v-140zM212 785h-112l80 150h145z" />
    <glyph glyph-name="lacute" unicode="&#x13a;" horiz-adv-x="275" 
d="M205 0h-135v700h135v-700zM185 785h-112l80 150h145z" />
    <glyph glyph-name="uni013B" unicode="&#x13b;" horiz-adv-x="583" 
d="M563 0h-473v700h150v-560h323v-140zM330 -230h-105l48 150h127z" />
    <glyph glyph-name="uni013C" unicode="&#x13c;" horiz-adv-x="275" 
d="M205 0h-135v700h135v-700zM131 -230h-105l48 150h127z" />
    <glyph glyph-name="Lcaron" unicode="&#x13d;" horiz-adv-x="583" 
d="M563 0h-473v700h150v-560h323v-140zM410 520h-105l28 180h127z" />
    <glyph glyph-name="lcaron" unicode="&#x13e;" horiz-adv-x="275" 
d="M205 0h-135v700h135v-700zM375 535h-105l28 180h127z" />
    <glyph glyph-name="Ldot" unicode="&#x13f;" horiz-adv-x="583" 
d="M563 0h-473v700h150v-560h323v-140zM401.5 344.5q-22.5 21.5 -22.5 53.5q0 31 23 53t55 22t54.5 -22t22.5 -53q0 -32 -22.5 -53.5t-54.5 -21.5q-33 0 -55.5 21.5z" />
    <glyph glyph-name="ldot" unicode="&#x140;" horiz-adv-x="430" 
d="M205 0h-135v700h135v-700zM297.5 296.5q-22.5 21.5 -22.5 53.5q0 31 23 53t55 22t54.5 -22t22.5 -53q0 -32 -22.5 -53.5t-54.5 -21.5q-33 0 -55.5 21.5z" />
    <glyph glyph-name="Lslash" unicode="&#x141;" horiz-adv-x="608" 
d="M265 325v-185h323v-140h-473v250l-84 -47v89l84 46v362h150v-287l180 97v-88z" />
    <glyph glyph-name="lslash" unicode="&#x142;" horiz-adv-x="336" 
d="M235 429l91 50v-88l-91 -50v-341h-135v271l-90 -50v88l90 50v341h135v-271z" />
    <glyph glyph-name="Nacute" unicode="&#x143;" horiz-adv-x="805" 
d="M238 0h-148v700h133l341 -450h4v450h147v-700h-132l-342 451h-3v-451zM452 785h-112l80 150h145z" />
    <glyph glyph-name="nacute" unicode="&#x144;" 
d="M65 0v485h135v-69h3q18 30 56.5 54.5t88.5 24.5q53 0 94 -25t64.5 -71.5t23.5 -110.5v-288h-135v270q0 45 -25 71.5t-65 26.5q-46 0 -75.5 -31.5t-29.5 -81.5v-255h-135zM348 558h-112l80 150h145z" />
    <glyph glyph-name="uni0145" unicode="&#x145;" horiz-adv-x="805" 
d="M238 0h-148v700h133l341 -450h4v450h147v-700h-132l-342 451h-3v-451zM413 -230h-105l48 150h127z" />
    <glyph glyph-name="uni0146" unicode="&#x146;" 
d="M65 0v485h135v-69h3q18 30 56.5 54.5t88.5 24.5q53 0 94 -25t64.5 -71.5t23.5 -110.5v-288h-135v270q0 45 -25 71.5t-65 26.5q-46 0 -75.5 -31.5t-29.5 -81.5v-255h-135zM293 -230h-105l48 150h127z" />
    <glyph glyph-name="Ncaron" unicode="&#x147;" horiz-adv-x="805" 
d="M238 0h-148v700h133l341 -450h4v450h147v-700h-132l-342 451h-3v-451zM466 785h-122l-124 150h125l59 -75h2l59 75h125z" />
    <glyph glyph-name="ncaron" unicode="&#x148;" 
d="M65 0v485h135v-69h3q18 30 56.5 54.5t88.5 24.5q53 0 94 -25t64.5 -71.5t23.5 -110.5v-288h-135v270q0 45 -25 71.5t-65 26.5q-46 0 -75.5 -31.5t-29.5 -81.5v-255h-135zM363 558h-122l-124 150h125l59 -75h2l59 75h125z" />
    <glyph glyph-name="napostrophe" unicode="&#x149;" 
d="M65 0v485h135v-69h3q18 30 56.5 54.5t88.5 24.5q53 0 94 -25t64.5 -71.5t23.5 -110.5v-288h-135v270q0 45 -25 71.5t-65 26.5q-46 0 -75.5 -31.5t-29.5 -81.5v-255h-135zM20 535h-105l28 180h127z" />
    <glyph glyph-name="Eng" unicode="&#x14a;" horiz-adv-x="805" 
d="M355.5 -218q-50.5 25 -74.5 57l90 97q15 -17 40 -29t56 -12q45 0 71.5 27.5t26.5 77.5v24l-325 429h-2v-453h-148v700h133l343 -453h2v453h147v-700q0 -72 -30 -127t-85 -85.5t-127 -30.5q-67 0 -117.5 25z" />
    <glyph glyph-name="eng" unicode="&#x14b;" 
d="M317.5 -205q-25.5 5 -37.5 10v125q26 -13 52 -13q30 0 46.5 17t16.5 46v290q0 45 -25 71.5t-65 26.5q-46 0 -75.5 -31.5t-29.5 -81.5v-255h-135v485h135v-69h3q18 30 56.5 54.5t88.5 24.5q53 0 94 -25t64.5 -71.5t23.5 -110.5v-323q0 -82 -43.5 -128.5t-120.5 -46.5
q-23 0 -48.5 5z" />
    <glyph glyph-name="Omacron" unicode="&#x14c;" horiz-adv-x="855" 
d="M234 34q-87 49 -136.5 132.5t-49.5 183.5t49.5 184t136.5 132.5t194 48.5t193.5 -48.5t136.5 -132.5t50 -184t-50 -183.5t-137 -132.5t-193 -49q-107 0 -194 49zM543 153q52 30 82 82t30 115t-30 115t-82 82.5t-115 30.5t-115.5 -30t-82.5 -82.5t-30 -115.5t30.5 -115
t82.5 -82t115 -30t115 30zM585 810h-315v100h315v-100z" />
    <glyph glyph-name="omacron" unicode="&#x14d;" 
d="M163.5 24q-59.5 34 -94 92t-34.5 127t34.5 127t94 91.5t131.5 33.5q73 0 132.5 -33.5t93.5 -91.5t34 -127t-34 -127t-93.5 -92t-132.5 -34q-72 0 -131.5 34zM382 152q36 37 36 91t-36 90.5t-87 36.5t-86.5 -36.5t-35.5 -90.5t35.5 -91t86.5 -37t87 37zM453 583h-315v100
h315v-100z" />
    <glyph glyph-name="Obreve" unicode="&#x14e;" horiz-adv-x="855" 
d="M234 34q-87 49 -136.5 132.5t-49.5 183.5t49.5 184t136.5 132.5t194 48.5t193.5 -48.5t136.5 -132.5t50 -184t-50 -183.5t-137 -132.5t-193 -49q-107 0 -194 49zM543 153q52 30 82 82t30 115t-30 115t-82 82.5t-115 30.5t-115.5 -30t-82.5 -82.5t-30 -115.5t30.5 -115
t82.5 -82t115 -30t115 30zM344 803q-37 20 -57.5 54.5t-20.5 77.5h99q0 -26 18 -43t45 -17q28 0 45.5 17t17.5 43h99q0 -66 -45 -109t-117 -43q-47 0 -84 20z" />
    <glyph glyph-name="obreve" unicode="&#x14f;" 
d="M163.5 24q-59.5 34 -94 92t-34.5 127t34.5 127t94 91.5t131.5 33.5q73 0 132.5 -33.5t93.5 -91.5t34 -127t-34 -127t-93.5 -92t-132.5 -34q-72 0 -131.5 34zM382 152q36 37 36 91t-36 90.5t-87 36.5t-86.5 -36.5t-35.5 -90.5t35.5 -91t86.5 -37t87 37zM178 599
q-45 43 -45 109h99q0 -27 18 -44t45 -17q28 0 45.5 17t17.5 44h99q0 -67 -45 -109.5t-117 -42.5t-117 43z" />
    <glyph glyph-name="Ohungarumlaut" unicode="&#x150;" horiz-adv-x="855" 
d="M234 34q-87 49 -136.5 132.5t-49.5 183.5t49.5 184t136.5 132.5t194 48.5t193.5 -48.5t136.5 -132.5t50 -184t-50 -183.5t-137 -132.5t-193 -49q-107 0 -194 49zM543 153q52 30 82 82t30 115t-30 115t-82 82.5t-115 30.5t-115.5 -30t-82.5 -82.5t-30 -115.5t30.5 -115
t82.5 -82t115 -30t115 30zM381 785h-100l83 150h132zM569 785h-100l82 150h133z" />
    <glyph glyph-name="ohungarumlaut" unicode="&#x151;" 
d="M163.5 24q-59.5 34 -94 92t-34.5 127t34.5 127t94 91.5t131.5 33.5q73 0 132.5 -33.5t93.5 -91.5t34 -127t-34 -127t-93.5 -92t-132.5 -34q-72 0 -131.5 34zM382 152q36 37 36 91t-36 90.5t-87 36.5t-86.5 -36.5t-35.5 -90.5t35.5 -91t86.5 -37t87 37zM249 558h-100
l83 150h132zM437 558h-100l82 150h133z" />
    <glyph glyph-name="OE" unicode="&#x152;" horiz-adv-x="1018" 
d="M420 0q-105 0 -190 47t-133.5 127.5t-48.5 175.5q0 96 48.5 176t133.5 127t190 47h538v-135h-330v-143h250v-130h-250v-157h340v-135h-548zM485 135v430h-65q-62 0 -112 -28t-79 -77t-29 -110t29 -110t79 -77t112 -28h65z" />
    <glyph glyph-name="oe" unicode="&#x153;" horiz-adv-x="930" 
d="M161.5 24q-58.5 34 -92.5 92t-34 127t34 127t92.5 91.5t128.5 33.5q63 0 113.5 -27t74.5 -62h4q25 35 72.5 62t105.5 27q67 0 121.5 -32t86.5 -87.5t32 -122.5q0 -28 -5 -53h-347q6 -37 41.5 -66t85.5 -29q38 0 70.5 15t53.5 35l70 -85q-26 -31 -82 -55.5t-122 -24.5
q-62 0 -110 27.5t-72 63.5h-5q-25 -35 -75 -63t-113 -28q-70 0 -128.5 34zM763 295q-10 39 -37.5 63.5t-67.5 24.5q-42 0 -70 -24t-40 -64h215zM373.5 151.5q34.5 36.5 34.5 91.5t-34 91t-84 36q-49 0 -83 -36t-34 -91q0 -56 34 -92t83 -36t83.5 36.5z" />
    <glyph glyph-name="Racute" unicode="&#x154;" horiz-adv-x="710" 
d="M668 0h-163l-129 240h-136v-240h-150v700h310q70 0 125.5 -30t86.5 -82.5t31 -117.5q0 -67 -33.5 -121t-91.5 -83zM240 565v-190h155q43 0 70.5 27t27.5 68t-27.5 68t-70.5 27h-155zM402 785h-112l80 150h145z" />
    <glyph glyph-name="racute" unicode="&#x155;" horiz-adv-x="383" 
d="M65 0v485h135v-60h3q18 27 54.5 48.5t82.5 21.5h23v-145q-24 8 -45 8q-52 0 -85 -35.5t-33 -94.5v-228h-135zM259 558h-112l80 150h145z" />
    <glyph glyph-name="uni0156" unicode="&#x156;" horiz-adv-x="710" 
d="M668 0h-163l-129 240h-136v-240h-150v700h310q70 0 125.5 -30t86.5 -82.5t31 -117.5q0 -67 -33.5 -121t-91.5 -83zM240 565v-190h155q43 0 70.5 27t27.5 68t-27.5 68t-70.5 27h-155zM365 -230h-105l48 150h127z" />
    <glyph glyph-name="uni0157" unicode="&#x157;" horiz-adv-x="383" 
d="M65 0v485h135v-60h3q18 27 54.5 48.5t82.5 21.5h23v-145q-24 8 -45 8q-52 0 -85 -35.5t-33 -94.5v-228h-135zM126 -230h-105l48 150h127z" />
    <glyph glyph-name="Rcaron" unicode="&#x158;" horiz-adv-x="710" 
d="M668 0h-163l-129 240h-136v-240h-150v700h310q70 0 125.5 -30t86.5 -82.5t31 -117.5q0 -67 -33.5 -121t-91.5 -83zM240 565v-190h155q43 0 70.5 27t27.5 68t-27.5 68t-70.5 27h-155zM416 785h-122l-124 150h125l59 -75h2l59 75h125z" />
    <glyph glyph-name="rcaron" unicode="&#x159;" horiz-adv-x="383" 
d="M65 0v485h135v-60h3q18 27 54.5 48.5t82.5 21.5h23v-145q-24 8 -45 8q-52 0 -85 -35.5t-33 -94.5v-228h-135zM273 558h-122l-124 150h125l59 -75h2l59 75h125z" />
    <glyph glyph-name="Sacute" unicode="&#x15a;" horiz-adv-x="607" 
d="M141 20.5q-71 35.5 -106 82.5l94 92q30 -32 71.5 -54.5t93.5 -22.5q53 0 83 24t30 57q0 34 -31 53t-97 41q-68 23 -111 44.5t-74 63.5t-31 109q0 58 32 105t89 73.5t128 26.5q80 0 143.5 -30.5t93.5 -68.5l-94 -92q-23 23 -58 41t-75 18q-49 0 -75.5 -21t-26.5 -51
q0 -34 31 -53t98 -41q68 -23 111 -44.5t74 -63.5t31 -109q0 -58 -32 -107.5t-91 -78.5t-137 -29q-93 0 -164 35.5zM356 785h-112l80 150h145z" />
    <glyph glyph-name="sacute" unicode="&#x15b;" horiz-adv-x="465" 
d="M113 17.5q-56 27.5 -85 62.5l77 80q20 -22 52 -39.5t69 -17.5q31 0 47.5 11.5t16.5 30.5q0 18 -19.5 28.5t-61.5 23.5q-49 16 -80.5 31t-55 44.5t-23.5 76.5q0 40 22.5 73.5t65 53t100.5 19.5q61 0 111 -21.5t76 -48.5l-77 -80q-16 15 -40.5 26.5t-54.5 11.5
q-28 0 -44 -10.5t-16 -25.5q0 -17 18.5 -27t61.5 -24q49 -16 81 -31.5t55.5 -45.5t23.5 -77q0 -42 -23 -76.5t-68 -55t-107 -20.5q-66 0 -122 27.5zM284 558h-112l80 150h145z" />
    <glyph glyph-name="Scircumflex" unicode="&#x15c;" horiz-adv-x="607" 
d="M141 20.5q-71 35.5 -106 82.5l94 92q30 -32 71.5 -54.5t93.5 -22.5q53 0 83 24t30 57q0 34 -31 53t-97 41q-68 23 -111 44.5t-74 63.5t-31 109q0 58 32 105t89 73.5t128 26.5q80 0 143.5 -30.5t93.5 -68.5l-94 -92q-23 23 -58 41t-75 18q-49 0 -75.5 -21t-26.5 -51
q0 -34 31 -53t98 -41q68 -23 111 -44.5t74 -63.5t31 -109q0 -58 -32 -107.5t-91 -78.5t-137 -29q-93 0 -164 35.5zM249 785h-125l124 150h122l124 -150h-125l-59 75h-2z" />
    <glyph glyph-name="scircumflex" unicode="&#x15d;" horiz-adv-x="465" 
d="M113 17.5q-56 27.5 -85 62.5l77 80q20 -22 52 -39.5t69 -17.5q31 0 47.5 11.5t16.5 30.5q0 18 -19.5 28.5t-61.5 23.5q-49 16 -80.5 31t-55 44.5t-23.5 76.5q0 40 22.5 73.5t65 53t100.5 19.5q61 0 111 -21.5t76 -48.5l-77 -80q-16 15 -40.5 26.5t-54.5 11.5
q-28 0 -44 -10.5t-16 -25.5q0 -17 18.5 -27t61.5 -24q49 -16 81 -31.5t55.5 -45.5t23.5 -77q0 -42 -23 -76.5t-68 -55t-107 -20.5q-66 0 -122 27.5zM178 558h-125l124 150h122l124 -150h-125l-59 75h-2z" />
    <glyph glyph-name="Scedilla" unicode="&#x15e;" horiz-adv-x="607" 
d="M538 100q-27 -46 -78 -76.5t-119 -36.5l-17 -34q42 -4 70.5 -29t28.5 -64q0 -41 -33 -69.5t-87 -28.5q-37 0 -66.5 12t-46.5 28l37 59q12 -11 30 -18t37 -7t30 7.5t11 21.5t-10.5 22t-25.5 8q-7 0 -15 -2t-12 -4l-33 32l30 66q-81 7 -142 40.5t-92 75.5l94 92
q30 -32 71.5 -54.5t93.5 -22.5q53 0 83 24t30 57q0 34 -31 53t-97 41q-68 23 -111 44.5t-74 63.5t-31 109q0 58 32 105t89 73.5t128 26.5q80 0 143.5 -30.5t93.5 -68.5l-94 -92q-23 23 -58 41t-75 18q-49 0 -75.5 -21t-26.5 -51q0 -34 31 -53t98 -41q68 -23 111 -44.5
t74 -63.5t31 -109q0 -54 -27 -100z" />
    <glyph glyph-name="scedilla" unicode="&#x15f;" horiz-adv-x="465" 
d="M388.5 41.5q-44.5 -42.5 -122.5 -50.5l-20 -38q42 -4 70.5 -29t28.5 -64q0 -41 -33 -69.5t-87 -28.5q-37 0 -66.5 12t-46.5 28l37 59q12 -11 30 -18t37 -7t30 7.5t11 21.5t-10.5 22t-25.5 8q-7 0 -15 -2t-12 -4l-33 32l33 72q-53 8 -97.5 33.5t-68.5 53.5l77 80
q20 -22 52 -39.5t69 -17.5q31 0 47.5 11.5t16.5 30.5q0 18 -19.5 28.5t-61.5 23.5q-49 16 -80.5 31t-55 44.5t-23.5 76.5q0 40 22.5 73.5t65 53t100.5 19.5q61 0 111 -21.5t76 -48.5l-77 -80q-16 15 -40.5 26.5t-54.5 11.5q-28 0 -44 -10.5t-16 -25.5q0 -17 18.5 -27
t61.5 -24q49 -16 81 -31.5t55.5 -45.5t23.5 -77q0 -58 -44.5 -100.5z" />
    <glyph glyph-name="Scaron" unicode="&#x160;" horiz-adv-x="607" 
d="M141 20.5q-71 35.5 -106 82.5l94 92q30 -32 71.5 -54.5t93.5 -22.5q53 0 83 24t30 57q0 34 -31 53t-97 41q-68 23 -111 44.5t-74 63.5t-31 109q0 58 32 105t89 73.5t128 26.5q80 0 143.5 -30.5t93.5 -68.5l-94 -92q-23 23 -58 41t-75 18q-49 0 -75.5 -21t-26.5 -51
q0 -34 31 -53t98 -41q68 -23 111 -44.5t74 -63.5t31 -109q0 -58 -32 -107.5t-91 -78.5t-137 -29q-93 0 -164 35.5zM370 785h-122l-124 150h125l59 -75h2l59 75h125z" />
    <glyph glyph-name="scaron" unicode="&#x161;" horiz-adv-x="465" 
d="M113 17.5q-56 27.5 -85 62.5l77 80q20 -22 52 -39.5t69 -17.5q31 0 47.5 11.5t16.5 30.5q0 18 -19.5 28.5t-61.5 23.5q-49 16 -80.5 31t-55 44.5t-23.5 76.5q0 40 22.5 73.5t65 53t100.5 19.5q61 0 111 -21.5t76 -48.5l-77 -80q-16 15 -40.5 26.5t-54.5 11.5
q-28 0 -44 -10.5t-16 -25.5q0 -17 18.5 -27t61.5 -24q49 -16 81 -31.5t55.5 -45.5t23.5 -77q0 -42 -23 -76.5t-68 -55t-107 -20.5q-66 0 -122 27.5zM299 558h-122l-124 150h125l59 -75h2l59 75h125z" />
    <glyph glyph-name="uni0162" unicode="&#x162;" horiz-adv-x="595" 
d="M373 0h-36l-24 -47q42 -4 70.5 -29t28.5 -64q0 -41 -33 -69.5t-87 -28.5q-37 0 -66.5 12t-46.5 28l37 59q12 -11 30 -18t37 -7t30 7.5t11 21.5t-10.5 22t-25.5 8q-7 0 -15 -2t-12 -4l-33 32l36 79h-41v560h-203v140h555v-140h-202v-560z" />
    <glyph glyph-name="uni0163" unicode="&#x163;" horiz-adv-x="395" 
d="M355 10q-15 -6 -38 -10.5t-47 -4.5l-22 -42q42 -4 70.5 -29t28.5 -64q0 -41 -33 -69.5t-87 -28.5q-37 0 -66.5 12t-46.5 28l37 59q12 -11 30 -18t37 -7t30 7.5t11 21.5t-10.5 22t-25.5 8q-7 0 -15 -2t-12 -4l-33 32l39 85q-46 18 -71.5 59.5t-25.5 104.5v190h-80v125h43
q24 0 38 15t14 43v97h120v-155h105v-125h-105v-170q0 -33 16.5 -50t46.5 -17q28 0 52 12v-125z" />
    <glyph glyph-name="Tcaron" unicode="&#x164;" horiz-adv-x="595" 
d="M373 0h-150v560h-203v140h555v-140h-202v-560zM359 785h-122l-124 150h125l59 -75h2l59 75h125z" />
    <glyph glyph-name="tcaron" unicode="&#x165;" horiz-adv-x="395" 
d="M148.5 41q-43.5 46 -43.5 129v190h-80v125h43q24 0 38 15t14 43v97h120v-155h105v-125h-105v-170q0 -33 16.5 -50t46.5 -17q28 0 52 12v-125q-15 -6 -39 -10.5t-48 -4.5q-76 0 -119.5 46zM410 535h-105l28 180h127z" />
    <glyph glyph-name="Tbar" unicode="&#x166;" horiz-adv-x="595" 
d="M575 700v-140h-202v-192h140v-78h-140v-290h-150v290h-140v78h140v192h-203v140h555z" />
    <glyph glyph-name="tbar" unicode="&#x167;" horiz-adv-x="395" 
d="M355 135v-125q-15 -6 -39 -10.5t-48 -4.5q-76 0 -119.5 46t-43.5 129v50h-80v78h80v65h-80v122h43q24 0 38 15t14 43v97h120v-155h105v-122h-105v-65h103v-78h-103v-30q0 -33 16.5 -50t46.5 -17q28 0 52 12z" />
    <glyph glyph-name="Utilde" unicode="&#x168;" horiz-adv-x="775" 
d="M228 23.5q-70 38.5 -109 106.5t-39 155v415h150v-415q0 -47 20.5 -84t56.5 -57.5t81 -20.5q43 0 79 21.5t57 58.5t21 82v415h150v-415q0 -87 -39 -155t-108.5 -106.5t-159.5 -38.5t-160 38.5zM211 805q0 64 28 97.5t75 33.5q23 0 40 -8t40 -23q15 -11 25.5 -16t21.5 -5
q38 0 38 52h86v-22q0 -64 -28 -97.5t-75 -33.5q-23 0 -40 8t-40 23q-15 11 -25.5 16t-21.5 5q-37 0 -37 -52h-87v22z" />
    <glyph glyph-name="utilde" unicode="&#x169;" 
d="M148.5 15q-41.5 25 -65 72t-23.5 111v287h135v-270q0 -44 25 -70.5t65 -26.5q46 0 75.5 31t29.5 81v255h135v-485h-135v69h-3q-17 -30 -56 -54.5t-88 -24.5q-53 0 -94.5 25zM116 576q0 65 28 98.5t75 33.5q23 0 40 -8t40 -23q15 -11 25.5 -16t21.5 -5q38 0 38 52h86v-22
q0 -64 -28 -98t-75 -34q-23 0 -40 8t-40 23q-15 11 -25.5 16t-21.5 5q-37 0 -37 -52h-87v22z" />
    <glyph glyph-name="Umacron" unicode="&#x16a;" horiz-adv-x="775" 
d="M228 23.5q-70 38.5 -109 106.5t-39 155v415h150v-415q0 -47 20.5 -84t56.5 -57.5t81 -20.5q43 0 79 21.5t57 58.5t21 82v415h150v-415q0 -87 -39 -155t-108.5 -106.5t-159.5 -38.5t-160 38.5zM545 810h-315v100h315v-100z" />
    <glyph glyph-name="umacron" unicode="&#x16b;" 
d="M148.5 15q-41.5 25 -65 72t-23.5 111v287h135v-270q0 -44 25 -70.5t65 -26.5q46 0 75.5 31t29.5 81v255h135v-485h-135v69h-3q-17 -30 -56 -54.5t-88 -24.5q-53 0 -94.5 25zM450 583h-315v100h315v-100z" />
    <glyph glyph-name="Ubreve" unicode="&#x16c;" horiz-adv-x="775" 
d="M228 23.5q-70 38.5 -109 106.5t-39 155v415h150v-415q0 -47 20.5 -84t56.5 -57.5t81 -20.5q43 0 79 21.5t57 58.5t21 82v415h150v-415q0 -87 -39 -155t-108.5 -106.5t-159.5 -38.5t-160 38.5zM304 803q-37 20 -57.5 54.5t-20.5 77.5h99q0 -26 18 -43t45 -17q28 0 45.5 17
t17.5 43h99q0 -66 -45 -109t-117 -43q-47 0 -84 20z" />
    <glyph glyph-name="ubreve" unicode="&#x16d;" 
d="M148.5 15q-41.5 25 -65 72t-23.5 111v287h135v-270q0 -44 25 -70.5t65 -26.5q46 0 75.5 31t29.5 81v255h135v-485h-135v69h-3q-17 -30 -56 -54.5t-88 -24.5q-53 0 -94.5 25zM176 599q-45 43 -45 109h99q0 -27 18 -44t45 -17q28 0 45.5 17t17.5 44h99q0 -67 -45 -109.5
t-117 -42.5t-117 43z" />
    <glyph glyph-name="Uring" unicode="&#x16e;" horiz-adv-x="775" 
d="M228 23.5q-70 38.5 -109 106.5t-39 155v415h150v-415q0 -47 20.5 -84t56.5 -57.5t81 -20.5q43 0 79 21.5t57 58.5t21 82v415h150v-415q0 -87 -39 -155t-108.5 -106.5t-159.5 -38.5t-160 38.5zM304 762q-34 32 -34 78t34 78t84 32t83.5 -32t33.5 -78t-33.5 -78t-83.5 -32
t-84 32zM417.5 810q12.5 12 12.5 30t-12.5 30.5t-29.5 12.5q-18 0 -30.5 -12.5t-12.5 -30.5t12.5 -30t30.5 -12q17 0 29.5 12z" />
    <glyph glyph-name="uring" unicode="&#x16f;" 
d="M148.5 15q-41.5 25 -65 72t-23.5 111v287h135v-270q0 -44 25 -70.5t65 -26.5q46 0 75.5 31t29.5 81v255h135v-485h-135v69h-3q-17 -30 -56 -54.5t-88 -24.5q-53 0 -94.5 25zM209 560q-34 32 -34 78t34 78t84 32t83.5 -32t33.5 -78t-33.5 -78t-83.5 -32t-84 32z
M322.5 607.5q12.5 12.5 12.5 30.5t-12.5 30t-29.5 12q-18 0 -30.5 -12t-12.5 -30t12.5 -30.5t30.5 -12.5q17 0 29.5 12.5z" />
    <glyph glyph-name="Uhungarumlaut" unicode="&#x170;" horiz-adv-x="775" 
d="M228 23.5q-70 38.5 -109 106.5t-39 155v415h150v-415q0 -47 20.5 -84t56.5 -57.5t81 -20.5q43 0 79 21.5t57 58.5t21 82v415h150v-415q0 -87 -39 -155t-108.5 -106.5t-159.5 -38.5t-160 38.5zM341 785h-100l83 150h132zM529 785h-100l82 150h133z" />
    <glyph glyph-name="uhungarumlaut" unicode="&#x171;" 
d="M148.5 15q-41.5 25 -65 72t-23.5 111v287h135v-270q0 -44 25 -70.5t65 -26.5q46 0 75.5 31t29.5 81v255h135v-485h-135v69h-3q-17 -30 -56 -54.5t-88 -24.5q-53 0 -94.5 25zM246 558h-100l83 150h132zM434 558h-100l82 150h133z" />
    <glyph glyph-name="Uogonek" unicode="&#x172;" horiz-adv-x="775" 
d="M545 700h150v-415q0 -80 -31 -141t-89 -103q-103 -76 -103 -138q0 -23 13.5 -35t36.5 -12q26 0 47 10v-80q-28 -14 -74 -14q-50 0 -82.5 29.5t-32.5 74.5q0 61 58 112q-22 -3 -50 -3q-90 0 -160 38.5t-109 106.5t-39 155v415h150v-415q0 -47 20.5 -84t56.5 -57.5
t81 -20.5q43 0 79 21.5t57 58.5t21 82v415z" />
    <glyph glyph-name="uogonek" unicode="&#x173;" 
d="M525 0q-96 -51 -96 -104q0 -18 13.5 -29t34.5 -11q27 0 48 10v-80q-28 -14 -74 -14q-50 0 -82.5 29.5t-32.5 73.5q0 35 24 68.5t68 56.5h-38v69h-3q-17 -30 -56 -54.5t-88 -24.5q-53 0 -94.5 25t-65 72t-23.5 111v287h135v-270q0 -44 25 -70.5t65 -26.5q46 0 75.5 31
t29.5 81v255h135v-485z" />
    <glyph glyph-name="Wcircumflex" unicode="&#x174;" horiz-adv-x="1065" 
d="M382 0h-137l-230 700h159l143 -471h3l148 471h133l148 -471h4l142 471h155l-230 -700h-137l-149 473h-3zM473 785h-125l124 150h122l124 -150h-125l-59 75h-2z" />
    <glyph glyph-name="wcircumflex" unicode="&#x175;" horiz-adv-x="780" 
d="M291 0h-116l-170 485h144l92 -291h3l96 291h105l96 -291h3l92 291h139l-170 -485h-116l-97 297h-3zM331 558h-125l124 150h122l124 -150h-125l-59 75h-2z" />
    <glyph glyph-name="Ycircumflex" unicode="&#x176;" horiz-adv-x="675" 
d="M413 0h-150v245l-258 455h171l162 -300h4l159 300h169l-257 -455v-245zM279 785h-125l124 150h122l124 -150h-125l-59 75h-2z" />
    <glyph glyph-name="ycircumflex" unicode="&#x177;" horiz-adv-x="533" 
d="M384 485h139l-188 -525q-31 -88 -77 -129t-115 -41q-24 0 -46.5 4.5t-36.5 10.5v125q10 -5 25 -9.5t30 -4.5q31 0 51.5 15t31.5 39l15 33l-208 482h147l128 -321h3zM208 558h-125l124 150h122l124 -150h-125l-59 75h-2z" />
    <glyph glyph-name="Ydieresis" unicode="&#x178;" horiz-adv-x="675" 
d="M413 0h-150v245l-258 455h171l162 -300h4l159 300h169l-257 -455v-245zM181 809q-22 21 -22 51t22 51.5t51 21.5q28 0 50 -21.5t22 -51.5q0 -29 -22 -50.5t-50 -21.5q-29 0 -51 21zM396 809q-22 21 -22 51t22 51.5t51 21.5q28 0 50 -21.5t22 -51.5q0 -29 -22 -50.5
t-50 -21.5q-29 0 -51 21z" />
    <glyph glyph-name="Zacute" unicode="&#x179;" horiz-adv-x="640" 
d="M598 0h-550v143l352 415h-337v142h525v-142l-353 -415h363v-143zM369 785h-112l80 150h145z" />
    <glyph glyph-name="zacute" unicode="&#x17a;" horiz-adv-x="498" 
d="M463 0h-423v128l247 240h-237v117h403v-127l-247 -240h257v-118zM297 558h-112l80 150h145z" />
    <glyph glyph-name="Zdotaccent" unicode="&#x17b;" horiz-adv-x="640" 
d="M598 0h-550v143l352 415h-337v142h525v-142l-353 -415h363v-143zM268 807q-23 22 -23 53q0 32 22.5 53.5t55.5 21.5q32 0 54.5 -21.5t22.5 -53.5q0 -31 -22.5 -53t-54.5 -22t-55 22z" />
    <glyph glyph-name="zdotaccent" unicode="&#x17c;" horiz-adv-x="498" 
d="M463 0h-423v128l247 240h-237v117h403v-127l-247 -240h257v-118zM195.5 579.5q-22.5 21.5 -22.5 53.5q0 31 23 53t55 22t54.5 -22t22.5 -53q0 -32 -22.5 -53.5t-54.5 -21.5q-33 0 -55.5 21.5z" />
    <glyph glyph-name="Zcaron" unicode="&#x17d;" horiz-adv-x="640" 
d="M598 0h-550v143l352 415h-337v142h525v-142l-353 -415h363v-143zM383 785h-122l-124 150h125l59 -75h2l59 75h125z" />
    <glyph glyph-name="zcaron" unicode="&#x17e;" horiz-adv-x="498" 
d="M463 0h-423v128l247 240h-237v117h403v-127l-247 -240h257v-118zM312 558h-122l-124 150h125l59 -75h2l59 75h125z" />
    <glyph glyph-name="uni018F" unicode="&#x18f;" horiz-adv-x="808" 
d="M221 32.5q-82 47.5 -129 131t-47 186.5v38h560q-5 54 -33.5 97.5t-75 68t-103.5 24.5q-62 0 -112.5 -23t-83.5 -53l-97 93q47 51 123.5 85.5t169.5 34.5q105 0 188.5 -47.5t131 -130.5t47.5 -187q0 -103 -47 -186.5t-128.5 -131t-181.5 -47.5t-182 47.5zM495.5 145.5
q42.5 22.5 69 59.5t32.5 78h-389q6 -41 32.5 -78t69.5 -59.5t93 -22.5t92.5 22.5z" />
    <glyph glyph-name="florin" unicode="&#x192;" horiz-adv-x="475" 
d="M332 531l-22 -111h99v-115h-121l-67 -343q-18 -90 -60.5 -130t-120.5 -40q-22 0 -44 4.5t-36 10.5v118q27 -10 53 -10q61 0 73 63l64 327h-65v115h88l24 125q18 90 60.5 130t120.5 40q22 0 44 -4.5t36 -10.5v-117q-28 10 -53 10q-61 0 -73 -62z" />
    <glyph glyph-name="Ohorn" unicode="&#x1a0;" horiz-adv-x="855" 
d="M775.5 500.5q32.5 -70.5 32.5 -150.5q0 -100 -50 -183.5t-137 -132.5t-193 -49q-107 0 -194 49t-136.5 132.5t-49.5 183.5t49.5 184t136.5 132.5t194 48.5q79 0 147 -27h30q53 0 53 52q0 30 -14 70h97q14 -40 14 -75q0 -41 -17.5 -70.5t-51.5 -43.5q57 -50 89.5 -120.5z
M543 153q52 30 82 82t30 115t-30 115t-82 82.5t-115 30.5t-115.5 -30t-82.5 -82.5t-30 -115.5t30.5 -115t82.5 -82t115 -30t115 30z" />
    <glyph glyph-name="ohorn" unicode="&#x1a1;" 
d="M545 450q-18 -29 -51 -43q29 -33 45 -75t16 -89q0 -69 -34 -127t-93.5 -92t-132.5 -34q-72 0 -131.5 34t-94 92t-34.5 127t34.5 127t94 91.5t131.5 33.5q58 0 108 -22h11q24 0 38 13.5t14 38.5t-15 70h97q15 -40 15 -74q0 -42 -18 -71zM382 152q36 37 36 91t-36 90.5
t-87 36.5t-86.5 -36.5t-35.5 -90.5t35.5 -91t86.5 -37t87 37z" />
    <glyph glyph-name="Uhorn" unicode="&#x1af;" horiz-adv-x="790" 
d="M778 657q-30 -34 -83 -37v-335q0 -87 -39 -155t-108.5 -106.5t-159.5 -38.5t-160 38.5t-109 106.5t-39 155v415h150v-415q0 -47 20.5 -84t56.5 -57.5t81 -20.5q43 0 79 21.5t57 58.5t21 82v415h122q23 0 34.5 13.5t11.5 37.5t-15 69h95q15 -42 15 -73q0 -56 -30 -90z" />
    <glyph glyph-name="uhorn" unicode="&#x1b0;" horiz-adv-x="615" 
d="M600.5 446.5q-27.5 -34.5 -75.5 -40.5v-406h-135v69h-3q-17 -30 -56 -54.5t-88 -24.5q-53 0 -94.5 25t-65 72t-23.5 111v287h135v-270q0 -44 25 -70.5t65 -26.5q46 0 75.5 31t29.5 81v255h96q22 0 33.5 13.5t11.5 37.5t-15 69h97q15 -36 15 -73q0 -51 -27.5 -85.5z" />
    <glyph glyph-name="uni01F4" unicode="&#x1f4;" horiz-adv-x="793" 
d="M234 34q-87 49 -136.5 132.5t-49.5 183.5t49.5 184t136.5 132.5t194 48.5q101 0 177 -40t123 -95l-101 -90q-39 39 -85.5 63.5t-113.5 24.5q-63 0 -115.5 -30t-82.5 -82.5t-30 -115.5t30.5 -115t82.5 -82t115 -30q51 0 95 18t65 39v83h-143v117h290v-259q-25 -32 -70 -63
t-107 -52t-130 -21q-107 0 -194 49zM475 785h-112l80 150h145z" />
    <glyph glyph-name="uni01F5" unicode="&#x1f5;" horiz-adv-x="598" 
d="M136 -179q-60 31 -86 69l85 85q18 -24 53.5 -43.5t76.5 -19.5q60 0 96.5 37.5t36.5 98.5v44h-3q-18 -29 -58 -53t-92 -24q-56 0 -104 30.5t-77 85.5t-29 124t29 124t77 85.5t104 30.5q52 0 92 -23.5t58 -52.5h3v66h135v-437q0 -72 -34 -131t-94 -93t-135 -34
q-74 0 -134 31zM365.5 171.5q32.5 33.5 32.5 83.5q0 51 -32.5 84.5t-80.5 33.5q-47 0 -79.5 -33.5t-32.5 -84.5q0 -50 32.5 -83.5t79.5 -33.5q48 0 80.5 33.5zM342 558h-112l80 150h145z" />
    <glyph glyph-name="Aringacute" unicode="&#x1fa;" horiz-adv-x="730" 
d="M377 1005h135l-90 -117h-113zM720 0h-159l-59 158h-277l-58 -158h-157l271 696q-29 29 -29 70q0 44 32 74t82 30t81.5 -30t31.5 -74q0 -41 -29 -70zM335.5 793.5q-12.5 -11.5 -12.5 -29.5t12.5 -30t30.5 -12q17 0 29.5 12t12.5 30t-12.5 29.5t-29.5 11.5
q-18 0 -30.5 -11.5zM362 547l-93 -262h189l-93 262h-3z" />
    <glyph glyph-name="aringacute" unicode="&#x1fb;" horiz-adv-x="533" 
d="M288 853h134l-90 -116h-113zM385 461.5q42 -26.5 65 -67.5t23 -89v-305h-128v67h-3q-18 -29 -57 -53t-89 -24q-46 0 -82.5 19t-57.5 51.5t-21 69.5q0 62 39 102t111 54l153 29q-2 29 -25.5 49.5t-59.5 20.5q-62 0 -113 -57l-77 74q31 37 80 64.5t110 28.5q-42 7 -68.5 37
t-26.5 70q0 46 34 78t84 32t83.5 -32t33.5 -78q0 -42 -29.5 -73t-75.5 -35q55 -6 97 -32.5zM245.5 572q12.5 -12 30.5 -12q17 0 29.5 12t12.5 30t-12.5 30.5t-29.5 12.5q-18 0 -30.5 -12.5t-12.5 -30.5t12.5 -30zM308.5 129q29.5 31 29.5 81v16l-105 -21q-28 -5 -44 -20.5
t-16 -34.5q0 -23 16.5 -37.5t45.5 -14.5q44 0 73.5 31z" />
    <glyph glyph-name="AEacute" unicode="&#x1fc;" horiz-adv-x="1033" 
d="M160 0h-160l390 700h583v-135h-330v-143h250v-130h-250v-157h340v-135h-483v173h-244zM477 570l-150 -270h173v270h-23zM643 785h-112l80 150h145z" />
    <glyph glyph-name="aeacute" unicode="&#x1fd;" horiz-adv-x="863" 
d="M828 200h-340q5 -38 40 -66.5t83 -28.5q37 0 68.5 14.5t52.5 35.5l70 -85q-28 -30 -83.5 -55t-120.5 -25q-64 0 -113 28.5t-73 65.5h-5q-25 -36 -75.5 -65t-113.5 -29q-86 0 -134.5 40.5t-48.5 102.5q0 63 47 105.5t134 49.5l129 15q0 37 -24 59.5t-65 22.5
q-37 0 -67 -16.5t-49 -40.5l-77 74q31 38 81 65.5t111 27.5q54 0 97 -24t63 -55h5q24 31 70 55t103 24q67 0 121.5 -32t86.5 -87.5t32 -122.5q0 -28 -5 -53zM698 293q-9 40 -36 65t-67 25q-41 0 -69.5 -25t-38.5 -65h211zM314 129q31 31 31 78v7l-94 -9q-39 -1 -58.5 -16.5
t-19.5 -38.5t17 -37.5t48 -14.5q45 0 76 31zM464 558h-112l80 150h145z" />
    <glyph glyph-name="Oslashacute" unicode="&#x1fe;" horiz-adv-x="855" 
d="M722 584q41 -48 63.5 -108t22.5 -126q0 -100 -50 -183.5t-137 -132.5t-193 -49q-67 0 -127.5 20t-109.5 57l-80 -78l-56 55l79 77q-41 48 -63.5 108t-22.5 126q0 100 49.5 184t136.5 132.5t194 48.5q68 0 128.5 -20.5t109.5 -57.5l79 78l56 -54zM240 220l322 315
q-61 43 -134 43q-63 0 -115.5 -30t-82.5 -82.5t-30 -115.5q0 -71 40 -130zM543 153q52 30 82 82t30 115q0 73 -39 129l-321 -314q58 -42 133 -42q63 0 115 30zM475 785h-112l80 150h145z" />
    <glyph glyph-name="oslashacute" unicode="&#x1ff;" 
d="M497 403q28 -33 43 -74t15 -86q0 -69 -34 -127t-93.5 -92t-132.5 -34q-84 0 -151 46l-54 -57l-49 47l53 55q-59 70 -59 162q0 69 34.5 127t94 91.5t131.5 33.5q85 0 152 -46l54 56l49 -47zM189 180l167 174q-29 16 -61 16q-51 0 -86.5 -36.5t-35.5 -90.5q0 -34 16 -63z
M382 152q36 37 36 91q0 35 -15 62l-167 -174q27 -16 59 -16q51 0 87 37zM342 558h-112l80 150h145z" />
    <glyph glyph-name="uni0218" unicode="&#x218;" horiz-adv-x="607" 
d="M141 20.5q-71 35.5 -106 82.5l94 92q30 -32 71.5 -54.5t93.5 -22.5q53 0 83 24t30 57q0 34 -31 53t-97 41q-68 23 -111 44.5t-74 63.5t-31 109q0 58 32 105t89 73.5t128 26.5q80 0 143.5 -30.5t93.5 -68.5l-94 -92q-23 23 -58 41t-75 18q-49 0 -75.5 -21t-26.5 -51
q0 -34 31 -53t98 -41q68 -23 111 -44.5t74 -63.5t31 -109q0 -58 -32 -107.5t-91 -78.5t-137 -29q-93 0 -164 35.5zM302 -230h-105l48 150h127z" />
    <glyph glyph-name="uni0219" unicode="&#x219;" horiz-adv-x="465" 
d="M113 17.5q-56 27.5 -85 62.5l77 80q20 -22 52 -39.5t69 -17.5q31 0 47.5 11.5t16.5 30.5q0 18 -19.5 28.5t-61.5 23.5q-49 16 -80.5 31t-55 44.5t-23.5 76.5q0 40 22.5 73.5t65 53t100.5 19.5q61 0 111 -21.5t76 -48.5l-77 -80q-16 15 -40.5 26.5t-54.5 11.5
q-28 0 -44 -10.5t-16 -25.5q0 -17 18.5 -27t61.5 -24q49 -16 81 -31.5t55.5 -45.5t23.5 -77q0 -42 -23 -76.5t-68 -55t-107 -20.5q-66 0 -122 27.5zM224 -230h-105l48 150h127z" />
    <glyph glyph-name="uni021A" unicode="&#x21a;" horiz-adv-x="595" 
d="M373 0h-150v560h-203v140h555v-140h-202v-560zM291 -230h-105l48 150h127z" />
    <glyph glyph-name="uni021B" unicode="&#x21b;" horiz-adv-x="395" 
d="M148.5 41q-43.5 46 -43.5 129v190h-80v125h43q24 0 38 15t14 43v97h120v-155h105v-125h-105v-170q0 -33 16.5 -50t46.5 -17q28 0 52 12v-125q-15 -6 -39 -10.5t-48 -4.5q-76 0 -119.5 46zM226 -230h-105l48 150h127z" />
    <glyph glyph-name="uni0232" unicode="&#x232;" horiz-adv-x="675" 
d="M413 0h-150v245l-258 455h171l162 -300h4l159 300h169l-257 -455v-245zM497 810h-315v100h315v-100z" />
    <glyph glyph-name="uni0233" unicode="&#x233;" horiz-adv-x="533" 
d="M384 485h139l-188 -525q-31 -88 -77 -129t-115 -41q-24 0 -46.5 4.5t-36.5 10.5v125q10 -5 25 -9.5t30 -4.5q31 0 51.5 15t31.5 39l15 33l-208 482h147l128 -321h3zM425 583h-315v100h315v-100z" />
    <glyph glyph-name="uni0237" unicode="&#x237;" horiz-adv-x="280" 
d="M-45 -195v125q31 -13 55 -13q31 0 48 17.5t17 50.5v500h135v-520q0 -84 -44.5 -129.5t-122.5 -45.5q-45 0 -88 15z" />
    <glyph glyph-name="uni0244" unicode="&#x244;" horiz-adv-x="815" 
d="M794 456v-78h-79v-93q0 -87 -39 -155t-108.5 -106.5t-159.5 -38.5t-160 38.5t-109 106.5t-39 155v93h-79v78h79v244h150v-244h315v244h150v-244h79zM565 378h-315v-93q0 -47 20.5 -84t56.5 -57.5t81 -20.5q43 0 79 21.5t57 58.5t21 82v93z" />
    <glyph glyph-name="uni0259" unicode="&#x259;" horiz-adv-x="568" 
d="M155 22q-56 32 -88 87.5t-32 123.5q0 27 5 52h353q-6 39 -41 67t-88 28q-39 0 -66 -12.5t-56 -35.5l-75 80q37 36 89 59.5t117 23.5q75 0 134.5 -33.5t92.5 -91t33 -127.5q0 -69 -34 -127t-92 -92t-127 -34t-125 32zM353 127.5q29 24.5 41 65.5h-222q9 -40 37.5 -65
t70.5 -25q44 0 73 24.5z" />
    <glyph glyph-name="uni0289" unicode="&#x289;" horiz-adv-x="615" 
d="M600 334v-78h-60v-256h-135v69h-3q-17 -30 -56 -54.5t-88 -24.5q-53 0 -94.5 25t-65 72t-23.5 111v58h-60v78h60v151h135v-151h195v151h135v-151h60zM405 256h-195v-41q0 -44 25 -70.5t65 -26.5q46 0 75.5 31t29.5 81v26z" />
    <glyph glyph-name="uni02BC" unicode="&#x2bc;" horiz-adv-x="253" 
d="M235 658l-132 -208l-85 45l105 225z" />
    <glyph glyph-name="circumflex" unicode="&#x2c6;" horiz-adv-x="430" 
d="M155 558h-125l124 150h122l124 -150h-125l-59 75h-2z" />
    <glyph glyph-name="caron" unicode="&#x2c7;" horiz-adv-x="430" 
d="M276 558h-122l-124 150h125l59 -75h2l59 75h125z" />
    <glyph glyph-name="breve" unicode="&#x2d8;" horiz-adv-x="384" 
d="M75 599q-45 43 -45 109h99q0 -27 18 -44t45 -17q28 0 45.5 17t17.5 44h99q0 -67 -45 -109.5t-117 -42.5t-117 43z" />
    <glyph glyph-name="dotaccent" unicode="&#x2d9;" horiz-adv-x="215" 
d="M52.5 579.5q-22.5 21.5 -22.5 53.5q0 31 23 53t55 22t54.5 -22t22.5 -53q0 -32 -22.5 -53.5t-54.5 -21.5q-33 0 -55.5 21.5z" />
    <glyph glyph-name="ring" unicode="&#x2da;" horiz-adv-x="295" 
d="M64 560q-34 32 -34 78t34 78t84 32t83.5 -32t33.5 -78t-33.5 -78t-83.5 -32t-84 32zM177.5 607.5q12.5 12.5 12.5 30.5t-12.5 30t-29.5 12q-18 0 -30.5 -12t-12.5 -30t12.5 -30.5t30.5 -12.5q17 0 29.5 12.5z" />
    <glyph glyph-name="ogonek" unicode="&#x2db;" horiz-adv-x="249" 
d="M62.5 -198.5q-32.5 29.5 -32.5 73.5q0 39 30 76.5t85 58.5l74 -10q-96 -51 -96 -104q0 -18 13.5 -29t34.5 -11q27 0 48 10v-80q-28 -14 -74 -14q-50 0 -82.5 29.5z" />
    <glyph glyph-name="tilde" unicode="&#x2dc;" horiz-adv-x="414" 
d="M30 576q0 65 28 98.5t75 33.5q23 0 40 -8t40 -23q15 -11 25.5 -16t21.5 -5q38 0 38 52h86v-22q0 -64 -28 -98t-75 -34q-23 0 -40 8t-40 23q-15 11 -25.5 16t-21.5 5q-37 0 -37 -52h-87v22z" />
    <glyph glyph-name="hungarumlaut" unicode="&#x2dd;" horiz-adv-x="463" 
d="M130 558h-100l83 150h132zM318 558h-100l82 150h133z" />
    <glyph glyph-name="gravecomb" unicode="&#x300;" horiz-adv-x="0" 
d="M-30 558h-112l-113 150h145z" />
    <glyph glyph-name="acutecomb" unicode="&#x301;" horiz-adv-x="0" 
d="M-143 558h-112l80 150h145z" />
    <glyph glyph-name="uni0302" unicode="&#x302;" horiz-adv-x="0" 
d="M-275 558h-125l124 150h122l124 -150h-125l-59 75h-2z" />
    <glyph glyph-name="tildecomb" unicode="&#x303;" horiz-adv-x="0" 
d="M-384 576q0 65 28 98.5t75 33.5q23 0 40 -8t40 -23q15 -11 25.5 -16t21.5 -5q38 0 38 52h86v-22q0 -64 -28 -98t-75 -34q-23 0 -40 8t-40 23q-15 11 -25.5 16t-21.5 5q-37 0 -37 -52h-87v22z" />
    <glyph glyph-name="uni0304" unicode="&#x304;" horiz-adv-x="0" 
d="M-30 583h-315v100h315v-100z" />
    <glyph glyph-name="uni0306" unicode="&#x306;" horiz-adv-x="0" 
d="M-309 599q-45 43 -45 109h99q0 -27 18 -44t45 -17q28 0 45.5 17t17.5 44h99q0 -67 -45 -109.5t-117 -42.5t-117 43z" />
    <glyph glyph-name="uni0307" unicode="&#x307;" horiz-adv-x="0" 
d="M-162.5 579.5q-22.5 21.5 -22.5 53.5q0 31 23 53t55 22t54.5 -22t22.5 -53q0 -32 -22.5 -53.5t-54.5 -21.5q-33 0 -55.5 21.5z" />
    <glyph glyph-name="uni0308" unicode="&#x308;" horiz-adv-x="0" 
d="M-368 581.5q-22 21.5 -22 51.5t22 51t51 21q28 0 50 -21.5t22 -50.5q0 -30 -22 -51.5t-50 -21.5q-29 0 -51 21.5zM-153 581.5q-22 21.5 -22 51.5t22 51t51 21q28 0 50 -21.5t22 -50.5q0 -30 -22 -51.5t-50 -21.5q-29 0 -51 21.5z" />
    <glyph glyph-name="hookabovecomb" unicode="&#x309;" horiz-adv-x="0" 
d="M-145 550q18 41 18 72q0 19 -10.5 30t-30.5 11q-29 0 -54 -10v75q39 17 81 17q51 0 81 -27t30 -71q0 -50 -26 -97h-89z" />
    <glyph glyph-name="uni030A" unicode="&#x30a;" horiz-adv-x="0" 
d="M-231 560q-34 32 -34 78t34 78t84 32t83.5 -32t33.5 -78t-33.5 -78t-83.5 -32t-84 32zM-117.5 607.5q12.5 12.5 12.5 30.5t-12.5 30t-29.5 12q-18 0 -30.5 -12t-12.5 -30t12.5 -30.5t30.5 -12.5q17 0 29.5 12.5z" />
    <glyph glyph-name="uni030B" unicode="&#x30b;" horiz-adv-x="0" 
d="M-333 558h-100l83 150h132zM-145 558h-100l82 150h133z" />
    <glyph glyph-name="uni030C" unicode="&#x30c;" horiz-adv-x="0" 
d="M-154 558h-122l-124 150h125l59 -75h2l59 75h125z" />
    <glyph glyph-name="uni0312" unicode="&#x312;" horiz-adv-x="0" 
d="M-78 558h-125l70 150h103z" />
    <glyph glyph-name="uni031B" unicode="&#x31b;" horiz-adv-x="0" 
d="M-186 405v80h14q22 0 33.5 13.5t11.5 37.5t-15 69h97q15 -36 15 -73q0 -56 -33 -91.5t-89 -35.5h-34z" />
    <glyph glyph-name="dotbelowcomb" unicode="&#x323;" horiz-adv-x="0" 
d="M-162.5 -203.5q-22.5 21.5 -22.5 53.5q0 31 23 53t55 22t54.5 -22t22.5 -53q0 -32 -22.5 -53.5t-54.5 -21.5q-33 0 -55.5 21.5z" />
    <glyph glyph-name="uni0326" unicode="&#x326;" horiz-adv-x="0" 
d="M-100 -230h-105l48 150h127z" />
    <glyph glyph-name="uni0327" unicode="&#x327;" horiz-adv-x="0" 
d="M-129 -47q42 -4 70.5 -29t28.5 -64q0 -41 -33 -69.5t-87 -28.5q-37 0 -66.5 12t-46.5 28l37 59q12 -11 30 -18t37 -7t30 7.5t11 21.5t-10.5 22t-25.5 8q-7 0 -15 -2t-12 -4l-33 32l44 97l65 -18z" />
    <glyph glyph-name="uni0328" unicode="&#x328;" horiz-adv-x="0" 
d="M-186.5 -198.5q-32.5 29.5 -32.5 73.5q0 39 30 76.5t85 58.5l74 -10q-96 -51 -96 -104q0 -18 13.5 -29t34.5 -11q27 0 48 10v-80q-28 -14 -74 -14q-50 0 -82.5 29.5z" />
    <glyph glyph-name="uni037E" unicode="&#x37e;" horiz-adv-x="260" 
d="M85 353q-23 23 -23 55t23 54.5t57 22.5t57 -22.5t23 -54.5t-23 -55t-57 -23t-57 23zM225 80l-132 -208l-85 45l105 226z" />
    <glyph glyph-name="tonos" unicode="&#x384;" horiz-adv-x="285" 
d="M142 558h-112l80 150h145z" />
    <glyph glyph-name="dieresistonos" unicode="&#x385;" horiz-adv-x="485" 
d="M238 558h-70l64 150h90zM51 583.5q-21 20.5 -21 49.5q0 28 21.5 49t48.5 21t48.5 -21t21.5 -49q0 -29 -21 -49.5t-49 -20.5t-49 20.5zM336 583.5q-21 20.5 -21 49.5q0 28 21.5 49t48.5 21t48.5 -21t21.5 -49q0 -29 -21 -49.5t-49 -20.5t-49 20.5z" />
    <glyph glyph-name="Alphatonos" unicode="&#x386;" horiz-adv-x="755" 
d="M192 0h-157l272 700h167l271 -700h-159l-59 158h-277zM387 547l-93 -262h189l-93 262h-3zM130 550h-112l80 150h145z" />
    <glyph glyph-name="anoteleia" unicode="&#x387;" horiz-adv-x="250" 
d="M68 196q-23 23 -23 55t23 54.5t57 22.5t57 -22.5t23 -54.5t-23 -55t-57 -23t-57 23z" />
    <glyph glyph-name="Epsilontonos" unicode="&#x388;" horiz-adv-x="776" 
d="M726 0h-525v700h515v-135h-365v-142h285v-130h-285v-158h375v-135zM69 550h-112l80 150h145z" />
    <glyph glyph-name="Etatonos" unicode="&#x389;" horiz-adv-x="891" 
d="M351 0h-150v700h150v-275h300v275h150v-700h-150v285h-300v-285zM69 550h-112l80 150h145z" />
    <glyph glyph-name="Iotatonos" unicode="&#x38a;" horiz-adv-x="441" 
d="M351 0h-150v700h150v-700zM69 550h-112l80 150h145z" />
    <glyph glyph-name="Omicrontonos" unicode="&#x38c;" horiz-adv-x="900" 
d="M279 34q-87 49 -136.5 132.5t-49.5 183.5t49.5 184t136.5 132.5t194 48.5t193.5 -48.5t136.5 -132.5t50 -184t-50 -183.5t-137 -132.5t-193 -49q-107 0 -194 49zM588 153q52 30 82 82t30 115t-30 115t-82 82.5t-115 30.5t-115.5 -30t-82.5 -82.5t-30 -115.5t30.5 -115
t82.5 -82t115 -30t115 30zM78 550h-112l80 150h145z" />
    <glyph glyph-name="Upsilontonos" unicode="&#x38e;" horiz-adv-x="849" 
d="M587 0h-150v245l-258 455h171l162 -300h4l159 300h169l-257 -455v-245zM57 550h-112l80 150h145z" />
    <glyph glyph-name="Omegatonos" unicode="&#x38f;" horiz-adv-x="905" 
d="M814.5 226q-35.5 -67 -84.5 -101h103v-125h-300v129q74 32 119.5 89t45.5 135q0 62 -30 113.5t-81.5 81.5t-113.5 30q-63 0 -114.5 -30t-81 -81.5t-29.5 -113.5q0 -78 45 -135t120 -89v-129h-300v125h103q-49 34 -85 101t-36 144q0 95 48.5 174t134.5 125t195 46
q108 0 194.5 -46t134.5 -125t48 -174q0 -77 -35.5 -144zM78 550h-112l80 150h145z" />
    <glyph glyph-name="iotadieresistonos" unicode="&#x390;" horiz-adv-x="305" 
d="M101.5 33.5q-41.5 43.5 -41.5 121.5v330h135v-305q0 -30 15.5 -46t42.5 -16t42 9v-123q-14 -6 -35.5 -10t-44.5 -4q-72 0 -113.5 43.5zM123 558h-70l64 150h90zM-64 583.5q-21 20.5 -21 49.5q0 28 21.5 49t48.5 21t48.5 -21t21.5 -49q0 -29 -21 -49.5t-49 -20.5t-49 20.5
zM221 583.5q-21 20.5 -21 49.5q0 28 21.5 49t48.5 21t48.5 -21t21.5 -49q0 -29 -21 -49.5t-49 -20.5t-49 20.5z" />
    <glyph glyph-name="Alpha" unicode="&#x391;" horiz-adv-x="730" 
d="M167 0h-157l272 700h167l271 -700h-159l-59 158h-277zM362 547l-93 -262h189l-93 262h-3z" />
    <glyph glyph-name="Beta" unicode="&#x392;" horiz-adv-x="695" 
d="M90 0v700h298q69 0 120.5 -25t79 -67t27.5 -92q0 -51 -27 -89.5t-67 -53.5q48 -16 88.5 -62t40.5 -111q0 -54 -29.5 -100t-84.5 -73t-128 -27h-318zM380 423q38 0 60.5 21.5t22.5 55.5t-23 56t-60 22h-140v-155h140zM400 123q43 0 70.5 26.5t27.5 65.5q0 40 -27.5 66.5
t-70.5 26.5h-160v-185h160z" />
    <glyph glyph-name="Gamma" unicode="&#x393;" horiz-adv-x="570" 
d="M240 0h-150v700h470v-140h-320v-560z" />
    <glyph glyph-name="uni0394" unicode="&#x394;" horiz-adv-x="730" 
d="M720 0h-710l272 700h167zM361 542l-145 -404h294l-146 404h-3z" />
    <glyph glyph-name="Epsilon" unicode="&#x395;" horiz-adv-x="665" 
d="M615 0h-525v700h515v-135h-365v-142h285v-130h-285v-158h375v-135z" />
    <glyph glyph-name="Zeta" unicode="&#x396;" horiz-adv-x="640" 
d="M598 0h-550v143l352 415h-337v142h525v-142l-353 -415h363v-143z" />
    <glyph glyph-name="Eta" unicode="&#x397;" horiz-adv-x="780" 
d="M240 0h-150v700h150v-275h300v275h150v-700h-150v285h-300v-285z" />
    <glyph glyph-name="Theta" unicode="&#x398;" horiz-adv-x="855" 
d="M234 34q-87 49 -136.5 132.5t-49.5 183.5t49.5 184t136.5 132.5t194 48.5t193.5 -48.5t136.5 -132.5t50 -184t-50 -183.5t-137 -132.5t-193 -49q-107 0 -194 49zM543 153q52 30 82 82t30 115t-30 115t-82 82.5t-115 30.5t-115.5 -30t-82.5 -82.5t-30 -115.5t30.5 -115
t82.5 -82t115 -30t115 30zM590 311h-325v78h325v-78z" />
    <glyph glyph-name="Iota" unicode="&#x399;" horiz-adv-x="330" 
d="M240 0h-150v700h150v-700z" />
    <glyph glyph-name="Kappa" unicode="&#x39a;" horiz-adv-x="720" 
d="M240 0h-150v700h150v-305l273 305h180l-260 -290l280 -410h-178l-202 298l-93 -103v-195z" />
    <glyph glyph-name="Lambda" unicode="&#x39b;" horiz-adv-x="710" 
d="M166 0h-156l263 700h165l262 -700h-159l-186 526h-3z" />
    <glyph glyph-name="Mu" unicode="&#x39c;" horiz-adv-x="930" 
d="M240 0h-150v700h137l239 -304h2l239 304h133v-700h-150v461h-4l-221 -281l-221 281h-4v-461z" />
    <glyph glyph-name="Nu" unicode="&#x39d;" horiz-adv-x="805" 
d="M238 0h-148v700h133l341 -450h4v450h147v-700h-132l-342 451h-3v-451z" />
    <glyph glyph-name="Xi" unicode="&#x39e;" horiz-adv-x="655" 
d="M595 563h-535v137h535v-137zM523 293h-390v132h390v-132zM605 0h-555v138h555v-138z" />
    <glyph glyph-name="Omicron" unicode="&#x39f;" horiz-adv-x="855" 
d="M234 34q-87 49 -136.5 132.5t-49.5 183.5t49.5 184t136.5 132.5t194 48.5t193.5 -48.5t136.5 -132.5t50 -184t-50 -183.5t-137 -132.5t-193 -49q-107 0 -194 49zM543 153q52 30 82 82t30 115t-30 115t-82 82.5t-115 30.5t-115.5 -30t-82.5 -82.5t-30 -115.5t30.5 -115
t82.5 -82t115 -30t115 30z" />
    <glyph glyph-name="Pi" unicode="&#x3a0;" horiz-adv-x="775" 
d="M240 0h-150v700h595v-700h-150v560h-295v-560z" />
    <glyph glyph-name="Rho" unicode="&#x3a1;" horiz-adv-x="665" 
d="M90 0v700h298q71 0 127.5 -31t88 -84.5t31.5 -119.5t-31.5 -119.5t-88 -84.5t-127.5 -31h-148v-230h-150zM383 365q43 0 72.5 29.5t29.5 70.5t-29.5 70.5t-72.5 29.5h-143v-200h143z" />
    <glyph glyph-name="Sigma" unicode="&#x3a3;" horiz-adv-x="603" 
d="M563 0h-515v120l197 240l-197 220v120h515v-142h-328l178 -198l-178 -217h328v-143z" />
    <glyph glyph-name="Tau" unicode="&#x3a4;" horiz-adv-x="595" 
d="M373 0h-150v560h-203v140h555v-140h-202v-560z" />
    <glyph glyph-name="Upsilon" unicode="&#x3a5;" horiz-adv-x="675" 
d="M413 0h-150v245l-258 455h171l162 -300h4l159 300h169l-257 -455v-245z" />
    <glyph glyph-name="Phi" unicode="&#x3a6;" horiz-adv-x="883" 
d="M370 30q-94 7 -168.5 51.5t-116.5 116t-42 157.5t42 157.5t116.5 116t168.5 51.5v78h143v-78q94 -7 169 -51.5t117 -116t42 -157.5t-42 -157.5t-117 -116t-169 -51.5v-80h-143v80zM370 550q-78 -5 -127.5 -58t-49.5 -137q0 -83 49 -136t128 -59v390zM513 160
q79 6 128.5 59t49.5 136t-49.5 136.5t-128.5 58.5v-390z" />
    <glyph glyph-name="Chi" unicode="&#x3a7;" horiz-adv-x="710" 
d="M191 0h-171l238 364l-218 336h175l140 -226h3l141 226h171l-217 -333l237 -367h-174l-161 257h-3z" />
    <glyph glyph-name="Psi" unicode="&#x3a8;" horiz-adv-x="870" 
d="M360 190q-140 8 -218.5 90.5t-78.5 224.5v195h150v-193q0 -82 38.5 -125.5t108.5 -48.5v367h150v-367q70 5 109 48.5t39 125.5v193h150v-195q0 -142 -79 -224.5t-219 -90.5v-190h-150v190z" />
    <glyph glyph-name="uni03A9" unicode="&#x3a9;" horiz-adv-x="865" 
d="M774.5 226q-35.5 -67 -84.5 -101h103v-125h-300v129q74 32 119.5 89t45.5 135q0 62 -30 113.5t-81.5 81.5t-113.5 30q-63 0 -114.5 -30t-81 -81.5t-29.5 -113.5q0 -78 45 -135t120 -89v-129h-300v125h103q-49 34 -85 101t-36 144q0 95 48.5 174t134.5 125t195 46
q108 0 194.5 -46t134.5 -125t48 -174q0 -77 -35.5 -144z" />
    <glyph glyph-name="Iotadieresis" unicode="&#x3aa;" horiz-adv-x="330" 
d="M240 0h-150v700h150v-700zM7 809q-22 21 -22 51t22 51.5t51 21.5q28 0 50 -21.5t22 -51.5q0 -29 -22 -50.5t-50 -21.5q-29 0 -51 21zM222 809q-22 21 -22 51t22 51.5t51 21.5q28 0 50 -21.5t22 -51.5q0 -29 -22 -50.5t-50 -21.5q-29 0 -51 21z" />
    <glyph glyph-name="Upsilondieresis" unicode="&#x3ab;" horiz-adv-x="675" 
d="M413 0h-150v245l-258 455h171l162 -300h4l159 300h169l-257 -455v-245zM181 809q-22 21 -22 51t22 51.5t51 21.5q28 0 50 -21.5t22 -51.5q0 -29 -22 -50.5t-50 -21.5q-29 0 -51 21zM396 809q-22 21 -22 51t22 51.5t51 21.5q28 0 50 -21.5t22 -51.5q0 -29 -22 -50.5
t-50 -21.5q-29 0 -51 21z" />
    <glyph glyph-name="alphatonos" unicode="&#x3ac;" horiz-adv-x="633" 
d="M603 123v-120q-22 -13 -54 -13q-49 0 -78.5 24t-38.5 55h-5q-20 -30 -64.5 -54.5t-102.5 -24.5q-61 0 -112.5 32t-82 90t-30.5 131t30 130.5t80.5 89.5t109.5 32q55 0 96 -24.5t59 -54.5h3v69h135v-332q0 -35 34 -35q13 0 21 5zM352.5 132q27.5 17 44 46t16.5 65
q0 35 -16.5 64t-44 46t-59.5 17t-59.5 -17t-44 -46t-16.5 -64q0 -36 16.5 -65t44 -46t59.5 -17t59.5 17zM349 558h-112l80 150h145z" />
    <glyph glyph-name="epsilontonos" unicode="&#x3ad;" horiz-adv-x="468" 
d="M138 10q-46 20 -69.5 53t-23.5 72q0 45 29.5 75t62.5 40q-31 13 -55 41t-24 67q0 36 22.5 67.5t66 50.5t103.5 19q64 0 114 -20.5t79 -47.5l-78 -80q-16 14 -43.5 25t-58.5 11q-29 0 -44.5 -12.5t-15.5 -30.5q0 -16 16 -28t44 -12h65v-100h-68q-34 0 -52 -13.5t-18 -33.5
q0 -22 18 -36t52 -14q36 0 67.5 16.5t50.5 37.5l77 -79q-27 -34 -82.5 -61t-124.5 -27q-64 0 -110 20zM284 558h-112l80 150h145z" />
    <glyph glyph-name="etatonos" unicode="&#x3ae;" 
d="M395 270q0 45 -25 71.5t-65 26.5q-46 0 -75.5 -31.5t-29.5 -81.5v-255h-135v485h135v-69h3q18 30 56.5 54.5t88.5 24.5q53 0 94 -25t64.5 -71.5t23.5 -110.5v-498h-135v480zM348 558h-112l80 150h145z" />
    <glyph glyph-name="iotatonos" unicode="&#x3af;" horiz-adv-x="305" 
d="M101.5 33.5q-41.5 43.5 -41.5 121.5v330h135v-305q0 -30 15.5 -46t42.5 -16t42 9v-123q-14 -6 -35.5 -10t-44.5 -4q-72 0 -113.5 43.5zM174 558h-112l80 150h145z" />
    <glyph glyph-name="upsilondieresistonos" unicode="&#x3b0;" horiz-adv-x="585" 
d="M171 18.5q-53 28.5 -82 79t-29 115.5v272h135v-269q0 -43 27.5 -70.5t70.5 -27.5t70 27.5t27 70.5v269h135v-272q0 -65 -29 -115.5t-81.5 -79t-121.5 -28.5t-122 28.5zM288 558h-70l64 150h90zM101 583.5q-21 20.5 -21 49.5q0 28 21.5 49t48.5 21t48.5 -21t21.5 -49
q0 -29 -21 -49.5t-49 -20.5t-49 20.5zM386 583.5q-21 20.5 -21 49.5q0 28 21.5 49t48.5 21t48.5 -21t21.5 -49q0 -29 -21 -49.5t-49 -20.5t-49 20.5z" />
    <glyph glyph-name="alpha" unicode="&#x3b1;" horiz-adv-x="633" 
d="M603 123v-120q-22 -13 -54 -13q-49 0 -78.5 24t-38.5 55h-5q-20 -30 -64.5 -54.5t-102.5 -24.5q-61 0 -112.5 32t-82 90t-30.5 131t30 130.5t80.5 89.5t109.5 32q55 0 96 -24.5t59 -54.5h3v69h135v-332q0 -35 34 -35q13 0 21 5zM352.5 132q27.5 17 44 46t16.5 65
q0 35 -16.5 64t-44 46t-59.5 17t-59.5 -17t-44 -46t-16.5 -64q0 -36 16.5 -65t44 -46t59.5 -17t59.5 17z" />
    <glyph glyph-name="beta" unicode="&#x3b2;" horiz-adv-x="595" 
d="M514.5 322.5q38.5 -47.5 38.5 -112.5q0 -60 -29 -108t-82.5 -75t-124.5 -27h-112v-210h-135v707q0 97 59.5 155t160.5 58q64 0 112 -25t74.5 -68t26.5 -97q0 -46 -23.5 -81.5t-51.5 -50.5q48 -18 86.5 -65.5zM315 125q44 0 71 25.5t27 64.5q0 41 -27 67t-72 26h-55v120
h24q39 0 63 22.5t24 58.5q0 35 -22 57t-58 22q-39 0 -62 -24t-23 -67v-372h110z" />
    <glyph glyph-name="gamma" unicode="&#x3b3;" horiz-adv-x="525" 
d="M330 -210h-135v207l-190 488h149l108 -320h4l108 320h146l-190 -488v-207z" />
    <glyph glyph-name="delta" unicode="&#x3b4;" horiz-adv-x="565" 
d="M280 585q92 -71 147.5 -127.5t84 -113t28.5 -121.5q0 -64 -32.5 -117t-90 -84.5t-129.5 -31.5q-71 0 -129 31.5t-91 85.5t-33 118q0 62 29.5 113.5t80.5 83.5t113 37q-87 76 -170 132v109h398v-115h-206zM371.5 145.5q33.5 32.5 33.5 78.5q0 48 -32.5 81t-79.5 33
q-54 0 -88.5 -32.5t-34.5 -80.5q0 -47 33.5 -79.5t84.5 -32.5q50 0 83.5 32.5z" />
    <glyph glyph-name="epsilon" unicode="&#x3b5;" horiz-adv-x="468" 
d="M138 10q-46 20 -69.5 53t-23.5 72q0 45 29.5 75t62.5 40q-31 13 -55 41t-24 67q0 36 22.5 67.5t66 50.5t103.5 19q64 0 114 -20.5t79 -47.5l-78 -80q-16 14 -43.5 25t-58.5 11q-29 0 -44.5 -12.5t-15.5 -30.5q0 -16 16 -28t44 -12h65v-100h-68q-34 0 -52 -13.5t-18 -33.5
q0 -22 18 -36t52 -14q36 0 67.5 16.5t50.5 37.5l77 -79q-27 -34 -82.5 -61t-124.5 -27q-64 0 -110 20z" />
    <glyph glyph-name="zeta" unicode="&#x3b6;" horiz-adv-x="500" 
d="M503 53q-24 -35 -43.5 -90.5t-19.5 -107.5h-120q0 42 10.5 80.5t23.5 62.5q-30 -8 -66 -8q-114 0 -178.5 58.5t-64.5 154.5q0 102 67.5 200.5t152.5 164.5h-200v132h405v-112q-67 -41 -133 -100.5t-110 -127.5t-44 -130q0 -117 135 -117q34 0 66.5 7t50.5 18z" />
    <glyph glyph-name="eta" unicode="&#x3b7;" 
d="M395 270q0 45 -25 71.5t-65 26.5q-46 0 -75.5 -31.5t-29.5 -81.5v-255h-135v485h135v-69h3q18 30 56.5 54.5t88.5 24.5q53 0 94 -25t64.5 -71.5t23.5 -110.5v-498h-135v480z" />
    <glyph glyph-name="theta" unicode="&#x3b8;" horiz-adv-x="635" 
d="M453 669q61 -41 96.5 -122t35.5 -197t-35.5 -197t-96.5 -122t-135 -41t-135 41t-97 122t-36 197t36 197t97 122t135 41t135 -41zM231 537q-36 -48 -42 -147h258q-6 99 -42.5 147t-86.5 48q-51 0 -87 -48zM405 163.5q36 48.5 42 148.5h-258q6 -100 42 -148.5t87 -48.5
t87 48.5z" />
    <glyph glyph-name="iota" unicode="&#x3b9;" horiz-adv-x="305" 
d="M101.5 33.5q-41.5 43.5 -41.5 121.5v330h135v-305q0 -30 15.5 -46t42.5 -16t42 9v-123q-14 -6 -35.5 -10t-44.5 -4q-72 0 -113.5 43.5z" />
    <glyph glyph-name="kappa" unicode="&#x3ba;" horiz-adv-x="553" 
d="M200 0h-135v485h135v-192l175 192h163l-185 -200l195 -285h-153l-132 198l-63 -70v-128z" />
    <glyph glyph-name="lambda" unicode="&#x3bb;" horiz-adv-x="525" 
d="M520 0h-144l-99 314h-3l-118 -314h-146l196 482l-12 34q-14 38 -34.5 53.5t-51.5 15.5q-25 0 -50 -10v123q14 5 37 8.5t48 3.5q68 0 114 -42.5t78 -137.5z" />
    <glyph glyph-name="uni03BC" unicode="&#x3bc;" horiz-adv-x="595" 
d="M395 485h135v-485h-135v69h-3q-17 -30 -56 -54.5t-88 -24.5q-25 0 -51 7v-207h-132v695h135v-270q0 -44 25 -70.5t65 -26.5q46 0 75.5 31t29.5 81v255z" />
    <glyph glyph-name="nu" unicode="&#x3bd;" horiz-adv-x="525" 
d="M333 0h-140l-188 485h145l114 -324h3l113 324h140z" />
    <glyph glyph-name="xi" unicode="&#x3be;" horiz-adv-x="508" 
d="M510 53q-24 -35 -43 -90.5t-19 -107.5h-120q0 39 9.5 76.5t22.5 64.5q-27 -6 -66 -6q-76 0 -133 27.5t-87.5 74t-30.5 101.5q0 67 39 112.5t92 65.5q-45 17 -78 58t-33 101q0 48 28 89t80.5 66t122.5 25q54 0 100.5 -16.5t79.5 -41.5l-65 -97q-22 15 -50 22.5t-56 7.5
q-49 0 -76 -21t-27 -54q0 -35 29 -57.5t81 -22.5h75v-122h-75q-62 0 -96 -28t-34 -70t35.5 -69.5t106.5 -27.5q35 0 68 7.5t53 17.5z" />
    <glyph glyph-name="omicron" unicode="&#x3bf;" 
d="M163.5 24q-59.5 34 -94 92t-34.5 127t34.5 127t94 91.5t131.5 33.5q73 0 132.5 -33.5t93.5 -91.5t34 -127t-34 -127t-93.5 -92t-132.5 -34q-72 0 -131.5 34zM382 152q36 37 36 91t-36 90.5t-87 36.5t-86.5 -36.5t-35.5 -90.5t35.5 -91t86.5 -37t87 37z" />
    <glyph glyph-name="pi" unicode="&#x3c0;" 
d="M200 0h-135v485h460v-485h-135v358h-190v-358z" />
    <glyph glyph-name="rho" unicode="&#x3c1;" horiz-adv-x="603" 
d="M55 243q0 70 33.5 128t92 91t129.5 33q73 0 132 -32.5t92.5 -90.5t33.5 -129t-33 -129t-91.5 -91t-130.5 -33q-35 0 -69 10t-54 26v-236h-135v453zM369.5 132q27.5 17 44 46t16.5 65q0 35 -16.5 64t-44 46t-59.5 17t-59.5 -17t-44 -46t-16.5 -64q0 -36 16.5 -65t44 -46
t59.5 -17t59.5 17z" />
    <glyph glyph-name="uni03C2" unicode="&#x3c2;" horiz-adv-x="526" 
d="M372.5 120.5q28.5 7.5 43.5 17.5l68 -85q-24 -35 -43.5 -90.5t-19.5 -107.5h-120q0 38 9.5 74t21.5 63q-22 -2 -38 -2q-72 0 -131.5 34t-93.5 92.5t-34 126.5q0 70 34.5 127.5t94 91t132.5 33.5q65 0 119.5 -27t88.5 -71l-88 -81q-49 54 -115 54q-55 0 -91.5 -36
t-36.5 -91q0 -57 38 -93.5t101 -36.5q32 0 60.5 7.5z" />
    <glyph glyph-name="sigma" unicode="&#x3c3;" horiz-adv-x="625" 
d="M618 485v-122h-105q17 -20 29.5 -53t12.5 -72q0 -67 -34 -124t-94 -90.5t-132 -33.5t-131.5 33.5t-94 90.5t-34.5 124q0 66 34.5 123t94 90.5t131.5 33.5h323zM382.5 151q35.5 36 35.5 87t-35.5 86.5t-87.5 35.5t-87 -35.5t-35 -86.5t35 -87t87 -36t87.5 36z" />
    <glyph glyph-name="tau" unicode="&#x3c4;" horiz-adv-x="480" 
d="M209.5 33.5q-41.5 43.5 -41.5 121.5v203h-153v127h440v-127h-152v-178q0 -30 15 -46t42 -16t43 9v-123q-33 -14 -81 -14q-71 0 -112.5 43.5z" />
    <glyph glyph-name="upsilon" unicode="&#x3c5;" horiz-adv-x="585" 
d="M171 18.5q-53 28.5 -82 79t-29 115.5v272h135v-269q0 -43 27.5 -70.5t70.5 -27.5t70 27.5t27 70.5v269h135v-272q0 -65 -29 -115.5t-81.5 -79t-121.5 -28.5t-122 28.5z" />
    <glyph glyph-name="phi" unicode="&#x3c6;" horiz-adv-x="745" 
d="M305 -18q-79 7 -140.5 42.5t-95.5 91.5t-34 122q0 86 49 147t125 90l61 -97q-100 -47 -100 -140q0 -55 37.5 -92t97.5 -41v390h109q87 0 154.5 -35t104.5 -94t37 -128q0 -66 -34 -122t-95.5 -91.5t-140.5 -42.5v-192h-135v192zM440 105q60 4 97.5 41t37.5 92
q0 57 -37.5 94t-97.5 41v-268z" />
    <glyph glyph-name="chi" unicode="&#x3c7;" horiz-adv-x="530" 
d="M147 -210h-137l169 361l-156 334h141l101 -235h3l103 235h136l-158 -335l171 -360h-142l-115 260h-2z" />
    <glyph glyph-name="psi" unicode="&#x3c8;" horiz-adv-x="765" 
d="M315 -15q-123 11 -189 81.5t-66 196.5v222h135v-222q0 -70 31 -105.5t89 -39.5v367h135v-367q58 4 89 39.5t31 105.5v222h135v-222q0 -126 -65.5 -196.5t-189.5 -81.5v-195h-135v195z" />
    <glyph glyph-name="omega" unicode="&#x3c9;" horiz-adv-x="830" 
d="M148 18q-48 28 -75.5 81.5t-27.5 126.5q0 87 41.5 156t97.5 113l89 -77q-90 -90 -90 -191q0 -55 23 -82t59 -27q35 0 59 31t24 88v93h135v-93q0 -58 23.5 -88.5t58.5 -30.5q36 0 59.5 27t23.5 82q0 100 -91 191l90 77q55 -44 96.5 -113t41.5 -156q0 -73 -27.5 -126.5
t-75.5 -81.5t-107 -28q-62 0 -104 29.5t-56 68.5q-14 -39 -56 -68.5t-104 -29.5q-59 0 -107 28z" />
    <glyph glyph-name="iotadieresis" unicode="&#x3ca;" horiz-adv-x="305" 
d="M101.5 33.5q-41.5 43.5 -41.5 121.5v330h135v-305q0 -30 15.5 -46t42.5 -16t42 9v-123q-14 -6 -35.5 -10t-44.5 -4q-72 0 -113.5 43.5zM-31 581.5q-22 21.5 -22 51.5t22 51t51 21q28 0 50 -21.5t22 -50.5q0 -30 -22 -51.5t-50 -21.5q-29 0 -51 21.5zM184 581.5
q-22 21.5 -22 51.5t22 51t51 21q28 0 50 -21.5t22 -50.5q0 -30 -22 -51.5t-50 -21.5q-29 0 -51 21.5z" />
    <glyph glyph-name="upsilondieresis" unicode="&#x3cb;" horiz-adv-x="585" 
d="M171 18.5q-53 28.5 -82 79t-29 115.5v272h135v-269q0 -43 27.5 -70.5t70.5 -27.5t70 27.5t27 70.5v269h135v-272q0 -65 -29 -115.5t-81.5 -79t-121.5 -28.5t-122 28.5zM135 581.5q-22 21.5 -22 51.5t22 51t51 21q28 0 50 -21.5t22 -50.5q0 -30 -22 -51.5t-50 -21.5
q-29 0 -51 21.5zM350 581.5q-22 21.5 -22 51.5t22 51t51 21q28 0 50 -21.5t22 -50.5q0 -30 -22 -51.5t-50 -21.5q-29 0 -51 21.5z" />
    <glyph glyph-name="omicrontonos" unicode="&#x3cc;" 
d="M163.5 24q-59.5 34 -94 92t-34.5 127t34.5 127t94 91.5t131.5 33.5q73 0 132.5 -33.5t93.5 -91.5t34 -127t-34 -127t-93.5 -92t-132.5 -34q-72 0 -131.5 34zM382 152q36 37 36 91t-36 90.5t-87 36.5t-86.5 -36.5t-35.5 -90.5t35.5 -91t86.5 -37t87 37zM342 558h-112
l80 150h145z" />
    <glyph glyph-name="upsilontonos" unicode="&#x3cd;" horiz-adv-x="585" 
d="M171 18.5q-53 28.5 -82 79t-29 115.5v272h135v-269q0 -43 27.5 -70.5t70.5 -27.5t70 27.5t27 70.5v269h135v-272q0 -65 -29 -115.5t-81.5 -79t-121.5 -28.5t-122 28.5zM339 558h-112l80 150h145z" />
    <glyph glyph-name="omegatonos" unicode="&#x3ce;" horiz-adv-x="830" 
d="M148 18q-48 28 -75.5 81.5t-27.5 126.5q0 87 41.5 156t97.5 113l89 -77q-90 -90 -90 -191q0 -55 23 -82t59 -27q35 0 59 31t24 88v93h135v-93q0 -58 23.5 -88.5t58.5 -30.5q36 0 59.5 27t23.5 82q0 100 -91 191l90 77q55 -44 96.5 -113t41.5 -156q0 -73 -27.5 -126.5
t-75.5 -81.5t-107 -28q-62 0 -104 29.5t-56 68.5q-14 -39 -56 -68.5t-104 -29.5q-59 0 -107 28zM462 558h-112l80 150h145z" />
    <glyph glyph-name="uni0400" unicode="&#x400;" horiz-adv-x="665" 
d="M615 0h-525v700h515v-135h-365v-142h285v-130h-285v-158h375v-135zM418 785h-112l-113 150h145z" />
    <glyph glyph-name="uni0401" unicode="&#x401;" horiz-adv-x="665" 
d="M615 0h-525v700h515v-135h-365v-142h285v-130h-285v-158h375v-135zM193 809q-22 21 -22 51t22 51.5t51 21.5q28 0 50 -21.5t22 -51.5q0 -29 -22 -50.5t-50 -21.5q-29 0 -51 21zM408 809q-22 21 -22 51t22 51.5t51 21.5q28 0 50 -21.5t22 -51.5q0 -29 -22 -50.5t-50 -21.5
q-29 0 -51 21z" />
    <glyph glyph-name="uni0402" unicode="&#x402;" horiz-adv-x="778" 
d="M431 118q72 0 110.5 26.5t38.5 74.5q0 45 -34.5 70.5t-94.5 25.5q-42 0 -77.5 -13t-58.5 -32v-270h-150v565h-160v135h520v-135h-210v-152q73 40 163 40q75 0 133 -29t90 -82t32 -122q0 -70 -33 -124t-93 -84t-139 -30h-37v136z" />
    <glyph glyph-name="uni0403" unicode="&#x403;" horiz-adv-x="570" 
d="M240 0h-150v700h470v-140h-320v-560zM372 785h-112l80 150h145z" />
    <glyph glyph-name="uni0404" unicode="&#x404;" horiz-adv-x="755" 
d="M234 34q-87 49 -136.5 132.5t-49.5 183.5t49.5 184t136.5 132.5t194 48.5q101 0 177 -40t123 -95l-101 -90q-39 39 -85.5 63.5t-113.5 24.5q-77 0 -137 -44.5t-80 -115.5h300v-130h-301q20 -73 79.5 -119t138.5 -46q68 0 115.5 24.5t87.5 65.5l102 -90
q-49 -57 -126.5 -97.5t-178.5 -40.5q-107 0 -194 49z" />
    <glyph glyph-name="uni0405" unicode="&#x405;" horiz-adv-x="607" 
d="M141 20.5q-71 35.5 -106 82.5l94 92q30 -32 71.5 -54.5t93.5 -22.5q53 0 83 24t30 57q0 34 -31 53t-97 41q-68 23 -111 44.5t-74 63.5t-31 109q0 58 32 105t89 73.5t128 26.5q80 0 143.5 -30.5t93.5 -68.5l-94 -92q-23 23 -58 41t-75 18q-49 0 -75.5 -21t-26.5 -51
q0 -34 31 -53t98 -41q68 -23 111 -44.5t74 -63.5t31 -109q0 -58 -32 -107.5t-91 -78.5t-137 -29q-93 0 -164 35.5z" />
    <glyph glyph-name="uni0406" unicode="&#x406;" horiz-adv-x="330" 
d="M240 0h-150v700h150v-700z" />
    <glyph glyph-name="uni0407" unicode="&#x407;" horiz-adv-x="330" 
d="M240 0h-150v700h150v-700zM7 809q-22 21 -22 51t22 51.5t51 21.5q28 0 50 -21.5t22 -51.5q0 -29 -22 -50.5t-50 -21.5q-29 0 -51 21zM222 809q-22 21 -22 51t22 51.5t51 21.5q28 0 50 -21.5t22 -51.5q0 -29 -22 -50.5t-50 -21.5q-29 0 -51 21z" />
    <glyph glyph-name="uni0408" unicode="&#x408;" horiz-adv-x="506" 
d="M62.5 10.5q-53.5 25.5 -77.5 57.5l90 97q15 -16 43.5 -29t59.5 -13q45 0 71.5 27.5t26.5 77.5v472h150v-472q0 -72 -30.5 -127t-85.5 -85.5t-127 -30.5q-67 0 -120.5 25.5z" />
    <glyph glyph-name="uni0409" unicode="&#x409;" horiz-adv-x="1093" 
d="M810 460q71 0 127.5 -30t88.5 -82.5t32 -117.5t-32 -117.5t-88.5 -82.5t-127.5 -30h-287v560h-192l-2 -75q-4 -195 -32.5 -304.5t-77.5 -152.5t-122 -43q-23 0 -45.5 5.5t-36.5 12.5v137q28 -10 50 -10q35 0 59.5 28t40 106t18.5 221l4 215h486v-240h137zM805 135
q44 0 73.5 27.5t29.5 67.5q0 41 -29.5 68t-73.5 27h-132v-190h132z" />
    <glyph glyph-name="uni040A" unicode="&#x40a;" horiz-adv-x="1093" 
d="M90 0v700h150v-240h283v240h150v-240h137q71 0 127.5 -30t88.5 -82.5t32 -117.5t-32 -117.5t-88.5 -82.5t-127.5 -30h-287v320h-283v-320h-150zM805 135q44 0 73.5 27.5t29.5 67.5q0 41 -29.5 68t-73.5 27h-132v-190h132z" />
    <glyph glyph-name="uni040B" unicode="&#x40b;" horiz-adv-x="788" 
d="M165 0v565h-160v135h520v-135h-210v-152q27 15 72.5 27.5t92.5 12.5q76 0 133.5 -32t88.5 -93t31 -145v-183h-150v183q0 62 -35.5 97t-97.5 35q-40 0 -77 -14t-58 -31v-270h-150z" />
    <glyph glyph-name="uni040C" unicode="&#x40c;" horiz-adv-x="720" 
d="M240 0h-150v700h150v-305l273 305h180l-260 -290l280 -410h-178l-202 298l-93 -103v-195zM399 785h-112l80 150h145z" />
    <glyph glyph-name="uni040D" unicode="&#x40d;" horiz-adv-x="805" 
d="M223 0h-133v700h150v-452h4l339 452h132v-700h-150v453h-3zM470 785h-112l-113 150h145z" />
    <glyph glyph-name="uni040E" unicode="&#x40e;" horiz-adv-x="673" 
d="M504 700h159l-238 -532q-39 -86 -97 -131.5t-139 -45.5q-26 0 -47 4.5t-33 9.5v133q33 -9 59 -9q45 0 72.5 20.5t45.5 55.5l2 3l-268 492h169l175 -337h3zM257 795q-39 21 -60 57t-21 81h105q0 -29 18.5 -47.5t48.5 -18.5q31 0 49.5 18.5t18.5 47.5h104q0 -69 -46.5 -114
t-125.5 -45q-52 0 -91 21z" />
    <glyph glyph-name="uni040F" unicode="&#x40f;" horiz-adv-x="775" 
d="M463 -150h-150v150h-223v700h150v-560h295v560h150v-700h-222v-150z" />
    <glyph glyph-name="uni0410" unicode="&#x410;" horiz-adv-x="730" 
d="M167 0h-157l272 700h167l271 -700h-159l-59 158h-277zM362 547l-93 -262h189l-93 262h-3z" />
    <glyph glyph-name="uni0411" unicode="&#x411;" horiz-adv-x="675" 
d="M90 0v700h485v-132h-335v-125h158q69 0 123 -29t84 -79t30 -112t-30 -113t-84 -80.5t-123 -29.5h-308zM393 133q39 0 65.5 26t26.5 64t-26.5 64t-65.5 26h-153v-180h153z" />
    <glyph glyph-name="uni0412" unicode="&#x412;" horiz-adv-x="695" 
d="M90 0v700h298q69 0 120.5 -25t79 -67t27.5 -92q0 -51 -27 -89.5t-67 -53.5q48 -16 88.5 -62t40.5 -111q0 -54 -29.5 -100t-84.5 -73t-128 -27h-318zM380 423q38 0 60.5 21.5t22.5 55.5t-23 56t-60 22h-140v-155h140zM400 123q43 0 70.5 26.5t27.5 65.5q0 40 -27.5 66.5
t-70.5 26.5h-160v-185h160z" />
    <glyph glyph-name="uni0413" unicode="&#x413;" horiz-adv-x="570" 
d="M240 0h-150v700h470v-140h-320v-560z" />
    <glyph glyph-name="uni0414" unicode="&#x414;" horiz-adv-x="773" 
d="M653 140h95v-290h-150v150h-433v-150h-150v290h40q26 21 50.5 69t41 119t18.5 157l5 215h483v-560zM503 140v420h-189l-2 -75q-2 -86 -17 -157.5t-36.5 -119t-44.5 -68.5h289z" />
    <glyph glyph-name="uni0415" unicode="&#x415;" horiz-adv-x="665" 
d="M615 0h-525v700h515v-135h-365v-142h285v-130h-285v-158h375v-135z" />
    <glyph glyph-name="uni0416" unicode="&#x416;" horiz-adv-x="1043" 
d="M184 0h-176l280 410l-260 290h179l243 -275v275h143v-275l244 275h179l-260 -290l280 -410h-176l-203 301l-64 -71v-230h-143v230l-63 71z" />
    <glyph glyph-name="uni0417" unicode="&#x417;" horiz-adv-x="621" 
d="M132.5 20q-72.5 35 -109.5 80l91 96q29 -30 72.5 -51.5t99.5 -21.5q61 0 94.5 25.5t33.5 61.5q0 35 -33 61t-90 26h-90v130h83q52 0 79.5 21.5t27.5 54.5q0 32 -28 53.5t-81 21.5q-43 0 -80.5 -18t-66.5 -44l-90 96q42 42 106.5 72.5t142.5 30.5q80 0 137.5 -26t87.5 -70
t30 -96q0 -56 -35 -97t-82 -56q57 -17 98 -63t41 -109q0 -57 -33 -106t-96 -78t-148 -29q-89 0 -161.5 35z" />
    <glyph glyph-name="uni0418" unicode="&#x418;" horiz-adv-x="805" 
d="M223 0h-133v700h150v-452h4l339 452h132v-700h-150v453h-3z" />
    <glyph glyph-name="uni0419" unicode="&#x419;" horiz-adv-x="805" 
d="M223 0h-133v700h150v-452h4l339 452h132v-700h-150v453h-3zM312 795q-39 21 -60 57t-21 81h105q0 -29 18.5 -47.5t48.5 -18.5q31 0 49.5 18.5t18.5 47.5h104q0 -69 -46.5 -114t-125.5 -45q-52 0 -91 21z" />
    <glyph glyph-name="uni041A" unicode="&#x41a;" horiz-adv-x="720" 
d="M240 0h-150v700h150v-305l273 305h180l-260 -290l280 -410h-178l-202 298l-93 -103v-195z" />
    <glyph glyph-name="uni041B" unicode="&#x41b;" horiz-adv-x="775" 
d="M187 700h498v-700h-150v560h-204l-2 -75q-4 -195 -33 -304.5t-79 -152.5t-125 -43q-21 0 -42.5 5.5t-34.5 12.5v137q28 -10 50 -10q35 0 59.5 28t40 106t18.5 221z" />
    <glyph glyph-name="uni041C" unicode="&#x41c;" horiz-adv-x="930" 
d="M240 0h-150v700h137l239 -304h2l239 304h133v-700h-150v461h-4l-221 -281l-221 281h-4v-461z" />
    <glyph glyph-name="uni041D" unicode="&#x41d;" horiz-adv-x="780" 
d="M240 0h-150v700h150v-275h300v275h150v-700h-150v285h-300v-285z" />
    <glyph glyph-name="uni041E" unicode="&#x41e;" horiz-adv-x="855" 
d="M234 34q-87 49 -136.5 132.5t-49.5 183.5t49.5 184t136.5 132.5t194 48.5t193.5 -48.5t136.5 -132.5t50 -184t-50 -183.5t-137 -132.5t-193 -49q-107 0 -194 49zM543 153q52 30 82 82t30 115t-30 115t-82 82.5t-115 30.5t-115.5 -30t-82.5 -82.5t-30 -115.5t30.5 -115
t82.5 -82t115 -30t115 30z" />
    <glyph glyph-name="uni041F" unicode="&#x41f;" horiz-adv-x="775" 
d="M240 0h-150v700h595v-700h-150v560h-295v-560z" />
    <glyph glyph-name="uni0420" unicode="&#x420;" horiz-adv-x="665" 
d="M90 0v700h298q71 0 127.5 -31t88 -84.5t31.5 -119.5t-31.5 -119.5t-88 -84.5t-127.5 -31h-148v-230h-150zM383 365q43 0 72.5 29.5t29.5 70.5t-29.5 70.5t-72.5 29.5h-143v-200h143z" />
    <glyph glyph-name="uni0421" unicode="&#x421;" horiz-adv-x="755" 
d="M234 34q-87 49 -136.5 132.5t-49.5 183.5t49.5 184t136.5 132.5t194 48.5q101 0 177 -40t123 -95l-101 -90q-39 39 -85.5 63.5t-113.5 24.5q-63 0 -115.5 -30t-82.5 -82.5t-30 -115.5t30 -115t82.5 -82t115.5 -30q68 0 115.5 24.5t87.5 65.5l102 -90
q-49 -57 -126.5 -97.5t-178.5 -40.5q-107 0 -194 49z" />
    <glyph glyph-name="uni0422" unicode="&#x422;" horiz-adv-x="595" 
d="M373 0h-150v560h-203v140h555v-140h-202v-560z" />
    <glyph glyph-name="uni0423" unicode="&#x423;" horiz-adv-x="673" 
d="M504 700h159l-238 -532q-39 -86 -97 -131.5t-139 -45.5q-26 0 -47 4.5t-33 9.5v133q33 -9 59 -9q45 0 72.5 20.5t45.5 55.5l2 3l-268 492h169l175 -337h3z" />
    <glyph glyph-name="uni0424" unicode="&#x424;" horiz-adv-x="868" 
d="M363 70q-99 6 -173 45.5t-113 103t-39 141.5t39.5 141.5t113 103t172.5 45.5v73h143v-73q99 -6 172.5 -45.5t113 -103t39.5 -141.5t-39.5 -141.5t-113 -103t-172.5 -45.5v-90h-143v90zM363 518q-81 -6 -128 -49.5t-47 -108.5t47 -108.5t128 -48.5v315zM506 203
q81 5 128 48.5t47 108.5t-47 108.5t-128 49.5v-315z" />
    <glyph glyph-name="uni0425" unicode="&#x425;" horiz-adv-x="710" 
d="M191 0h-171l238 364l-218 336h175l140 -226h3l141 226h171l-217 -333l237 -367h-174l-161 257h-3z" />
    <glyph glyph-name="uni0426" unicode="&#x426;" horiz-adv-x="795" 
d="M770 -150h-150v150h-530v700h150v-560h285v560h150v-560h95v-290z" />
    <glyph glyph-name="uni0427" unicode="&#x427;" horiz-adv-x="723" 
d="M483 258q-27 -15 -72.5 -27.5t-92.5 -12.5q-76 0 -133.5 32t-88.5 93t-31 145v212h150v-212q0 -62 35.5 -97.5t97.5 -35.5q40 0 76.5 14t58.5 31v300h150v-700h-150v258z" />
    <glyph glyph-name="uni0428" unicode="&#x428;" horiz-adv-x="1060" 
d="M970 0h-880v700h150v-560h215v560h150v-560h215v560h150v-700z" />
    <glyph glyph-name="uni0429" unicode="&#x429;" horiz-adv-x="1090" 
d="M1065 -150h-150v150h-825v700h150v-560h215v560h150v-560h215v560h150v-560h95v-290z" />
    <glyph glyph-name="uni042A" unicode="&#x42a;" horiz-adv-x="740" 
d="M165 0v560h-165v140h315v-230h138q71 0 127.5 -31t88 -84.5t31.5 -119.5t-31.5 -119.5t-88 -84.5t-127.5 -31h-288zM448 135q43 0 72.5 29.5t29.5 70.5t-29.5 70.5t-72.5 29.5h-133v-200h133z" />
    <glyph glyph-name="uni042B" unicode="&#x42b;" horiz-adv-x="950" 
d="M90 0v700h150v-230h138q71 0 127.5 -31t88 -84.5t31.5 -119.5t-31.5 -119.5t-88 -84.5t-127.5 -31h-288zM860 0h-150v700h150v-700zM373 135q43 0 72.5 29t29.5 71t-29.5 71t-72.5 29h-133v-200h133z" />
    <glyph glyph-name="uni042C" unicode="&#x42c;" horiz-adv-x="675" 
d="M90 0v700h150v-230h148q71 0 127.5 -31t88 -84.5t31.5 -119.5t-31.5 -119.5t-88 -84.5t-127.5 -31h-298zM383 135q43 0 72.5 29t29.5 71t-29.5 71t-72.5 29h-143v-200h143z" />
    <glyph glyph-name="uni042D" unicode="&#x42d;" horiz-adv-x="751" 
d="M146 25q-76 40 -123 95l101 91q39 -40 85.5 -64t113.5 -24q79 0 138.5 46t79.5 119h-301v130h300q-21 72 -76 116t-131 44q-67 0 -113.5 -24.5t-85.5 -63.5l-101 90q47 55 123 95t177 40q107 0 191.5 -48.5t131.5 -132t47 -184.5q0 -100 -49.5 -183.5t-136.5 -132.5
t-194 -49q-101 0 -177 40z" />
    <glyph glyph-name="uni042E" unicode="&#x42e;" horiz-adv-x="1095" 
d="M523.5 26q-75.5 41 -123 110t-60.5 152h-100v-288h-150v700h150v-277h100q13 78 61 145t123 107t166 40q99 0 181 -48t129.5 -131.5t47.5 -185.5t-47.5 -185.5t-129.5 -131.5t-181 -48q-91 0 -166.5 41zM794 152.5q48 29.5 76 81.5t28 116q0 65 -28 117t-76 81.5
t-104 29.5t-103.5 -29.5t-75.5 -81.5t-28 -117q0 -64 28 -116t75.5 -81.5t103.5 -29.5t104 29.5z" />
    <glyph glyph-name="uni042F" unicode="&#x42f;" horiz-adv-x="713" 
d="M623 700v-700h-150v240h-122l-143 -240h-165l161 262q-62 28 -98 83t-36 125q0 65 31 117.5t86.5 82.5t125.5 30h310zM473 375v190h-155q-43 0 -70.5 -27t-27.5 -68t27.5 -68t70.5 -27h155z" />
    <glyph glyph-name="uni0430" unicode="&#x430;" horiz-adv-x="533" 
d="M370.5 469.5q48.5 -25.5 75.5 -69t27 -95.5v-305h-128v67h-3q-18 -29 -57 -53t-89 -24q-46 0 -82.5 19t-57.5 51.5t-21 69.5q0 62 39 102t111 54l153 29q-2 29 -25.5 49.5t-59.5 20.5q-62 0 -113 -57l-77 74q32 38 82.5 65.5t114.5 27.5q62 0 110.5 -25.5zM308.5 129
q29.5 31 29.5 81v16l-105 -21q-28 -5 -44 -20.5t-16 -34.5q0 -23 16.5 -37.5t45.5 -14.5q44 0 73.5 31z" />
    <glyph glyph-name="uni0431" unicode="&#x431;" 
d="M171.5 26.5q-58.5 36.5 -92.5 108.5t-34 173q0 167 68 259t184 117q51 11 97.5 27t70.5 29l60 -105q-22 -14 -71 -32.5t-114 -32.5q-137 -30 -160 -164l2 -1q22 26 60.5 45.5t85.5 19.5q61 0 113 -31.5t83 -86.5t31 -122t-32.5 -122t-90 -86.5t-127.5 -31.5
q-75 0 -133.5 36.5zM385 146q33 33 33 84t-33 84.5t-80 33.5t-79.5 -33t-32.5 -85q0 -51 32.5 -84t79.5 -33t80 33z" />
    <glyph glyph-name="uni0432" unicode="&#x432;" horiz-adv-x="543" 
d="M65 0v485h243q52 0 90.5 -18t59 -48.5t20.5 -65.5q0 -33 -17.5 -59t-45.5 -39q32 -9 57.5 -38.5t25.5 -73.5q0 -40 -21.5 -72.5t-62 -51.5t-96.5 -19h-253zM290 295q24 0 37 12t13 31t-13 30.5t-37 11.5h-90v-85h90zM303 105q27 0 42 13.5t15 36.5t-15 36.5t-42 13.5
h-103v-100h103z" />
    <glyph glyph-name="uni0433" unicode="&#x433;" horiz-adv-x="430" 
d="M200 0h-135v485h355v-127h-220v-358z" />
    <glyph glyph-name="uni0434" unicode="&#x434;" horiz-adv-x="593" 
d="M503 123h72v-243h-135v120h-290v-120h-135v243h35q28 26 51 89.5t24 147.5l3 125h375v-362zM368 123v240h-116v-27q-1 -75 -21 -132t-44 -81h181z" />
    <glyph glyph-name="uni0435" unicode="&#x435;" horiz-adv-x="563" 
d="M163.5 24q-59.5 34 -94 92t-34.5 127t34 127t92 91.5t127 33.5t125 -32t88 -87t32 -123q0 -28 -5 -53h-353q6 -38 42.5 -66.5t87.5 -28.5q70 0 126 50l71 -85q-30 -32 -85 -56t-122 -24q-72 0 -131.5 34zM396 293q-9 40 -37.5 65t-70.5 25q-44 0 -73 -25t-41 -65h222z
" />
    <glyph glyph-name="uni0436" unicode="&#x436;" horiz-adv-x="793" 
d="M158 0h-153l195 285l-185 200h163l155 -181v181h128v-181l155 181h162l-185 -200l195 -285h-152l-133 198l-42 -47v-151h-128v151l-43 47z" />
    <glyph glyph-name="uni0437" unicode="&#x437;" horiz-adv-x="478" 
d="M105.5 17q-55.5 27 -82.5 61l77 79q19 -21 50.5 -37.5t67.5 -16.5q34 0 52 14t18 36q0 20 -18 33.5t-52 13.5h-58v100h55q28 0 44 12t16 28q0 18 -15.5 30.5t-44.5 12.5q-31 0 -58.5 -11t-43.5 -25l-78 80q29 27 79 47.5t114 20.5q60 0 103.5 -19t66 -50.5t22.5 -67.5
q0 -39 -24 -67t-55 -41q33 -10 62.5 -40t29.5 -75q0 -39 -23.5 -72t-69.5 -53t-110 -20q-69 0 -124.5 27z" />
    <glyph glyph-name="uni0438" unicode="&#x438;" horiz-adv-x="595" 
d="M183 0h-118v485h133v-275h3l212 275h117v-485h-132v276h-3z" />
    <glyph glyph-name="uni0439" unicode="&#x439;" horiz-adv-x="595" 
d="M183 0h-118v485h133v-275h3l212 275h117v-485h-132v276h-3zM213 575q-38 20 -59.5 55t-21.5 78h101q0 -27 18.5 -45t46.5 -18t46 18t18 45h101q0 -43 -21 -78t-59 -55t-85 -20t-85 20z" />
    <glyph glyph-name="uni043A" unicode="&#x43a;" horiz-adv-x="553" 
d="M200 0h-135v485h135v-192l175 192h163l-185 -200l195 -285h-153l-132 198l-63 -70v-128z" />
    <glyph glyph-name="uni043B" unicode="&#x43b;" horiz-adv-x="581" 
d="M134 485h382v-485h-135v358h-124v-23q-5 -193 -51.5 -270.5t-132.5 -77.5q-31 0 -60 13v124q17 -5 32 -5q29 0 46 18t27 69.5t12 151.5z" />
    <glyph glyph-name="uni043C" unicode="&#x43c;" horiz-adv-x="665" 
d="M200 0h-135v485h116l151 -188h4l150 188h114v-485h-135v281h-3l-129 -161l-130 161h-3v-281z" />
    <glyph glyph-name="uni043D" unicode="&#x43d;" 
d="M200 0h-135v485h135v-177h190v177h135v-485h-135v183h-190v-183z" />
    <glyph glyph-name="uni043E" unicode="&#x43e;" 
d="M163.5 24q-59.5 34 -94 92t-34.5 127t34.5 127t94 91.5t131.5 33.5q73 0 132.5 -33.5t93.5 -91.5t34 -127t-34 -127t-93.5 -92t-132.5 -34q-72 0 -131.5 34zM382 152q36 37 36 91t-36 90.5t-87 36.5t-86.5 -36.5t-35.5 -90.5t35.5 -91t86.5 -37t87 37z" />
    <glyph glyph-name="uni043F" unicode="&#x43f;" 
d="M200 0h-135v485h460v-485h-135v358h-190v-358z" />
    <glyph glyph-name="uni0440" unicode="&#x440;" horiz-adv-x="613" 
d="M65 -210v695h135v-69h3q18 30 59 54.5t96 24.5q59 0 109.5 -32t80.5 -89.5t30 -130.5t-30 -130.5t-80.5 -90t-109.5 -32.5q-55 0 -96 24.5t-59 54.5h-3v-279h-135zM379.5 132q27.5 17 44 46t16.5 65q0 35 -16.5 64t-44 46t-59.5 17t-59.5 -17t-44 -46t-16.5 -64
q0 -36 16.5 -65t44 -46t59.5 -17t59.5 17z" />
    <glyph glyph-name="uni0441" unicode="&#x441;" horiz-adv-x="526" 
d="M163.5 24q-59.5 34 -94 92t-34.5 127t34.5 127t94 91.5t131.5 33.5q71 0 125.5 -29.5t83.5 -68.5l-88 -81q-48 54 -116 54q-54 0 -90.5 -36.5t-36.5 -90.5q0 -55 36.5 -91.5t90.5 -36.5q68 0 120 56l88 -81q-32 -40 -87 -70t-126 -30q-72 0 -131.5 34z" />
    <glyph glyph-name="uni0442" unicode="&#x442;" horiz-adv-x="480" 
d="M308 0h-135v358h-153v127h440v-127h-152v-358z" />
    <glyph glyph-name="uni0443" unicode="&#x443;" horiz-adv-x="533" 
d="M384 485h139l-188 -525q-31 -88 -77 -129t-115 -41q-24 0 -46.5 4.5t-36.5 10.5v125q10 -5 25 -9.5t30 -4.5q31 0 51.5 15t31.5 39l15 33l-208 482h147l128 -321h3z" />
    <glyph glyph-name="uni0444" unicode="&#x444;" horiz-adv-x="743" 
d="M305 -18q-80 7 -141 43t-95 92t-34 123t34 123t95 92t141 43v202h133v-202q80 -7 141 -43t95 -92t34 -123t-34 -123t-95 -92t-141 -43v-192h-133v192zM305 375q-60 -4 -97.5 -41t-37.5 -94q0 -56 37.5 -93.5t97.5 -41.5v270zM438 105q60 4 97.5 41.5t37.5 93.5
t-37.5 93.5t-97.5 41.5v-270z" />
    <glyph glyph-name="uni0445" unicode="&#x445;" horiz-adv-x="542" 
d="M166 0h-151l167 250l-154 235h156l88 -148h3l89 148h151l-154 -235l166 -250h-156l-101 164h-3z" />
    <glyph glyph-name="uni0446" unicode="&#x446;" horiz-adv-x="600" 
d="M583 -120h-135v120h-383v485h135v-357h175v357h135v-357h73v-248z" />
    <glyph glyph-name="uni0447" unicode="&#x447;" horiz-adv-x="545" 
d="M345 163q-18 -12 -50 -22.5t-67 -10.5q-82 0 -132.5 53.5t-50.5 146.5v155h135v-145q0 -37 22 -59.5t58 -22.5q28 0 51 8.5t34 18.5v200h135v-485h-135v163z" />
    <glyph glyph-name="uni0448" unicode="&#x448;" horiz-adv-x="810" 
d="M745 0h-680v485h135v-357h138v357h135v-357h137v357h135v-485z" />
    <glyph glyph-name="uni0449" unicode="&#x449;" horiz-adv-x="830" 
d="M813 -120h-135v120h-613v485h135v-357h138v357h135v-357h137v357h135v-357h68v-248z" />
    <glyph glyph-name="uni044A" unicode="&#x44a;" horiz-adv-x="563" 
d="M123 0v358h-118v127h253v-145h82q58 0 101.5 -22.5t67.5 -61t24 -86.5t-24 -86.5t-67.5 -61t-101.5 -22.5h-217zM330 110q32 0 50 16.5t18 43.5t-18 43.5t-50 16.5h-72v-120h72z" />
    <glyph glyph-name="uni044B" unicode="&#x44b;" horiz-adv-x="738" 
d="M65 0v485h135v-145h83q57 0 100.5 -22.5t67.5 -61t24 -86.5t-24 -86.5t-67.5 -61t-100.5 -22.5h-218zM673 0h-135v485h135v-485zM273 110q31 0 49 16.5t18 43.5t-18 43.5t-49 16.5h-73v-120h73z" />
    <glyph glyph-name="uni044C" unicode="&#x44c;" horiz-adv-x="515" 
d="M65 0v485h135v-145h93q57 0 100.5 -22.5t67.5 -61t24 -86.5t-24 -86.5t-67.5 -61t-100.5 -22.5h-228zM283 110q31 0 49 16.5t18 43.5t-18 43.5t-49 16.5h-83v-120h83z" />
    <glyph glyph-name="uni044D" unicode="&#x44d;" horiz-adv-x="531" 
d="M110 20q-55 30 -87 70l80 74q55 -59 128 -59q46 0 79.5 25.5t47.5 67.5h-195v97h193q-15 39 -48 62t-77 23q-72 0 -124 -56l-80 73q29 39 83.5 68.5t125.5 29.5q72 0 131.5 -33.5t94 -91.5t34.5 -127t-34.5 -127t-94 -92t-131.5 -34q-71 0 -126 30z" />
    <glyph glyph-name="uni044E" unicode="&#x44e;" horiz-adv-x="808" 
d="M359 44.5q-64 54.5 -84 140.5h-75v-185h-135v485h135v-180h75q22 85 85 137.5t160 52.5q72 0 129.5 -32.5t90.5 -90.5t33 -129q0 -72 -33 -129.5t-90.5 -90.5t-129.5 -33q-97 0 -161 54.5zM605 150q33 35 33 93q0 57 -33 92t-85 35q-51 0 -84 -35t-33 -92q0 -58 33 -93
t84 -35q52 0 85 35z" />
    <glyph glyph-name="uni044F" unicode="&#x44f;" horiz-adv-x="538" 
d="M473 485v-485h-135v150h-76l-87 -150h-147l112 172q-43 22 -67.5 60.5t-24.5 85.5q0 46 24 84t67.5 60.5t100.5 22.5h233zM338 260v115h-88q-31 0 -49 -16t-18 -41t18 -41.5t49 -16.5h88z" />
    <glyph glyph-name="uni0450" unicode="&#x450;" horiz-adv-x="563" 
d="M163.5 24q-59.5 34 -94 92t-34.5 127t34 127t92 91.5t127 33.5t125 -32t88 -87t32 -123q0 -28 -5 -53h-353q6 -38 42.5 -66.5t87.5 -28.5q70 0 126 50l71 -85q-30 -32 -85 -56t-122 -24q-72 0 -131.5 34zM396 293q-9 40 -37.5 65t-70.5 25q-44 0 -73 -25t-41 -65h222z
M354 558h-112l-113 150h145z" />
    <glyph glyph-name="uni0451" unicode="&#x451;" horiz-adv-x="563" 
d="M163.5 24q-59.5 34 -94 92t-34.5 127t34 127t92 91.5t127 33.5t125 -32t88 -87t32 -123q0 -28 -5 -53h-353q6 -38 42.5 -66.5t87.5 -28.5q70 0 126 50l71 -85q-30 -32 -85 -56t-122 -24q-72 0 -131.5 34zM396 293q-9 40 -37.5 65t-70.5 25q-44 0 -73 -25t-41 -65h222z
M130 581.5q-22 21.5 -22 51.5t22 51t51 21q28 0 50 -21.5t22 -50.5q0 -30 -22 -51.5t-50 -21.5q-29 0 -51 21.5zM345 581.5q-22 21.5 -22 51.5t22 51t51 21q28 0 50 -21.5t22 -50.5q0 -30 -22 -51.5t-50 -21.5q-29 0 -51 21.5z" />
    <glyph glyph-name="uni0452" unicode="&#x452;" horiz-adv-x="585" 
d="M451.5 442q42.5 -28 68 -82t25.5 -128q0 -77 -28.5 -133.5t-80.5 -86.5t-120 -30h-16v128q51 0 80.5 30.5t29.5 86.5q0 54 -27 85t-68 31q-46 0 -75.5 -31.5t-29.5 -81.5v-230h-135v539h-72v78h72v83h135v-83h150v-78h-150v-148h3q18 30 56.5 54.5t88.5 24.5
q51 0 93.5 -28z" />
    <glyph glyph-name="uni0453" unicode="&#x453;" horiz-adv-x="430" 
d="M200 0h-135v485h355v-127h-220v-358zM284 558h-112l80 150h145z" />
    <glyph glyph-name="uni0454" unicode="&#x454;" horiz-adv-x="526" 
d="M163.5 24q-59.5 34 -94 92t-34.5 127t34.5 127t94 91.5t131.5 33.5q71 0 125.5 -29.5t83.5 -68.5l-80 -73q-52 56 -124 56q-44 0 -77 -23t-48 -62h193v-97h-195q14 -42 47.5 -67.5t79.5 -25.5q73 0 128 59l80 -74q-32 -40 -87 -70t-126 -30q-72 0 -131.5 34z" />
    <glyph glyph-name="uni0455" unicode="&#x455;" horiz-adv-x="465" 
d="M113 17.5q-56 27.5 -85 62.5l77 80q20 -22 52 -39.5t69 -17.5q31 0 47.5 11.5t16.5 30.5q0 18 -19.5 28.5t-61.5 23.5q-49 16 -80.5 31t-55 44.5t-23.5 76.5q0 40 22.5 73.5t65 53t100.5 19.5q61 0 111 -21.5t76 -48.5l-77 -80q-16 15 -40.5 26.5t-54.5 11.5
q-28 0 -44 -10.5t-16 -25.5q0 -17 18.5 -27t61.5 -24q49 -16 81 -31.5t55.5 -45.5t23.5 -77q0 -42 -23 -76.5t-68 -55t-107 -20.5q-66 0 -122 27.5z" />
    <glyph glyph-name="uni0456" unicode="&#x456;" horiz-adv-x="275" 
d="M205 0h-135v485h135v-485zM82.5 579.5q-22.5 21.5 -22.5 53.5q0 31 23 53t55 22t54.5 -22t22.5 -53q0 -32 -22.5 -53.5t-54.5 -21.5q-33 0 -55.5 21.5z" />
    <glyph glyph-name="uni0457" unicode="&#x457;" horiz-adv-x="275" 
d="M205 0h-135v485h135v-485zM-1 580.5q-21 20.5 -21 52.5q0 31 21 51.5t48 20.5t48 -20.5t21 -51.5q0 -32 -21 -52.5t-48 -20.5t-48 20.5zM179.5 580.5q-20.5 20.5 -20.5 52.5q0 31 20.5 51.5t48.5 20.5q27 0 47.5 -20.5t20.5 -51.5q0 -32 -20.5 -52.5t-47.5 -20.5
q-28 0 -48.5 20.5z" />
    <glyph glyph-name="uni0458" unicode="&#x458;" horiz-adv-x="280" 
d="M-45 -195v125q31 -13 55 -13q31 0 48 17.5t17 50.5v500h135v-520q0 -84 -44.5 -129.5t-122.5 -45.5q-45 0 -88 15zM87.5 579.5q-22.5 21.5 -22.5 53.5q0 31 23 53t55 22t54.5 -22t22.5 -53q0 -32 -22.5 -53.5t-54.5 -21.5q-33 0 -55.5 21.5z" />
    <glyph glyph-name="uni0459" unicode="&#x459;" horiz-adv-x="815" 
d="M603 330q56 0 98.5 -21.5t65.5 -59t23 -84.5q0 -46 -23 -83.5t-65.5 -59.5t-98.5 -22h-228v358h-118v-23q-5 -193 -51.5 -270.5t-132.5 -77.5q-31 0 -60 13v124q17 -5 32 -5q29 0 46 18t27 69.5t12 151.5l4 127h376v-155h93zM593 110q29 0 45.5 15t16.5 40t-16 40t-46 15
h-83v-110h83z" />
    <glyph glyph-name="uni045A" unicode="&#x45a;" horiz-adv-x="813" 
d="M65 0v485h135v-155h173v155h135v-155h92q56 0 99 -21.5t66 -59t23 -84.5q0 -46 -23 -83.5t-66 -59.5t-99 -22h-227v205h-173v-205h-135zM590 110q29 0 46 15t17 40t-16.5 40t-46.5 15h-82v-110h82z" />
    <glyph glyph-name="uni045B" unicode="&#x45b;" horiz-adv-x="600" 
d="M452 445q41 -25 64.5 -71.5t23.5 -110.5v-263h-135v245q0 45 -25 71.5t-65 26.5q-46 0 -75.5 -31.5t-29.5 -81.5v-230h-135v539h-72v78h72v83h135v-83h150v-78h-150v-148h3q18 30 56.5 54.5t88.5 24.5q53 0 94 -25z" />
    <glyph glyph-name="uni045C" unicode="&#x45c;" horiz-adv-x="553" 
d="M200 0h-135v485h135v-192l175 192h163l-185 -200l195 -285h-153l-132 198l-63 -70v-128zM331 558h-112l80 150h145z" />
    <glyph glyph-name="uni045D" unicode="&#x45d;" horiz-adv-x="595" 
d="M183 0h-118v485h133v-275h3l212 275h117v-485h-132v276h-3zM364 558h-112l-113 150h145z" />
    <glyph glyph-name="uni045E" unicode="&#x45e;" horiz-adv-x="533" 
d="M384 485h139l-188 -525q-31 -88 -77 -129t-115 -41q-24 0 -46.5 4.5t-36.5 10.5v125q10 -5 25 -9.5t30 -4.5q31 0 51.5 15t31.5 39l15 33l-208 482h147l128 -321h3zM183 575q-38 20 -59.5 55t-21.5 78h101q0 -27 18.5 -45t46.5 -18t46 18t18 45h101q0 -43 -21 -78
t-59 -55t-85 -20t-85 20z" />
    <glyph glyph-name="uni045F" unicode="&#x45f;" horiz-adv-x="585" 
d="M360 -120h-135v120h-160v485h135v-357h185v357h135v-485h-160v-120z" />
    <glyph glyph-name="uni0462" unicode="&#x462;" horiz-adv-x="735" 
d="M453 455q70 0 125.5 -30t86 -82t30.5 -115t-30.5 -115t-86 -82.5t-125.5 -30.5h-303v533h-150v120h150v77h150v-77h230v-120h-230v-78h153zM448 135q43 0 70 27t27 66q0 38 -27 65t-70 27h-148v-185h148z" />
    <glyph glyph-name="uni0463" unicode="&#x463;" horiz-adv-x="570" 
d="M350 335q57 0 100 -22t66.5 -60t23.5 -85t-23.5 -85.5t-66.5 -60.5t-100 -22h-230v380h-117v105h117v215h135v-215h160v-105h-160v-45h95zM340 110q30 0 47.5 16t17.5 42q0 25 -17.5 41t-47.5 16h-85v-115h85z" />
    <glyph glyph-name="uni0472" unicode="&#x472;" horiz-adv-x="855" 
d="M621.5 666.5q86.5 -48.5 136.5 -132.5t50 -184t-50 -183.5t-137 -132.5t-193 -49q-107 0 -194 49t-136.5 132.5t-49.5 183.5t49.5 184t136.5 132.5t194 48.5t193.5 -48.5zM323 553.5q-48 -24.5 -79.5 -67.5t-40.5 -97h449q-9 54 -40.5 97t-79.5 67.5t-104 24.5
q-57 0 -105 -24.5zM532 147.5q48 24.5 79.5 67t40.5 96.5h-449q9 -54 40.5 -96.5t79.5 -67t105 -24.5q56 0 104 24.5z" />
    <glyph glyph-name="uni0473" unicode="&#x473;" 
d="M427.5 461.5q59.5 -33.5 93.5 -91.5t34 -127t-34 -127t-93.5 -92t-132.5 -34q-72 0 -131.5 34t-94 92t-34.5 127t34.5 127t94 91.5t131.5 33.5q73 0 132.5 -33.5zM223 346q-32 -24 -44 -63h233q-12 39 -44 63t-73 24q-40 0 -72 -24zM369 140q32 25 44 65h-235
q12 -40 44 -65t73 -25q42 0 74 25z" />
    <glyph glyph-name="uni0474" unicode="&#x474;" horiz-adv-x="734" 
d="M275 0l-260 700h161l181 -523h3l119 366q28 88 73 129t121 41q25 0 49 -5.5t37 -11.5l-34 -133q-18 5 -37 5q-26 0 -41 -14.5t-27 -48.5l-180 -505h-165z" />
    <glyph glyph-name="uni0475" unicode="&#x475;" horiz-adv-x="560" 
d="M193 0l-188 485h149l108 -318h3l66 193q23 69 60.5 103.5t96.5 34.5q27 0 50.5 -6t36.5 -14l-35 -105q-12 5 -27 5q-36 0 -50 -40l-130 -338h-140z" />
    <glyph glyph-name="uni048A" unicode="&#x48a;" horiz-adv-x="835" 
d="M312 795q-39 21 -60 57t-21 80h105q0 -29 18.5 -47.5t48.5 -18.5q31 0 49.5 18.5t18.5 47.5h104q0 -44 -20.5 -80t-59.5 -57t-92 -21q-52 0 -91 21zM718 -150h-113l43 150h-83v453h-3l-339 -453h-133v700h150v-452h4l339 452h132v-560h105v-20z" />
    <glyph glyph-name="uni048B" unicode="&#x48b;" horiz-adv-x="620" 
d="M213 575q-38 20 -59.5 55t-21.5 78h101q0 -27 18.5 -45t46.5 -18t46 18t18 45h101q0 -43 -21 -78t-59 -55t-85 -20t-85 20zM523 -120h-102l32 120h-55v276h-3l-212 -276h-118v485h133v-275h3l212 275h117v-362h82v-20z" />
    <glyph glyph-name="uni048C" unicode="&#x48c;" horiz-adv-x="695" 
d="M408 465q72 0 128.5 -30.5t87.5 -83.5t31 -118t-31.5 -118t-87.5 -84t-128 -31h-298v560h-79v78h79v92h150v-92h155v-78h-155v-95h148zM403 135q45 0 73.5 28.5t28.5 69.5t-28.5 69t-73.5 28h-143v-195h143z" />
    <glyph glyph-name="uni048D" unicode="&#x48d;" horiz-adv-x="535" 
d="M313 340q57 0 100.5 -22.5t67.5 -61t24 -86.5t-24 -86.5t-67.5 -61t-100.5 -22.5h-228v407h-72v78h72v215h135v-215h150v-78h-150v-67h93zM303 110q31 0 49 16.5t18 43.5t-18 43.5t-49 16.5h-83v-120h83z" />
    <glyph glyph-name="uni048E" unicode="&#x48e;" horiz-adv-x="665" 
d="M604.5 347q-30.5 -53 -84.5 -83l64 -92l-64 -44l-75 108q-27 -6 -57 -6h-148v-230h-150v700h298q71 0 127.5 -31t88 -84.5t31.5 -119.5q0 -65 -30.5 -118zM240 365h114l-45 65l64 45l65 -94q22 14 34.5 36t12.5 48q0 41 -29.5 70.5t-72.5 29.5h-143v-200z" />
    <glyph glyph-name="uni048F" unicode="&#x48f;" horiz-adv-x="613" 
d="M556 130q-22 -51 -60 -86l58 -85l-63 -44l-61 88q-37 -13 -72 -13q-55 0 -96 24.5t-59 54.5h-3v-279h-135v695h135v-69h3q18 30 59 54.5t96 24.5q59 0 109.5 -32t80.5 -89.5t30 -130.5q0 -62 -22 -113zM350 119l-54 78l64 45l54 -79q26 36 26 80q0 35 -16.5 64t-44 46
t-59.5 17t-59.5 -17t-44 -46t-16.5 -64q0 -36 16.5 -65t44 -46t59.5 -17q17 0 30 4z" />
    <glyph glyph-name="uni0490" unicode="&#x490;" horiz-adv-x="570" 
d="M240 0h-150v700h323v140h147v-280h-320v-560z" />
    <glyph glyph-name="uni0491" unicode="&#x491;" horiz-adv-x="430" 
d="M200 0h-135v485h223v120h132v-247h-220v-358z" />
    <glyph glyph-name="uni0492" unicode="&#x492;" 
d="M580 700v-140h-320v-188h178v-78h-178v-294h-150v294h-79v78h79v328h470z" />
    <glyph glyph-name="uni0493" unicode="&#x493;" horiz-adv-x="450" 
d="M440 485v-127h-220v-112h123v-78h-123v-168h-135v168h-72v78h72v239h355z" />
    <glyph glyph-name="uni0494" unicode="&#x494;" horiz-adv-x="683" 
d="M350 -10q66 0 104.5 38.5t38.5 104.5q0 61 -36 98t-94 37q-39 0 -72 -14t-51 -31v-223h-150v700h474v-140h-324v-192q21 14 62 25.5t88 11.5q76 0 134 -32.5t89.5 -94t31.5 -145.5q0 -87 -36 -153t-103 -102t-156 -36v148z" />
    <glyph glyph-name="uni0495" unicode="&#x495;" horiz-adv-x="538" 
d="M268 -93q51 0 80.5 31.5t29.5 89.5q0 51 -28 81.5t-70 30.5q-25 0 -47 -9.5t-33 -20.5v-110h-135v485h355v-127h-220v-123q15 11 43.5 19.5t59.5 8.5q61 0 108.5 -28t74.5 -81t27 -124q0 -118 -65 -184t-180 -66v127z" />
    <glyph glyph-name="uni0496" unicode="&#x496;" horiz-adv-x="1062" 
d="M1065 -150h-150v150h-55l-203 301l-64 -71v-230h-143v230l-63 71l-203 -301h-176l280 410l-260 290h179l243 -275v275h143v-275l244 275h179l-260 -290l185 -270h124v-290z" />
    <glyph glyph-name="uni0497" unicode="&#x497;" horiz-adv-x="818" 
d="M806 -120h-135v120h-35l-133 198l-42 -47v-151h-128v151l-43 47l-132 -198h-153l195 285l-185 200h163l155 -181v181h128v-181l155 181h162l-185 -200l112 -162h101v-243z" />
    <glyph glyph-name="uni0498" unicode="&#x498;" horiz-adv-x="621" 
d="M517.5 67q-53.5 -57 -148.5 -75v-142h-150v142q-65 13 -116.5 43.5t-79.5 64.5l91 96q29 -30 72.5 -51.5t99.5 -21.5q61 0 94.5 25.5t33.5 61.5q0 35 -33 61t-90 26h-90v130h83q52 0 79.5 21.5t27.5 54.5q0 32 -28 53.5t-81 21.5q-43 0 -80.5 -18t-66.5 -44l-90 96
q42 42 106.5 72.5t142.5 30.5q80 0 137.5 -26t87.5 -70t30 -96q0 -56 -35 -97t-82 -56q57 -17 98 -63t41 -109q0 -74 -53.5 -131z" />
    <glyph glyph-name="uni0499" unicode="&#x499;" horiz-adv-x="478" 
d="M399 50.5q-34 -37.5 -96 -52.5v-118h-135v116q-48 10 -86.5 33.5t-58.5 48.5l77 79q19 -21 50.5 -37.5t67.5 -16.5q34 0 52 14t18 36q0 20 -18 33.5t-52 13.5h-58v100h55q28 0 44 12t16 28q0 18 -15.5 30.5t-44.5 12.5q-31 0 -58.5 -11t-43.5 -25l-78 80q29 27 79 47.5
t114 20.5q60 0 103.5 -19t66 -50.5t22.5 -67.5q0 -39 -24 -67t-55 -41q33 -10 62.5 -40t29.5 -75q0 -47 -34 -84.5z" />
    <glyph glyph-name="uni049A" unicode="&#x49a;" horiz-adv-x="738" 
d="M740 -150h-150v150h-55l-202 298l-93 -103v-195h-150v700h150v-305l273 305h180l-260 -290l186 -270h121v-290z" />
    <glyph glyph-name="uni049B" unicode="&#x49b;" horiz-adv-x="578" 
d="M565 -120h-135v120h-35l-132 198l-63 -70v-128h-135v485h135v-192l175 192h163l-185 -200l111 -162h101v-243z" />
    <glyph glyph-name="uni049C" unicode="&#x49c;" horiz-adv-x="763" 
d="M736 700l-219 -332l239 -368h-172l-191 298h-32v-140h-78v140h-43v-298h-150v700h150v-282h43v140h78v-140h32l180 282h163z" />
    <glyph glyph-name="uni049D" unicode="&#x49d;" horiz-adv-x="612" 
d="M597 485l-149 -235l159 -250h-150l-111 183h-29v-105h-78v105h-39v-183h-135v485h135v-182h39v105h78v-105h26l109 182h145z" />
    <glyph glyph-name="uni049E" unicode="&#x49e;" horiz-adv-x="735" 
d="M708 700l-260 -290l280 -410h-178l-202 298l-93 -103v-195h-150v556h-115v78h115v66h150v-66h100v-78h-100v-161l273 305h180z" />
    <glyph glyph-name="uni049F" unicode="&#x49f;" horiz-adv-x="563" 
d="M548 485l-185 -200l195 -285h-153l-132 198l-63 -70v-128h-135v539h-72v78h72v83h135v-83h130v-78h-130v-246l175 192h163z" />
    <glyph glyph-name="uni04A0" unicode="&#x4a0;" horiz-adv-x="795" 
d="M315 0h-150v560h-165v140h315v-305l273 305h180l-260 -290l280 -410h-178l-202 298l-93 -103v-195z" />
    <glyph glyph-name="uni04A1" unicode="&#x4a1;" horiz-adv-x="610" 
d="M258 0h-135v358h-118v127h253v-192l175 192h162l-185 -200l195 -285h-152l-133 198l-62 -70v-128z" />
    <glyph glyph-name="uni04A2" unicode="&#x4a2;" horiz-adv-x="810" 
d="M785 -150h-150v150h-95v285h-300v-285h-150v700h150v-275h300v275h150v-560h95v-290z" />
    <glyph glyph-name="uni04A3" unicode="&#x4a3;" horiz-adv-x="615" 
d="M598 -120h-135v120h-73v183h-190v-183h-135v485h135v-177h190v177h135v-362h73v-243z" />
    <glyph glyph-name="uni04A4" unicode="&#x4a4;" horiz-adv-x="978" 
d="M240 0h-150v700h150v-275h280v275h448v-140h-298v-560h-150v285h-280v-285z" />
    <glyph glyph-name="uni04A5" unicode="&#x4a5;" horiz-adv-x="733" 
d="M200 0h-135v485h135v-177h183v177h340v-127h-205v-358h-135v183h-183v-183z" />
    <glyph glyph-name="uni04A8" unicode="&#x4a8;" horiz-adv-x="918" 
d="M928 53q-25 -26 -78.5 -47t-119.5 -21q-49 0 -90 11t-62 25q-26 -14 -70.5 -25t-92.5 -11q-106 0 -189.5 48t-130.5 132t-47 190q0 100 42 179.5t114.5 127t160.5 56.5v-128q-43 -5 -81.5 -34.5t-62 -81.5t-23.5 -119q0 -68 31.5 -123.5t85.5 -87t121 -31.5h9
q-28 18 -56.5 57.5t-47 94t-18.5 115.5q0 87 33 152.5t91 100.5t131 35t131 -35t91 -100.5t33 -152.5q0 -61 -19 -115.5t-48.5 -94t-59.5 -58.5q48 1 87.5 16t59.5 35zM650.5 239q32.5 59 32.5 141q0 73 -30.5 113t-74.5 40t-74.5 -40t-30.5 -113q0 -82 32.5 -141t72.5 -81
q40 22 72.5 81z" />
    <glyph glyph-name="uni04A9" unicode="&#x4a9;" horiz-adv-x="718" 
d="M750 55q-23 -27 -71 -47.5t-108 -20.5q-44 0 -79 8t-52 18q-16 -10 -50.5 -18t-76.5 -8q-81 0 -144.5 34t-98.5 92.5t-35 131.5q0 67 28.5 122.5t80.5 90t119 40.5v-110q-22 -5 -43.5 -23t-35.5 -48t-14 -69q0 -69 38 -109t98 -45q-58 70 -58 167q0 90 52.5 143.5
t139.5 53.5t140 -53.5t53 -143.5q0 -99 -60 -169q38 4 65.5 17.5t42.5 28.5zM480 173q18 38 18 85q0 43 -16.5 65t-41.5 22t-41 -22t-16 -65q0 -47 18 -85t39 -55q22 17 40 55z" />
    <glyph glyph-name="uni04AA" unicode="&#x4aa;" horiz-adv-x="755" 
d="M733 123q-42 -48 -104 -85.5t-143 -48.5v-139h-150v145q-84 19 -149.5 70.5t-102 125.5t-36.5 159q0 100 49.5 184t136.5 132.5t194 48.5q101 0 177 -40t123 -95l-101 -90q-39 39 -85.5 63.5t-113.5 24.5q-63 0 -115.5 -30t-82.5 -82.5t-30 -115.5t30 -115t82.5 -82
t115.5 -30q68 0 115.5 24.5t87.5 65.5z" />
    <glyph glyph-name="uni04AB" unicode="&#x4ab;" horiz-adv-x="526" 
d="M508 90q-25 -31 -66.5 -58t-93.5 -37v-115h-135v122q-79 25 -128.5 91t-49.5 150q0 69 34.5 127t94 91.5t131.5 33.5q71 0 125.5 -29.5t83.5 -68.5l-88 -81q-48 54 -116 54q-54 0 -90.5 -36.5t-36.5 -90.5q0 -55 36.5 -91.5t90.5 -36.5q68 0 120 56z" />
    <glyph glyph-name="uni04AC" unicode="&#x4ac;" horiz-adv-x="595" 
d="M468 -150h-150v150h-95v560h-203v140h555v-140h-202v-420h95v-290z" />
    <glyph glyph-name="uni04AD" unicode="&#x4ad;" horiz-adv-x="480" 
d="M381 -120h-135v120h-73v358h-153v127h440v-127h-152v-235h73v-243z" />
    <glyph glyph-name="uni04AE" unicode="&#x4ae;" horiz-adv-x="675" 
d="M413 0h-150v245l-258 455h171l162 -300h4l159 300h169l-257 -455v-245z" />
    <glyph glyph-name="uni04AF" unicode="&#x4af;" horiz-adv-x="525" 
d="M330 -210h-135v207l-190 488h149l108 -320h4l108 320h146l-190 -488v-207z" />
    <glyph glyph-name="uni04B0" unicode="&#x4b0;" horiz-adv-x="675" 
d="M501 700h169l-243 -430h133v-78h-147v-192h-150v192h-148v78h134l-244 430h171l162 -300h4z" />
    <glyph glyph-name="uni04B1" unicode="&#x4b1;" horiz-adv-x="525" 
d="M374 485h146l-189 -485h102v-78h-103v-132h-135v132h-102v78h101l-189 485h149l108 -320h4z" />
    <glyph glyph-name="uni04B2" unicode="&#x4b2;" horiz-adv-x="728" 
d="M723 -150h-150v150h-57l-161 257h-3l-161 -257h-171l238 364l-218 336h175l140 -226h3l141 226h171l-217 -333l148 -227h122v-290z" />
    <glyph glyph-name="uni04B3" unicode="&#x4b3;" horiz-adv-x="565" 
d="M550 -120h-135v120h-44l-101 164h-3l-101 -164h-151l167 250l-154 235h156l88 -148h3l89 148h151l-154 -235l86 -127h103v-243z" />
    <glyph glyph-name="uni04B4" unicode="&#x4b4;" horiz-adv-x="893" 
d="M868 -150h-150v150h-530v565h-198v135h518v-135h-170v-425h285v560h150v-560h95v-290z" />
    <glyph glyph-name="uni04B5" unicode="&#x4b5;" horiz-adv-x="690" 
d="M673 -120h-135v120h-395v358h-153v127h393v-127h-105v-230h187v357h135v-357h73v-248z" />
    <glyph glyph-name="uni04B6" unicode="&#x4b6;" horiz-adv-x="753" 
d="M578 -150v150h-95v258q-27 -15 -72.5 -27.5t-92.5 -12.5q-76 0 -133.5 32t-88.5 93t-31 145v212h150v-212q0 -62 35.5 -97.5t97.5 -35.5q40 0 76.5 14t58.5 31v300h150v-560h95v-290h-150z" />
    <glyph glyph-name="uni04B7" unicode="&#x4b7;" horiz-adv-x="570" 
d="M418 -120v120h-73v163q-18 -12 -50 -22.5t-67 -10.5q-82 0 -132.5 53.5t-50.5 146.5v155h135v-145q0 -37 22 -59.5t58 -22.5q28 0 51 8.5t34 18.5v200h135v-362h73v-243h-135z" />
    <glyph glyph-name="uni04B8" unicode="&#x4b8;" horiz-adv-x="728" 
d="M488 700h150v-700h-150v258q-40 -22 -98 -33v-122h-78v115q-113 3 -180 74.5t-67 195.5v212h150v-212q0 -52 25.5 -85.5t71.5 -43.5v144h78v-144q30 6 56.5 17.5t41.5 23.5v300z" />
    <glyph glyph-name="uni04B9" unicode="&#x4b9;" horiz-adv-x="554" 
d="M354 485h135v-485h-135v163q-18 -12 -48 -21v-95h-78v83q-82 2 -132.5 56.5t-50.5 148.5v150h135v-140q0 -29 13 -50t35 -30v112h78v-114q31 7 48 22v200z" />
    <glyph glyph-name="uni04BA" unicode="&#x4ba;" horiz-adv-x="723" 
d="M90 0v700h150v-257q27 15 72.5 27.5t92.5 12.5q76 0 133.5 -32t88.5 -93t31 -145v-213h-150v213q0 62 -35.5 97t-97.5 35q-40 0 -77 -14t-58 -31v-300h-150z" />
    <glyph glyph-name="uni04BB" unicode="&#x4bb;" horiz-adv-x="595" 
d="M70 0v700h135v-284h3q18 30 56.5 54.5t88.5 24.5q53 0 94 -25t64.5 -71.5t23.5 -110.5v-288h-135v270q0 45 -25 71.5t-65 26.5q-46 0 -75.5 -31.5t-29.5 -81.5v-255h-135z" />
    <glyph glyph-name="uni04BC" unicode="&#x4bc;" horiz-adv-x="927" 
d="M892 315h-560q5 -54 33.5 -98t76 -69t106.5 -25q63 0 116 22.5t83 52.5l91 -96q-25 -28 -69 -55t-102 -44.5t-119 -17.5q-101 0 -182.5 43t-131.5 118.5t-57 167.5h-8q-81 0 -126.5 39t-45.5 101q0 34 6 56h119q-2 -24 -2 -35q0 -57 62 -57q15 85 63 152.5t123 106
t166 38.5q100 0 182 -47.5t129 -131t47 -186.5v-35zM729 418q-5 40 -32 77t-69.5 60t-93.5 23t-93.5 -23t-69.5 -60t-32 -77h390z" />
    <glyph glyph-name="uni04BD" unicode="&#x4bd;" horiz-adv-x="664" 
d="M629 200h-353q6 -38 42.5 -66.5t87.5 -28.5q70 0 126 50l71 -85q-30 -32 -85 -56t-122 -24q-65 0 -119.5 27.5t-90.5 75.5t-46 107h-4q-68 0 -103.5 32t-35.5 86q0 19 4 37h100q-2 -12 -2 -22q0 -38 42 -38q12 57 47.5 102.5t88 71.5t112.5 26q69 0 125 -32t88 -87
t32 -123q0 -28 -5 -53zM497 293q-9 40 -37.5 65t-70.5 25q-44 0 -73 -25t-41 -65h222z" />
    <glyph glyph-name="uni04BE" unicode="&#x4be;" horiz-adv-x="927" 
d="M892 315h-560q5 -54 33.5 -98t76 -69t106.5 -25q63 0 116 22.5t83 52.5l91 -96q-31 -35 -92.5 -67.5t-133.5 -44.5v-140h-150v144q-79 17 -141.5 62.5t-100 112t-43.5 145.5h-8q-81 0 -126.5 39t-45.5 101q0 34 6 56h119q-2 -24 -2 -35q0 -57 62 -57q15 85 63 152.5
t123 106t166 38.5q100 0 182 -47.5t129 -131t47 -186.5v-35zM729 418q-5 40 -32 77t-69.5 60t-93.5 23t-93.5 -23t-69.5 -60t-32 -77h390z" />
    <glyph glyph-name="uni04BF" unicode="&#x4bf;" horiz-adv-x="664" 
d="M629 200h-353q6 -38 42.5 -66.5t87.5 -28.5q70 0 126 50l71 -85q-21 -23 -57.5 -43t-81.5 -30v-117h-135v118q-74 19 -125.5 74t-63.5 128h-4q-68 0 -103.5 32t-35.5 86q0 19 4 37h100q-2 -12 -2 -22q0 -38 42 -38q12 57 47.5 102.5t88 71.5t112.5 26q69 0 125 -32
t88 -87t32 -123q0 -28 -5 -53zM497 293q-9 40 -37.5 65t-70.5 25q-44 0 -73 -25t-41 -65h222z" />
    <glyph glyph-name="uni04C0" unicode="&#x4c0;" horiz-adv-x="330" 
d="M240 0h-150v700h150v-700z" />
    <glyph glyph-name="uni04C1" unicode="&#x4c1;" horiz-adv-x="1043" 
d="M184 0h-176l280 410l-260 290h179l243 -275v275h143v-275l244 275h179l-260 -290l280 -410h-176l-203 301l-64 -71v-230h-143v230l-63 71zM431 795q-39 21 -60 57t-21 81h105q0 -29 18.5 -47.5t48.5 -18.5q31 0 49.5 18.5t18.5 47.5h104q0 -69 -46.5 -114t-125.5 -45
q-52 0 -91 21z" />
    <glyph glyph-name="uni04C2" unicode="&#x4c2;" horiz-adv-x="793" 
d="M158 0h-153l195 285l-185 200h163l155 -181v181h128v-181l155 181h162l-185 -200l195 -285h-152l-133 198l-42 -47v-151h-128v151l-43 47zM312 575q-38 20 -59.5 55t-21.5 78h101q0 -27 18.5 -45t46.5 -18t46 18t18 45h101q0 -43 -21 -78t-59 -55t-85 -20t-85 20z" />
    <glyph glyph-name="uni04C3" unicode="&#x4c3;" horiz-adv-x="745" 
d="M428 405q83 -1 143.5 -37.5t93.5 -103.5t33 -159q0 -100 -39 -174t-109.5 -114t-164.5 -40v148q73 0 116.5 47.5t43.5 132.5q0 79 -40 123.5t-105 44.5q-52 0 -88.5 -21.5t-69.5 -54.5l-2 -2v-195h-150v700h150v-305l272 305h181z" />
    <glyph glyph-name="uni04C4" unicode="&#x4c4;" horiz-adv-x="570" 
d="M344 276q95 -10 148 -75.5t53 -165.5q0 -78 -30 -135.5t-84.5 -88.5t-127.5 -31v127q48 0 77.5 35t29.5 96q0 60 -30 93.5t-80 33.5q-30 0 -57.5 -11.5t-42.5 -25.5v-128h-135v485h135v-197l175 197h163z" />
    <glyph glyph-name="uni04C5" unicode="&#x4c5;" horiz-adv-x="805" 
d="M685 140h105v-20l-102 -270h-113l43 150h-83v560h-204l-2 -75q-4 -195 -33 -304.5t-79 -152.5t-125 -43q-21 0 -42.5 5.5t-34.5 12.5v137q28 -10 50 -10q35 0 59.5 28t40 106t18.5 221l4 215h498v-560z" />
    <glyph glyph-name="uni04C6" unicode="&#x4c6;" horiz-adv-x="606" 
d="M516 123h82v-20l-89 -223h-102l32 120h-58v358h-124v-23q-5 -193 -51.5 -270.5t-132.5 -77.5q-31 0 -60 13v124q17 -5 32 -5q29 0 46 18t27 69.5t12 151.5l4 127h382v-362z" />
    <glyph glyph-name="uni04C7" unicode="&#x4c7;" horiz-adv-x="780" 
d="M469 -213.5q-25 4.5 -41 10.5v133q22 -12 52 -12t45 16t15 45v306h-300v-285h-150v700h150v-275h300v275h150v-730q0 -89 -46 -138.5t-124 -49.5q-26 0 -51 4.5z" />
    <glyph glyph-name="uni04C8" unicode="&#x4c8;" 
d="M291 -203v120q20 -10 46 -10q53 0 53 60v216h-190v-183h-135v485h135v-177h190v177h135v-531q0 -81 -42 -126.5t-113 -45.5q-44 0 -79 15z" />
    <glyph glyph-name="uni04C9" unicode="&#x4c9;" horiz-adv-x="810" 
d="M693 -150h-113l43 150h-83v285h-300v-285h-150v700h150v-275h300v275h150v-560h105v-20z" />
    <glyph glyph-name="uni04CA" unicode="&#x4ca;" horiz-adv-x="615" 
d="M518 -120h-102l32 120h-58v183h-190v-183h-135v485h135v-177h190v177h135v-362h82v-20z" />
    <glyph glyph-name="uni04CB" unicode="&#x4cb;" horiz-adv-x="723" 
d="M388 -150v288h95v120q-27 -15 -72.5 -27.5t-92.5 -12.5q-76 0 -133.5 32t-88.5 93t-31 145v212h150v-212q0 -62 35.5 -97.5t97.5 -35.5q40 0 76.5 14t58.5 31v300h150v-700h-95v-150h-150z" />
    <glyph glyph-name="uni04CC" unicode="&#x4cc;" horiz-adv-x="545" 
d="M273 -120v208h72v75q-18 -12 -50 -22.5t-67 -10.5q-82 0 -132.5 53.5t-50.5 146.5v155h135v-145q0 -37 22 -59.5t58 -22.5q28 0 51 8.5t34 18.5v200h135v-485h-72v-120h-135z" />
    <glyph glyph-name="uni04CD" unicode="&#x4cd;" horiz-adv-x="960" 
d="M843 -150h-113l43 150h-83v461h-4l-221 -281l-221 281h-4v-461h-150v700h137l239 -304h2l239 304h133v-560h105v-20z" />
    <glyph glyph-name="uni04CE" unicode="&#x4ce;" horiz-adv-x="690" 
d="M593 -120h-102l32 120h-58v281h-3l-129 -161l-130 161h-3v-281h-135v485h116l151 -188h4l150 188h114v-362h82v-20z" />
    <glyph glyph-name="uni04CF" unicode="&#x4cf;" horiz-adv-x="275" 
d="M205 0h-135v700h135v-700z" />
    <glyph glyph-name="uni04D0" unicode="&#x4d0;" horiz-adv-x="730" 
d="M167 0h-157l272 700h167l271 -700h-159l-59 158h-277zM362 547l-93 -262h189l-93 262h-3zM274 795q-39 21 -60 57t-21 81h105q0 -29 18.5 -47.5t48.5 -18.5q31 0 49.5 18.5t18.5 47.5h104q0 -69 -46.5 -114t-125.5 -45q-52 0 -91 21z" />
    <glyph glyph-name="uni04D1" unicode="&#x4d1;" horiz-adv-x="533" 
d="M370.5 469.5q48.5 -25.5 75.5 -69t27 -95.5v-305h-128v67h-3q-18 -29 -57 -53t-89 -24q-46 0 -82.5 19t-57.5 51.5t-21 69.5q0 62 39 102t111 54l153 29q-2 29 -25.5 49.5t-59.5 20.5q-62 0 -113 -57l-77 74q32 38 82.5 65.5t114.5 27.5q62 0 110.5 -25.5zM308.5 129
q29.5 31 29.5 81v16l-105 -21q-28 -5 -44 -20.5t-16 -34.5q0 -23 16.5 -37.5t45.5 -14.5q44 0 73.5 31zM191 575q-38 20 -59.5 55t-21.5 78h101q0 -27 18.5 -45t46.5 -18t46 18t18 45h101q0 -43 -21 -78t-59 -55t-85 -20t-85 20z" />
    <glyph glyph-name="uni04D2" unicode="&#x4d2;" horiz-adv-x="730" 
d="M167 0h-157l272 700h167l271 -700h-159l-59 158h-277zM362 547l-93 -262h189l-93 262h-3zM207 809q-22 21 -22 51t22 51.5t51 21.5q28 0 50 -21.5t22 -51.5q0 -29 -22 -50.5t-50 -21.5q-29 0 -51 21zM422 809q-22 21 -22 51t22 51.5t51 21.5q28 0 50 -21.5t22 -51.5
q0 -29 -22 -50.5t-50 -21.5q-29 0 -51 21z" />
    <glyph glyph-name="uni04D3" unicode="&#x4d3;" horiz-adv-x="533" 
d="M370.5 469.5q48.5 -25.5 75.5 -69t27 -95.5v-305h-128v67h-3q-18 -29 -57 -53t-89 -24q-46 0 -82.5 19t-57.5 51.5t-21 69.5q0 62 39 102t111 54l153 29q-2 29 -25.5 49.5t-59.5 20.5q-62 0 -113 -57l-77 74q32 38 82.5 65.5t114.5 27.5q62 0 110.5 -25.5zM308.5 129
q29.5 31 29.5 81v16l-105 -21q-28 -5 -44 -20.5t-16 -34.5q0 -23 16.5 -37.5t45.5 -14.5q44 0 73.5 31zM117 581.5q-22 21.5 -22 51.5t22 51t51 21q28 0 50 -21.5t22 -50.5q0 -30 -22 -51.5t-50 -21.5q-29 0 -51 21.5zM332 581.5q-22 21.5 -22 51.5t22 51t51 21
q28 0 50 -21.5t22 -50.5q0 -30 -22 -51.5t-50 -21.5q-29 0 -51 21.5z" />
    <glyph glyph-name="uni04D4" unicode="&#x4d4;" horiz-adv-x="1033" 
d="M160 0h-160l390 700h583v-135h-330v-143h250v-130h-250v-157h340v-135h-483v173h-244zM477 570l-150 -270h173v270h-23z" />
    <glyph glyph-name="uni04D5" unicode="&#x4d5;" horiz-adv-x="863" 
d="M828 200h-340q5 -38 40 -66.5t83 -28.5q37 0 68.5 14.5t52.5 35.5l70 -85q-28 -30 -83.5 -55t-120.5 -25q-64 0 -113 28.5t-73 65.5h-5q-25 -36 -75.5 -65t-113.5 -29q-86 0 -134.5 40.5t-48.5 102.5q0 63 47 105.5t134 49.5l129 15q0 37 -24 59.5t-65 22.5
q-37 0 -67 -16.5t-49 -40.5l-77 74q31 38 81 65.5t111 27.5q54 0 97 -24t63 -55h5q24 31 70 55t103 24q67 0 121.5 -32t86.5 -87.5t32 -122.5q0 -28 -5 -53zM698 293q-9 40 -36 65t-67 25q-41 0 -69.5 -25t-38.5 -65h211zM314 129q31 31 31 78v7l-94 -9q-39 -1 -58.5 -16.5
t-19.5 -38.5t17 -37.5t48 -14.5q45 0 76 31z" />
    <glyph glyph-name="uni04D6" unicode="&#x4d6;" horiz-adv-x="665" 
d="M615 0h-525v700h515v-135h-365v-142h285v-130h-285v-158h375v-135zM260 795q-39 21 -60 57t-21 81h105q0 -29 18.5 -47.5t48.5 -18.5q31 0 49.5 18.5t18.5 47.5h104q0 -69 -46.5 -114t-125.5 -45q-52 0 -91 21z" />
    <glyph glyph-name="uni04D7" unicode="&#x4d7;" horiz-adv-x="563" 
d="M163.5 24q-59.5 34 -94 92t-34.5 127t34 127t92 91.5t127 33.5t125 -32t88 -87t32 -123q0 -28 -5 -53h-353q6 -38 42.5 -66.5t87.5 -28.5q70 0 126 50l71 -85q-30 -32 -85 -56t-122 -24q-72 0 -131.5 34zM396 293q-9 40 -37.5 65t-70.5 25q-44 0 -73 -25t-41 -65h222z
M203 575q-38 20 -59.5 55t-21.5 78h101q0 -27 18.5 -45t46.5 -18t46 18t18 45h101q0 -43 -21 -78t-59 -55t-85 -20t-85 20z" />
    <glyph glyph-name="uni04D8" unicode="&#x4d8;" horiz-adv-x="808" 
d="M221 32.5q-82 47.5 -129 131t-47 186.5v38h560q-5 54 -33.5 97.5t-75 68t-103.5 24.5q-62 0 -112.5 -23t-83.5 -53l-97 93q47 51 123.5 85.5t169.5 34.5q105 0 188.5 -47.5t131 -130.5t47.5 -187q0 -103 -47 -186.5t-128.5 -131t-181.5 -47.5t-182 47.5zM495.5 145.5
q42.5 22.5 69 59.5t32.5 78h-389q6 -41 32.5 -78t69.5 -59.5t93 -22.5t92.5 22.5z" />
    <glyph glyph-name="uni04D9" unicode="&#x4d9;" horiz-adv-x="568" 
d="M155 22q-56 32 -88 87.5t-32 123.5q0 27 5 52h353q-6 39 -41 67t-88 28q-39 0 -66 -12.5t-56 -35.5l-75 80q37 36 89 59.5t117 23.5q75 0 134.5 -33.5t92.5 -91t33 -127.5q0 -69 -34 -127t-92 -92t-127 -34t-125 32zM353 127.5q29 24.5 41 65.5h-222q9 -40 37.5 -65
t70.5 -25q44 0 73 24.5z" />
    <glyph glyph-name="uni04DA" unicode="&#x4da;" horiz-adv-x="808" 
d="M221 32.5q-82 47.5 -129 131t-47 186.5v38h560q-5 54 -33.5 97.5t-75 68t-103.5 24.5q-62 0 -112.5 -23t-83.5 -53l-97 93q47 51 123.5 85.5t169.5 34.5q105 0 188.5 -47.5t131 -130.5t47.5 -187q0 -103 -47 -186.5t-128.5 -131t-181.5 -47.5t-182 47.5zM495.5 145.5
q42.5 22.5 69 59.5t32.5 78h-389q6 -41 32.5 -78t69.5 -59.5t93 -22.5t92.5 22.5zM248 809q-22 21 -22 51t22 51.5t51 21.5q28 0 50 -21.5t22 -51.5q0 -29 -22 -50.5t-50 -21.5q-29 0 -51 21zM463 809q-22 21 -22 51t22 51.5t51 21.5q28 0 50 -21.5t22 -51.5
q0 -29 -22 -50.5t-50 -21.5q-29 0 -51 21z" />
    <glyph glyph-name="uni04DB" unicode="&#x4db;" horiz-adv-x="568" 
d="M155 22q-56 32 -88 87.5t-32 123.5q0 27 5 52h353q-6 39 -41 67t-88 28q-39 0 -66 -12.5t-56 -35.5l-75 80q37 36 89 59.5t117 23.5q75 0 134.5 -33.5t92.5 -91t33 -127.5q0 -69 -34 -127t-92 -92t-127 -34t-125 32zM353 127.5q29 24.5 41 65.5h-222q9 -40 37.5 -65
t70.5 -25q44 0 73 24.5zM118 581.5q-22 21.5 -22 51.5t22 51t51 21q28 0 50 -21.5t22 -50.5q0 -30 -22 -51.5t-50 -21.5q-29 0 -51 21.5zM333 581.5q-22 21.5 -22 51.5t22 51t51 21q28 0 50 -21.5t22 -50.5q0 -30 -22 -51.5t-50 -21.5q-29 0 -51 21.5z" />
    <glyph glyph-name="uni04DC" unicode="&#x4dc;" horiz-adv-x="1043" 
d="M184 0h-176l280 410l-260 290h179l243 -275v275h143v-275l244 275h179l-260 -290l280 -410h-176l-203 301l-64 -71v-230h-143v230l-63 71zM364 809q-22 21 -22 51t22 51.5t51 21.5q28 0 50 -21.5t22 -51.5q0 -29 -22 -50.5t-50 -21.5q-29 0 -51 21zM579 809
q-22 21 -22 51t22 51.5t51 21.5q28 0 50 -21.5t22 -51.5q0 -29 -22 -50.5t-50 -21.5q-29 0 -51 21z" />
    <glyph glyph-name="uni04DD" unicode="&#x4dd;" horiz-adv-x="793" 
d="M158 0h-153l195 285l-185 200h163l155 -181v181h128v-181l155 181h162l-185 -200l195 -285h-152l-133 198l-42 -47v-151h-128v151l-43 47zM239 581.5q-22 21.5 -22 51.5t22 51t51 21q28 0 50 -21.5t22 -50.5q0 -30 -22 -51.5t-50 -21.5q-29 0 -51 21.5zM454 581.5
q-22 21.5 -22 51.5t22 51t51 21q28 0 50 -21.5t22 -50.5q0 -30 -22 -51.5t-50 -21.5q-29 0 -51 21.5z" />
    <glyph glyph-name="uni04DE" unicode="&#x4de;" horiz-adv-x="621" 
d="M132.5 20q-72.5 35 -109.5 80l91 96q29 -30 72.5 -51.5t99.5 -21.5q61 0 94.5 25.5t33.5 61.5q0 35 -33 61t-90 26h-90v130h83q52 0 79.5 21.5t27.5 54.5q0 32 -28 53.5t-81 21.5q-43 0 -80.5 -18t-66.5 -44l-90 96q42 42 106.5 72.5t142.5 30.5q80 0 137.5 -26t87.5 -70
t30 -96q0 -56 -35 -97t-82 -56q57 -17 98 -63t41 -109q0 -57 -33 -106t-96 -78t-148 -29q-89 0 -161.5 35zM153 809q-22 21 -22 51t22 51.5t51 21.5q28 0 50 -21.5t22 -51.5q0 -29 -22 -50.5t-50 -21.5q-29 0 -51 21zM368 809q-22 21 -22 51t22 51.5t51 21.5q28 0 50 -21.5
t22 -51.5q0 -29 -22 -50.5t-50 -21.5q-29 0 -51 21z" />
    <glyph glyph-name="uni04DF" unicode="&#x4df;" horiz-adv-x="478" 
d="M105.5 17q-55.5 27 -82.5 61l77 79q19 -21 50.5 -37.5t67.5 -16.5q34 0 52 14t18 36q0 20 -18 33.5t-52 13.5h-58v100h55q28 0 44 12t16 28q0 18 -15.5 30.5t-44.5 12.5q-31 0 -58.5 -11t-43.5 -25l-78 80q29 27 79 47.5t114 20.5q60 0 103.5 -19t66 -50.5t22.5 -67.5
q0 -39 -24 -67t-55 -41q33 -10 62.5 -40t29.5 -75q0 -39 -23.5 -72t-69.5 -53t-110 -20q-69 0 -124.5 27zM79 581.5q-22 21.5 -22 51.5t22 51t51 21q28 0 50 -21.5t22 -50.5q0 -30 -22 -51.5t-50 -21.5q-29 0 -51 21.5zM294 581.5q-22 21.5 -22 51.5t22 51t51 21
q28 0 50 -21.5t22 -50.5q0 -30 -22 -51.5t-50 -21.5q-29 0 -51 21.5z" />
    <glyph glyph-name="uni04E0" unicode="&#x4e0;" horiz-adv-x="628" 
d="M364 420q62 -4 111 -33t76 -76t27 -101q0 -61 -34.5 -112.5t-99 -82t-151.5 -30.5q-88 0 -160.5 35t-109.5 80l91 96q29 -30 73 -51.5t101 -21.5q63 0 96.5 26t33.5 66t-33.5 66.5t-96.5 26.5h-112v97l189 160h-297v135h480v-125z" />
    <glyph glyph-name="uni04E1" unicode="&#x4e1;" horiz-adv-x="510" 
d="M294 202q55 -6 97.5 -34t65.5 -71.5t23 -93.5q0 -61 -30 -109.5t-86.5 -76t-133.5 -27.5q-75 0 -134.5 28t-85.5 62l80 90q20 -22 55 -40t75 -18q57 0 90 27.5t33 68.5t-33 68t-90 27h-92v85l164 171h-247v126h405v-120z" />
    <glyph glyph-name="uni04E2" unicode="&#x4e2;" horiz-adv-x="805" 
d="M223 0h-133v700h150v-452h4l339 452h132v-700h-150v453h-3zM561 810h-315v100h315v-100z" />
    <glyph glyph-name="uni04E3" unicode="&#x4e3;" horiz-adv-x="595" 
d="M183 0h-118v485h133v-275h3l212 275h117v-485h-132v276h-3zM455 583h-315v100h315v-100z" />
    <glyph glyph-name="uni04E4" unicode="&#x4e4;" horiz-adv-x="805" 
d="M223 0h-133v700h150v-452h4l339 452h132v-700h-150v453h-3zM245 809q-22 21 -22 51t22 51.5t51 21.5q28 0 50 -21.5t22 -51.5q0 -29 -22 -50.5t-50 -21.5q-29 0 -51 21zM460 809q-22 21 -22 51t22 51.5t51 21.5q28 0 50 -21.5t22 -51.5q0 -29 -22 -50.5t-50 -21.5
q-29 0 -51 21z" />
    <glyph glyph-name="uni04E5" unicode="&#x4e5;" horiz-adv-x="595" 
d="M183 0h-118v485h133v-275h3l212 275h117v-485h-132v276h-3zM140 581.5q-22 21.5 -22 51.5t22 51t51 21q28 0 50 -21.5t22 -50.5q0 -30 -22 -51.5t-50 -21.5q-29 0 -51 21.5zM355 581.5q-22 21.5 -22 51.5t22 51t51 21q28 0 50 -21.5t22 -50.5q0 -30 -22 -51.5t-50 -21.5
q-29 0 -51 21.5z" />
    <glyph glyph-name="uni04E6" unicode="&#x4e6;" horiz-adv-x="855" 
d="M234 34q-87 49 -136.5 132.5t-49.5 183.5t49.5 184t136.5 132.5t194 48.5t193.5 -48.5t136.5 -132.5t50 -184t-50 -183.5t-137 -132.5t-193 -49q-107 0 -194 49zM543 153q52 30 82 82t30 115t-30 115t-82 82.5t-115 30.5t-115.5 -30t-82.5 -82.5t-30 -115.5t30.5 -115
t82.5 -82t115 -30t115 30zM270 809q-22 21 -22 51t22 51.5t51 21.5q28 0 50 -21.5t22 -51.5q0 -29 -22 -50.5t-50 -21.5q-29 0 -51 21zM485 809q-22 21 -22 51t22 51.5t51 21.5q28 0 50 -21.5t22 -51.5q0 -29 -22 -50.5t-50 -21.5q-29 0 -51 21z" />
    <glyph glyph-name="uni04E7" unicode="&#x4e7;" 
d="M163.5 24q-59.5 34 -94 92t-34.5 127t34.5 127t94 91.5t131.5 33.5q73 0 132.5 -33.5t93.5 -91.5t34 -127t-34 -127t-93.5 -92t-132.5 -34q-72 0 -131.5 34zM382 152q36 37 36 91t-36 90.5t-87 36.5t-86.5 -36.5t-35.5 -90.5t35.5 -91t86.5 -37t87 37zM137 581.5
q-22 21.5 -22 51.5t22 51t51 21q28 0 50 -21.5t22 -50.5q0 -30 -22 -51.5t-50 -21.5q-29 0 -51 21.5zM352 581.5q-22 21.5 -22 51.5t22 51t51 21q28 0 50 -21.5t22 -50.5q0 -30 -22 -51.5t-50 -21.5q-29 0 -51 21.5z" />
    <glyph glyph-name="uni04E8" unicode="&#x4e8;" horiz-adv-x="855" 
d="M621.5 666.5q86.5 -48.5 136.5 -132.5t50 -184t-50 -183.5t-137 -132.5t-193 -49q-107 0 -194 49t-136.5 132.5t-49.5 183.5t49.5 184t136.5 132.5t194 48.5t193.5 -48.5zM323 553.5q-48 -24.5 -79.5 -67.5t-40.5 -97h449q-9 54 -40.5 97t-79.5 67.5t-104 24.5
q-57 0 -105 -24.5zM532 147.5q48 24.5 79.5 67t40.5 96.5h-449q9 -54 40.5 -96.5t79.5 -67t105 -24.5q56 0 104 24.5z" />
    <glyph glyph-name="uni04E9" unicode="&#x4e9;" 
d="M427.5 461.5q59.5 -33.5 93.5 -91.5t34 -127t-34 -127t-93.5 -92t-132.5 -34q-72 0 -131.5 34t-94 92t-34.5 127t34.5 127t94 91.5t131.5 33.5q73 0 132.5 -33.5zM223 346q-32 -24 -44 -63h233q-12 39 -44 63t-73 24q-40 0 -72 -24zM369 140q32 25 44 65h-235
q12 -40 44 -65t73 -25q42 0 74 25z" />
    <glyph glyph-name="uni04EA" unicode="&#x4ea;" horiz-adv-x="855" 
d="M621.5 666.5q86.5 -48.5 136.5 -132.5t50 -184t-50 -183.5t-137 -132.5t-193 -49q-107 0 -194 49t-136.5 132.5t-49.5 183.5t49.5 184t136.5 132.5t194 48.5t193.5 -48.5zM323 553.5q-48 -24.5 -79.5 -67.5t-40.5 -97h449q-9 54 -40.5 97t-79.5 67.5t-104 24.5
q-57 0 -105 -24.5zM532 147.5q48 24.5 79.5 67t40.5 96.5h-449q9 -54 40.5 -96.5t79.5 -67t105 -24.5q56 0 104 24.5zM270 809q-22 21 -22 51t22 51.5t51 21.5q28 0 50 -21.5t22 -51.5q0 -29 -22 -50.5t-50 -21.5q-29 0 -51 21zM485 809q-22 21 -22 51t22 51.5t51 21.5
q28 0 50 -21.5t22 -51.5q0 -29 -22 -50.5t-50 -21.5q-29 0 -51 21z" />
    <glyph glyph-name="uni04EB" unicode="&#x4eb;" 
d="M427.5 461.5q59.5 -33.5 93.5 -91.5t34 -127t-34 -127t-93.5 -92t-132.5 -34q-72 0 -131.5 34t-94 92t-34.5 127t34.5 127t94 91.5t131.5 33.5q73 0 132.5 -33.5zM223 346q-32 -24 -44 -63h233q-12 39 -44 63t-73 24q-40 0 -72 -24zM369 140q32 25 44 65h-235
q12 -40 44 -65t73 -25q42 0 74 25zM137 581.5q-22 21.5 -22 51.5t22 51t51 21q28 0 50 -21.5t22 -50.5q0 -30 -22 -51.5t-50 -21.5q-29 0 -51 21.5zM352 581.5q-22 21.5 -22 51.5t22 51t51 21q28 0 50 -21.5t22 -50.5q0 -30 -22 -51.5t-50 -21.5q-29 0 -51 21.5z" />
    <glyph glyph-name="uni04EC" unicode="&#x4ec;" horiz-adv-x="751" 
d="M146 25q-76 40 -123 95l101 91q39 -40 85.5 -64t113.5 -24q79 0 138.5 46t79.5 119h-301v130h300q-21 72 -76 116t-131 44q-67 0 -113.5 -24.5t-85.5 -63.5l-101 90q47 55 123 95t177 40q107 0 191.5 -48.5t131.5 -132t47 -184.5q0 -100 -49.5 -183.5t-136.5 -132.5
t-194 -49q-101 0 -177 40zM194 809q-22 21 -22 51t22 51.5t51 21.5q28 0 50 -21.5t22 -51.5q0 -29 -22 -50.5t-50 -21.5q-29 0 -51 21zM409 809q-22 21 -22 51t22 51.5t51 21.5q28 0 50 -21.5t22 -51.5q0 -29 -22 -50.5t-50 -21.5q-29 0 -51 21z" />
    <glyph glyph-name="uni04ED" unicode="&#x4ed;" horiz-adv-x="531" 
d="M110 20q-55 30 -87 70l80 74q55 -59 128 -59q46 0 79.5 25.5t47.5 67.5h-195v97h193q-15 39 -48 62t-77 23q-72 0 -124 -56l-80 73q29 39 83.5 68.5t125.5 29.5q72 0 131.5 -33.5t94 -91.5t34.5 -127t-34.5 -127t-94 -92t-131.5 -34q-71 0 -126 30zM95 581.5
q-22 21.5 -22 51.5t22 51t51 21q28 0 50 -21.5t22 -50.5q0 -30 -22 -51.5t-50 -21.5q-29 0 -51 21.5zM310 581.5q-22 21.5 -22 51.5t22 51t51 21q28 0 50 -21.5t22 -50.5q0 -30 -22 -51.5t-50 -21.5q-29 0 -51 21.5z" />
    <glyph glyph-name="uni04EE" unicode="&#x4ee;" horiz-adv-x="673" 
d="M504 700h159l-238 -532q-39 -86 -97 -131.5t-139 -45.5q-26 0 -47 4.5t-33 9.5v133q33 -9 59 -9q45 0 72.5 20.5t45.5 55.5l2 3l-268 492h169l175 -337h3zM505 810h-315v100h315v-100z" />
    <glyph glyph-name="uni04EF" unicode="&#x4ef;" horiz-adv-x="533" 
d="M384 485h139l-188 -525q-31 -88 -77 -129t-115 -41q-24 0 -46.5 4.5t-36.5 10.5v125q10 -5 25 -9.5t30 -4.5q31 0 51.5 15t31.5 39l15 33l-208 482h147l128 -321h3zM425 583h-315v100h315v-100z" />
    <glyph glyph-name="uni04F0" unicode="&#x4f0;" horiz-adv-x="673" 
d="M504 700h159l-238 -532q-39 -86 -97 -131.5t-139 -45.5q-26 0 -47 4.5t-33 9.5v133q33 -9 59 -9q45 0 72.5 20.5t45.5 55.5l2 3l-268 492h169l175 -337h3zM190 809q-22 21 -22 51t22 51.5t51 21.5q28 0 50 -21.5t22 -51.5q0 -29 -22 -50.5t-50 -21.5q-29 0 -51 21z
M405 809q-22 21 -22 51t22 51.5t51 21.5q28 0 50 -21.5t22 -51.5q0 -29 -22 -50.5t-50 -21.5q-29 0 -51 21z" />
    <glyph glyph-name="uni04F1" unicode="&#x4f1;" horiz-adv-x="533" 
d="M384 485h139l-188 -525q-31 -88 -77 -129t-115 -41q-24 0 -46.5 4.5t-36.5 10.5v125q10 -5 25 -9.5t30 -4.5q31 0 51.5 15t31.5 39l15 33l-208 482h147l128 -321h3zM110 581.5q-22 21.5 -22 51.5t22 51t51 21q28 0 50 -21.5t22 -50.5q0 -30 -22 -51.5t-50 -21.5
q-29 0 -51 21.5zM325 581.5q-22 21.5 -22 51.5t22 51t51 21q28 0 50 -21.5t22 -50.5q0 -30 -22 -51.5t-50 -21.5q-29 0 -51 21.5z" />
    <glyph glyph-name="uni04F2" unicode="&#x4f2;" horiz-adv-x="673" 
d="M504 700h159l-238 -532q-39 -86 -97 -131.5t-139 -45.5q-26 0 -47 4.5t-33 9.5v133q33 -9 59 -9q45 0 72.5 20.5t45.5 55.5l2 3l-268 492h169l175 -337h3zM301 785h-100l83 150h132zM489 785h-100l82 150h133z" />
    <glyph glyph-name="uni04F3" unicode="&#x4f3;" horiz-adv-x="533" 
d="M384 485h139l-188 -525q-31 -88 -77 -129t-115 -41q-24 0 -46.5 4.5t-36.5 10.5v125q10 -5 25 -9.5t30 -4.5q31 0 51.5 15t31.5 39l15 33l-208 482h147l128 -321h3zM221 558h-100l83 150h132zM409 558h-100l82 150h133z" />
    <glyph glyph-name="uni04F4" unicode="&#x4f4;" horiz-adv-x="723" 
d="M483 258q-27 -15 -72.5 -27.5t-92.5 -12.5q-76 0 -133.5 32t-88.5 93t-31 145v212h150v-212q0 -62 35.5 -97.5t97.5 -35.5q40 0 76.5 14t58.5 31v300h150v-700h-150v258zM196 809q-22 21 -22 51t22 51.5t51 21.5q28 0 50 -21.5t22 -51.5q0 -29 -22 -50.5t-50 -21.5
q-29 0 -51 21zM411 809q-22 21 -22 51t22 51.5t51 21.5q28 0 50 -21.5t22 -51.5q0 -29 -22 -50.5t-50 -21.5q-29 0 -51 21z" />
    <glyph glyph-name="uni04F5" unicode="&#x4f5;" horiz-adv-x="545" 
d="M345 163q-18 -12 -50 -22.5t-67 -10.5q-82 0 -132.5 53.5t-50.5 146.5v155h135v-145q0 -37 22 -59.5t58 -22.5q28 0 51 8.5t34 18.5v200h135v-485h-135v163zM105 581.5q-22 21.5 -22 51.5t22 51t51 21q28 0 50 -21.5t22 -50.5q0 -30 -22 -51.5t-50 -21.5q-29 0 -51 21.5z
M320 581.5q-22 21.5 -22 51.5t22 51t51 21q28 0 50 -21.5t22 -50.5q0 -30 -22 -51.5t-50 -21.5q-29 0 -51 21.5z" />
    <glyph glyph-name="uni04F6" unicode="&#x4f6;" horiz-adv-x="570" 
d="M335 -150h-150v150h-95v700h470v-140h-320v-420h95v-290z" />
    <glyph glyph-name="uni04F7" unicode="&#x4f7;" horiz-adv-x="430" 
d="M273 -120h-135v120h-73v485h355v-127h-220v-235h73v-243z" />
    <glyph glyph-name="uni04F8" unicode="&#x4f8;" horiz-adv-x="950" 
d="M90 0v700h150v-230h138q71 0 127.5 -31t88 -84.5t31.5 -119.5t-31.5 -119.5t-88 -84.5t-127.5 -31h-288zM860 0h-150v700h150v-700zM373 135q43 0 72.5 29t29.5 71t-29.5 71t-72.5 29h-133v-200h133zM318 809q-22 21 -22 51t22 51.5t51 21.5q28 0 50 -21.5t22 -51.5
q0 -29 -22 -50.5t-50 -21.5q-29 0 -51 21zM533 809q-22 21 -22 51t22 51.5t51 21.5q28 0 50 -21.5t22 -51.5q0 -29 -22 -50.5t-50 -21.5q-29 0 -51 21z" />
    <glyph glyph-name="uni04F9" unicode="&#x4f9;" horiz-adv-x="738" 
d="M65 0v485h135v-145h83q57 0 100.5 -22.5t67.5 -61t24 -86.5t-24 -86.5t-67.5 -61t-100.5 -22.5h-218zM673 0h-135v485h135v-485zM273 110q31 0 49 16.5t18 43.5t-18 43.5t-49 16.5h-73v-120h73zM211 581.5q-22 21.5 -22 51.5t22 51t51 21q28 0 50 -21.5t22 -50.5
q0 -30 -22 -51.5t-50 -21.5q-29 0 -51 21.5zM426 581.5q-22 21.5 -22 51.5t22 51t51 21q28 0 50 -21.5t22 -50.5q0 -30 -22 -51.5t-50 -21.5q-29 0 -51 21.5z" />
    <glyph glyph-name="uni04FA" unicode="&#x4fa;" 
d="M580 560h-320v-188h178v-78h-178v-154h89v-183q0 -87 -43 -131t-113 -44q-56 0 -83 15v124q16 -8 38 -8t36.5 12t14.5 36v39h-89v294h-79v78h79v328h470v-140z" />
    <glyph glyph-name="uni04FB" unicode="&#x4fb;" horiz-adv-x="450" 
d="M440 358h-220v-112h123v-78h-123v-55h73v-173q0 -78 -35.5 -118t-99.5 -40q-22 0 -41 3.5t-29 8.5v105q9 -7 30 -7q40 0 40 48v60h-73v168h-72v78h72v239h355v-127z" />
    <glyph glyph-name="uni04FC" unicode="&#x4fc;" horiz-adv-x="710" 
d="M452 -211q-27 7 -42 16v122q24 -12 55 -12q28 0 44 14.5t16 37.5q0 18 -8 36t-32 55l-130 204h-3l-163 -262h-169l238 364l-218 336h172l143 -231h3l144 231h168l-217 -333l153 -237q39 -62 54 -99t15 -82q0 -78 -45 -122.5t-122 -44.5q-29 0 -56 7z" />
    <glyph glyph-name="uni04FD" unicode="&#x4fd;" horiz-adv-x="542" 
d="M326.5 -212.5q-21.5 5.5 -34.5 12.5v112q18 -10 43 -10q26 0 40.5 12.5t14.5 35.5q0 16 -7 32t-30 53l-82 134h-3l-104 -169h-149l167 250l-154 235h151l91 -153h3l91 153h149l-154 -235l111 -167q31 -47 43 -79.5t12 -68.5q0 -68 -43 -110.5t-112 -42.5q-22 0 -43.5 5.5
z" />
    <glyph glyph-name="uni04FE" unicode="&#x4fe;" horiz-adv-x="710" 
d="M612 327h-133l211 -327h-174l-161 257h-3l-161 -257h-171l214 327h-137v78h134l-191 295h175l140 -226h3l141 226h171l-192 -295h134v-78z" />
    <glyph glyph-name="uni04FF" unicode="&#x4ff;" horiz-adv-x="542" 
d="M469 213h-83l141 -213h-156l-101 164h-3l-101 -164h-151l142 213h-83v75h83l-129 197h156l88 -148h3l89 148h151l-129 -197h83v-75z" />
    <glyph glyph-name="uni0510" unicode="&#x510;" horiz-adv-x="616" 
d="M179 14q-63 29 -96 77.5t-33 106.5q0 63 41.5 109t98.5 63q-48 15 -82.5 56t-34.5 97q0 52 30 96t89 70t140 26q76 0 139.5 -28t107.5 -68l-91 -96q-67 55 -144 55q-56 0 -85 -21.5t-29 -53.5q0 -33 28 -54.5t80 -21.5h87v-130h-95q-57 0 -89.5 -26t-32.5 -61
q0 -36 33.5 -61.5t93.5 -25.5q56 0 100 21.5t72 51.5l92 -96q-37 -44 -110 -79.5t-161 -35.5q-86 0 -149 29z" />
    <glyph glyph-name="uni0511" unicode="&#x511;" horiz-adv-x="468" 
d="M138 10q-46 20 -69.5 53t-23.5 72q0 45 29.5 75t62.5 40q-31 13 -55 41t-24 67q0 36 22.5 67.5t66 50.5t103.5 19q64 0 114 -20.5t79 -47.5l-78 -80q-16 14 -43.5 25t-58.5 11q-29 0 -44.5 -12.5t-15.5 -30.5q0 -16 16 -28t44 -12h65v-100h-68q-34 0 -52 -13.5t-18 -33.5
q0 -22 18 -36t52 -14q36 0 67.5 16.5t50.5 37.5l77 -79q-27 -34 -82.5 -61t-124.5 -27q-64 0 -110 20z" />
    <glyph glyph-name="uni0512" unicode="&#x512;" horiz-adv-x="775" 
d="M187 700h498v-730q0 -89 -46 -138.5t-124 -49.5q-26 0 -51 4.5t-41 10.5v133q22 -12 52 -12t45 16t15 45v581h-204l-2 -75q-4 -195 -33 -304.5t-79 -152.5t-125 -43q-21 0 -42.5 5.5t-34.5 12.5v137q28 -10 50 -10q35 0 59.5 28t40 106t18.5 221z" />
    <glyph glyph-name="uni0513" unicode="&#x513;" horiz-adv-x="581" 
d="M134 485h382v-531q0 -81 -42 -126.5t-113 -45.5q-44 0 -79 15v120q20 -10 46 -10q53 0 53 60v391h-124v-23q-5 -193 -51.5 -270.5t-132.5 -77.5q-31 0 -60 13v124q17 -5 32 -5q29 0 46 18t27 69.5t12 151.5z" />
    <glyph glyph-name="uni051A" unicode="&#x51a;" horiz-adv-x="855" 
d="M815 -35v-128q-17 -5 -45 -5q-71 0 -130.5 23.5t-100 59.5t-59.5 73q-27 -3 -52 -3q-107 0 -194 49t-136.5 132.5t-49.5 183.5t49.5 184t136.5 132.5t194 48.5t193.5 -48.5t136.5 -132.5t50 -184q0 -102 -51.5 -186.5t-138.5 -131.5q19 -28 60.5 -50t94.5 -22q27 0 42 5z
M543 153q52 30 82 82t30 115t-30 115t-82 82.5t-115 30.5t-115.5 -30t-82.5 -82.5t-30 -115.5t30.5 -115t82.5 -82t115 -30t115 30z" />
    <glyph glyph-name="uni051B" unicode="&#x51b;" horiz-adv-x="613" 
d="M413 -210v279h-3q-18 -30 -59 -54.5t-96 -24.5q-59 0 -109.5 32.5t-80.5 90t-30 130.5t30 130.5t80.5 89.5t109.5 32q55 0 96 -24.5t59 -54.5h3v69h135v-695h-135zM352.5 132q27.5 17 44 46t16.5 65q0 35 -16.5 64t-44 46t-59.5 17t-59.5 -17t-44 -46t-16.5 -64
q0 -36 16.5 -65t44 -46t59.5 -17t59.5 17z" />
    <glyph glyph-name="uni051C" unicode="&#x51c;" horiz-adv-x="1065" 
d="M382 0h-137l-230 700h159l143 -471h3l148 471h133l148 -471h4l142 471h155l-230 -700h-137l-149 473h-3z" />
    <glyph glyph-name="uni051D" unicode="&#x51d;" horiz-adv-x="780" 
d="M291 0h-116l-170 485h144l92 -291h3l96 291h105l96 -291h3l92 291h139l-170 -485h-116l-97 297h-3z" />
    <glyph glyph-name="uni0524" unicode="&#x524;" horiz-adv-x="805" 
d="M780 -150h-150v150h-95v560h-295v-560h-150v700h595v-560h95v-290z" />
    <glyph glyph-name="uni0525" unicode="&#x525;" horiz-adv-x="615" 
d="M598 -120h-135v120h-73v358h-190v-358h-135v485h460v-362h73v-243z" />
    <glyph glyph-name="uni0526" unicode="&#x526;" horiz-adv-x="753" 
d="M658 140h95v-290h-150v150h-95v213q0 62 -35.5 97t-97.5 35q-40 0 -77 -14t-58 -31v-300h-150v700h150v-257q27 15 72.5 27.5t92.5 12.5q76 0 133.5 -32t88.5 -93t31 -145v-73z" />
    <glyph glyph-name="uni0527" unicode="&#x527;" horiz-adv-x="620" 
d="M473 -120v120h-73v270q0 45 -25 71.5t-65 26.5q-46 0 -75.5 -31.5t-29.5 -81.5v-255h-135v700h135v-284h3q18 30 56.5 54.5t88.5 24.5q53 0 94 -25t64.5 -71.5t23.5 -110.5v-165h73v-243h-135z" />
    <glyph glyph-name="uni0528" unicode="&#x528;" horiz-adv-x="780" 
d="M18.5 -213.5q-25.5 4.5 -41.5 10.5v133q22 -12 53 -12q30 0 45 16t15 45v721h150v-275h300v275h150v-700h-150v285h-300v-315q0 -89 -46 -138.5t-124 -49.5q-26 0 -51.5 4.5z" />
    <glyph glyph-name="uni0529" unicode="&#x529;" 
d="M-0.5 -213.5q-21.5 4.5 -33.5 10.5v120q6 -4 19 -7t27 -3q53 0 53 60v518h135v-177h190v177h135v-485h-135v183h-190v-229q0 -81 -42 -126.5t-113 -45.5q-24 0 -45.5 4.5z" />
    <glyph glyph-name="uni052E" unicode="&#x52e;" horiz-adv-x="805" 
d="M685 140h95v-290h-150v150h-95v560h-204l-2 -75q-4 -195 -33 -304.5t-79 -152.5t-125 -43q-21 0 -42.5 5.5t-34.5 12.5v137q28 -10 50 -10q35 0 59.5 28t40 106t18.5 221l4 215h498v-560z" />
    <glyph glyph-name="uni052F" unicode="&#x52f;" horiz-adv-x="606" 
d="M516 123h73v-243h-135v120h-73v358h-124v-23q-5 -193 -51.5 -270.5t-132.5 -77.5q-31 0 -60 13v124q17 -5 32 -5q29 0 46 18t27 69.5t12 151.5l4 127h382v-362z" />
    <glyph glyph-name="Wgrave" unicode="&#x1e80;" horiz-adv-x="1065" 
d="M382 0h-137l-230 700h159l143 -471h3l148 471h133l148 -471h4l142 471h155l-230 -700h-137l-149 473h-3zM600 785h-112l-113 150h145z" />
    <glyph glyph-name="wgrave" unicode="&#x1e81;" horiz-adv-x="780" 
d="M291 0h-116l-170 485h144l92 -291h3l96 291h105l96 -291h3l92 291h139l-170 -485h-116l-97 297h-3zM458 558h-112l-113 150h145z" />
    <glyph glyph-name="Wacute" unicode="&#x1e82;" horiz-adv-x="1065" 
d="M382 0h-137l-230 700h159l143 -471h3l148 471h133l148 -471h4l142 471h155l-230 -700h-137l-149 473h-3zM580 785h-112l80 150h145z" />
    <glyph glyph-name="wacute" unicode="&#x1e83;" horiz-adv-x="780" 
d="M291 0h-116l-170 485h144l92 -291h3l96 291h105l96 -291h3l92 291h139l-170 -485h-116l-97 297h-3zM438 558h-112l80 150h145z" />
    <glyph glyph-name="Wdieresis" unicode="&#x1e84;" horiz-adv-x="1065" 
d="M382 0h-137l-230 700h159l143 -471h3l148 471h133l148 -471h4l142 471h155l-230 -700h-137l-149 473h-3zM375 809q-22 21 -22 51t22 51.5t51 21.5q28 0 50 -21.5t22 -51.5q0 -29 -22 -50.5t-50 -21.5q-29 0 -51 21zM590 809q-22 21 -22 51t22 51.5t51 21.5q28 0 50 -21.5
t22 -51.5q0 -29 -22 -50.5t-50 -21.5q-29 0 -51 21z" />
    <glyph glyph-name="wdieresis" unicode="&#x1e85;" horiz-adv-x="780" 
d="M291 0h-116l-170 485h144l92 -291h3l96 291h105l96 -291h3l92 291h139l-170 -485h-116l-97 297h-3zM233 581.5q-22 21.5 -22 51.5t22 51t51 21q28 0 50 -21.5t22 -50.5q0 -30 -22 -51.5t-50 -21.5q-29 0 -51 21.5zM448 581.5q-22 21.5 -22 51.5t22 51t51 21
q28 0 50 -21.5t22 -50.5q0 -30 -22 -51.5t-50 -21.5q-29 0 -51 21.5z" />
    <glyph glyph-name="uni1E9E" unicode="&#x1e9e;" horiz-adv-x="740" 
d="M519 419q49 -8 90.5 -35t66 -70t24.5 -96q0 -60 -30.5 -110t-87 -79t-129.5 -29h-85v128h72q46 0 74.5 26t28.5 64t-28.5 64t-74.5 26h-72v113l133 147h-163q-47 0 -75 -27.5t-28 -72.5v-468h-150v468q0 65 31 118t85.5 83.5t123.5 30.5h325v-140z" />
    <glyph glyph-name="uni1EA0" unicode="&#x1ea0;" horiz-adv-x="730" 
d="M167 0h-157l272 700h167l271 -700h-159l-59 158h-277zM362 547l-93 -262h189l-93 262h-3zM310.5 -203.5q-22.5 21.5 -22.5 53.5q0 31 23 53t55 22t54.5 -22t22.5 -53q0 -32 -22.5 -53.5t-54.5 -21.5q-33 0 -55.5 21.5z" />
    <glyph glyph-name="uni1EA1" unicode="&#x1ea1;" horiz-adv-x="533" 
d="M370.5 469.5q48.5 -25.5 75.5 -69t27 -95.5v-305h-128v67h-3q-18 -29 -57 -53t-89 -24q-46 0 -82.5 19t-57.5 51.5t-21 69.5q0 62 39 102t111 54l153 29q-2 29 -25.5 49.5t-59.5 20.5q-62 0 -113 -57l-77 74q32 38 82.5 65.5t114.5 27.5q62 0 110.5 -25.5zM308.5 129
q29.5 31 29.5 81v16l-105 -21q-28 -5 -44 -20.5t-16 -34.5q0 -23 16.5 -37.5t45.5 -14.5q44 0 73.5 31zM203.5 -203.5q-22.5 21.5 -22.5 53.5q0 31 23 53t55 22t54.5 -22t22.5 -53q0 -32 -22.5 -53.5t-54.5 -21.5q-33 0 -55.5 21.5z" />
    <glyph glyph-name="uni1EA2" unicode="&#x1ea2;" horiz-adv-x="730" 
d="M167 0h-157l272 700h167l271 -700h-159l-59 158h-277zM362 547l-93 -262h189l-93 262h-3zM319 778q18 41 18 72q0 18 -10.5 29t-30.5 11q-29 0 -54 -10v75q14 7 36 12.5t45 5.5q51 0 81 -27t30 -71q0 -50 -26 -97h-89z" />
    <glyph glyph-name="uni1EA3" unicode="&#x1ea3;" horiz-adv-x="533" 
d="M370.5 469.5q48.5 -25.5 75.5 -69t27 -95.5v-305h-128v67h-3q-18 -29 -57 -53t-89 -24q-46 0 -82.5 19t-57.5 51.5t-21 69.5q0 62 39 102t111 54l153 29q-2 29 -25.5 49.5t-59.5 20.5q-62 0 -113 -57l-77 74q32 38 82.5 65.5t114.5 27.5q62 0 110.5 -25.5zM308.5 129
q29.5 31 29.5 81v16l-105 -21q-28 -5 -44 -20.5t-16 -34.5q0 -23 16.5 -37.5t45.5 -14.5q44 0 73.5 31zM241 550q18 41 18 72q0 19 -10.5 30t-30.5 11q-29 0 -54 -10v75q39 17 81 17q51 0 81 -27t30 -71q0 -50 -26 -97h-89z" />
    <glyph glyph-name="uni1EA4" unicode="&#x1ea4;" horiz-adv-x="730" 
d="M167 0h-157l272 700h167l271 -700h-159l-59 158h-277zM362 547l-93 -262h189l-93 262h-3zM573 880h-93l65 138h118zM309 765h-121l118 148h120l117 -148h-120l-57 78z" />
    <glyph glyph-name="uni1EA5" unicode="&#x1ea5;" horiz-adv-x="533" 
d="M370.5 469.5q48.5 -25.5 75.5 -69t27 -95.5v-305h-128v67h-3q-18 -29 -57 -53t-89 -24q-46 0 -82.5 19t-57.5 51.5t-21 69.5q0 62 39 102t111 54l153 29q-2 29 -25.5 49.5t-59.5 20.5q-62 0 -113 -57l-77 74q32 38 82.5 65.5t114.5 27.5q62 0 110.5 -25.5zM308.5 129
q29.5 31 29.5 81v16l-105 -21q-28 -5 -44 -20.5t-16 -34.5q0 -23 16.5 -37.5t45.5 -14.5q44 0 73.5 31zM483 653h-93l65 137h118zM219 538h-121l118 147h120l117 -147h-120l-57 77z" />
    <glyph glyph-name="uni1EA6" unicode="&#x1ea6;" horiz-adv-x="730" 
d="M167 0h-157l272 700h167l271 -700h-159l-59 158h-277zM362 547l-93 -262h189l-93 262h-3zM601 880h-93l-90 138h118zM308 765h-120l118 148h120l117 -148h-119l-58 78z" />
    <glyph glyph-name="uni1EA7" unicode="&#x1ea7;" horiz-adv-x="533" 
d="M370.5 469.5q48.5 -25.5 75.5 -69t27 -95.5v-305h-128v67h-3q-18 -29 -57 -53t-89 -24q-46 0 -82.5 19t-57.5 51.5t-21 69.5q0 62 39 102t111 54l153 29q-2 29 -25.5 49.5t-59.5 20.5q-62 0 -113 -57l-77 74q32 38 82.5 65.5t114.5 27.5q62 0 110.5 -25.5zM308.5 129
q29.5 31 29.5 81v16l-105 -21q-28 -5 -44 -20.5t-16 -34.5q0 -23 16.5 -37.5t45.5 -14.5q44 0 73.5 31zM511 653h-93l-90 137h118zM218 538h-120l118 147h120l117 -147h-119l-58 77z" />
    <glyph glyph-name="uni1EA8" unicode="&#x1ea8;" horiz-adv-x="730" 
d="M167 0h-157l272 700h167l271 -700h-159l-59 158h-277zM362 547l-93 -262h189l-93 262h-3zM483 880q14 28 14 52q0 15 -9.5 24t-27.5 9q-16 0 -42 -7v70q38 12 77 12q48 0 71.5 -21.5t23.5 -58.5q0 -36 -23 -80h-84zM308 765h-120l118 148h120l117 -148h-119l-58 78z" />
    <glyph glyph-name="uni1EA9" unicode="&#x1ea9;" horiz-adv-x="533" 
d="M370.5 469.5q48.5 -25.5 75.5 -69t27 -95.5v-305h-128v67h-3q-18 -29 -57 -53t-89 -24q-46 0 -82.5 19t-57.5 51.5t-21 69.5q0 62 39 102t111 54l153 29q-2 29 -25.5 49.5t-59.5 20.5q-62 0 -113 -57l-77 74q32 38 82.5 65.5t114.5 27.5q62 0 110.5 -25.5zM308.5 129
q29.5 31 29.5 81v16l-105 -21q-28 -5 -44 -20.5t-16 -34.5q0 -23 16.5 -37.5t45.5 -14.5q44 0 73.5 31zM393 653q14 28 14 52q0 14 -9.5 23t-27.5 9q-23 0 -42 -7v70q13 5 35 9t42 4q48 0 71.5 -22t23.5 -59q0 -38 -23 -79h-84zM218 538h-120l118 147h120l117 -147h-119
l-58 77z" />
    <glyph glyph-name="uni1EAA" unicode="&#x1eaa;" horiz-adv-x="730" 
d="M167 0h-157l272 700h167l271 -700h-159l-59 158h-277zM362 547l-93 -262h189l-93 262h-3zM203 953q0 58 27.5 90t70.5 32q21 0 36.5 -6.5t33.5 -18.5q14 -9 22.5 -13t17.5 -4q13 0 22.5 11.5t9.5 30.5h85v-15q0 -58 -27 -90t-70 -32q-22 0 -37.5 7t-34.5 19q-2 1 -10 6
t-15 7.5t-13 2.5q-14 0 -23.5 -11t-9.5 -31h-85v15zM308 765h-120l118 148h120l117 -148h-119l-58 78z" />
    </font>
</defs>
</svg>
