<svg viewBox="0 0 24 24" fill="none" xmlns="http://www.w3.org/2000/svg">
  <path
    d="M12.25 2.78467C17.6418 2.78467 22 7.15365 22 12.5347C22 17.9177 17.6418 22.2847 12.25 22.2847C6.868 22.2847 2.5 17.9177 2.5 12.5347C2.5 7.15365 6.868 2.78467 12.25 2.78467ZM12.25 15.3924C11.782 15.3924 11.4018 15.7727 11.4018 16.2407C11.4018 16.7087 11.782 17.0987 12.2598 17.0987C12.7278 17.0987 13.108 16.7087 13.108 16.2407C13.108 15.7727 12.7277 15.3924 12.25 15.3924ZM12.25 7.98143C11.782 7.98143 11.392 8.3724 11.392 8.83943V13.1489C11.392 13.6179 11.782 13.9972 12.25 13.9972C12.718 13.9972 13.0983 13.6179 13.0983 13.1489V8.83943C13.0983 8.3724 12.718 7.98143 12.25 7.98143Z"
    fill="currentColor"
    fill-opacity="0.6"
  />
</svg>
