<svg viewBox="0 0 24 24" fill="none" xmlns="http://www.w3.org/2000/svg">
  <path
    fill-rule="evenodd"
    clip-rule="evenodd"
    d="M18 19.2502C17.744 19.2502 17.488 19.1523 17.293 18.9573L12 13.6642L6.70701 18.9573C6.31601 19.3483 5.68401 19.3483 5.29301 18.9573C4.90201 18.5663 4.90201 17.9342 5.29301 17.5433L11.293 11.5433C11.684 11.1523 12.316 11.1523 12.707 11.5433L18.707 17.5433C19.098 17.9342 19.098 18.5663 18.707 18.9573C18.512 19.1523 18.256 19.2502 18 19.2502Z"
    fill="currentColor"
    fill-opacity="0.6"
  />
  <path
    fill-rule="evenodd"
    clip-rule="evenodd"
    d="M18 7.25H6C5.447 7.25 5 6.802 5 6.25C5 5.698 5.447 5.25 6 5.25H18C18.553 5.25 19 5.698 19 6.25C19 6.802 18.553 7.25 18 7.25Z"
    fill="currentColor"
    fill-opacity="0.6"
  />
</svg>
