<svg viewBox="0 0 24 24" fill="none" xmlns="http://www.w3.org/2000/svg">
  <path
    fill-rule="evenodd"
    clip-rule="evenodd"
    d="M14.518 12.529L11.127 15.906C10.981 16.052 10.789 16.125 10.598 16.125C10.406 16.125 10.213 16.051 10.067 15.904C9.774 15.611 9.775 15.135 10.069 14.843L12.926 11.998L10.069 9.152C9.775 8.86 9.774 8.385 10.067 8.092C10.359 7.799 10.834 7.797 11.127 8.09L14.518 11.467C14.659 11.607 14.739 11.799 14.739 11.998C14.739 12.197 14.659 12.388 14.518 12.529ZM12 2.5C6.762 2.5 2.5 6.761 2.5 12C2.5 17.238 6.762 21.5 12 21.5C17.238 21.5 21.5 17.238 21.5 12C21.5 6.761 17.238 2.5 12 2.5Z"
    fill="currentColor"
    fill-opacity="0.6"
  />
</svg>
