<svg viewBox="0 0 24 24" fill="none" xmlns="http://www.w3.org/2000/svg">
  <path
    d="M18.5 11.5C19.8521 11.5 21 10.4041 21 9.052V8.448C21 7.09593 19.8521 6 18.5 6L12 6C12 6 11 6 11 7V10.5C11 11.5 12 11.5 12 11.5H18.5Z"
    fill="currentColor"
    fill-opacity="0.6"
  />
  <path
    d="M7.802 21.25C9.15407 21.25 10.25 20.1541 10.25 18.802V5.198C10.25 3.84593 9.15407 2.75 7.802 2.75H5.198C3.84593 2.75 2.75 3.84593 2.75 5.198V18.802C2.75 20.1541 3.84593 21.25 5.198 21.25H7.802Z"
    fill="currentColor"
    fill-opacity="0.6"
  />
</svg>
