<svg viewBox="0 0 24 24" fill="none" xmlns="http://www.w3.org/2000/svg">
  <path
    d="M3.22121 17.4377C3.21998 17.4205 3.21936 17.4032 3.21936 17.3856V6.48C3.21936 4.36224 4.9416 2.64 7.05936 2.64H15.6005C16.6421 2.64 17.4888 3.48864 17.4888 4.5312V12.96C17.4888 13.9978 16.6421 14.8416 15.6005 14.8416H7.1976C5.8118 14.8416 4.68197 15.9595 4.65969 17.3439C4.66048 17.3577 4.66088 17.3716 4.66088 17.3856C4.66088 18.7824 5.79944 19.92 7.19816 19.92H18.4762C18.7278 19.92 18.9246 19.7222 18.9246 19.4688V7.3152C18.9246 6.91776 19.2471 6.5952 19.6446 6.5952C20.042 6.5952 20.3646 6.91776 20.3646 7.3152V19.4688C20.3646 20.5114 19.5178 21.36 18.4762 21.36H7.19816C5.02292 21.36 3.24925 19.6055 3.22121 17.4377Z"
    fill="currentColor"
    fill-opacity="0.6"
  />
  <path
    fill-rule="evenodd"
    clip-rule="evenodd"
    d="M16.5899 18.1153H7.51309C7.11565 18.1153 6.79309 17.7927 6.79309 17.3953C6.79309 16.9979 7.11565 16.6753 7.51309 16.6753H16.5899C16.9874 16.6753 17.3099 16.9979 17.3099 17.3953C17.3099 17.7927 16.9874 18.1153 16.5899 18.1153Z"
    fill="currentColor"
    fill-opacity="0.6"
  />
</svg>
