<svg viewBox="0 0 24 24" fill="none" xmlns="http://www.w3.org/2000/svg">
  <path
    d="M3.12163 13.524C2.94445 13.4933 2.78156 13.6291 2.78156 13.8089V16.3332C2.78156 19.1758 4.6142 21.2398 7.13996 21.2398H16.4443C18.9691 21.2398 20.8018 19.1758 20.8018 16.3332V13.8098C20.8018 13.63 20.6388 13.4942 20.4617 13.525C19.1094 13.7593 17.6651 13.9339 16.1758 14.0488C16.0253 14.0604 15.9085 14.1857 15.9085 14.3368V14.347C15.9085 14.7444 15.586 15.067 15.1885 15.067C14.7911 15.067 14.4685 14.7444 14.4685 14.347C14.4685 14.2417 14.3806 14.1577 14.2754 14.1622C13.4531 14.1972 12.6234 14.2147 11.7937 14.2147C10.9639 14.2147 10.134 14.1972 9.31169 14.1622C9.20645 14.1577 9.1185 14.2417 9.1185 14.347C9.1185 14.7444 8.79594 15.067 8.3985 15.067C8.00106 15.067 7.6785 14.7444 7.6785 14.347V14.3367C7.6785 14.1857 7.56181 14.0604 7.41124 14.0488C5.92058 13.9337 4.47511 13.7588 3.12163 13.524Z"
    fill="currentColor"
    fill-opacity="0.6"
  />
  <path
    fill-rule="evenodd"
    clip-rule="evenodd"
    d="M15.683 5.49861C15.7132 5.63914 15.8337 5.74559 15.9774 5.74559H16.4443C18.9384 5.74559 20.8018 7.76255 20.8018 9.56543V11.7612C20.8018 11.8995 20.7036 12.0182 20.5677 12.0433C19.1768 12.2993 17.6783 12.4885 16.1285 12.6107C16.0098 12.62 15.9085 12.5261 15.9085 12.407C15.9085 12.0096 15.586 11.687 15.1885 11.687C14.7911 11.687 14.4685 12.0096 14.4685 12.407V12.4405C14.4685 12.5943 14.3479 12.7211 14.1943 12.7275C12.6033 12.7951 10.9837 12.7951 9.39284 12.7275C9.23924 12.721 9.1185 12.5942 9.1185 12.4405V12.407C9.1185 12.0096 8.79594 11.687 8.3985 11.687C8.00106 11.687 7.6785 12.0096 7.6785 12.407C7.6785 12.526 7.57728 12.62 7.45863 12.6106C5.90727 12.4883 4.40743 12.2988 3.01551 12.0423C2.87961 12.0173 2.78156 11.8985 2.78156 11.7603V9.56543C2.78156 7.76255 4.64492 5.74559 7.13996 5.74559H7.60876C7.75248 5.74559 7.87292 5.63915 7.90304 5.49861C8.23808 3.93525 9.63091 2.76 11.2938 2.76H12.2932C13.9553 2.76 15.348 3.93525 15.683 5.49861ZM13.8956 5.74559C14.0823 5.74559 14.2199 5.56951 14.1435 5.39919C13.8266 4.69287 13.1164 4.2 12.2932 4.2H11.2938C10.4706 4.2 9.76003 4.69285 9.44282 5.39914C9.36633 5.56946 9.50389 5.74559 9.69062 5.74559H13.8956Z"
    fill="currentColor"
    fill-opacity="0.6"
  />
</svg>
