<svg viewBox="0 0 24 24" fill="none" xmlns="http://www.w3.org/2000/svg">
  <path
    fill-rule="evenodd"
    clip-rule="evenodd"
    d="M10.06 20.0959C9.89431 20.0959 9.76 19.9615 9.76 19.7959V17.4459C9.76 16.9859 10.15 16.5959 10.61 16.5959H13.39C13.86 16.5959 14.24 16.9859 14.24 17.4459V19.7959C14.24 19.9615 14.1057 20.0959 13.94 20.0959H10.06ZM10.48 7.38586C10.43 7.39586 10.38 7.39586 10.33 7.39586C9.98 7.39586 9.66 7.15586 9.59 6.79586C9.51 6.38586 9.77 5.98586 10.18 5.90586C10.5884 5.82618 10.9769 6.0838 11.059 6.49099C11.0597 6.49421 11.06 6.49751 11.06 6.5008C11.06 6.50416 11.0603 6.50754 11.061 6.51085C11.1378 6.90918 10.8783 7.30619 10.48 7.38586ZM11.059 13.151C11.0597 13.1542 11.06 13.1575 11.06 13.1608C11.06 13.1642 11.0603 13.1675 11.061 13.1708C11.1378 13.5692 10.8783 13.9662 10.48 14.0459C10.43 14.0559 10.38 14.0559 10.33 14.0559C9.98 14.0559 9.66 13.8159 9.59 13.4559C9.51 13.0459 9.77 12.6459 10.18 12.5659C10.5884 12.4862 10.9769 12.7438 11.059 13.151ZM10.47 10.7459C10.42 10.7559 10.37 10.7559 10.33 10.7559C9.97 10.7559 9.66 10.5059 9.59 10.1459C9.51 9.74586 9.78 9.34586 10.19 9.26586C10.5983 9.18619 10.9768 9.45362 11.059 9.85088C11.0597 9.85417 11.06 9.85755 11.06 9.86092C11.06 9.86421 11.0603 9.86751 11.0609 9.87074C11.1379 10.2789 10.8684 10.6662 10.47 10.7459ZM13.82 7.38586C13.77 7.39586 13.72 7.39586 13.67 7.39586C13.32 7.39586 13.01 7.15586 12.94 6.79586C12.86 6.38586 13.12 5.98586 13.53 5.90586C13.9284 5.82618 14.3268 6.0838 14.409 6.49099C14.4097 6.49421 14.41 6.49751 14.41 6.5008C14.41 6.50416 14.4103 6.50754 14.411 6.51085C14.4878 6.90918 14.2283 7.30619 13.82 7.38586ZM14.409 13.151C14.4097 13.1542 14.41 13.1575 14.41 13.1608C14.41 13.1642 14.4103 13.1675 14.411 13.1708C14.4878 13.5692 14.2283 13.9662 13.82 14.0459C13.77 14.0559 13.72 14.0559 13.67 14.0559C13.32 14.0559 13.01 13.8159 12.94 13.4559C12.86 13.0459 13.12 12.6459 13.53 12.5659C13.9284 12.4862 14.3268 12.7438 14.409 13.151ZM13.82 10.7459C13.77 10.7559 13.72 10.7559 13.67 10.7559C13.32 10.7559 13.01 10.5059 12.94 10.1459C12.86 9.74586 13.13 9.34586 13.53 9.26586C13.9483 9.18619 14.3268 9.45362 14.409 9.85088C14.4097 9.85417 14.41 9.85755 14.41 9.86092C14.41 9.86421 14.4103 9.86751 14.4109 9.87074C14.4879 10.2789 14.2184 10.6662 13.82 10.7459ZM21 20.0959H20.98C20.8143 20.0959 20.68 19.9615 20.68 19.7959V10.3759C20.68 9.31586 19.81 8.44586 18.74 8.44586C18.6572 8.44586 18.59 8.51302 18.59 8.59586V19.7959C18.59 19.9615 18.4557 20.0959 18.29 20.0959H17.86C17.6943 20.0959 17.56 19.9615 17.56 19.7959V5.42586C17.56 4.64586 17.19 3.94586 16.61 3.50586C16.57 3.47586 16.53 3.44586 16.49 3.41586C16.24 3.22586 15.94 3.09586 15.62 3.05586C15.5879 3.04784 15.5494 3.03982 15.5148 3.03696C15.4983 3.0356 15.4818 3.03445 15.4655 3.03183C15.4384 3.02748 15.4114 3.02369 15.3843 3.02229C15.3354 3.01977 15.2859 3.01585 15.2373 3.0101C15.2015 3.00586 15.1658 3.00586 15.13 3.00586H8.87C8.74885 3.00586 8.63639 3.01454 8.52451 3.03191C8.50818 3.03445 8.49166 3.03553 8.47521 3.03705C8.44347 3.03999 8.41174 3.04793 8.38 3.05586C8.06 3.10586 7.76 3.22586 7.51 3.41586C7.47 3.44586 7.43 3.47586 7.39 3.50586C6.81 3.94586 6.44 4.64586 6.44 5.42586V19.7959C6.44 19.9615 6.30569 20.0959 6.14 20.0959H5.71C5.54431 20.0959 5.41 19.9615 5.41 19.7959V8.59586C5.41 8.51302 5.34284 8.44586 5.26 8.44586C4.19 8.44586 3.32 9.31586 3.32 10.3759V19.7959C3.32 19.9615 3.18569 20.0959 3.02 20.0959H3C2.59 20.0959 2.25 20.4359 2.25 20.8459C2.25 21.2659 2.59 21.5959 3 21.5959H21C21.41 21.5959 21.75 21.2659 21.75 20.8459C21.75 20.4359 21.41 20.0959 21 20.0959Z"
    fill="currentColor"
    fill-opacity="0.6"
  />
</svg>
