<svg viewBox="0 0 24 24" fill="none" xmlns="http://www.w3.org/2000/svg">
  <path
    fill-rule="evenodd"
    clip-rule="evenodd"
    d="M15.3288 21.36H8.25362C5.2181 21.36 3.1781 19.2307 3.1781 16.0608V7.9392C3.1781 4.76928 5.2181 2.64 8.25362 2.64H15.3297C18.3653 2.64 20.4053 4.76928 20.4053 7.9392V16.0608C20.4053 19.2307 18.3653 21.36 15.3288 21.36ZM14.8787 10.714H8.70396C7.31484 10.714 6.41724 9.82021 6.41724 8.43877V8.16037C6.41724 6.78949 7.31484 5.90437 8.70396 5.90437H14.8806C15.5689 5.90437 16.1478 6.12037 16.5558 6.52837C16.9561 6.92965 17.1654 7.49413 17.1645 8.16229V8.45797C17.1645 9.82885 16.2669 10.714 14.8787 10.714ZM8.70396 7.34437C8.11068 7.34437 7.85724 7.58821 7.85724 8.16037V8.43877C7.85724 9.01573 8.11932 9.27397 8.70396 9.27397H14.8787C15.471 9.27397 15.7235 9.03013 15.7235 8.45797V8.16037C15.7245 7.87813 15.6611 7.67173 15.5353 7.54501C15.3693 7.37893 15.087 7.34437 14.8806 7.34437H8.70396ZM7.2996 14.2634C7.38984 14.3028 7.55592 14.3325 7.6548 14.3325C7.74312 14.3325 7.83144 14.3162 7.914 14.2845C7.962 14.2663 8.02152 14.2336 8.07912 14.1962C8.10984 14.1789 8.13864 14.1568 8.16648 14.1328C8.20488 14.1031 8.23752 14.0724 8.26344 14.0426L8.26056 14.0397C8.34984 13.936 8.41992 13.8084 8.44872 13.6912C8.48328 13.552 8.46984 13.337 8.41992 13.2016C8.35656 13.0298 8.18664 12.8311 8.02152 12.7485C7.92168 12.6986 7.74504 12.6525 7.63368 12.6525C7.49448 12.6525 7.38216 12.6631 7.266 12.7389C7.20264 12.7677 7.14024 12.8109 7.08264 12.8618C7.02984 12.9069 6.97608 12.9684 6.93192 13.0365C6.91272 13.0653 6.89352 13.096 6.8772 13.1296C6.85896 13.168 6.84264 13.2064 6.83208 13.242L6.834 13.2429C6.80712 13.3245 6.79272 13.4109 6.79272 13.4877C6.79272 13.6432 6.8628 13.8631 6.95592 13.9879C7.0308 14.0868 7.18536 14.2135 7.2996 14.2634ZM11.7348 14.3325C11.6359 14.3325 11.4698 14.3028 11.3796 14.2634C11.2653 14.2135 11.1108 14.0868 11.0359 13.9879C10.9428 13.8631 10.8727 13.6432 10.8727 13.4877C10.8727 13.4109 10.8871 13.3245 10.914 13.2429L10.912 13.242C10.9226 13.2064 10.9389 13.168 10.9572 13.1296C10.9735 13.096 10.9927 13.0653 11.0119 13.0365C11.056 12.9684 11.1098 12.9069 11.1626 12.8618C11.2202 12.8109 11.2826 12.7677 11.346 12.7389C11.4621 12.6631 11.5744 12.6525 11.7136 12.6525C11.825 12.6525 12.0016 12.6986 12.1015 12.7485C12.2666 12.8311 12.4365 13.0298 12.4999 13.2016C12.5498 13.337 12.5632 13.552 12.5287 13.6912C12.4999 13.8084 12.4298 13.936 12.3405 14.0397L12.3434 14.0426C12.3175 14.0724 12.2848 14.1031 12.2464 14.1328C12.2186 14.1568 12.1898 14.1789 12.1591 14.1962C12.1015 14.2336 12.042 14.2663 11.994 14.2845C11.9114 14.3162 11.8231 14.3325 11.7348 14.3325ZM15.4595 14.2634C15.5498 14.3028 15.7158 14.3325 15.8147 14.3325C15.903 14.3325 15.9914 14.3162 16.0739 14.2845C16.1219 14.2663 16.1814 14.2336 16.239 14.1962C16.2698 14.1789 16.2986 14.1568 16.3264 14.1328C16.3648 14.1031 16.3974 14.0724 16.4234 14.0426L16.4205 14.0397C16.5098 13.936 16.5798 13.8084 16.6086 13.6912C16.6432 13.552 16.6298 13.337 16.5798 13.2016C16.5165 13.0298 16.3466 12.8311 16.1814 12.7485C16.0816 12.6986 15.905 12.6525 15.7936 12.6525C15.6544 12.6525 15.5421 12.6631 15.4259 12.7389C15.3626 12.7677 15.3002 12.8109 15.2426 12.8618C15.1898 12.9069 15.136 12.9684 15.0918 13.0365C15.0726 13.0653 15.0534 13.096 15.0371 13.1296C15.0189 13.168 15.0026 13.2064 14.992 13.242L14.9939 13.2429C14.967 13.3245 14.9526 13.4109 14.9526 13.4877C14.9526 13.6432 15.0227 13.8631 15.1158 13.9879C15.1907 14.0868 15.3453 14.2135 15.4595 14.2634ZM7.6548 17.9325C7.55592 17.9325 7.38984 17.9028 7.2996 17.8634C7.18536 17.8135 7.0308 17.6868 6.95592 17.5879C6.8628 17.4631 6.79272 17.2432 6.79272 17.0877C6.79272 17.0109 6.80712 16.9245 6.834 16.8429L6.83208 16.842C6.84264 16.8064 6.85896 16.768 6.8772 16.7296C6.89352 16.696 6.91272 16.6653 6.93192 16.6365C6.97608 16.5684 7.02984 16.5069 7.08264 16.4618C7.14024 16.4109 7.20264 16.3677 7.266 16.3389C7.38216 16.2631 7.49448 16.2525 7.63368 16.2525C7.74504 16.2525 7.92168 16.2986 8.02152 16.3485C8.18664 16.4311 8.35656 16.6298 8.41992 16.8016C8.46984 16.937 8.48328 17.152 8.44872 17.2912C8.41992 17.4084 8.34984 17.536 8.26056 17.6397L8.26344 17.6426C8.23752 17.6724 8.20488 17.7031 8.16648 17.7328C8.13864 17.7568 8.10984 17.7789 8.07912 17.7962C8.02152 17.8336 7.962 17.8663 7.914 17.8845C7.83144 17.9162 7.74312 17.9325 7.6548 17.9325ZM11.3796 17.8634C11.4698 17.9028 11.6359 17.9325 11.7348 17.9325C11.8231 17.9325 11.9114 17.9162 11.994 17.8845C12.042 17.8663 12.1015 17.8336 12.1591 17.7962C12.1898 17.7789 12.2186 17.7568 12.2464 17.7328C12.2848 17.7031 12.3175 17.6724 12.3434 17.6426L12.3405 17.6397C12.4298 17.536 12.4999 17.4084 12.5287 17.2912C12.5632 17.152 12.5498 16.937 12.4999 16.8016C12.4365 16.6298 12.2666 16.4311 12.1015 16.3485C12.0016 16.2986 11.825 16.2525 11.7136 16.2525C11.5744 16.2525 11.4621 16.2631 11.346 16.3389C11.2826 16.3677 11.2202 16.4109 11.1626 16.4618C11.1098 16.5069 11.056 16.5684 11.0119 16.6365C10.9927 16.6653 10.9735 16.696 10.9572 16.7296C10.9389 16.768 10.9226 16.8064 10.912 16.842L10.914 16.8429C10.8871 16.9245 10.8727 17.0109 10.8727 17.0877C10.8727 17.2432 10.9428 17.4631 11.0359 17.5879C11.1108 17.6868 11.2653 17.8135 11.3796 17.8634ZM15.8147 17.9325C15.7158 17.9325 15.5498 17.9028 15.4595 17.8634C15.3453 17.8135 15.1907 17.6868 15.1158 17.5879C15.0227 17.4631 14.9526 17.2432 14.9526 17.0877C14.9526 17.0109 14.967 16.9245 14.9939 16.8429L14.992 16.842C15.0026 16.8064 15.0189 16.768 15.0371 16.7296C15.0534 16.696 15.0726 16.6653 15.0918 16.6365C15.136 16.5684 15.1898 16.5069 15.2426 16.4618C15.3002 16.4109 15.3626 16.3677 15.4259 16.3389C15.5421 16.2631 15.6544 16.2525 15.7936 16.2525C15.905 16.2525 16.0816 16.2986 16.1814 16.3485C16.3466 16.4311 16.5165 16.6298 16.5798 16.8016C16.6298 16.937 16.6432 17.152 16.6086 17.2912C16.5798 17.4084 16.5098 17.536 16.4205 17.6397L16.4234 17.6426C16.3974 17.6724 16.3648 17.7031 16.3264 17.7328C16.2986 17.7568 16.2698 17.7789 16.239 17.7962C16.1814 17.8336 16.1219 17.8663 16.0739 17.8845C15.9914 17.9162 15.903 17.9325 15.8147 17.9325Z"
    fill="currentColor"
    fill-opacity="0.6"
  />
</svg>
