<svg viewBox="0 0 24 24" fill="none" xmlns="http://www.w3.org/2000/svg">
  <path
    opacity="0.4"
    fill-rule="evenodd"
    clip-rule="evenodd"
    d="M13.4431 5.0456C13.4137 4.48541 12.9847 3.99915 12.4237 3.99321C11.5081 3.9835 10.2185 3.97125 9.5419 3.97125C8.58766 3.97125 7.7083 4.48965 7.24558 5.32677C6.82126 6.09957 6.64174 6.32229 6.60718 6.36069C6.36622 6.61317 6.04078 6.75909 5.71054 6.77349C3.82702 6.77349 2.29294 8.30565 2.29102 10.1892V15.6064C2.29102 18.0448 4.27438 20.0282 6.71278 20.0282H16.1093C18.5477 20.0282 20.531 18.0448 20.531 15.6064C20.531 14.7255 20.5289 13.8439 20.5278 12.9629C20.5272 12.4459 20.1153 12.0286 19.6052 11.9438C16.2247 11.3822 13.6219 8.45048 13.4431 5.0456Z"
    fill="currentColor"
    fill-opacity="0.6"
  />
  <path
    fill-rule="evenodd"
    clip-rule="evenodd"
    d="M20.9889 5.61819H19.6814V4.30874C19.6814 3.9113 19.3589 3.58875 18.9614 3.58875C18.564 3.58875 18.2414 3.9113 18.2414 4.30874V5.61819H16.9291C16.5317 5.61819 16.2091 5.94074 16.2091 6.33819C16.2091 6.73563 16.5317 7.05818 16.9291 7.05818H18.2414V8.36858C18.2414 8.76602 18.564 9.08858 18.9614 9.08858C19.3589 9.08858 19.6814 8.76602 19.6814 8.36858V7.05818H20.9889C21.3864 7.05818 21.7089 6.73563 21.7089 6.33819C21.7089 5.94074 21.3864 5.61819 20.9889 5.61819Z"
    fill="currentColor"
    fill-opacity="0.6"
  />
  <path
    fill-rule="evenodd"
    clip-rule="evenodd"
    d="M11.4119 16.7498C9.3777 16.7498 7.72266 15.0947 7.72266 13.0605C7.72266 11.0263 9.3777 9.37125 11.4119 9.37125C13.4461 9.37125 15.1012 11.0263 15.1012 13.0605C15.1012 15.0947 13.4461 16.7498 11.4119 16.7498ZM9.16262 13.0605C9.16262 11.8202 10.1716 10.8112 11.4119 10.8112C12.6522 10.8112 13.6612 11.8202 13.6612 13.0605C13.6612 14.3008 12.6522 15.3098 11.4119 15.3098C10.1716 15.3098 9.16262 14.3008 9.16262 13.0605Z"
    fill="currentColor"
    fill-opacity="0.6"
  />
</svg>
