<svg viewBox="0 0 24 24" fill="none" xmlns="http://www.w3.org/2000/svg">
  <path
    opacity="0.4"
    fill-rule="evenodd"
    clip-rule="evenodd"
    d="M18.4922 11.4175C17.9507 12.0251 17.1837 12.4495 16.3523 12.5896C16.3504 12.5906 16.3475 12.5906 16.3475 12.5906L14.7021 12.8651C14.5907 12.8843 14.4775 12.8939 14.3642 12.8939C13.8371 12.8939 13.3207 12.6923 12.9347 12.3266C12.4653 11.8821 12.2272 11.2351 12.2973 10.5928L12.4768 8.91958C12.5632 8.1391 12.8819 7.42294 13.3994 6.84118L15.1588 4.92084C15.2698 4.79972 15.2578 4.60907 15.1214 4.51751C14.7042 4.23738 14.2159 4.07062 13.6941 4.07062H9.93952C8.98432 4.07062 8.104 4.58998 7.6432 5.42518C7.23712 6.15766 7.06336 6.39478 7.00384 6.46006C6.76288 6.71254 6.43744 6.85846 6.10816 6.87286C4.22464 6.87286 2.6896 8.40502 2.68768 10.2885V15.7048C2.68768 18.1432 4.672 20.1275 7.1104 20.1275H16.5069C18.9443 20.1275 20.9277 18.1432 20.9277 15.7048V10.2866C20.9277 10.0029 20.8906 9.72777 20.8232 9.46429C20.7706 9.25848 20.5143 9.21 20.3708 9.36664L18.4922 11.4175Z"
    fill="currentColor"
    fill-opacity="0.6"
  />
  <path
    d="M12.0841 16.7185C13.1295 16.7185 14.125 16.274 14.8172 15.4974C15.0822 15.2007 15.0562 14.7457 14.7586 14.4807C14.4639 14.2158 14.0079 14.2417 13.743 14.5393C13.3234 15.0087 12.7186 15.2785 12.0841 15.2785C10.8438 15.2785 9.83484 14.2695 9.83484 13.0283C9.83484 12.3937 10.1036 11.7899 10.573 11.3723C10.8706 11.1073 10.8975 10.6523 10.6335 10.3556C10.3676 10.0571 9.9126 10.0321 9.61692 10.2961C8.83932 10.9863 8.39484 11.9828 8.39484 13.0283C8.39484 15.0635 10.0499 16.7185 12.0841 16.7185Z"
    fill="currentColor"
    fill-opacity="0.6"
  />
  <path
    fill-rule="evenodd"
    clip-rule="evenodd"
    d="M15.1014 9.20339C15.1263 8.97683 15.2204 8.76659 15.3644 8.60339L18.6409 5.02931C18.7014 4.96307 18.7859 4.92947 18.8694 4.92947C18.9452 4.92947 19.0211 4.95635 19.0815 5.01203L19.7727 5.65139C19.8995 5.76947 19.9071 5.96723 19.7881 6.09683L16.5395 9.64118C16.3772 9.82358 16.1545 9.9455 15.9116 9.98678L14.9948 10.2028L15.1014 9.20339ZM13.67 9.04691L13.5615 10.0482C13.5155 10.4841 13.671 10.9074 13.9907 11.2089C14.2518 11.4565 14.5897 11.589 14.942 11.589C15.0188 11.589 15.0966 11.5833 15.1743 11.5698L16.1497 11.4066H16.1516C16.7161 11.3116 17.2355 11.0245 17.607 10.606L20.847 7.07219C21.5027 6.36371 21.4604 5.25203 20.7519 4.59539L20.0588 3.95411C19.3475 3.29843 18.2377 3.34355 17.5811 4.05395L14.2959 7.63859C13.9446 8.03315 13.7276 8.51987 13.67 9.04691Z"
    fill="currentColor"
    fill-opacity="0.6"
  />
</svg>
