<svg viewBox="0 0 24 24" fill="none" xmlns="http://www.w3.org/2000/svg">
  <path
    fill-rule="evenodd"
    clip-rule="evenodd"
    d="M11.8076 2.96118C9.36919 2.96118 7.07863 3.91158 5.35735 5.63862C1.80439 9.20598 1.80439 15.0092 5.35735 18.5756C7.10071 20.3257 9.44983 21.2521 11.8268 21.2521C13.119 21.2521 14.4207 20.9785 15.639 20.415C16.045 20.2508 16.3964 20.1097 16.6748 20.1097C16.9878 20.1116 17.3823 20.247 17.7644 20.3794L17.7682 20.3808C18.5142 20.6377 19.361 20.9294 19.981 20.3074C20.598 19.6885 20.3115 18.843 20.0584 18.0963L20.0569 18.0918L20.0561 18.0894C19.9248 17.7042 19.789 17.3058 19.789 16.9868C19.789 16.7171 19.9042 16.4108 20.0934 15.9385C21.6841 12.4902 20.9497 8.34198 18.2569 5.63862C16.5356 3.91158 14.245 2.96118 11.8076 2.96118ZM12.5278 12.8247H14.0916C14.4891 12.8247 14.8116 12.5022 14.8116 12.1047C14.8116 11.7073 14.4891 11.3847 14.0916 11.3847H12.5278V9.81222C12.5278 9.41478 12.2052 9.09222 11.8078 9.09222C11.4103 9.09222 11.0878 9.41478 11.0878 9.81222V11.3847H9.52589C9.12845 11.3847 8.80589 11.7073 8.80589 12.1047C8.80589 12.5022 9.12845 12.8247 9.52589 12.8247H11.0878V14.4011C11.0878 14.7985 11.4103 15.1211 11.8078 15.1211C12.2052 15.1211 12.5278 14.7985 12.5278 14.4011V12.8247Z"
    fill="currentColor"
    fill-opacity="0.6"
  />
</svg>
