<svg viewBox="0 0 24 24" fill="none" xmlns="http://www.w3.org/2000/svg">
  <path
    d="M11.7842 15.9754L11.7852 18.4584C11.7862 19.0114 12.0992 19.5014 12.6022 19.7334C13.1042 19.9654 13.6802 19.8874 14.1032 19.5294L21.0022 13.6844C21.3122 13.4214 21.4942 13.0394 21.5012 12.6334V12.6104C21.5012 12.2144 21.3332 11.8374 21.0392 11.5704L14.1302 5.32641C13.7132 4.94941 13.1342 4.85641 12.6202 5.08441C12.1042 5.31341 11.7832 5.80741 11.7832 6.37341V9.52841L11.7842 15.9754Z"
    fill="currentColor"
    fill-opacity="0.6"
  />
  <path
    opacity="0.4"
    d="M4.792 13.0576C1.888 9.71062 2.555 4.77362 2.584 4.56562C2.616 4.34462 2.789 4.17162 3.008 4.14062C3.229 4.10962 3.443 4.22662 3.535 4.42962C5.051 7.77862 7.68 9.40662 11.784 9.52762L11.785 15.9746C8.74 15.8786 6.39 14.8996 4.792 13.0576Z"
    fill="currentColor"
    fill-opacity="0.6"
  />
</svg>
