<svg viewBox="0 0 24 24" fill="none" xmlns="http://www.w3.org/2000/svg">
  <path
    d="M5.29289 5.29289C5.68341 4.90237 6.31659 4.90237 6.70711 5.29289L12 10.5853L17.2929 5.29289C17.6835 4.90237 18.3165 4.90237 18.7071 5.29289C19.0976 5.68341 19.0976 6.31659 18.7071 6.70711L13.4147 12L18.7071 17.293C19.0621 17.6479 19.0944 18.2035 18.8039 18.595L18.7071 18.7071C18.3165 19.0976 17.6835 19.0976 17.2929 18.7071L12 13.4147L6.70711 18.7071C6.31659 19.0976 5.68341 19.0976 5.29289 18.7071C4.90237 18.3166 4.90237 17.6835 5.29289 17.293L10.5853 12L5.29289 6.70711C4.93787 6.35208 4.9056 5.79653 5.19607 5.40505L5.29289 5.29289Z"
    fill="currentColor"
    fill-opacity="0.6"
  />
</svg>
