<svg viewBox="0 0 24 24" fill="none" xmlns="http://www.w3.org/2000/svg">
  <path
    fill-rule="evenodd"
    clip-rule="evenodd"
    d="M11.2238 3.40106C11.447 3.05121 11.3449 2.591 10.9958 2.37103C10.8664 2.28558 10.7209 2.24701 10.5778 2.25018C10.4504 2.25311 10.3249 2.28924 10.2141 2.35467C10.1145 2.41375 10.0266 2.49676 9.9602 2.60101C9.63403 3.11102 9.52514 3.63104 9.49584 4.01117C9.48901 4.09833 9.48608 4.18133 9.48608 4.25726C9.48608 4.30731 9.48705 4.35443 9.48852 4.39764L9.49389 4.49115C9.49779 4.55096 9.50317 4.60101 9.50805 4.63104L9.51147 4.65643L9.51488 4.68109L9.51781 4.70111C9.51781 4.70111 9.5188 4.70111 9.52026 4.71112C9.594 5.11102 9.9851 5.38104 10.3918 5.31122C10.8 5.23114 11.07 4.841 10.9948 4.4411L10.99 4.38104C10.986 4.32098 10.9831 4.23114 10.9909 4.13104C10.9958 4.0683 11.0041 4.00238 11.0173 3.93426C11.05 3.76361 11.112 3.57977 11.2238 3.40106ZM3.25977 10.206C3.25977 8.44613 4.68613 7.01953 6.44524 7.01953H14.3255C15.7334 7.01953 16.9279 7.93234 17.3495 9.19849H18.516C19.8828 9.19849 20.9901 10.3059 20.9901 11.6726V13.3871C20.9901 14.7538 19.8827 15.8612 18.516 15.8612H17.5038C17.3404 19.0036 14.7405 21.5004 11.5583 21.5004H9.21342C5.92487 21.5004 3.25977 18.8353 3.25977 15.5468V10.206ZM17.512 14.3612H18.516C19.0543 14.3612 19.4901 13.9254 19.4901 13.3871V11.6726C19.4901 11.1343 19.0543 10.6985 18.516 10.6985H17.512V14.3612ZM7.86133 11.2776C7.86133 10.8634 7.52554 10.5276 7.11133 10.5276C6.69711 10.5276 6.36133 10.8634 6.36133 11.2776V14.1956C6.36133 14.6098 6.69711 14.9456 7.11133 14.9456C7.52554 14.9456 7.86133 14.6098 7.86133 14.1956V11.2776ZM14.4362 2.37103C14.7849 2.591 14.8869 3.05121 14.6638 3.40106C14.573 3.54584 14.5149 3.69378 14.4792 3.83539C14.468 3.87933 14.4587 3.92279 14.4514 3.96527L14.4431 4.02093C14.4377 4.05853 14.4338 4.0954 14.4309 4.13104C14.4275 4.17401 14.426 4.21526 14.4255 4.25311C14.425 4.30292 14.4265 4.34686 14.4289 4.38103L14.4333 4.43108L14.4348 4.4411C14.509 4.841 14.239 5.23114 13.8317 5.31122C13.424 5.38104 13.0339 5.11102 12.9592 4.71111C12.9592 4.70111 12.9567 4.70111 12.9567 4.70111L12.9558 4.68939L12.9548 4.68108C12.9528 4.67107 12.9499 4.65105 12.948 4.63103C12.9455 4.61688 12.9431 4.59807 12.9406 4.57611L12.9328 4.49115C12.925 4.37103 12.9201 4.20111 12.9348 4.01117C12.965 3.63104 13.073 3.11102 13.4001 2.60101C13.6228 2.25116 14.0861 2.14105 14.4362 2.37103ZM7.86446 2.76849C7.81319 2.60956 7.70773 2.46722 7.55489 2.37103C7.20577 2.14105 6.74191 2.25116 6.51876 2.60101C6.36398 2.84344 6.25851 3.08807 6.18722 3.31878C6.10812 3.57367 6.07101 3.8117 6.05489 4.01117C6.03976 4.20111 6.04415 4.37103 6.05294 4.49115C6.05685 4.55095 6.06319 4.60101 6.06808 4.63103C6.07003 4.65105 6.07198 4.67107 6.07394 4.68108L6.07687 4.70111C6.07687 4.70111 6.07882 4.70111 6.07882 4.71111C6.092 4.78363 6.11593 4.85174 6.14864 4.91448C6.18478 4.98407 6.23116 5.04706 6.28585 5.10124C6.45431 5.268 6.69991 5.35442 6.95187 5.31122C7.35909 5.23114 7.62911 4.841 7.55392 4.4411L7.55343 4.42962L7.54903 4.38103C7.54513 4.32098 7.5422 4.23114 7.55001 4.13104C7.5671 3.91107 7.62618 3.65106 7.78292 3.40106C7.90841 3.20428 7.93087 2.97259 7.86446 2.76849Z"
    fill="currentColor"
    fill-opacity="0.6"
  />
</svg>
