<svg viewBox="0 0 24 24" fill="none" xmlns="http://www.w3.org/2000/svg">
  <path
    fill-rule="evenodd"
    clip-rule="evenodd"
    d="M15.2103 6.10084C15.3756 6.10037 15.5105 5.96557 15.5002 5.80053C15.3768 3.81644 14.0223 2.5 12.0594 2.5H6.86943C4.79943 2.5 3.41943 3.95 3.41943 6.1V12.79C3.41943 14.7988 4.74678 16.2448 6.68923 16.3797C6.85451 16.3912 6.98943 16.2557 6.98943 16.09V11.21C6.98943 8.26 9.06943 6.11 11.9394 6.11L15.2103 6.10084Z"
    fill="currentColor"
    fill-opacity="0.6"
  />
  <path
    fill-rule="evenodd"
    clip-rule="evenodd"
    d="M17.1346 7.61328H11.9396C9.87865 7.61328 8.49365 9.05828 8.49365 11.2093V17.9043C8.49365 20.0543 9.87865 21.5003 11.9396 21.5003H17.1336C19.1956 21.5003 20.5806 20.0543 20.5806 17.9043V11.2093C20.5806 9.05828 19.1956 7.61328 17.1346 7.61328Z"
    fill="currentColor"
    fill-opacity="0.6"
  />
</svg>
