<svg width="16" height="16" viewBox="0 0 16 16" fill="none" xmlns="http://www.w3.org/2000/svg">
<path fill-rule="evenodd" clip-rule="evenodd" d="M4.57718 1.50012C3.84977 1.50012 3.22117 1.76187 2.77694 2.23909C2.33637 2.71237 2.11328 3.35811 2.11328 4.06711V8.53039C2.11328 9.17619 2.29848 9.77072 2.66769 10.2304C3.04012 10.6941 3.5764 10.9905 4.21512 11.0697C4.48916 11.1037 4.73887 10.9091 4.77285 10.635C4.80684 10.361 4.61223 10.1113 4.33819 10.0773C3.94371 10.0283 3.6483 9.85439 3.44735 9.60419C3.24317 9.34999 3.11328 8.98706 3.11328 8.53039V4.06711C3.11328 3.56585 3.26905 3.1781 3.50889 2.92045C3.74506 2.66674 4.09841 2.50012 4.57718 2.50012H8.04193C8.46873 2.50012 8.7918 2.63092 9.0204 2.83138C9.2506 3.0332 9.4166 3.33353 9.4774 3.72554C9.51967 3.99842 9.7752 4.18534 10.0481 4.14303C10.321 4.10073 10.5079 3.84522 10.4656 3.57234C10.3737 2.98006 10.1091 2.45599 9.67967 2.07948C9.24873 1.70159 8.68333 1.50012 8.04193 1.50012H4.57718ZM7.96 4.90898C7.2328 4.90898 6.60417 5.16981 6.1598 5.64642C5.71905 6.11915 5.49609 6.76432 5.49609 7.47306V11.9363C5.49609 12.6443 5.71761 13.2896 6.15801 13.7627C6.60219 14.2398 7.23107 14.5004 7.96 14.5004H11.423C12.1521 14.5004 12.7812 14.2399 13.2255 13.7627C13.666 13.2896 13.8875 12.6443 13.8875 11.9363V7.47306C13.8875 6.76506 13.666 6.11976 13.2256 5.64669C12.7814 5.16957 12.1525 4.90898 11.4236 4.90898H7.96ZM6.49609 7.47306C6.49609 6.97206 6.65171 6.58524 6.8912 6.32835C7.12713 6.07534 7.48047 5.90898 7.96 5.90898H11.4236C11.9055 5.90898 12.2586 6.07558 12.4937 6.32807C12.7325 6.58462 12.8875 6.97139 12.8875 7.47306V11.9363C12.8875 12.438 12.7325 12.8247 12.4936 13.0813C12.2585 13.3337 11.9053 13.5004 11.423 13.5004H7.96C7.47807 13.5004 7.125 13.3338 6.88993 13.0813C6.65111 12.8247 6.49609 12.438 6.49609 11.9363V7.47306Z" fill="#30303D"/>
</svg>
