<svg viewBox="0 0 24 24" fill="none" xmlns="http://www.w3.org/2000/svg">
  <path
    d="M6.62295 18.945H7.90071H16.2354H17.5141C17.9116 18.945 18.2341 19.2676 18.2341 19.665C18.2341 20.0625 17.9116 20.385 17.5141 20.385H6.62295C6.22551 20.385 5.90295 20.0625 5.90295 19.665C5.90295 19.2676 6.22551 18.945 6.62295 18.945Z"
    fill="currentColor"
    fill-opacity="0.6"
  />
  <path
    opacity="0.4"
    d="M21.3321 5.70396C21.2917 5.34012 20.9836 5.06459 20.6169 5.06459H18.2524C18.285 4.52699 18.2879 4.16892 18.2879 4.09499C18.2879 3.83004 18.0738 3.61499 17.8079 3.61499H6.19187C6.06419 3.61499 5.94227 3.66588 5.85203 3.75611C5.76179 3.8454 5.71187 3.96827 5.71187 4.09595C5.71187 4.16988 5.71475 4.52795 5.74739 5.06459H3.38291C3.01619 5.06459 2.70803 5.34012 2.66771 5.70396C2.64851 5.871 2.24243 9.81371 5.27123 11.8057C5.39315 11.8863 5.52947 11.9247 5.66579 11.9247C5.90003 11.9247 6.12947 11.8105 6.26867 11.6003C6.48659 11.2681 6.39539 10.8217 6.06227 10.6028C4.40531 9.51324 4.11827 7.52507 4.08467 6.50459H5.88275C6.25619 9.50843 7.45427 14.294 11.278 14.8355V16.5202L9.02782 16.5206C8.81854 16.5206 8.63422 16.656 8.5699 16.8538L7.90078 18.9427H16.2355L15.5674 16.8547C15.504 16.656 15.3197 16.5206 15.1104 16.5206L12.718 16.5202V14.8374C16.5503 14.3036 17.7465 9.51132 18.1189 6.50459H19.9151C19.8815 7.52507 19.5945 9.51324 17.9375 10.6028C17.6044 10.8217 17.5132 11.2681 17.7311 11.6003C17.8703 11.8105 18.0997 11.9247 18.334 11.9247C18.4703 11.9247 18.6066 11.8863 18.7285 11.8057C21.7573 9.81371 21.3513 5.871 21.3321 5.70396Z"
    fill="currentColor"
    fill-opacity="0.6"
  />
  <path
    fill-rule="evenodd"
    clip-rule="evenodd"
    d="M12.5544 10.6359C12.5544 11.0334 12.2318 11.3559 11.8344 11.3559C11.437 11.3559 11.1144 11.0334 11.1144 10.6359V7.81546L10.8322 7.89802C10.451 8.00938 10.0507 7.79147 9.93937 7.40939C9.82801 7.02827 10.0469 6.62794 10.428 6.51658L11.6328 6.16427C11.8517 6.09995 12.085 6.14314 12.2664 6.27946C12.4478 6.41578 12.5544 6.6289 12.5544 6.85546V10.6359Z"
    fill="currentColor"
    fill-opacity="0.6"
  />
</svg>
