<svg width="16" height="16" viewBox="0 0 16 16" fill="none" xmlns="http://www.w3.org/2000/svg">
  <path
    fill-rule="evenodd"
    clip-rule="evenodd"
    d="M4.56738 2.41699C3.47405 2.41699 2.58472 3.30633 2.58472 4.39899C2.58472 5.49166 3.47405 6.38099 4.56738 6.38099C5.48672 6.38099 6.25472 5.74899 6.47805 4.89899L12.9154 4.89899C13.1914 4.89899 13.4154 4.67499 13.4154 4.39899C13.4154 4.12299 13.1914 3.89899 12.9154 3.89899L6.47805 3.89899C6.25472 3.04899 5.48672 2.41699 4.56738 2.41699ZM5.87938 12.1014H9.27408C9.49742 12.9514 10.2648 13.5834 11.1841 13.5834C12.2774 13.5834 13.1668 12.6941 13.1668 11.6014C13.1668 10.5088 12.2774 9.61944 11.1841 9.61944C10.2648 9.61944 9.49742 10.2514 9.27408 11.1014H5.87938C5.44138 11.1014 5.08472 10.7448 5.08472 10.3068L5.08472 8.40478C5.08472 8.12878 4.86072 7.90478 4.58472 7.90478C4.30872 7.90478 4.08472 8.12878 4.08472 8.40478L4.08472 10.3068C4.08472 11.2961 4.89005 12.1014 5.87938 12.1014Z"
    fill="currentColor"
  />
</svg>
