<svg viewBox="0 0 24 24" fill="none" xmlns="http://www.w3.org/2000/svg">
  <path
    fill-rule="evenodd"
    clip-rule="evenodd"
    d="M11.9999 21.9999C17.5229 21.9999 21.9999 17.5229 21.9999 11.9999C21.9999 6.47789 17.5229 1.99989 11.9999 1.99989C6.47688 1.99989 1.99988 6.47789 1.99988 11.9999C1.99988 17.5229 6.47688 21.9999 11.9999 21.9999ZM14.2398 13.8249L15.8598 8.7049C15.9698 8.3549 15.6498 8.0249 15.2998 8.1349L10.1798 9.7349C9.96978 9.8049 9.79978 9.9649 9.73978 10.1749L8.13978 15.3049C8.02978 15.6449 8.35978 15.9759 8.69978 15.8649L13.7998 14.2659C14.0098 14.2049 14.1798 14.0349 14.2398 13.8249Z"
    fill="currentColor"
    fill-opacity="0.6"
  />
</svg>
