<svg viewBox="0 0 24 24" fill="none" xmlns="http://www.w3.org/2000/svg">
  <path
    fill-rule="evenodd"
    clip-rule="evenodd"
    d="M7.782 3.66406H16.217C19.377 3.66406 21.5 5.88506 21.5 9.19006V14.8061C21.5 18.1111 19.377 20.3331 16.216 20.3331H7.782C4.623 20.3331 2.5 18.1111 2.5 14.8061V9.19006C2.5 5.88506 4.623 3.66406 7.782 3.66406ZM8.38501 14.8688H15.614C16.028 14.8688 16.364 14.5328 16.364 14.1188C16.364 13.7048 16.028 13.3688 15.614 13.3688H8.38501C7.97101 13.3688 7.63501 13.7048 7.63501 14.1188C7.63501 14.5328 7.97101 14.8688 8.38501 14.8688ZM11.722 9.13281H8.38501C7.97101 9.13281 7.63501 9.46881 7.63501 9.88281C7.63501 10.2968 7.97101 10.6328 8.38501 10.6328H11.722C12.136 10.6328 12.472 10.2968 12.472 9.88281C12.472 9.46881 12.136 9.13281 11.722 9.13281Z"
    fill="currentColor"
    fill-opacity="0.6"
  />
</svg>
