<svg viewBox="0 0 24 24" fill="none" xmlns="http://www.w3.org/2000/svg">
  <path
    fill-rule="evenodd"
    clip-rule="evenodd"
    d="M9.76999 17.8249L11.25 19.3049L11.25 15.205L12.75 15.205L12.75 19.3049L14.22 17.8249C14.52 17.5349 14.99 17.5349 15.29 17.8249C15.58 18.1149 15.58 18.5949 15.29 18.8849L12.53 21.6549C12.515 21.6699 12.5 21.6824 12.485 21.6949C12.47 21.7074 12.455 21.7199 12.44 21.7349C12.39 21.7649 12.34 21.7949 12.28 21.8249C12.2 21.8549 12.11 21.8749 12.02 21.8749L11.98 21.8749C11.89 21.8749 11.8 21.8549 11.72 21.8249C11.705 21.8199 11.6925 21.8124 11.68 21.8049C11.6675 21.7974 11.655 21.7899 11.64 21.7849C11.635 21.7849 11.6325 21.7849 11.6312 21.7836C11.63 21.7824 11.63 21.7799 11.63 21.7749C11.57 21.7449 11.52 21.7049 11.47 21.6549L8.70999 18.8849C8.41999 18.5949 8.41999 18.1149 8.70999 17.8249C9.00999 17.5349 9.47999 17.5349 9.76999 17.8249ZM11.25 15.205L6.73 15.205C4.54 15.205 2.75 13.415 2.75 11.225L2.75 6.60498C2.75 4.41497 4.54 2.62497 6.74 2.62497L17.26 2.62497C19.46 2.62498 21.25 4.41498 21.25 6.60498L21.25 11.215C21.25 13.415 19.46 15.205 17.26 15.205L12.75 15.205L12.75 9.74498C12.75 9.32498 12.41 8.99498 12 8.99498C11.59 8.99498 11.25 9.32498 11.25 9.74498L11.25 15.205Z"
    fill="currentColor"
    fill-opacity="0.6"
  />
</svg>
