<svg viewBox="0 0 24 24" fill="none" xmlns="http://www.w3.org/2000/svg">
  <path
    fill-rule="evenodd"
    clip-rule="evenodd"
    d="M17.9997 5.99982H5.99969C4.61898 5.99982 3.49969 7.11911 3.49969 8.49982V15.4998C3.49969 16.8805 4.61898 17.9998 5.99969 17.9998H17.9997C19.3804 17.9998 20.4997 16.8805 20.4997 15.4998V8.49982C20.4997 7.11911 19.3804 5.99982 17.9997 5.99982ZM5.99969 4.49982C3.79056 4.49982 1.99969 6.29068 1.99969 8.49982V15.4998C1.99969 17.709 3.79056 19.4998 5.99969 19.4998H17.9997C20.2088 19.4998 21.9997 17.709 21.9997 15.4998V8.49982C21.9997 6.29068 20.2088 4.49982 17.9997 4.49982H5.99969Z"
    fill="currentColor"
    fill-opacity="0.6"
  />
  <path
    d="M10.9997 8.49982C10.9997 7.94753 11.4474 7.49982 11.9997 7.49982H16.9997C18.1043 7.49982 18.9997 8.39525 18.9997 9.49982V14.4998C18.9997 15.6044 18.1043 16.4998 16.9997 16.4998H11.9997C11.4474 16.4998 10.9997 16.0521 10.9997 15.4998V8.49982Z"
    fill="currentColor"
    fill-opacity="0.6"
  />
</svg>
