<svg viewBox="0 0 24 24" fill="none" xmlns="http://www.w3.org/2000/svg">
  <path
    fill-rule="evenodd"
    clip-rule="evenodd"
    d="M18.4681 18.2581C16.7806 17.2324 15 13.8561 15 12.5C15 11.4669 15.4743 10.9082 15.8114 10.5111C15.9638 10.3316 16.0882 10.1851 16.128 10.0428C16.256 9.5856 15.758 9.11276 14.808 8.59276C14.7893 8.58241 14.7704 8.57196 14.7513 8.56141C14.2909 8.30699 13.7225 7.99285 13.108 7.51276C12.198 6.79276 11.808 5.84276 11.658 4.98276C11.528 4.29276 10.858 3.80276 10.168 3.96276C9.52805 4.11276 8.90805 4.33276 8.33805 4.62276C7.83805 4.88276 7.55805 5.43276 7.65805 5.99276C7.83805 7.12276 7.89805 8.79276 7.07805 10.2428C6.54805 11.1628 5.74805 11.8628 4.67805 12.3128C4.12805 12.5528 3.79805 13.1428 3.92805 13.7328V13.7628C4.11805 14.6328 5.09805 15.0628 5.84805 14.6028C6.17805 14.4028 6.50805 14.1828 6.84805 13.9328C7.98805 13.1228 9.58005 12.84 10.5 13.5C11.3 14.08 11.8101 14.9661 12 16C12.0274 16.1493 12.0746 16.3449 12.1297 16.5739C12.4151 17.759 12.9156 19.8369 12.0138 21C14.547 20.9962 16.8348 19.9458 18.4681 18.2581ZM22 12C22 17.5228 17.5228 22 12 22C6.47715 22 2 17.5228 2 12C2 6.47715 6.47715 2 12 2C17.5228 2 22 6.47715 22 12Z"
    fill="currentColor"
    fill-opacity="0.6"
  />
</svg>
