<svg xmlns="http://www.w3.org/2000/svg" viewBox="0 0 20 20" fill="none">
  <path
    fill-rule="evenodd"
    clip-rule="evenodd"
    d="M4.75573 16.6413C5.17081 17.0546 5.73207 17.2878 6.31786 17.2901C6.52999 17.2915 6.74124 17.2629 6.94536 17.2051L8.3345 16.801C9.21408 16.544 9.98066 15.9968 10.5095 15.2485L15.8345 7.86432C16.2381 7.31068 16.4052 6.6194 16.2991 5.94255C16.1929 5.26571 15.8223 4.65874 15.2687 4.25515L13.8237 3.20182C13.2691 2.7994 12.5775 2.63334 11.9007 2.74003C11.2237 2.84673 10.6168 3.21748 10.2128 3.77099L9.03152 5.4093C9.02316 5.41925 9.01509 5.4295 9.00733 5.44002C8.99683 5.45425 8.98697 5.46887 8.97778 5.48382L4.82537 11.2426C4.33865 11.9325 4.08043 12.7576 4.08704 13.6018L4.10036 15.0818C4.10519 15.6676 4.34065 16.2279 4.75573 16.6413ZM9.64528 6.68693L5.8412 11.9668C5.50688 12.4435 5.33055 13.013 5.33704 13.5951L5.35036 15.0743C5.35168 15.2251 5.38797 15.3735 5.4564 15.508C5.52482 15.6423 5.6235 15.759 5.74469 15.8487C5.86586 15.9385 6.00621 15.9989 6.1547 16.0251C6.30319 16.0514 6.45575 16.0429 6.60037 16.0001L7.9887 15.5968C8.59691 15.4178 9.12666 15.0383 9.492 14.5201L13.238 9.3253L9.64528 6.68693ZM10.3772 5.67105L13.9703 8.30973L14.8203 7.13099C14.924 6.98947 14.9987 6.8289 15.0402 6.65845C15.0817 6.488 15.0892 6.31104 15.0622 6.13771C15.0352 5.96439 14.9742 5.79809 14.8828 5.64836C14.7914 5.49863 14.6713 5.36841 14.5295 5.26515L13.0845 4.21182C12.8569 4.04627 12.5827 3.957 12.3012 3.95682C12.0902 3.95585 11.8819 4.00496 11.6936 4.10014C11.5052 4.19533 11.3422 4.33384 11.2178 4.50432L10.3772 5.67105Z"
    fill="#30303D"
  />
</svg>
