<svg viewBox="0 0 24 24" fill="none" xmlns="http://www.w3.org/2000/svg">
  <path
    d="M3.1499 8.76993V6.96893C3.1499 4.57093 5.1019 2.61993 7.4999 2.61993H16.4999C18.8989 2.61993 20.8499 4.57093 20.8499 6.96893V8.76993C20.8499 9.18393 20.5139 9.51993 20.0999 9.51993C19.6859 9.51993 19.3499 9.18393 19.3499 8.76993V6.96893C19.3499 5.39793 18.0719 4.11993 16.4999 4.11993H7.4999C5.9279 4.11993 4.6499 5.39793 4.6499 6.96893V8.76993C4.6499 9.18393 4.3139 9.51993 3.8999 9.51993C3.4859 9.51993 3.1499 9.18393 3.1499 8.76993Z"
    fill="currentColor"
    fill-opacity="0.6"
  />
  <path
    d="M12.5309 6.4399L14.8109 8.7199C14.9569 8.8659 15.0309 9.0579 15.0309 9.2499C15.0309 9.4419 14.9569 9.6339 14.8109 9.7809C14.6854 9.90641 14.5264 9.97815 14.3628 9.99614V10.0022H12.7499V13.7079H17.6009C19.2549 13.7079 20.6009 15.0539 20.6009 16.7079V18.8789C20.6009 20.5329 19.2549 21.8789 17.6009 21.8789H6.3999C4.7459 21.8789 3.3999 20.5329 3.3999 18.8789V16.7079C3.3999 15.0539 4.7459 13.7079 6.3999 13.7079H11.2499V10.0022H9.75537V9.99981C9.55198 10.0094 9.34544 9.93643 9.1899 9.7809C8.8969 9.4879 8.8969 9.0129 9.1899 8.7199L11.4699 6.4399C11.7629 6.1469 12.2379 6.1469 12.5309 6.4399Z"
    fill="currentColor"
    fill-opacity="0.6"
  />
</svg>
