<svg viewBox="0 0 24 24" fill="none" xmlns="http://www.w3.org/2000/svg">
  <path
    d="M20.8501 15.7301V17.5311C20.8501 19.9291 18.8981 21.8801 16.5001 21.8801H7.50002C5.10102 21.8801 3.15002 19.9291 3.15002 17.5311V15.7301C3.15002 15.3161 3.48602 14.9801 3.90002 14.9801C4.31402 14.9801 4.65002 15.3161 4.65002 15.7301V17.5311C4.65002 19.1021 5.92802 20.3801 7.50002 20.3801H16.5001C18.0721 20.3801 19.3501 19.1021 19.3501 17.5311V15.7301C19.3501 15.3161 19.6861 14.9801 20.1001 14.9801C20.5141 14.9801 20.8501 15.3161 20.8501 15.7301Z"
    fill="currentColor"
    fill-opacity="0.6"
  />
  <path
    d="M11.4689 18.0601L9.18892 15.7801C9.04292 15.6341 8.96893 15.4421 8.96893 15.2501C8.96893 15.0581 9.04292 14.8661 9.18892 14.7191C9.31444 14.5936 9.47334 14.5218 9.63703 14.5039V14.4978H11.2499V10.7921H6.39893C4.74493 10.7921 3.39893 9.44609 3.39893 7.79209V5.62109C3.39893 3.96709 4.74493 2.62109 6.39893 2.62109H17.5999C19.2539 2.62109 20.5999 3.96709 20.5999 5.62109V7.79209C20.5999 9.44609 19.2539 10.7921 17.5999 10.7921H12.7499V14.4978H14.2444V14.5002C14.4478 14.4906 14.6543 14.5636 14.8099 14.7191C15.1029 15.0121 15.1029 15.4871 14.8099 15.7801L12.5299 18.0601C12.2369 18.3531 11.7619 18.3531 11.4689 18.0601Z"
    fill="currentColor"
    fill-opacity="0.6"
  />
</svg>
