<svg viewBox="0 0 24 24" fill="none" xmlns="http://www.w3.org/2000/svg">
  <path
    d="M8.52048 3.40039H6.71948C4.32148 3.40039 2.37048 5.35239 2.37048 7.75039V16.7504C2.37048 19.1494 4.32148 21.1004 6.71948 21.1004H8.52048C8.93448 21.1004 9.27048 20.7644 9.27048 20.3504C9.27048 19.9364 8.93448 19.6004 8.52048 19.6004H6.71948C5.14848 19.6004 3.87048 18.3224 3.87048 16.7504V7.75039C3.87048 6.17839 5.14848 4.90039 6.71948 4.90039H8.52048C8.93448 4.90039 9.27048 4.56439 9.27048 4.15039C9.27048 3.73639 8.93448 3.40039 8.52048 3.40039Z"
    fill="currentColor"
    fill-opacity="0.6"
  />
  <path
    d="M6.19045 12.7814L8.47045 15.0614C8.61645 15.2074 8.80845 15.2814 9.00045 15.2814C9.19245 15.2814 9.38445 15.2074 9.53145 15.0614C9.65696 14.9359 9.7287 14.777 9.74669 14.6133H9.75274V13.0004H13.4585V17.8514C13.4585 19.5054 14.8045 20.8514 16.4585 20.8514H18.6295C20.2835 20.8514 21.6295 19.5054 21.6295 17.8514V6.65039C21.6295 4.99639 20.2835 3.65039 18.6295 3.65039H16.4585C14.8045 3.65039 13.4585 4.99639 13.4585 6.65039V11.5004H9.75274V10.0059H9.75036C9.75995 9.80247 9.68698 9.59593 9.53145 9.44039C9.23845 9.14739 8.76345 9.14739 8.47045 9.44039L6.19045 11.7204C5.89745 12.0134 5.89745 12.4884 6.19045 12.7814Z"
    fill="currentColor"
    fill-opacity="0.6"
  />
</svg>
