<svg viewBox="0 0 24 24" fill="none" xmlns="http://www.w3.org/2000/svg">
  <path
    fill-rule="evenodd"
    clip-rule="evenodd"
    d="M19.68 12.1588C20.8 11.0388 20.8 9.20883 19.68 8.08883L16.23 4.63883C15.11 3.51883 13.29 3.51883 12.17 4.63883L8.46201 8.34684C8.34491 8.46394 8.34485 8.65378 8.46187 8.77096L15.5479 15.8664C15.665 15.9837 15.8551 15.9838 15.9723 15.8666L19.68 12.1588Z"
    fill="currentColor"
    fill-opacity="0.6"
  />
  <path
    fill-rule="evenodd"
    clip-rule="evenodd"
    d="M21 19.7189H12.12L14.4879 17.351C14.605 17.2339 14.605 17.0439 14.4879 16.9268L7.40185 9.84077C7.2848 9.72372 7.09507 9.72359 6.97787 9.84049L3.4 13.4089C2.2 14.6089 2.2 16.5489 3.4 17.7389L5.37 19.7189H3C2.59 19.7189 2.25 20.0489 2.25 20.4689C2.25 20.8789 2.59 21.2189 3 21.2189H21C21.41 21.2189 21.75 20.8789 21.75 20.4689C21.75 20.0489 21.41 19.7189 21 19.7189Z"
    fill="currentColor"
    fill-opacity="0.6"
  />
</svg>
