<svg viewBox="0 0 24 24" fill="none" xmlns="http://www.w3.org/2000/svg">
  <path
    fill-rule="evenodd"
    clip-rule="evenodd"
    d="M7.43428 9.34265C7.31711 9.22549 7.12714 9.2255 7.00998 9.34268L3.60911 12.7445C2.91311 13.4395 2.52912 14.2565 2.49812 15.1065C2.46712 15.9845 2.81611 16.8145 3.50711 17.5065L6.99512 20.9915C7.65812 21.6555 8.44812 22.0045 9.28712 22.0045C9.32211 22.0045 9.35811 22.0035 9.3941 22.0025C10.2451 21.9725 11.0621 21.5885 11.7581 20.8925L15.159 17.4916C15.2761 17.3745 15.2761 17.1845 15.159 17.0674L7.43428 9.34265Z"
    fill="currentColor"
    fill-opacity="0.6"
  />
  <path
    fill-rule="evenodd"
    clip-rule="evenodd"
    d="M20.4848 7.50285L16.9978 4.01585C15.6258 2.64285 13.6668 2.68485 12.2358 4.11585L8.48885 7.86374C8.37172 7.98089 8.37172 8.1708 8.48885 8.28795L16.2127 16.0136C16.3298 16.1308 16.5198 16.1308 16.637 16.0136L20.3848 12.2648C21.8388 10.8108 21.8798 8.89785 20.4848 7.50285Z"
    fill="currentColor"
    fill-opacity="0.6"
  />
</svg>
