<svg viewBox="0 0 24 24" fill="none" xmlns="http://www.w3.org/2000/svg">
  <path
    fill-rule="evenodd"
    clip-rule="evenodd"
    d="M16.741 3.309L20.692 7.26C21.213 7.779 21.5 8.471 21.5 9.209V14.79C21.5 15.517 21.205 16.229 20.692 16.741L16.74 20.692C16.22 21.213 15.528 21.5 14.791 21.5H9.21C8.482 21.5 7.771 21.205 7.26 20.692L3.308 16.741C2.795 16.228 2.5 15.517 2.5 14.79V9.209C2.5 8.482 2.795 7.772 3.308 7.26L7.26 3.308C7.77 2.795 8.482 2.5 9.21 2.5H14.791C15.529 2.5 16.221 2.787 16.741 3.309ZM12 12.7494C12.414 12.7494 12.75 12.4134 12.75 11.9994V8.10742C12.75 7.69342 12.414 7.35742 12 7.35742C11.586 7.35742 11.25 7.69342 11.25 8.10742V11.9994C11.25 12.4134 11.586 12.7494 12 12.7494ZM11.25 15.7414C11.25 16.1554 11.586 16.4674 12 16.4674C12.414 16.4674 12.75 16.1074 12.75 15.6934C12.75 15.2794 12.414 14.9434 12 14.9434C11.586 14.9434 11.25 15.2794 11.25 15.6934V15.7414Z"
    fill="currentColor"
    fill-opacity="0.6"
  />
</svg>
