<svg viewBox="0 0 24 24" fill="none" xmlns="http://www.w3.org/2000/svg">
  <path
    fill-rule="evenodd"
    clip-rule="evenodd"
    d="M14.2103 4.65744L21.1703 16.8734C21.6153 17.6534 21.6113 18.5834 21.1593 19.3594C20.7073 20.1374 19.9023 20.6004 19.0033 20.6004H4.99528C4.09428 20.6004 3.28628 20.1354 2.83628 19.3544C2.38628 18.5744 2.38628 17.6414 2.83728 16.8614L9.88528 4.64644C10.3353 3.86544 11.1423 3.39844 12.0433 3.39844H12.0483C12.9533 3.40044 13.7613 3.87144 14.2103 4.65744ZM12.0113 14.0335C12.4253 14.0335 12.7613 13.6975 12.7613 13.2835V10.2715C12.7613 9.85748 12.4253 9.52148 12.0113 9.52148C11.5973 9.52148 11.2613 9.85748 11.2613 10.2715V13.2835C11.2613 13.6975 11.5973 14.0335 12.0113 14.0335ZM11.2593 16.3285C11.2593 16.7425 11.5953 17.0545 12.0093 17.0545C12.4233 17.0545 12.7593 16.6935 12.7593 16.2795C12.7593 15.8655 12.4233 15.5295 12.0093 15.5295C11.5953 15.5295 11.2593 15.8655 11.2593 16.2795V16.3285Z"
    fill="currentColor"
    fill-opacity="0.6"
  />
</svg>
