<svg viewBox="0 0 24 24" fill="none" xmlns="http://www.w3.org/2000/svg">
  <path
    fill-rule="evenodd"
    clip-rule="evenodd"
    d="M15.3289 21.36H8.25374C5.21822 21.36 3.17822 19.2307 3.17822 16.0608V7.93921C3.17822 4.76929 5.21822 2.64001 8.25374 2.64001H15.3299C18.3654 2.64001 20.4054 4.76929 20.4054 7.93921V16.0608C20.4054 19.2307 18.3654 21.36 15.3289 21.36ZM7.50004 7.34436C6.90676 7.34436 6.65332 7.5882 6.65332 8.16036V8.43876C6.65332 9.01572 6.9154 9.27396 7.50004 9.27396H15.5C16.0923 9.27396 16.3448 9.03012 16.3448 8.45796V8.16036C16.3458 7.87812 16.2824 7.67172 16.1566 7.545C15.9906 7.37892 15.7083 7.34436 15.5019 7.34436H7.50004ZM7.6548 14.3325C7.55592 14.3325 7.38984 14.3027 7.2996 14.2633C7.18536 14.2134 7.0308 14.0867 6.95592 13.9878C6.8628 13.863 6.79272 13.6432 6.79272 13.4877C6.79272 13.4109 6.80712 13.3245 6.834 13.2429L6.83208 13.2419C6.84264 13.2064 6.85896 13.168 6.8772 13.1296C6.89352 13.096 6.91272 13.0653 6.93192 13.0365C6.97608 12.9683 7.02984 12.9069 7.08264 12.8617C7.14024 12.8109 7.20264 12.7677 7.266 12.7389C7.38216 12.663 7.49448 12.6525 7.63368 12.6525C7.74504 12.6525 7.92168 12.6985 8.02152 12.7485C8.18664 12.831 8.35656 13.0297 8.41992 13.2016C8.46984 13.3369 8.48328 13.552 8.44872 13.6912C8.41992 13.8083 8.34984 13.936 8.26056 14.0397L8.26344 14.0425C8.23752 14.0723 8.20488 14.103 8.16648 14.1328C8.13864 14.1568 8.10984 14.1789 8.07912 14.1961C8.02152 14.2336 7.962 14.2662 7.914 14.2845C7.83144 14.3161 7.74312 14.3325 7.6548 14.3325ZM11.3794 14.2633C11.4697 14.3027 11.6358 14.3325 11.7346 14.3325C11.823 14.3325 11.9113 14.3161 11.9938 14.2845C12.0418 14.2662 12.1014 14.2336 12.159 14.1961C12.1897 14.1789 12.2185 14.1568 12.2463 14.1328C12.2847 14.103 12.3174 14.0723 12.3433 14.0425L12.3404 14.0397C12.4297 13.936 12.4998 13.8083 12.5286 13.6912C12.5631 13.552 12.5497 13.3369 12.4998 13.2016C12.4364 13.0297 12.2665 12.831 12.1014 12.7485C12.0015 12.6985 11.8249 12.6525 11.7135 12.6525C11.5743 12.6525 11.462 12.663 11.3458 12.7389C11.2825 12.7677 11.2201 12.8109 11.1625 12.8617C11.1097 12.9069 11.0559 12.9683 11.0118 13.0365C10.9926 13.0653 10.9734 13.096 10.957 13.1296C10.9388 13.168 10.9225 13.2064 10.9119 13.2419L10.9138 13.2429C10.887 13.3245 10.8726 13.4109 10.8726 13.4877C10.8726 13.6432 10.9426 13.863 11.0358 13.9878C11.1106 14.0867 11.2652 14.2134 11.3794 14.2633ZM15.8147 14.3325C15.7158 14.3325 15.5498 14.3027 15.4595 14.2633C15.3453 14.2134 15.1907 14.0867 15.1158 13.9878C15.0227 13.863 14.9526 13.6432 14.9526 13.4877C14.9526 13.4109 14.967 13.3245 14.9939 13.2429L14.992 13.2419C15.0026 13.2064 15.0189 13.168 15.0371 13.1296C15.0534 13.096 15.0726 13.0653 15.0918 13.0365C15.136 12.9683 15.1898 12.9069 15.2426 12.8617C15.3002 12.8109 15.3626 12.7677 15.4259 12.7389C15.5421 12.663 15.6544 12.6525 15.7936 12.6525C15.905 12.6525 16.0816 12.6985 16.1814 12.7485C16.3466 12.831 16.5165 13.0297 16.5798 13.2016C16.6298 13.3369 16.6432 13.552 16.6086 13.6912C16.5798 13.8083 16.5098 13.936 16.4205 14.0397L16.4234 14.0425C16.3974 14.0723 16.3648 14.103 16.3264 14.1328C16.2986 14.1568 16.2698 14.1789 16.239 14.1961C16.1814 14.2336 16.1219 14.2662 16.0739 14.2845C15.9914 14.3161 15.903 14.3325 15.8147 14.3325ZM7.2996 17.8634C7.38984 17.9028 7.55592 17.9326 7.6548 17.9326C7.74312 17.9326 7.83144 17.9162 7.914 17.8846C7.962 17.8663 8.02152 17.8337 8.07912 17.7962C8.10984 17.779 8.13864 17.7569 8.16648 17.7329C8.20488 17.7031 8.23752 17.6724 8.26344 17.6426L8.26056 17.6398C8.34984 17.5361 8.41992 17.4084 8.44872 17.2913C8.48328 17.1521 8.46984 16.937 8.41992 16.8017C8.35656 16.6298 8.18664 16.4311 8.02152 16.3486C7.92168 16.2986 7.74504 16.2526 7.63368 16.2526C7.49448 16.2526 7.38216 16.2631 7.266 16.339C7.20264 16.3678 7.14024 16.411 7.08264 16.4618C7.02984 16.507 6.97608 16.5684 6.93192 16.6366C6.91272 16.6654 6.89352 16.6961 6.8772 16.7297C6.85896 16.7681 6.84264 16.8065 6.83208 16.842L6.834 16.843C6.80712 16.9246 6.79272 17.011 6.79272 17.0878C6.79272 17.2433 6.8628 17.4631 6.95592 17.5879C7.0308 17.6868 7.18536 17.8135 7.2996 17.8634ZM11.7346 17.9326C11.6358 17.9326 11.4697 17.9028 11.3794 17.8634C11.2652 17.8135 11.1106 17.6868 11.0358 17.5879C10.9426 17.4631 10.8726 17.2433 10.8726 17.0878C10.8726 17.011 10.887 16.9246 10.9138 16.843L10.9119 16.842C10.9225 16.8065 10.9388 16.7681 10.957 16.7297C10.9734 16.6961 10.9926 16.6654 11.0118 16.6366C11.0559 16.5684 11.1097 16.507 11.1625 16.4618C11.2201 16.411 11.2825 16.3678 11.3458 16.339C11.462 16.2631 11.5743 16.2526 11.7135 16.2526C11.8249 16.2526 12.0015 16.2986 12.1014 16.3486C12.2665 16.4311 12.4364 16.6298 12.4998 16.8017C12.5497 16.937 12.5631 17.1521 12.5286 17.2913C12.4998 17.4084 12.4297 17.5361 12.3404 17.6398L12.3433 17.6426C12.3174 17.6724 12.2847 17.7031 12.2463 17.7329C12.2185 17.7569 12.1897 17.779 12.159 17.7962C12.1014 17.8337 12.0418 17.8663 11.9938 17.8846C11.9113 17.9162 11.823 17.9326 11.7346 17.9326ZM15.4595 17.8634C15.5498 17.9028 15.7158 17.9326 15.8147 17.9326C15.903 17.9326 15.9914 17.9162 16.0739 17.8846C16.1219 17.8663 16.1814 17.8337 16.239 17.7962C16.2698 17.779 16.2986 17.7569 16.3264 17.7329C16.3648 17.7031 16.3974 17.6724 16.4234 17.6426L16.4205 17.6398C16.5098 17.5361 16.5798 17.4084 16.6086 17.2913C16.6432 17.1521 16.6298 16.937 16.5798 16.8017C16.5165 16.6298 16.3466 16.4311 16.1814 16.3486C16.0816 16.2986 15.905 16.2526 15.7936 16.2526C15.6544 16.2526 15.5421 16.2631 15.4259 16.339C15.3626 16.3678 15.3002 16.411 15.2426 16.4618C15.1898 16.507 15.136 16.5684 15.0918 16.6366C15.0726 16.6654 15.0534 16.6961 15.0371 16.7297C15.0189 16.7681 15.0026 16.8065 14.992 16.842L14.9939 16.843C14.967 16.9246 14.9526 17.011 14.9526 17.0878C14.9526 17.2433 15.0227 17.4631 15.1158 17.5879C15.1907 17.6868 15.3453 17.8135 15.4595 17.8634Z"
    fill="currentColor"
    fill-opacity="0.6"
  />
</svg>
