<svg viewBox="0 0 24 24" fill="none" xmlns="http://www.w3.org/2000/svg">
  <path
    fill-rule="evenodd"
    clip-rule="evenodd"
    d="M4.56305 6.00493C4.19505 5.82993 3.84005 5.62093 3.54105 5.28293C3.40205 5.12593 3.28505 4.94693 3.23305 4.71293C3.15205 4.34493 3.26505 4.05093 3.45805 3.79293C3.69005 3.48293 3.97905 3.28193 4.28205 3.11293C4.84905 2.79593 5.44505 2.60893 6.05305 2.47593C7.17205 2.22893 8.29905 2.18093 9.42905 2.27593C10.2581 2.34593 11.0781 2.49893 11.8751 2.81193C12.3231 2.98793 12.7591 3.20093 13.1371 3.56693C13.2381 3.66493 13.3321 3.77993 13.4131 3.90493C13.6501 4.26993 13.6471 4.70093 13.4131 5.07093C13.2371 5.34993 13.0091 5.54193 12.7651 5.70593C12.3201 6.00393 11.8461 6.19293 11.3601 6.33793C10.3851 6.62893 9.39505 6.73993 8.27805 6.73793C7.80005 6.74693 7.20605 6.69893 6.61605 6.60493C5.91605 6.49293 5.22605 6.31993 4.56305 6.00493ZM6.73361 7.99334C6.12361 7.90334 5.52361 7.77334 4.92361 7.57334C4.45361 7.42334 3.99361 7.22334 3.56361 6.93334C3.53433 6.91204 3.50434 6.89004 3.47364 6.86751L3.47361 6.86749L3.47359 6.86748C3.38898 6.8054 3.29899 6.73937 3.20361 6.67334L3.204 6.7687C3.20574 7.16522 3.2124 8.67999 3.20361 9.45334C3.20361 9.78334 3.29361 10.0533 3.47361 10.2833C3.75361 10.6233 4.08361 10.8333 4.43361 11.0133C4.94361 11.2833 5.47361 11.4433 6.01361 11.5633C6.53361 11.6833 7.06361 11.7633 7.60361 11.7933C8.04361 11.8233 8.48361 11.8333 8.91361 11.8133L8.90361 9.54334C8.90361 9.11 8.94361 8.61334 9.26361 8.06334C8.42361 8.13334 7.57361 8.10334 6.73361 7.99334ZM11.486 7.98059C11.183 8.14959 10.895 8.35059 10.663 8.66059C10.47 8.91759 10.356 9.21159 10.438 9.58059C10.489 9.81359 10.607 9.99359 10.745 10.1506C11.044 10.4876 11.399 10.6976 11.767 10.8726C12.431 11.1876 13.121 11.3606 13.82 11.4726C14.411 11.5666 15.004 11.6146 15.482 11.6056C16.599 11.6076 17.589 11.4956 18.564 11.2056C19.05 11.0606 19.525 10.8706 19.969 10.5726C20.213 10.4096 20.442 10.2176 20.618 9.93859C20.851 9.56759 20.8551 9.13759 20.618 8.77259C20.536 8.64759 20.442 8.53259 20.341 8.43459C19.963 8.06759 19.5271 7.85459 19.079 7.67959C18.282 7.36659 17.462 7.21259 16.634 7.14359C15.503 7.04759 14.376 7.09659 13.257 7.34259C12.65 7.47659 12.053 7.66359 11.486 7.98059ZM11.6339 15.8835C11.2859 15.7045 10.9529 15.4915 10.6809 15.1505C10.4989 14.9225 10.4049 14.6545 10.4079 14.3175C10.4151 13.5283 10.4118 11.9618 10.411 11.6102L10.4109 11.5405C10.4574 11.5738 10.5019 11.6061 10.5452 11.6374L10.5454 11.6376C10.6229 11.6938 10.6965 11.7472 10.7709 11.7985C11.2019 12.0915 11.6599 12.2875 12.1309 12.4445C12.7239 12.6445 13.3279 12.7755 13.9369 12.8575C14.7789 12.9705 15.6229 13.0035 16.4679 12.9325C16.9049 12.8955 17.3419 12.8495 17.7749 12.7715C18.7049 12.6045 19.6169 12.3455 20.4579 11.7815C20.527 11.7359 20.5942 11.6866 20.6641 11.6352L20.6642 11.6351L20.6644 11.635L20.6644 11.635C20.7047 11.6054 20.7459 11.5752 20.7889 11.5445C20.7896 11.561 20.79 11.8189 20.7904 12.183V12.1834V12.1836V12.1837V12.1837C20.7912 12.8161 20.7925 13.7683 20.7969 14.3335C20.7989 14.6515 20.7099 14.9065 20.5429 15.1265C20.3029 15.4415 20.0069 15.6465 19.6969 15.8175C19.1169 16.1385 18.5069 16.3255 17.8859 16.4585C16.8649 16.6755 15.8379 16.7305 14.8059 16.6635C14.2719 16.6285 13.7409 16.5545 13.2139 16.4335C12.6739 16.3105 12.1439 16.1455 11.6339 15.8835ZM20.7688 16.6373L20.7944 16.6177L20.7943 16.6961V16.6972C20.7937 17.0689 20.7911 18.6241 20.7964 19.4137C20.7994 19.7337 20.7104 19.9927 20.5404 20.2157C20.3084 20.5207 20.0234 20.7207 19.7234 20.8897C19.1984 21.1857 18.6464 21.3647 18.0834 21.4977C17.1044 21.7287 16.1164 21.7967 15.1234 21.7607C14.5474 21.7397 13.9744 21.6747 13.4034 21.5587C12.8024 21.4357 12.2124 21.2647 11.6434 20.9797C11.3244 20.8187 11.0194 20.6257 10.7564 20.3357C10.5294 20.0857 10.4014 19.7877 10.4074 19.3847C10.4181 18.6121 10.4122 17.0852 10.4107 16.7166V16.7165L10.4104 16.6367C10.4544 16.6683 10.4962 16.6986 10.5366 16.728C10.6009 16.7746 10.6616 16.8187 10.7224 16.8617C11.2234 17.2117 11.7594 17.4427 12.3124 17.5967C12.7864 17.7267 13.2644 17.8377 13.7434 17.9227C14.3064 18.0217 14.8744 18.0567 15.4444 18.0607C16.0264 18.0657 16.6064 18.0407 17.1854 17.9627C18.1404 17.8347 19.0794 17.6157 19.9724 17.1467C20.1499 17.0541 20.3199 16.9399 20.4898 16.8258L20.4898 16.8258C20.5622 16.7772 20.6345 16.7286 20.7074 16.6817C20.7252 16.6708 20.7425 16.6576 20.7688 16.6373L20.7688 16.6373ZM5.10366 12.7334C5.58366 12.8634 6.06366 12.9734 6.54366 13.0534C7.10366 13.1534 7.67366 13.1934 8.24366 13.1934C8.46366 13.1934 8.69366 13.1934 8.91366 13.1734V13.7734C8.91366 14.0834 8.91366 14.4034 8.90366 14.6834C8.91051 14.7998 8.90798 14.9115 8.90571 15.0121V15.0121V15.0121C8.90466 15.0584 8.90366 15.1024 8.90366 15.1434V15.2034L8.91366 16.7234V16.8834C8.58366 16.9034 8.25366 16.9034 7.92366 16.8934C7.34366 16.8734 6.77366 16.8034 6.20366 16.6934C5.59366 16.5734 5.00366 16.3934 4.44366 16.1134C4.12366 15.9534 3.81366 15.7534 3.55366 15.4734C3.32366 15.2234 3.19366 14.9234 3.20366 14.5134C3.21244 13.7583 3.2058 12.263 3.20405 11.8689L3.20366 11.7734C3.32366 11.8534 3.42366 11.9234 3.51366 11.9934C4.02366 12.3434 4.55366 12.5734 5.10366 12.7334Z"
    fill="currentColor"
    fill-opacity="0.6"
  />
</svg>
