<svg viewBox="0 0 24 24" fill="none" xmlns="http://www.w3.org/2000/svg">
  <path
    fill-rule="evenodd"
    clip-rule="evenodd"
    d="M7.74356 21.12H15.8412C18.8748 21.12 20.9119 18.9859 20.9119 15.8112V8.1888C20.9119 5.01408 18.8748 2.88 15.8412 2.88H7.74356C4.70995 2.88 2.67188 5.01408 2.67188 8.1888V15.8112C2.67188 18.9859 4.70995 21.12 7.74356 21.12ZM7.66714 11.0106C7.66714 11.4081 7.9897 11.7306 8.38714 11.7306C8.78458 11.7306 9.10714 11.4081 9.10714 11.0106V9.99297H10.119C10.5164 9.99297 10.839 9.67041 10.839 9.27297C10.839 8.87553 10.5164 8.55297 10.119 8.55297H9.10714V7.54593C9.10714 7.14849 8.78458 6.82593 8.38714 6.82593C7.9897 6.82593 7.66714 7.14849 7.66714 7.54593V8.55297H6.6553C6.25786 8.55297 5.9353 8.87553 5.9353 9.27297C5.9353 9.67041 6.25786 9.99297 6.6553 9.99297H7.66714V11.0106ZM16.9282 17.1739C16.7439 17.1739 16.5596 17.1038 16.4194 16.9627L15.7042 16.2475L14.9881 16.9627C14.7078 17.244 14.2518 17.244 13.9705 16.9627C13.6892 16.6814 13.6892 16.2264 13.9705 15.9451L14.6857 15.2299L13.9705 14.5147C13.6892 14.2334 13.6892 13.7784 13.9705 13.4971C14.2518 13.2158 14.7078 13.2158 14.9881 13.4971L15.7042 14.2123L16.4194 13.4971C16.7007 13.2158 17.1558 13.2158 17.437 13.4971C17.7183 13.7784 17.7183 14.2334 17.437 14.5147L16.7228 15.2299L17.437 15.9451C17.7183 16.2264 17.7183 16.6814 17.437 16.9627C17.2969 17.1038 17.1126 17.1739 16.9282 17.1739ZM10.6277 15.926H7.16312C6.76568 15.926 6.44312 15.6034 6.44312 15.206C6.44312 14.8085 6.76568 14.486 7.16312 14.486H10.6277C11.0252 14.486 11.3477 14.8085 11.3477 15.206C11.3477 15.6034 11.0252 15.926 10.6277 15.926ZM13.9189 11.2319C13.7345 11.2319 13.5502 11.1618 13.4101 11.0207C13.1288 10.7394 13.1288 10.2844 13.4101 10.0031L15.859 7.55508C16.1393 7.2738 16.5953 7.2738 16.8766 7.55508C17.1579 7.83636 17.1579 8.2914 16.8766 8.57268L14.4277 11.0207C14.2875 11.1618 14.1032 11.2319 13.9189 11.2319Z"
    fill="currentColor"
    fill-opacity="0.6"
  />
</svg>
