<svg viewBox="0 0 24 24" fill="none" xmlns="http://www.w3.org/2000/svg">
  <path
    fill-rule="evenodd"
    clip-rule="evenodd"
    d="M5.85594 5.74382C5.54394 5.59582 5.24294 5.41782 4.98894 5.13082C4.87094 4.99782 4.77194 4.84482 4.72794 4.64682C4.65894 4.33382 4.75494 4.08482 4.91894 3.86582C5.11594 3.60282 5.36094 3.43282 5.61794 3.28882C6.09994 3.01982 6.60594 2.86082 7.12194 2.74782C8.07194 2.53782 9.02794 2.49682 9.98794 2.57782C10.6919 2.63682 11.3869 2.76782 12.0639 3.03282C12.4439 3.18182 12.8139 3.36282 13.1349 3.67382C13.2209 3.75682 13.3009 3.85482 13.3699 3.96082C13.5719 4.27082 13.5689 4.63682 13.3699 4.95082C13.2209 5.18782 13.0269 5.35082 12.8199 5.48982C12.4419 5.74282 12.0399 5.90382 11.6269 6.02682C10.7989 6.27282 9.95894 6.36782 9.01094 6.36682C8.60494 6.37382 8.10094 6.33382 7.59894 6.25282C7.00594 6.15782 6.41994 6.01182 5.85594 5.74382ZM12.4871 8.07981C12.8271 8.00981 13.1671 7.94981 13.5171 7.90981V6.30981C13.4611 6.35459 13.4083 6.3931 13.3568 6.4306C13.3164 6.46011 13.2767 6.48899 13.2371 6.51981C12.5171 6.98981 11.7471 7.20981 10.9571 7.35981C10.5871 7.41981 10.2171 7.45981 9.84713 7.48981C9.12713 7.54981 8.41713 7.52981 7.69713 7.42981C7.17713 7.35981 6.66713 7.24981 6.16713 7.07981C5.76713 6.94981 5.37713 6.77981 5.00713 6.52981C4.94681 6.48758 4.89012 6.44535 4.83048 6.40093C4.79126 6.37172 4.75077 6.34155 4.70713 6.30981V8.66981C4.69713 8.94981 4.77713 9.17981 4.93713 9.37981C5.16713 9.66981 5.44713 9.84981 5.74713 9.99981C6.17713 10.2198 6.62713 10.3598 7.08713 10.4698C7.53713 10.5698 7.98713 10.6298 8.43713 10.6598C8.72713 10.6798 9.01713 10.6898 9.29713 10.6798C9.30713 10.3498 9.40713 9.95981 9.69713 9.57981C10.0271 9.14981 10.4071 8.89981 10.7071 8.72981C11.2171 8.44981 11.7871 8.23981 12.4871 8.07981ZM10.6991 10.3307C10.8961 10.0677 11.1411 9.89667 11.3981 9.75367C11.8801 9.48467 12.3861 9.32567 12.9021 9.21267C13.8521 9.00267 14.8081 8.96167 15.7681 9.04267C16.4721 9.10167 17.1681 9.23267 17.8441 9.49767C18.2241 9.64667 18.5951 9.82767 18.9151 10.1387C19.0011 10.2217 19.0811 10.3197 19.1501 10.4257C19.3521 10.7357 19.3491 11.1017 19.1511 11.4157C19.0011 11.6527 18.8071 11.8157 18.6001 11.9547C18.2231 12.2077 17.8201 12.3687 17.4071 12.4917C16.5791 12.7377 15.7391 12.8327 14.7911 12.8317C14.3851 12.8387 13.8811 12.7977 13.3801 12.7177C12.7861 12.6227 12.2001 12.4767 11.6361 12.2087C11.3241 12.0607 11.0231 11.8827 10.7691 11.5957C10.6511 11.4627 10.5521 11.3097 10.5081 11.1117C10.4391 10.7987 10.5351 10.5497 10.6991 10.3307ZM10.7147 15.8406C10.9457 16.1306 11.2287 16.3106 11.5237 16.4626C11.9567 16.6856 12.4067 16.8246 12.8647 16.9296C13.3127 17.0326 13.7637 17.0956 14.2167 17.1246C15.0927 17.1816 15.9647 17.1356 16.8317 16.9506C17.3587 16.8386 17.8757 16.6796 18.3687 16.4066C18.6327 16.2616 18.8837 16.0876 19.0867 15.8206C19.2287 15.6336 19.3047 15.4166 19.3027 15.1476C19.299 14.6819 19.298 13.9074 19.2972 13.3714V13.371V13.3707V13.3704V13.3702V13.37C19.2968 13.0355 19.2965 12.7942 19.2957 12.7796C19.2614 12.8042 19.2282 12.8285 19.1956 12.8522C19.1342 12.897 19.0752 12.9401 19.0157 12.9806C18.3007 13.4596 17.5267 13.6796 16.7377 13.8216C16.3697 13.8876 15.9987 13.9266 15.6277 13.9576C14.9107 14.0176 14.1937 13.9896 13.4787 13.8936C12.9617 13.8236 12.4497 13.7126 11.9457 13.5436C11.5467 13.4096 11.1567 13.2436 10.7907 12.9946C10.7302 12.9533 10.67 12.9096 10.6068 12.8636L10.6067 12.8636L10.6067 12.8636L10.6065 12.8635C10.5674 12.8351 10.5271 12.8058 10.4847 12.7756L10.4849 12.8402V12.8403C10.4856 13.1493 10.489 14.4671 10.4827 15.1336C10.4807 15.4196 10.5607 15.6476 10.7147 15.8406ZM19.3006 17.0862C19.286 17.0971 19.2744 17.106 19.2645 17.1137C19.2498 17.125 19.2389 17.1334 19.2276 17.1412C19.1642 17.1817 19.1014 17.2237 19.0386 17.2657L19.0386 17.2657C18.8953 17.3615 18.7521 17.4573 18.6026 17.5352C17.8446 17.9342 17.0476 18.1192 16.2366 18.2282C15.7456 18.2942 15.2526 18.3152 14.7586 18.3112C14.2756 18.3082 13.7926 18.2782 13.3146 18.1942C12.9076 18.1212 12.5016 18.0282 12.0996 17.9172C11.6296 17.7872 11.1746 17.5912 10.7496 17.2932C10.6828 17.2463 10.6161 17.1975 10.5433 17.1444L10.5432 17.1443L10.543 17.1441L10.543 17.1441L10.4856 17.1022L10.4857 17.163C10.4868 17.4631 10.4914 18.7741 10.4816 19.4352C10.4776 19.7772 10.5866 20.0302 10.7786 20.2422C11.0016 20.4882 11.2616 20.6532 11.5326 20.7892C12.0146 21.0312 12.5156 21.1772 13.0266 21.2812C13.5106 21.3792 13.9976 21.4342 14.4866 21.4522C15.3296 21.4832 16.1676 21.4252 16.9986 21.2292C17.4766 21.1162 17.9456 20.9642 18.3916 20.7132C18.6466 20.5702 18.8886 20.4002 19.0856 20.1402C19.2286 19.9512 19.3046 19.7312 19.3026 19.4592C19.2981 18.7856 19.3 17.4547 19.3005 17.1486V17.148V17.1478L19.3006 17.0862ZM7.69713 11.6898C7.17713 11.6198 6.66713 11.5098 6.16713 11.3398C5.76713 11.2098 5.37713 11.0398 5.00713 10.7898C4.94304 10.7514 4.88305 10.7047 4.81928 10.6551L4.81927 10.6551C4.78354 10.6273 4.74663 10.5985 4.70713 10.5698V12.9298C4.69713 13.2198 4.77713 13.4498 4.93713 13.6398C5.16713 13.9298 5.44713 14.1098 5.74713 14.2598C6.17713 14.4798 6.62713 14.6198 7.08713 14.7298C7.53713 14.8298 7.98713 14.8898 8.43713 14.9198C8.71713 14.9398 8.99713 14.9498 9.27713 14.9398C9.28713 14.2398 9.28713 13.2698 9.28713 13.0198L9.27713 11.7798C8.75713 11.7998 8.22713 11.7598 7.69713 11.6898ZM6.31702 15.7197C6.71702 15.8297 7.12702 15.9197 7.53702 15.9897C8.01702 16.0797 8.49702 16.1097 8.97702 16.1097H8.97708C9.07706 16.1097 9.18704 16.1097 9.28702 16.0997V17.0197V17.0197C9.28702 17.3299 9.28702 18.6097 9.27702 19.2597C9.08702 19.2597 8.89702 19.2597 8.70702 19.2497C8.21702 19.2297 7.72702 19.1797 7.24702 19.0797C6.73702 18.9797 6.23702 18.8297 5.74702 18.5897C5.47702 18.4497 5.21702 18.2897 4.99702 18.0397C4.80702 17.8297 4.69702 17.5797 4.69702 17.2297C4.70702 16.4997 4.70702 14.9497 4.70702 14.8997C4.75956 14.9405 4.8121 14.978 4.86265 15.014L4.86273 15.0141C4.89874 15.0397 4.93375 15.0647 4.96702 15.0897C5.39702 15.3897 5.84702 15.5897 6.31702 15.7197Z"
    fill="currentColor"
    fill-opacity="0.6"
  />
</svg>
