<svg viewBox="0 0 24 24" fill="none" xmlns="http://www.w3.org/2000/svg">
  <path
    fill-rule="evenodd"
    clip-rule="evenodd"
    d="M12.4573 15.411L15.6397 16.3591C15.7731 16.3989 15.9163 16.3417 15.9855 16.2209L16.0203 16.1604C16.0899 16.039 16.0645 15.8871 15.973 15.7812C15.7916 15.5712 15.6498 15.3221 15.5683 15.038C15.2653 13.975 15.8803 12.868 16.9413 12.565L19.0783 11.955C19.0818 11.954 19.0851 11.9535 19.0883 11.953C19.0916 11.9525 19.0948 11.952 19.0983 11.951C19.1784 11.9287 19.2619 11.9176 19.3457 11.9065L19.3643 11.904C19.3807 11.9019 19.3971 11.8984 19.4136 11.8948C19.4361 11.89 19.4587 11.8852 19.4813 11.884C19.6135 11.8735 19.747 11.8767 19.88 11.8936C20.0686 11.9175 20.258 11.7955 20.2703 11.6058C20.282 11.4251 20.2883 11.2427 20.2883 11.059C20.2883 6.29397 16.4123 2.41797 11.6473 2.41797C6.88332 2.41797 3.00732 6.29397 3.00732 11.059C3.00732 14.6029 5.15406 17.6492 8.21391 18.9808C8.34743 19.0389 8.50232 18.9877 8.57912 18.864L10.1873 16.273C10.6643 15.507 11.5943 15.159 12.4573 15.411ZM20.9633 15.7983L20.3563 13.6923C20.3303 13.5903 20.2823 13.4953 20.2163 13.4113C20.1932 13.3819 20.1648 13.3599 20.136 13.3376C20.1237 13.3281 20.1113 13.3185 20.0993 13.3083C20.087 13.2982 20.0757 13.2871 20.0645 13.276L20.0645 13.2759C20.0457 13.2575 20.0271 13.239 20.0033 13.2253L20.0014 13.2245C20.0009 13.2243 20.0005 13.2242 20.0001 13.224C19.9996 13.2238 19.999 13.2236 19.9983 13.2233C19.8853 13.1593 19.7553 13.1373 19.6213 13.1393L19.5948 13.1396C19.5387 13.1401 19.483 13.1406 19.4303 13.1553C19.4273 13.1563 19.4253 13.1553 19.4223 13.1553L17.2853 13.7663C16.8873 13.8793 16.6563 14.2943 16.7713 14.6933C16.8843 15.0893 17.2933 15.3303 17.6973 15.2073L18.0653 15.1023L16.4603 17.9073L12.1003 16.6083C11.7793 16.5123 11.4273 16.6443 11.2483 16.9313L8.99531 20.5613C8.77731 20.9123 8.88631 21.3753 9.23731 21.5943C9.36031 21.6703 9.49731 21.7063 9.63231 21.7063C9.88331 21.7063 10.1283 21.5803 10.2713 21.3523L12.2213 18.2093L16.6023 19.5153C16.9313 19.6153 17.2933 19.4713 17.4673 19.1683L19.4003 15.7913L19.5223 16.2143C19.6163 16.5423 19.9163 16.7563 20.2423 16.7563C20.3113 16.7563 20.3813 16.7463 20.4503 16.7273C20.8483 16.6113 21.0773 16.1963 20.9633 15.7983ZM9.97194 11.0216H11.6943C13.0347 11.0216 14.126 9.87953 14.126 8.47474C14.126 7.06548 13.0347 5.91895 11.6943 5.91895H9.33403C8.98191 5.91895 8.69613 6.21921 8.69613 6.58917V9.68114H8.5643C8.21217 9.68114 7.92639 9.98141 7.92639 10.3514C7.92639 10.7213 8.21217 11.0216 8.5643 11.0216H8.69613V11.379H8.5643C8.21217 11.379 7.92639 11.6793 7.92639 12.0493C7.92639 12.4192 8.21217 12.7195 8.5643 12.7195H8.69613V13.5148C8.69613 13.8848 8.98191 14.1851 9.33403 14.1851C9.68616 14.1851 9.97194 13.8848 9.97194 13.5148V12.7195H10.6328C10.9849 12.7195 11.2707 12.4192 11.2707 12.0493C11.2707 11.6793 10.9849 11.379 10.6328 11.379H9.97194V11.0216ZM11.6942 7.2594H9.97186V9.68114H11.6942C12.3321 9.68114 12.8501 9.1396 12.8501 8.47474C12.8501 7.80451 12.3321 7.2594 11.6942 7.2594Z"
    fill="currentColor"
    fill-opacity="0.6"
  />
</svg>
