<svg viewBox="0 0 24 24" fill="none" xmlns="http://www.w3.org/2000/svg">
  <path
    fill-rule="evenodd"
    clip-rule="evenodd"
    d="M11.8349 8.65305C11.7809 8.38505 11.7509 8.10905 11.7509 7.82605C11.7509 5.70805 13.3229 3.96705 15.3579 3.66705C15.2669 3.54605 15.1689 3.43005 15.0599 3.32305C14.4519 2.71105 13.6429 2.37305 12.7829 2.37305C11.9229 2.37305 11.1149 2.71105 10.5089 3.32205C9.89992 3.93005 9.56492 4.73705 9.56592 5.59705C9.56592 6.45605 9.90092 7.26305 10.5089 7.86905C10.8839 8.24405 11.3429 8.50005 11.8349 8.65305ZM20.004 13.8851C19.155 13.0381 17.79 12.9401 16.826 13.6581C16.5597 13.8608 16.2925 14.0803 16.0203 14.3038L16.015 14.3081C15.593 14.6561 15.163 15.0051 14.723 15.2971L14.7298 15.2504C14.7449 15.1471 14.76 15.0439 14.76 14.9361C14.76 13.7521 13.963 12.7571 12.776 12.4581C11.597 12.1631 10.324 11.8961 8.94304 11.9261C6.96037 11.9761 5.51553 12.9628 4.11875 13.9167L4.11804 13.9171L3.62404 14.2531C3.28004 14.4851 3.18804 14.9501 3.41904 15.2941C3.65004 15.6391 4.11704 15.7291 4.46004 15.4991L4.96404 15.1561C6.29304 14.2481 7.44104 13.4651 8.98004 13.4261C10.183 13.3921 11.335 13.6431 12.411 13.9131C12.935 14.0451 13.26 14.4371 13.26 14.9361C13.26 15.5321 12.789 15.9661 12.139 15.9661H11.798C11.611 15.9611 11.422 15.9611 11.231 15.9661H10.689C10.335 15.9661 10.052 16.2171 9.97304 16.5471C9.96955 16.5594 9.96741 16.5719 9.96525 16.5846C9.9637 16.5937 9.96213 16.6029 9.96004 16.6121C9.95801 16.6263 9.95419 16.64 9.95035 16.6537C9.94471 16.6739 9.93904 16.6941 9.93904 16.7161C9.93904 16.7281 9.94232 16.7393 9.94562 16.7505C9.94837 16.7598 9.95113 16.7691 9.95204 16.7791C9.95248 16.7924 9.95078 16.8052 9.94909 16.818C9.94694 16.8342 9.9448 16.8504 9.94704 16.8671C9.95241 16.9014 9.96589 16.9315 9.97931 16.9616L9.97932 16.9616C9.98589 16.9763 9.99245 16.991 9.99804 17.0061L9.99904 17.0091C10.119 17.3361 10.442 17.5531 10.801 17.4971C10.953 17.4751 11.113 17.4701 11.273 17.4661H11.799C11.8423 17.4676 11.8845 17.4684 11.927 17.4692H11.927C11.969 17.4699 12.0113 17.4706 12.055 17.4721C12.347 17.4841 12.637 17.4941 12.928 17.4871C14.562 17.4481 15.841 16.3951 16.969 15.4661L17.0167 15.4269L17.0168 15.4269C17.2583 15.2284 17.4953 15.0335 17.728 14.8571C18.096 14.5821 18.619 14.6221 18.942 14.9441C19.303 15.3091 19.303 15.9041 18.942 16.2671L18.734 16.4771L18.7326 16.4785C17.4272 17.7939 16.2994 18.9304 14.629 19.5761C12.201 20.5181 9.93404 20.0721 7.24004 19.5401C6.16404 19.3231 5.19504 19.3061 4.04004 19.3061C3.62604 19.3061 3.29004 19.6421 3.29004 20.0561C3.29004 20.4701 3.62604 20.8061 4.04004 20.8061C5.14604 20.8061 6.00204 20.8211 7.02004 21.0261C8.56704 21.3311 10.066 21.6261 11.589 21.6261C12.758 21.6261 13.941 21.4521 15.171 20.9751C17.1359 20.2157 18.4256 18.9166 19.7904 17.5418L19.799 17.5331L20.007 17.3231C20.945 16.3771 20.945 14.8351 20.004 13.8851ZM15.9692 11.035C14.1942 11.035 12.7512 9.59598 12.7512 7.82598C12.7512 6.04998 14.1942 4.60498 15.9692 4.60498C17.7432 4.60498 19.1872 6.04998 19.1872 7.82598C19.1872 9.59598 17.7432 11.035 15.9692 11.035Z"
    fill="currentColor"
    fill-opacity="0.6"
  />
</svg>
