<svg viewBox="0 0 24 24" fill="none" xmlns="http://www.w3.org/2000/svg">
  <path
    fill-rule="evenodd"
    clip-rule="evenodd"
    d="M7.74356 21.12H15.8412C18.8748 21.12 20.9119 18.9859 20.9119 15.8112V8.1888C20.9119 5.01408 18.8748 2.88 15.8412 2.88H7.74356C4.70995 2.88 2.67188 5.01408 2.67188 8.1888V15.8112C2.67188 18.9859 4.70995 21.12 7.74356 21.12ZM7.66714 11.0106C7.66714 11.4081 7.9897 11.7306 8.38714 11.7306C8.78458 11.7306 9.10714 11.4081 9.10714 11.0106V9.99297H10.119C10.5164 9.99297 10.839 9.67041 10.839 9.27297C10.839 8.87553 10.5164 8.55297 10.119 8.55297H9.10714V7.54593C9.10714 7.14849 8.78458 6.82593 8.38714 6.82593C7.9897 6.82593 7.66714 7.14849 7.66714 7.54593V8.55297H6.6553C6.25786 8.55297 5.9353 8.87553 5.9353 9.27297C5.9353 9.67041 6.25786 9.99297 6.6553 9.99297H7.66714V11.0106ZM9.61184 17.1739C9.42752 17.1739 9.24319 17.1038 9.10303 16.9627L8.38784 16.2475L7.67168 16.9627C7.39136 17.244 6.93536 17.244 6.65408 16.9627C6.3728 16.6814 6.3728 16.2264 6.65408 15.9451L7.36928 15.2299L6.65408 14.5147C6.3728 14.2334 6.3728 13.7784 6.65408 13.4971C6.93536 13.2158 7.39136 13.2158 7.67168 13.4971L8.38784 14.2123L9.10303 13.4971C9.38431 13.2158 9.83936 13.2158 10.1206 13.4971C10.4019 13.7784 10.4019 14.2334 10.1206 14.5147L9.40639 15.2299L10.1206 15.9451C10.4019 16.2264 10.4019 16.6814 10.1206 16.9627C9.98048 17.1038 9.79616 17.1739 9.61184 17.1739ZM16.5161 15.926H13.0515C12.6541 15.926 12.3315 15.6034 12.3315 15.206C12.3315 14.8085 12.6541 14.486 13.0515 14.486H16.5161C16.9136 14.486 17.2361 14.8085 17.2361 15.206C17.2361 15.6034 16.9136 15.926 16.5161 15.926ZM13.7198 11.2319C13.5354 11.2319 13.3511 11.1618 13.211 11.0207C12.9297 10.7394 12.9297 10.2844 13.211 10.0031L15.6599 7.55508C15.9402 7.2738 16.3962 7.2738 16.6775 7.55508C16.9588 7.83636 16.9588 8.2914 16.6775 8.57268L14.2286 11.0207C14.0884 11.1618 13.9041 11.2319 13.7198 11.2319Z"
    fill="currentColor"
    fill-opacity="0.6"
  />
</svg>
