<svg viewBox="0 0 24 24" fill="none" xmlns="http://www.w3.org/2000/svg">
  <path
    fill-rule="evenodd"
    clip-rule="evenodd"
    d="M6.39327 2.86339C7.66831 2.51462 9.50544 2.47184 11.8975 3.49509C14.0326 4.40869 15.6422 4.45647 16.687 4.30255C17.2128 4.2251 17.6045 4.09523 17.8564 3.99047C17.9825 3.93806 18.0737 3.89187 18.1291 3.86162C18.1568 3.8465 18.1755 3.83539 18.1852 3.82948L18.1924 3.82496C18.4124 3.67993 18.6943 3.66655 18.9272 3.79054C19.162 3.91559 19.3088 4.15999 19.3088 4.42607V13.6431C19.3088 13.8828 19.1896 14.1067 18.9907 14.2405L18.5888 13.6431C18.9907 14.2405 18.9899 14.2411 18.9899 14.2411L18.989 14.2417L18.987 14.2429L18.9824 14.246L18.9703 14.2539C18.9609 14.2599 18.9491 14.2673 18.9348 14.2761C18.9061 14.2935 18.8675 14.3162 18.8189 14.3427C18.7219 14.3957 18.5851 14.4641 18.4094 14.5372C18.0579 14.6833 17.5511 14.8478 16.8969 14.9442C15.5814 15.1381 13.7036 15.0513 11.3311 14.0361C9.21638 13.1311 7.71243 13.2118 6.77314 13.4686C6.29703 13.5989 5.94956 13.7788 5.72784 13.9192C5.70075 13.9363 5.67554 13.9529 5.65222 13.9688V20.64C5.65222 21.0376 5.32986 21.36 4.93222 21.36C4.53457 21.36 4.21222 21.0376 4.21222 20.64V4.40459C4.21222 4.21363 4.28807 4.0305 4.4231 3.89547L4.42386 3.89471L4.42468 3.8939L4.42646 3.89213L4.43068 3.88799L4.44164 3.8774C4.45009 3.86935 4.46081 3.85932 4.47381 3.84752C4.4998 3.82393 4.53494 3.79322 4.5793 3.75702C4.66798 3.68467 4.79381 3.59012 4.95721 3.4866C5.28419 3.27944 5.76222 3.03602 6.39327 2.86339Z"
    fill="currentColor"
    fill-opacity="0.6"
  />
</svg>
