<svg viewBox="0 0 24 24" fill="none" xmlns="http://www.w3.org/2000/svg">
  <path
    fill-rule="evenodd"
    clip-rule="evenodd"
    d="M16.212 3.397L20.687 8.059C21.211 8.605 21.5 9.323 21.5 10.08V15.973C21.5 19.105 19.582 21.238 16.695 21.457V17.676C16.695 16.251 15.536 15.092 14.112 15.092H9.89C8.466 15.092 7.307 16.251 7.307 17.676V21.457C4.419 21.24 2.5 19.106 2.5 15.973V8.026C2.5 4.894 4.419 2.76 7.307 2.543V7.65C7.307 8.064 7.643 8.4 8.057 8.4C8.471 8.4 8.807 8.064 8.807 7.65V2.5H14.105C14.895 2.5 15.664 2.827 16.211 3.396L16.212 3.397ZM9.88964 16.5918H14.1117C14.7087 16.5918 15.1947 17.0778 15.1947 17.6758V21.4998H8.80664V17.6758C8.80664 17.0778 9.29264 16.5918 9.88964 16.5918Z"
    fill="currentColor"
    fill-opacity="0.6"
  />
</svg>
