<svg viewBox="0 0 24 24" fill="none" xmlns="http://www.w3.org/2000/svg">
  <path
    fill-rule="evenodd"
    clip-rule="evenodd"
    d="M17.9999 6H5.99994C4.61923 6 3.49994 7.11929 3.49994 8.5V15.5C3.49994 16.8807 4.61923 18 5.99994 18H17.9999C19.3807 18 20.4999 16.8807 20.4999 15.5V8.5C20.4999 7.11929 19.3807 6 17.9999 6ZM5.99994 4.5C3.7908 4.5 1.99994 6.29086 1.99994 8.5V15.5C1.99994 17.7091 3.7908 19.5 5.99994 19.5H17.9999C20.2091 19.5 21.9999 17.7091 21.9999 15.5V8.5C21.9999 6.29086 20.2091 4.5 17.9999 4.5H5.99994Z"
    fill="currentColor"
    fill-opacity="0.6"
  />
  <path
    d="M4.99994 9.5C4.99994 8.39543 5.89537 7.5 6.99994 7.5H16.9999C18.1045 7.5 18.9999 8.39543 18.9999 9.5V14.5C18.9999 15.6046 18.1045 16.5 16.9999 16.5H6.99994C5.89537 16.5 4.99994 15.6046 4.99994 14.5V9.5Z"
    fill="currentColor"
    fill-opacity="0.6"
  />
</svg>
