<svg viewBox="0 0 24 24" fill="none" xmlns="http://www.w3.org/2000/svg">
  <path
    fill-rule="evenodd"
    clip-rule="evenodd"
    d="M3.87695 6.59812C3.87695 4.95912 5.21095 3.62512 6.85095 3.62512C8.22995 3.62512 9.38195 4.57312 9.71695 5.84812L19.373 5.84812C19.787 5.84812 20.123 6.18412 20.123 6.59812C20.123 7.01212 19.787 7.34812 19.373 7.34812L9.71695 7.34812C9.38195 8.62312 8.22995 9.57112 6.85095 9.57112C5.21095 9.57112 3.87695 8.23712 3.87695 6.59812Z"
    fill="currentColor"
    fill-opacity="0.6"
  />
  <path
    fill-rule="evenodd"
    clip-rule="evenodd"
    d="M13.911 18.1518L8.81895 18.1518C7.33495 18.1518 6.12695 16.9438 6.12695 15.4598L6.12695 12.6068C6.12695 12.1928 6.46295 11.8568 6.87695 11.8568C7.29095 11.8568 7.62695 12.1928 7.62695 12.6068L7.62695 15.4598C7.62695 16.1168 8.16195 16.6518 8.81895 16.6518L13.911 16.6518C14.246 15.3768 15.397 14.4288 16.776 14.4288C18.416 14.4288 19.75 15.7628 19.75 17.4018C19.75 19.0408 18.416 20.3748 16.776 20.3748C15.397 20.3748 14.246 19.4268 13.911 18.1518Z"
    fill="currentColor"
    fill-opacity="0.6"
  />
</svg>
