<svg viewBox="0 0 24 24" fill="none" xmlns="http://www.w3.org/2000/svg">
  <path
    fill-rule="evenodd"
    clip-rule="evenodd"
    d="M6.72748 8C6.89407 8 7.02911 7.84685 7.02911 7.65792V7.46294C7.02911 6.99088 7.36694 6.60775 7.78319 6.60775C8.19944 6.60775 8.53727 6.99088 8.53727 7.46294V7.65792C8.53727 7.84685 8.67231 8 8.83889 8H15.6195C15.6676 8 15.709 7.97091 15.7402 7.9293L19.9231 2.67029C20.0549 2.50449 20.0134 2.24103 19.8281 2.16577C19.5688 2.0605 19.2921 2 19.0018 2H9.26922C9.11549 2 8.96409 2.01328 8.81485 2.0368C8.63919 2.06447 8.51213 2.27531 8.52276 2.47609C8.53036 2.61964 8.53525 2.75849 8.53525 2.80143V4.65336C8.53525 5.12543 8.19743 5.50855 7.78118 5.50855C7.36493 5.50855 7.0271 5.12543 7.0271 4.65336V3.33631C7.0271 3.16847 6.84681 3.06445 6.74156 3.18244L3.51512 6.85291C3.33229 7.05886 3.17584 7.28577 3.04208 7.52681C2.92427 7.73911 3.0688 8 3.28998 8H6.72748Z"
    fill="currentColor"
    fill-opacity="0.6"
  />
  <path
    fill-rule="evenodd"
    clip-rule="evenodd"
    d="M19.1517 16.1781C18.7169 16.1781 18.3641 15.8322 18.3641 15.406C18.3641 14.9799 18.7169 14.634 19.1517 14.634H21.6846C21.8585 14.634 21.9996 14.501 21.9997 14.3304C21.9998 12.7458 22.0004 5.47778 21.9996 5.01196C21.9996 4.7179 21.9457 4.43791 21.8518 4.17572C21.7796 3.97401 21.517 3.94185 21.371 4.10059L17.0956 8.7467C17.0389 8.81259 17 8.90832 17 8.99994V20.7049C17 20.9542 17.2839 21.0966 17.4677 20.9242C17.4903 20.9031 17.5126 20.8817 17.5345 20.8599L20.9085 17.5627C21.2022 17.2709 21.4335 16.9384 21.608 16.5804C21.7015 16.3885 21.5499 16.1781 21.3329 16.1781H19.1517Z"
    fill="currentColor"
    fill-opacity="0.6"
  />
  <path
    fill-rule="evenodd"
    clip-rule="evenodd"
    d="M9.54194 16.0582H7.90193C7.81002 16.0582 7.72297 16.1012 7.66484 16.1753L6.6284 17.4974C6.47742 17.6918 6.25707 17.7916 6.03468 17.7916C5.86533 17.7916 5.69395 17.7322 5.55215 17.6121C5.22468 17.3338 5.17571 16.8325 5.44299 16.4915L6.55954 15.0659C6.60408 15.0091 6.6284 14.9379 6.6284 14.8645V13.0246C6.6284 12.5838 6.97117 12.228 7.39351 12.228C7.81585 12.228 8.15862 12.5838 8.15862 13.0246V14.1463C8.15862 14.3223 8.29565 14.4649 8.46466 14.4649H9.54194C9.96426 14.4649 10.307 14.8218 10.307 15.2615C10.307 15.7013 9.96426 16.0582 9.54194 16.0582ZM14.9946 21.4936V16.3768C14.9946 16.2008 14.8576 16.0582 14.6886 16.0582H12.3657C11.9433 16.0582 11.6006 15.7013 11.6006 15.2615C11.6006 14.8218 11.9433 14.4649 12.3657 14.4649H14.6886C14.8576 14.4649 14.9946 14.3223 14.9946 14.1463V9.31865C14.9946 9.14265 14.8576 9 14.6886 9H8.46466C8.29565 9 8.15862 9.14265 8.15862 9.31865V9.93684C8.15862 10.3766 7.81585 10.7335 7.39351 10.7335C6.97117 10.7335 6.6284 10.3766 6.6284 9.93684V9.31865C6.6284 9.14265 6.49139 9 6.32236 9H2.30604C2.13703 9 2 9.14265 2 9.31865V19.2798C2 19.5515 2.0422 19.8121 2.11639 20.0582C2.18267 20.2781 2.45182 20.3094 2.59132 20.1306L3.59653 18.8411C3.86279 18.4991 4.3443 18.446 4.67278 18.7253C5.00127 19.0015 5.05126 19.5028 4.785 19.8448L3.60281 21.3626C3.48229 21.5173 3.52607 21.7494 3.70455 21.8212C3.98538 21.9343 4.28796 22 4.60647 22H14.4815C14.5563 22 14.6303 21.9955 14.7038 21.9883C14.8801 21.971 15.01 21.7883 14.9994 21.6042C14.9964 21.5532 14.9946 21.5117 14.9946 21.4936Z"
    fill="currentColor"
    fill-opacity="0.6"
  />
</svg>
