<svg viewBox="0 0 24 24" fill="none" xmlns="http://www.w3.org/2000/svg">
  <path
    fill-rule="evenodd"
    clip-rule="evenodd"
    d="M11.6992 12.2009C11.8848 12.3081 12.1136 12.3081 12.2992 12.2009L19.5979 7.98635C19.7596 7.89293 19.7987 7.67457 19.6653 7.54389C19.5122 7.39407 19.3439 7.25963 19.1532 7.15114L13.4692 3.87114C12.5632 3.34114 11.4372 3.34014 10.5322 3.87014L4.8482 7.14914C4.65656 7.25847 4.48726 7.39343 4.33337 7.54392C4.19979 7.67456 4.23884 7.89298 4.40065 7.98641L11.6992 12.2009Z"
    fill="currentColor"
    fill-opacity="0.6"
  />
  <path
    fill-rule="evenodd"
    clip-rule="evenodd"
    d="M11.25 14.0196C11.25 13.8052 11.1357 13.6072 10.9501 13.5L3.81681 9.38063C3.6374 9.27702 3.39862 9.38095 3.38313 9.58755C3.38051 9.62252 3.37903 9.65772 3.37903 9.69324V16.2532C3.37903 17.3052 3.94203 18.2792 4.84703 18.7952L10.53 22.0742C10.644 22.1409 10.7612 22.1989 10.8809 22.2485C11.0628 22.3239 11.25 22.1803 11.25 21.9833V14.0196Z"
    fill="currentColor"
    fill-opacity="0.6"
  />
  <path
    fill-rule="evenodd"
    clip-rule="evenodd"
    d="M13.05 13.4993C12.8644 13.6064 12.75 13.8045 12.75 14.0189V21.9832C12.75 22.1802 12.9374 22.3239 13.1194 22.2483C13.2382 22.199 13.3544 22.1414 13.467 22.0755L19.151 18.7975C20.057 18.2795 20.621 17.3055 20.621 16.2535V9.69247C20.621 9.6573 20.6195 9.62241 20.6169 9.58773C20.6015 9.38114 20.3626 9.27721 20.1832 9.3808L13.05 13.4993Z"
    fill="currentColor"
    fill-opacity="0.6"
  />
</svg>
