<svg viewBox="0 0 24 24" fill="none" xmlns="http://www.w3.org/2000/svg">
  <path
    fill-rule="evenodd"
    clip-rule="evenodd"
    d="M14.21 14.609H12.75V16.059C12.75 16.479 12.42 16.809 12 16.809C11.59 16.809 11.25 16.479 11.25 16.059V14.609H9.80001C9.38001 14.609 9.05001 14.269 9.05001 13.859C9.05001 13.439 9.38001 13.109 9.80001 13.109H11.25V11.649C11.25 11.239 11.59 10.899 12 10.899C12.42 10.899 12.75 11.239 12.75 11.649V13.109H14.21C14.62 13.109 14.96 13.439 14.96 13.859C14.96 14.269 14.62 14.609 14.21 14.609ZM16.8928 4.38056C16.7728 4.34511 16.6552 4.43471 16.6373 4.55855C16.4645 5.75469 15.4285 6.679 14.19 6.679H9.81001C8.57162 6.679 7.52688 5.75483 7.35287 4.55883C7.33484 4.43491 7.21708 4.34529 7.09705 4.38097C5.34572 4.90149 4.07001 6.5334 4.07001 8.459V17.359C4.07001 19.699 5.97001 21.609 8.32001 21.609H15.68C18.03 21.609 19.93 19.699 19.93 17.359V8.459C19.93 6.53289 18.6536 4.90063 16.8928 4.38056Z"
    fill="currentColor"
    fill-opacity="0.6"
  />
  <path
    fill-rule="evenodd"
    clip-rule="evenodd"
    d="M9.8107 5.48062H14.1907C14.8707 5.48062 15.4307 4.94063 15.4507 4.26064C15.4607 4.24064 15.4607 4.22063 15.4607 4.20063V3.66062C15.4607 2.96062 14.8907 2.39062 14.1907 2.39062H9.8107C9.1107 2.39062 8.5307 2.96062 8.5307 3.66062V4.20063C8.5307 4.22063 8.5307 4.23063 8.5407 4.25063C8.5607 4.94062 9.1307 5.48062 9.8107 5.48062Z"
    fill="currentColor"
    fill-opacity="0.6"
  />
</svg>
