<svg viewBox="0 0 24 24" fill="none" xmlns="http://www.w3.org/2000/svg">
  <path
    fill-rule="evenodd"
    clip-rule="evenodd"
    d="M10.445 6.5471L10.445 3.7431C10.445 3.0571 9.88901 2.5011 9.20301 2.5011L3.24201 2.5011C2.55701 2.5011 2.00001 3.0571 2.00001 3.7431L2.00001 6.5471C2.00001 7.2331 2.55701 7.7891 3.24201 7.7891L9.20301 7.7891C9.88901 7.7891 10.445 7.2331 10.445 6.5471Z"
    fill="currentColor"
    fill-opacity="0.6"
  />
  <path
    fill-rule="evenodd"
    clip-rule="evenodd"
    d="M20.667 20.2587L20.667 17.4757C20.667 16.7897 20.111 16.2337 19.425 16.2337L9.242 16.2337C8.556 16.2337 8 16.7897 8 17.4757L8 20.2587C8 20.9447 8.556 21.5007 9.242 21.5007L19.425 21.5007C20.111 21.5007 20.667 20.9447 20.667 20.2587Z"
    fill="currentColor"
    fill-opacity="0.6"
  />
  <path
    fill-rule="evenodd"
    clip-rule="evenodd"
    d="M21.994 13.6721L21.994 10.3501C21.994 9.6641 21.438 9.10809 20.752 9.10809L6.24203 9.1081C5.55603 9.1081 5.00003 9.66411 5.00003 10.3501L5.00003 13.6721C5.00003 14.3581 5.55603 14.9141 6.24203 14.9141L20.752 14.9141C21.438 14.9141 21.994 14.3581 21.994 13.6721Z"
    fill="currentColor"
    fill-opacity="0.6"
  />
</svg>
