<svg viewBox="0 0 24 24" fill="none" xmlns="http://www.w3.org/2000/svg">
  <path
    fill-rule="evenodd"
    clip-rule="evenodd"
    d="M21 14.4092C20.447 14.4092 20 14.8562 20 15.4092V17.9302C20 19.0712 19.068 20.0002 17.924 20.0002H15.414C14.861 20.0002 14.414 20.4472 14.414 21.0002C14.414 21.5532 14.861 22.0002 15.414 22.0002H17.924C20.172 22.0002 22 20.1742 22 17.9302V15.4092C22 14.8562 21.553 14.4092 21 14.4092Z"
    fill="currentColor"
    fill-opacity="0.6"
  />
  <path
    fill-rule="evenodd"
    clip-rule="evenodd"
    d="M8.586 19.9992H6.076C4.932 19.9992 4 19.0702 4 17.9292V15.4082C4 14.8552 3.553 14.4082 3 14.4082C2.447 14.4082 2 14.8552 2 15.4082V17.9292C2 20.1732 3.828 21.9992 6.076 21.9992H8.586C9.139 21.9992 9.58602 21.5522 9.58602 20.9992C9.58602 20.4462 9.139 19.9992 8.586 19.9992Z"
    fill="currentColor"
    fill-opacity="0.6"
  />
  <path
    fill-rule="evenodd"
    clip-rule="evenodd"
    d="M8.586 2H6.076C3.828 2 2 3.83 2 6.08V8.59C2 9.143 2.447 9.59 3 9.59C3.553 9.59 4 9.143 4 8.59V6.08C4 4.934 4.932 4 6.076 4H8.586C9.139 4 9.58602 3.553 9.58602 3C9.58602 2.447 9.139 2 8.586 2Z"
    fill="currentColor"
    fill-opacity="0.6"
  />
  <path
    fill-rule="evenodd"
    clip-rule="evenodd"
    d="M17.9238 2H15.4138C14.8608 2 14.4138 2.447 14.4138 3C14.4138 3.553 14.8608 4 15.4138 4H17.9238C19.0688 4 19.9998 4.934 19.9998 6.08V8.59C19.9998 9.143 20.4468 9.59 20.9998 9.59C21.5528 9.59 21.9998 9.143 21.9998 8.59V6.08C21.9998 3.83 20.1718 2 17.9238 2Z"
    fill="currentColor"
    fill-opacity="0.6"
  />
</svg>
