<svg viewBox="0 0 24 24" fill="none" xmlns="http://www.w3.org/2000/svg">
  <g clip-path="url(#clip0_1186_61)">
    <path
      fill-rule="evenodd"
      clip-rule="evenodd"
      d="M19 17.4092L19 20.5908C19 21.3691 19.5925 22 20.3236 22L26.6764 22C27.4064 22 28 21.3691 28 20.5908L28 17.4092C28 16.6309 27.4064 16 26.6764 16L20.3236 16C19.5925 16 19 16.6309 19 17.4092Z"
      fill="currentColor"
      fill-opacity="0.6"
    />
    <path
      fill-rule="evenodd"
      clip-rule="evenodd"
      d="M16 10.4148L16 13.5851C16 14.3666 16.5706 15 17.2747 15L27.7253 15C28.4294 15 29 14.3666 29 13.5851L29 10.4148C29 9.63337 28.4294 9 27.7253 9L17.2747 9C16.5706 9 16 9.63337 16 10.4148Z"
      fill="currentColor"
      fill-opacity="0.6"
    />
    <path
      fill-rule="evenodd"
      clip-rule="evenodd"
      d="M13 3.2835L13 6.7165C13 7.42542 13.2945 8 13.6578 8L21.3422 8C21.7055 8 22 7.42542 22 6.7165L22 3.2835C22 2.57458 21.7055 2 21.3422 2L13.6578 2C13.2945 2 13 2.57458 13 3.2835Z"
      fill="currentColor"
      fill-opacity="0.6"
    />
    <path
      fill-rule="evenodd"
      clip-rule="evenodd"
      d="M10 2.77644C10 2.34784 10.448 2 11 2C11.552 2 12 2.34784 12 2.77644V21.2236C12 21.6522 11.552 22 11 22C10.448 22 10 21.6522 10 21.2236V20H0.999952C0.446953 20 2.82026e-05 19.5386 2.81777e-05 18.9677C2.81527e-05 18.3969 0.447018 17.9355 1.00002 17.9355H10V13.0323H1.00002C0.447018 13.0323 0 12.5708 0 12C0 11.4292 0.446999 10.9677 0.999999 10.9677L10 10.9677V6.06452L1.00002 6.06452C0.447018 6.06452 0 5.6031 0 5.03226C0 4.46142 0.447018 4 1.00002 4L10 4V2.77644Z"
      fill="currentColor"
      fill-opacity="0.6"
    />
  </g>
  <defs>
    <clipPath id="clip0_1186_61">
      <rect width="24" height="24" fill="white" />
    </clipPath>
  </defs>
</svg>
