<svg viewBox="0 0 24 24" fill="none" xmlns="http://www.w3.org/2000/svg">
  <path
    fill-rule="evenodd"
    clip-rule="evenodd"
    d="M9.45474 10H5.89095C4.29771 10 3 10.8223 3 11.834V13.1667C3 14.1777 4.29771 15 5.89095 15H9.45474C9.75573 15 10 14.8458 10 14.6542V10.3458C10 10.1549 9.75573 10 9.45474 10Z"
    fill="currentColor"
    fill-opacity="0.6"
  />
  <path
    fill-rule="evenodd"
    clip-rule="evenodd"
    d="M9.61053 17H7.06496C5.92694 17 5 17.8223 5 18.834V20.1667C5 21.1777 5.92694 22 7.06496 22H9.61053C9.82552 22 10 21.8458 10 21.6542V17.3458C10 17.1549 9.82552 17 9.61053 17Z"
    fill="currentColor"
    fill-opacity="0.6"
  />
  <path
    fill-rule="evenodd"
    clip-rule="evenodd"
    d="M21 11.8179V11.7986C21 10.7489 19.716 9.89528 18.1371 9.89528H12.6199V9.53846V8.0839H15.7289C17.3078 8.0839 18.5929 7.23026 18.5929 6.1799V4.79713C18.5929 3.74677 17.3078 2.89313 15.7289 2.89313H12.6199V2.53846C12.6199 2.24051 12.257 2 11.8099 2C11.3629 2 11 2.24051 11 2.53846V9.53846V15.4615V22.4615C11 22.7595 11.3629 23 11.8099 23C12.257 23 12.6199 22.7595 12.6199 22.4615V22.1069H15.7289C17.3078 22.1069 18.5929 21.2532 18.5929 20.2029V18.8201C18.5929 17.7697 17.3078 16.9161 15.7289 16.9161H12.6199V15.4615V15.1047H18.1371C19.716 15.1047 21 14.2511 21 13.2014V13.1821V11.8179Z"
    fill="currentColor"
    fill-opacity="0.6"
  />
  <path
    fill-rule="evenodd"
    clip-rule="evenodd"
    d="M9.52358 3H8.52692C7.13292 3 6 3.82226 6 4.83401V6.16664C6 7.1777 7.13292 8 8.52692 8H9.52358C9.78657 8 10 7.84578 10 7.65422V3.34578C10 3.15491 9.78657 3 9.52358 3Z"
    fill="currentColor"
    fill-opacity="0.6"
  />
</svg>
