<svg viewBox="0 0 24 24" fill="none" xmlns="http://www.w3.org/2000/svg">
  <path
    fill-rule="evenodd"
    clip-rule="evenodd"
    d="M8.237 9.262C8.40269 9.262 8.537 9.12769 8.537 8.962V8.791C8.537 8.377 8.873 8.041 9.287 8.041C9.701 8.041 10.037 8.377 10.037 8.791V8.962C10.037 9.12769 10.1713 9.262 10.337 9.262H17.0809C17.1288 9.262 17.17 9.23649 17.201 9.2L21.3613 4.58784C21.4924 4.44244 21.4511 4.21138 21.2668 4.14538C21.0089 4.05306 20.7337 4 20.445 4H10.765C10.6121 4 10.4615 4.01165 10.3131 4.03227C10.1384 4.05654 10.012 4.24145 10.0226 4.41753C10.0301 4.54342 10.035 4.6652 10.035 4.70285V6.327C10.035 6.741 9.699 7.077 9.285 7.077C8.871 7.077 8.535 6.741 8.535 6.327V5.17194C8.535 5.02475 8.35568 4.93352 8.251 5.037L5.042 8.256C4.86016 8.43662 4.70455 8.63562 4.57152 8.84701C4.45434 9.0332 4.59809 9.262 4.81808 9.262H8.237Z"
    fill="currentColor"
    fill-opacity="0.6"
  />
  <path
    fill-rule="evenodd"
    clip-rule="evenodd"
    d="M20.2874 17.4065C19.8734 17.4065 19.5374 17.0705 19.5374 16.6565C19.5374 16.2425 19.8734 15.9065 20.2874 15.9065H22.6995C22.8651 15.9065 22.9994 15.7773 22.9995 15.6116C22.9996 14.0723 23.0002 7.01196 22.9994 6.55946C22.9994 6.2738 22.9481 6.00181 22.8587 5.74712C22.7899 5.55117 22.5399 5.51993 22.4008 5.67413L18.3294 10.1875C18.2754 10.2515 18.2384 10.3445 18.2384 10.4335V21.8039C18.2384 22.0461 18.5088 22.1844 18.6838 22.017C18.7053 21.9965 18.7265 21.9757 18.7474 21.9545L21.9604 18.7515C22.2401 18.4681 22.4603 18.1451 22.6265 17.7973C22.7156 17.6109 22.5712 17.4065 22.3645 17.4065H20.2874Z"
    fill="currentColor"
    fill-opacity="0.6"
  />
  <path
    fill-rule="evenodd"
    clip-rule="evenodd"
    d="M11.393 17.4064H9.78538C9.69528 17.4064 9.60995 17.4469 9.55297 17.5167L8.537 18.7614C8.389 18.9444 8.173 19.0384 7.955 19.0384C7.789 19.0384 7.621 18.9824 7.482 18.8694C7.161 18.6074 7.113 18.1354 7.375 17.8144L8.4695 16.4722C8.51316 16.4187 8.537 16.3517 8.537 16.2826V14.5504C8.537 14.1354 8.873 13.8004 9.287 13.8004C9.701 13.8004 10.037 14.1354 10.037 14.5504V15.6064C10.037 15.7721 10.1713 15.9064 10.337 15.9064H11.393C11.807 15.9064 12.143 16.2424 12.143 16.6564C12.143 17.0704 11.807 17.4064 11.393 17.4064ZM16.738 22.5236V17.7064C16.738 17.5407 16.6037 17.4064 16.438 17.4064H14.161C13.747 17.4064 13.411 17.0704 13.411 16.6564C13.411 16.2424 13.747 15.9064 14.161 15.9064H16.438C16.6037 15.9064 16.738 15.7721 16.738 15.6064V11.0614C16.738 10.8957 16.6037 10.7614 16.438 10.7614H10.337C10.1713 10.7614 10.037 10.8957 10.037 11.0614V11.6434C10.037 12.0574 9.701 12.3934 9.287 12.3934C8.873 12.3934 8.537 12.0574 8.537 11.6434V11.0614C8.537 10.8957 8.40269 10.7614 8.237 10.7614H4.3C4.13432 10.7614 4 10.8957 4 11.0614V20.4394C4 20.6952 4.04137 20.9406 4.11409 21.1723C4.17906 21.3793 4.4429 21.4088 4.57964 21.2404L5.565 20.0264C5.826 19.7044 6.298 19.6544 6.62 19.9174C6.942 20.1774 6.991 20.6494 6.73 20.9714L5.57116 22.4003C5.45302 22.546 5.49593 22.7645 5.67089 22.8321C5.94617 22.9385 6.24278 23.0004 6.555 23.0004H16.235C16.3084 23.0004 16.3809 22.9962 16.4529 22.9894C16.6258 22.9731 16.7531 22.8011 16.7427 22.6278C16.7398 22.5798 16.738 22.5407 16.738 22.5236Z"
    fill="currentColor"
    fill-opacity="0.6"
  />
  <path
    fill-rule="evenodd"
    clip-rule="evenodd"
    d="M3.49959 0C3.9837 0 4.37615 0.392452 4.37615 0.876557V2.62414H6.12344C6.60755 2.62414 7 3.0166 7 3.5007C7 3.98482 6.60755 4.37726 6.12344 4.37726H4.37615V6.12344C4.37615 6.60756 3.9837 7 3.49959 7C3.01549 7 2.62303 6.60756 2.62303 6.12344V4.37726H0.876557C0.392452 4.37726 0 3.98482 0 3.5007C0 3.0166 0.392452 2.62414 0.876557 2.62414H2.62303V0.876557C2.62303 0.392452 3.01549 0 3.49959 0Z"
    fill="currentColor"
    fill-opacity="0.6"
  />
</svg>
