<svg viewBox="0 0 24 24" fill="none" xmlns="http://www.w3.org/2000/svg">
  <path
    fill-rule="evenodd"
    clip-rule="evenodd"
    d="M18.302 2H15.698C14.21 2 13 2.9075 13 4.0235V5.9765C13 7.0925 14.21 8 15.698 8H18.302C19.79 8 21 7.0925 21 5.9765V4.0235C21 2.9075 19.79 2 18.302 2ZM8.302 9H5.698C4.21 9 3 9.9075 3 11.0235V12.9765C3 14.0925 4.21 15 5.698 15H8.302C9.79 15 11 14.0925 11 12.9765V11.0235C11 9.9075 9.79 9 8.302 9ZM15.698 9H18.302C19.79 9 21 9.9075 21 11.0235V12.9765C21 14.0925 19.79 15 18.302 15H15.698C14.21 15 13 14.0925 13 12.9765V11.0235C13 9.9075 14.21 9 15.698 9ZM15.698 16H18.302C19.79 16 21 16.9075 21 18.0235V19.9765C21 21.0925 19.79 22 18.302 22H15.698C14.21 22 13 21.0925 13 19.9765V18.0235C13 16.9075 14.21 16 15.698 16ZM5.698 16H8.302C9.79 16 11 16.9075 11 18.0235V19.9765C11 21.0925 9.79 22 8.302 22H5.698C4.21 22 3 21.0925 3 19.9765V18.0235C3 16.9075 4.21 16 5.698 16ZM5.698 2H8.302C9.79 2 11 2.9075 11 4.0235V5.9765C11 7.0925 9.79 8 8.302 8H5.698C4.21 8 3 7.0925 3 5.9765V4.0235C3 2.9075 4.21 2 5.698 2Z"
    fill="currentColor"
    fill-opacity="0.6"
  />
</svg>
