<svg viewBox="0 0 24 24" fill="none" xmlns="http://www.w3.org/2000/svg">
  <path
    d="M17.8057 4.11858C18.2892 4.44474 18.3137 5.12573 17.9012 5.5381L16.0029 7.43582C15.9946 7.4441 15.9866 7.45253 15.9788 7.46109L15.3596 8.08021C15.0195 8.42033 14.4894 8.45662 14.0452 8.27222C13.5691 8.07464 13.0471 7.96558 12.4996 7.96558C11.9521 7.96558 11.4302 8.07462 10.9542 8.27217C10.5099 8.45654 9.97985 8.42024 9.63974 8.08013L9.02068 7.46107C9.01287 7.45251 9.00483 7.44409 8.99655 7.43582L7.09834 5.5382C6.68584 5.12583 6.71036 4.44485 7.19389 4.11868C8.70901 3.09665 10.5347 2.5 12.4998 2.5C14.4649 2.5 16.2906 3.09661 17.8057 4.11858Z"
    fill="currentColor"
    fill-opacity="0.6"
  />
  <path
    d="M18.1854 18.7461C18.4447 19.0053 18.4289 19.4321 18.1339 19.6498C16.5576 20.8127 14.609 21.5 12.4998 21.5C10.5351 21.5 8.70966 20.9036 7.1947 19.8818C6.71115 19.5557 6.68654 18.8748 7.09896 18.4624L8.99789 16.5634L9.00662 16.5546L9.64085 15.9203C9.98089 15.5803 10.5108 15.5439 10.955 15.7282C11.4308 15.9255 11.9525 16.0344 12.4996 16.0344C13.047 16.0344 13.5689 15.9254 14.0448 15.7279C14.4891 15.5436 15.0191 15.5799 15.3592 15.92L18.1766 18.7374L18.1854 18.7461Z"
    fill="currentColor"
    fill-opacity="0.6"
  />
  <path
    d="M20.4704 17.2172C20.1442 17.7008 19.4632 17.7253 19.0509 17.3128L17.1531 15.4145C17.1449 15.4062 17.1364 15.3981 17.1279 15.3903L16.5087 14.7712C16.1685 14.4311 16.1323 13.901 16.3167 13.4567C16.5143 12.9807 16.6234 12.4587 16.6234 11.9112C16.6234 11.3637 16.5143 10.8417 16.3168 10.3657C16.1324 9.92149 16.1686 9.39141 16.5087 9.0513L17.1279 8.43224C17.1365 8.42443 17.1449 8.41639 17.1531 8.40811L19.0507 6.5099C19.463 6.0974 20.1441 6.12192 20.4703 6.60545C21.4922 8.12057 22.089 9.94631 22.089 11.9114C22.089 13.8764 21.4924 15.7021 20.4704 17.2172Z"
    fill="currentColor"
    fill-opacity="0.6"
  />
  <path
    d="M5.84281 17.597C5.58357 17.8562 5.15674 17.8405 4.93909 17.5455C3.7762 15.9692 3.08887 14.0206 3.08887 11.9114C3.08887 9.94664 3.68531 8.12118 4.70702 6.60623C5.03313 6.12268 5.71408 6.09807 6.12649 6.51049L8.02543 8.40942L8.0343 8.41815L8.66853 9.05238C9.00857 9.39242 9.04493 9.92235 8.86069 10.3666C8.66336 10.8423 8.55444 11.364 8.55444 11.9112C8.55444 12.4585 8.66346 12.9805 8.86096 13.4564C9.0453 13.9006 9.00898 14.4307 8.66889 14.7708L5.85146 17.5882L5.84281 17.597Z"
    fill="currentColor"
    fill-opacity="0.6"
  />
</svg>
