<svg viewBox="0 0 24 24" fill="none" xmlns="http://www.w3.org/2000/svg">
  <path
    d="M16.3534 2.0004C19.7304 2.0004 21.9994 4.3624 21.9994 7.8884V16.1024C21.9994 16.2534 21.9724 16.3884 21.9644 16.5344C21.9594 16.6194 21.9604 16.7044 21.9534 16.7894C21.9494 16.8274 21.9384 16.8624 21.9344 16.9004C21.9014 17.2144 21.8504 17.5144 21.7794 17.8054C21.7614 17.8834 21.7404 17.9584 21.7194 18.0344C21.6394 18.3164 21.5454 18.5854 21.4324 18.8424C21.3994 18.9144 21.3634 18.9834 21.3294 19.0544C21.2074 19.2994 21.0754 19.5344 20.9224 19.7524L20.7744 19.9444C20.6154 20.1504 20.4494 20.3474 20.2614 20.5264C20.2004 20.5844 20.1314 20.6344 20.0674 20.6894C19.8744 20.8554 19.6774 21.0144 19.4604 21.1504C19.3824 21.1994 19.2964 21.2354 19.2164 21.2794C18.9954 21.4014 18.7724 21.5204 18.5294 21.6124C18.4294 21.6504 18.3184 21.6704 18.2144 21.7034C17.9754 21.7774 17.7394 21.8544 17.4824 21.8984C17.4177 21.9097 17.3512 21.9177 17.2836 21.924L16.8734 21.9534C16.6994 21.9664 16.5344 22.0004 16.3534 22.0004H7.63739C7.26139 22.0004 6.90239 21.9624 6.55539 21.9054C6.54239 21.9034 6.53039 21.9014 6.51839 21.8994C5.16539 21.6664 4.04239 21.0134 3.25539 20.0284C3.24639 20.0284 3.24639 20.0184 3.23739 20.0094C2.44639 19.0134 1.99939 17.6744 1.99939 16.1024V7.8884C1.99939 4.3624 4.27039 2.0004 7.63739 2.0004H16.3534ZM16.3534 3.3954H7.63739C5.06039 3.3954 3.39539 5.1624 3.39539 7.8884V16.1024C3.39539 16.8674 3.53739 17.5504 3.78039 18.1414C3.81139 18.1044 5.74839 15.7424 5.75739 15.7344C6.44939 14.9444 7.74839 13.7664 9.45339 14.4794C9.86339 14.6494 10.2234 14.8884 10.5534 15.0984C11.1264 15.4814 11.4634 15.6614 11.8134 15.6314C11.9584 15.6114 12.0944 15.5684 12.2234 15.4884C12.7814 15.1444 14.3584 12.8444 14.4534 12.7194C15.5434 11.2994 17.2234 10.9194 18.6234 11.7594C18.7174 11.8154 19.1011 12.0786 19.5171 12.3751L19.8312 12.601C20.1432 12.8277 20.4371 13.0486 20.6044 13.1904V7.8884C20.6044 5.1624 18.9394 3.3954 16.3534 3.3954ZM8.47867 6C9.17635 6 9.80813 6.29338 10.2606 6.76143C10.7151 7.21308 11 7.83555 11 8.51496C11 9.86991 9.86627 11 8.50483 11C7.30813 11 6.28778 10.1256 6.0591 8.99363C6.02131 8.82378 5.99999 8.6491 5.99999 8.46863C5.99999 7.10403 7.10852 6 8.47867 6Z"
    fill="currentColor"
    fill-opacity="0.6"
  />
</svg>
