<svg viewBox="0 0 24 24" fill="none" xmlns="http://www.w3.org/2000/svg">
  <path
    d="M12.0001 21.9993C17.5301 21.9993 22.0001 17.5183 22.0001 11.9993C22.0001 6.47833 17.5301 1.99933 12.0001 1.99933C6.48012 1.99933 2.00012 6.47833 2.00012 11.9993C2.00012 17.5183 6.48012 21.9993 12.0001 21.9993ZM12.0001 9.06833C11.5201 9.06833 11.1301 8.67833 11.1301 8.19833C11.1301 7.71833 11.5201 7.31833 12.0101 7.31833C12.4901 7.31833 12.8801 7.71833 12.8801 8.19833C12.8801 8.67833 12.4901 9.06833 12.0001 9.06833ZM12.0001 16.6693C11.5201 16.6693 11.1201 16.2683 11.1201 15.7893V11.3693C11.1201 10.8883 11.5201 10.4993 12.0001 10.4993C12.4801 10.4993 12.8701 10.8883 12.8701 11.3693V15.7893C12.8701 16.2683 12.4801 16.6693 12.0001 16.6693Z"
    fill="currentColor"
    fill-opacity="0.6"
  />
</svg>
