<svg viewBox="0 0 16 16" fill="none" xmlns="http://www.w3.org/2000/svg">
  <path
    d="M1.33331 1.33337V4.44449H2.66665V14.6667H6.2222V1.33337H1.33331ZM13.4246 3.2573C12.0022 1.97305 10.208 1.33337 8.03865 1.33337H7.11109V4.57755H8.03865C9.11025 4.57755 9.98637 4.89656 10.667 5.5346C11.3477 6.17427 11.688 6.99554 11.688 8.00004C11.688 8.97836 11.3267 9.79636 10.6059 10.4508C9.88515 11.1052 9.02822 11.4307 8.0369 11.4307H7.11109V14.6667H8.0369C10.1993 14.6667 11.9934 14.0254 13.4176 12.7428C14.8417 11.4585 15.5555 9.87816 15.5555 8.00004C15.5555 6.12192 14.8435 4.54155 13.4228 3.2573H13.4246Z"
    fill="currentColor"
    fill-opacity="0.88"
  />
</svg>
