<svg viewBox="0 0 86 16" fill="none" xmlns="http://www.w3.org/2000/svg">
  <path
    d="M0.627197 1.27339V4.62639H1.87261V14.7217H5.72602V1.27339H0.627197ZM22.0737 10.7466C22.8364 11.4776 23.7809 11.8439 24.9074 11.8439C26.0339 11.8439 26.9767 11.4776 27.7358 10.7466C28.4949 10.014 28.8745 9.09817 28.8745 7.9992C28.8745 6.89858 28.4949 5.98443 27.7358 5.25673C26.9767 4.52739 26.0356 4.16437 24.9074 4.16437C23.7809 4.16437 22.8364 4.52904 22.0737 5.25673C21.3111 5.98443 20.9315 6.89858 20.9315 7.9992C20.9315 9.09982 21.3129 10.014 22.0737 10.7466ZM30.5292 13.0122C28.9882 14.4082 27.1114 15.1078 24.9022 15.1078C22.6912 15.1078 20.8161 14.4098 19.2751 13.0122C17.7341 11.6146 16.9644 9.94302 16.9644 7.9992C16.9644 6.05373 17.7341 4.38383 19.2751 2.98619C20.8143 1.58856 22.6912 0.888916 24.9022 0.888916C27.1114 0.888916 28.9865 1.58856 30.5292 2.98619C32.0702 4.38218 32.8399 6.05373 32.8399 7.9992C32.8399 9.94302 32.0702 11.6146 30.5292 13.0122ZM44.0486 9.53545H45.2695V10.9925C45.2695 10.9925 45.2257 11.0502 45.0508 11.1971C44.8252 11.3869 44.5803 11.4925 44.1762 11.6327C43.7722 11.773 43.3244 11.8423 42.8346 11.8423C41.6679 11.8423 40.6971 11.476 39.9223 10.745C39.1456 10.014 38.7591 9.09817 38.7591 7.99755C38.7591 6.89693 39.1456 5.98278 39.9223 5.25508C40.6971 4.52739 41.6697 4.16272 42.8346 4.16272C43.2649 4.16272 43.6917 4.22542 44.1115 4.34588C44.5331 4.46799 44.8707 4.60494 45.1295 4.7584C45.3884 4.91186 45.6368 5.08677 45.8764 5.28479C46.1161 5.48115 46.2665 5.61976 46.3347 5.69731C46.3994 5.77652 46.4537 5.83922 46.4939 5.89037L48.8413 3.58353L48.6121 3.31291C48.4669 3.1248 48.2256 2.90039 47.8915 2.63802C47.5574 2.37566 47.1656 2.11329 46.7178 1.84927C46.27 1.58691 45.7015 1.3625 45.0123 1.17438C44.3232 0.987922 43.5973 0.892216 42.8346 0.892216C40.6202 0.892216 38.7433 1.59186 37.2023 2.98949C35.6613 4.38713 34.8899 6.05703 34.8899 8.0025C34.8899 9.94797 35.6613 11.6179 37.2023 13.0155C38.7433 14.4131 40.6202 15.1111 42.8346 15.1111C43.5973 15.1111 44.3354 15.0154 45.0526 14.8257C45.768 14.6343 46.3557 14.4197 46.8122 14.1838C47.2705 13.9462 47.6973 13.6722 48.0961 13.362C48.4932 13.0518 48.7556 12.8373 48.8815 12.7152C49.0074 12.5931 49.0967 12.4957 49.1509 12.4198V7.23355H44.0521V9.5404L44.0486 9.53545ZM60.0237 6.56361L55.649 1.27339H52.1892V14.7217H56.0566V6.75172L60.0237 11.4578L63.9996 6.75172V14.7217H67.867V1.27339H64.4071L60.0237 6.56361ZM77.8372 5.02572L79.1596 8.96451H76.5149L77.8372 5.02572ZM75.6998 1.27504L70.3001 14.7234H74.4753L75.4899 11.8456H80.1724L81.1974 14.7234H85.3727L79.9747 1.27504H75.7015H75.6998ZM12.7454 3.21391C11.3199 1.91858 9.52172 1.27339 7.3475 1.27339H6.61635V4.54554H7.3475C8.42149 4.54554 9.29957 4.86731 9.98175 5.51085C10.6639 6.15604 11.005 6.98439 11.005 7.99755C11.005 8.98431 10.6429 9.80936 9.92053 10.4694C9.19812 11.1294 8.33928 11.4578 7.34575 11.4578H6.6146V14.7217H7.34575C9.51297 14.7217 11.3111 14.0749 12.7384 12.7812C14.1658 11.4859 14.8812 9.89187 14.8812 7.99755C14.8812 6.10324 14.1675 4.50924 12.7437 3.21391H12.7454Z"
    fill="currentColor"
    fill-opacity="0.88"
  />
</svg>
