<svg viewBox="0 0 24 24" fill="none" xmlns="http://www.w3.org/2000/svg">
  <path
    opacity="0.4"
    fill-rule="evenodd"
    clip-rule="evenodd"
    d="M16.7073 4.09233L13.6073 2.77233C12.7073 2.39233 11.6473 2.73233 11.1373 3.55233L5.76728 11.9123L5.41728 12.4623C5.34728 12.5723 5.31728 12.7123 5.34728 12.8423C5.37728 12.9723 5.46728 13.0923 5.57728 13.1623C5.60728 13.1823 5.86728 13.3423 6.15728 13.6723C6.71728 14.3223 7.39728 15.6523 6.63728 17.8923L5.72728 20.4623C5.67728 20.6223 5.69728 20.7923 5.78728 20.9223C5.88728 21.0523 6.03728 21.1323 6.19728 21.1323H9.60728C9.80728 21.1323 9.99728 21.0023 10.0673 20.8123L10.5473 19.5323C11.6373 17.4423 12.9873 16.9823 13.7973 16.9223C14.1973 16.8723 14.4673 16.9323 14.4973 16.9423C14.7673 17.0123 15.0373 16.8623 15.1073 16.5923L15.2873 15.9323L17.8473 6.42233C18.0973 5.47233 17.6073 4.47233 16.7073 4.09233Z"
    fill="currentColor"
    fill-opacity="0.6"
  />
  <path
    d="M5.41728 12.4621L5.76728 11.9121L15.2873 15.9321L15.1073 16.5921C15.0373 16.8621 14.7673 17.0121 14.4973 16.9421C14.4673 16.9321 14.1973 16.8721 13.7973 16.9221C12.9873 16.9821 11.6373 17.4421 10.5473 19.5321L10.0673 20.8121C9.99728 21.0021 9.80728 21.1321 9.60728 21.1321H6.19728C6.03728 21.1321 5.88728 21.0521 5.78728 20.9221C5.69728 20.7921 5.67728 20.6221 5.72728 20.4621L6.63728 17.8921C7.39728 15.6521 6.71728 14.3221 6.15728 13.6721C5.86728 13.3421 5.60728 13.1821 5.57728 13.1621C5.46728 13.0921 5.37728 12.9721 5.34728 12.8421C5.31728 12.7121 5.34728 12.5721 5.41728 12.4621Z"
    fill="currentColor"
    fill-opacity="0.6"
  />
  <path
    fill-rule="evenodd"
    clip-rule="evenodd"
    d="M18.9145 19.8828H13.0925C12.6785 19.8828 12.3425 20.2188 12.3425 20.6328C12.3425 21.0468 12.6785 21.3828 13.0925 21.3828H18.9145C19.3285 21.3828 19.6645 21.0468 19.6645 20.6328C19.6645 20.2188 19.3285 19.8828 18.9145 19.8828Z"
    fill="currentColor"
    fill-opacity="0.6"
  />
</svg>
