<svg viewBox="0 0 24 24" fill="none" xmlns="http://www.w3.org/2000/svg">
  <path
    fill-rule="evenodd"
    clip-rule="evenodd"
    d="M12 2C6.486 2 2 6.487 2 12C2 12.553 2.448 13 3 13C3.552 13 4 12.553 4 12C4 7.589 7.589 4 12 4C16.486 4 20 7.514 20 12C20 12.782 19.834 14.6 18.3 14.6C17.347 14.6 16.6 13.854 16.6 12.901V12.0064C16.6 12.0044 16.6 12.0024 16.6 12.0004C16.6 11.9984 16.6 11.9964 16.6 11.9944V8.6C16.6 8.047 16.152 7.6 15.6 7.6C15.1698 7.6 14.8114 7.87506 14.6707 8.25673C13.9173 7.7178 12.9951 7.40039 12 7.40039C9.46302 7.40039 7.40002 9.46339 7.40002 12.0004C7.40002 14.5364 9.46302 16.5994 12 16.5994C13.3282 16.5994 14.5265 16.034 15.3668 15.1313C16.0432 16.0185 17.1006 16.6 18.3 16.6C20.547 16.6 22 14.794 22 12C22 6.393 17.607 2 12 2ZM12.0003 20.0007C13.5463 20.0007 15.1603 19.4917 16.5453 18.5687C17.0043 18.2617 17.6243 18.3867 17.9323 18.8457C18.2383 19.3057 18.1143 19.9257 17.6543 20.2327C15.9443 21.3727 13.9373 22.0007 12.0003 22.0007C11.1333 22.0007 10.2523 21.8727 9.58331 21.6487C9.05931 21.4737 8.77631 20.9077 8.95131 20.3837C9.12631 19.8607 9.69331 19.5797 10.2163 19.7527C10.6753 19.9057 11.3583 20.0007 12.0003 20.0007ZM4.5 20.0996C4.5 20.6526 4.948 21.0996 5.5 21.0996C6.052 21.0996 6.5 20.6526 6.5 20.0996V18.5996H8C8.552 18.5996 9 18.1526 9 17.5996C9 17.0466 8.552 16.5996 8 16.5996H6.5V15.0996C6.5 14.5466 6.052 14.0996 5.5 14.0996C4.948 14.0996 4.5 14.5466 4.5 15.0996V16.5996H3C2.448 16.5996 2 17.0466 2 17.5996C2 18.1526 2.448 18.5996 3 18.5996H4.5V20.0996ZM9.40002 12.0004C9.40002 10.5424 10.542 9.40039 12 9.40039C13.458 9.40039 14.6 10.5424 14.6 12.0004C14.6 13.4584 13.458 14.5994 12 14.5994C10.542 14.5994 9.40002 13.4584 9.40002 12.0004Z"
    fill="currentColor"
    fill-opacity="0.6"
  />
</svg>
