<svg viewBox="0 0 20 20" fill="none" xmlns="http://www.w3.org/2000/svg">
  <path
    d="M3.6875 8.125C4.18478 8.125 4.66169 8.32254 5.01333 8.67417C5.36496 9.02581 5.5625 9.50272 5.5625 10C5.5625 10.4973 5.36496 10.9742 5.01333 11.3258C4.66169 11.6775 4.18478 11.875 3.6875 11.875C3.19022 11.875 2.71331 11.6775 2.36167 11.3258C2.01004 10.9742 1.8125 10.4973 1.8125 10C1.8125 9.50272 2.01004 9.02581 2.36167 8.67417C2.71331 8.32254 3.19022 8.125 3.6875 8.125ZM9.9375 8.125C10.4348 8.125 10.9117 8.32254 11.2633 8.67417C11.615 9.02581 11.8125 9.50272 11.8125 10C11.8125 10.4973 11.615 10.9742 11.2633 11.3258C10.9117 11.6775 10.4348 11.875 9.9375 11.875C9.44022 11.875 8.9633 11.6775 8.61167 11.3258C8.26004 10.9742 8.0625 10.4973 8.0625 10C8.0625 9.50272 8.26004 9.02581 8.61167 8.67417C8.9633 8.32254 9.44022 8.125 9.9375 8.125ZM16.1875 8.125C16.6848 8.125 17.1617 8.32254 17.5133 8.67417C17.865 9.02581 18.0625 9.50272 18.0625 10C18.0625 10.4973 17.865 10.9742 17.5133 11.3258C17.1617 11.6775 16.6848 11.875 16.1875 11.875C15.6902 11.875 15.2133 11.6775 14.8617 11.3258C14.51 10.9742 14.3125 10.4973 14.3125 10C14.3125 9.50272 14.51 9.02581 14.8617 8.67417C15.2133 8.32254 15.6902 8.125 16.1875 8.125Z"
    fill="currentColor"
    fill-opacity="0.6"
  />
  <path
    d="M3.8125 2.125C4.30978 2.125 4.78669 2.32254 5.13833 2.67417C5.48996 3.02581 5.6875 3.50272 5.6875 4C5.6875 4.49728 5.48996 4.97419 5.13833 5.32583C4.78669 5.67746 4.30978 5.875 3.8125 5.875C3.31522 5.875 2.83831 5.67746 2.48667 5.32583C2.13504 4.97419 1.9375 4.49728 1.9375 4C1.9375 3.50272 2.13504 3.02581 2.48667 2.67417C2.83831 2.32254 3.31522 2.125 3.8125 2.125ZM10.0625 2.125C10.5598 2.125 11.0367 2.32254 11.3883 2.67417C11.74 3.02581 11.9375 3.50272 11.9375 4C11.9375 4.49728 11.74 4.97419 11.3883 5.32583C11.0367 5.67746 10.5598 5.875 10.0625 5.875C9.56522 5.875 9.08831 5.67746 8.73667 5.32583C8.38504 4.97419 8.1875 4.49728 8.1875 4C8.1875 3.50272 8.38504 3.02581 8.73667 2.67417C9.08831 2.32254 9.56522 2.125 10.0625 2.125ZM16.3125 2.125C16.8098 2.125 17.2867 2.32254 17.6383 2.67417C17.99 3.02581 18.1875 3.50272 18.1875 4C18.1875 4.49728 17.99 4.97419 17.6383 5.32583C17.2867 5.67746 16.8098 5.875 16.3125 5.875C15.8152 5.875 15.3383 5.67746 14.9867 5.32583C14.635 4.97419 14.4375 4.49728 14.4375 4C14.4375 3.50272 14.635 3.02581 14.9867 2.67417C15.3383 2.32254 15.8152 2.125 16.3125 2.125Z"
    fill="currentColor"
    fill-opacity="0.6"
  />
  <path
    d="M3.8125 14.125C4.30978 14.125 4.78669 14.3225 5.13833 14.6742C5.48996 15.0258 5.6875 15.5027 5.6875 16C5.6875 16.4973 5.48996 16.9742 5.13833 17.3258C4.78669 17.6775 4.30978 17.875 3.8125 17.875C3.31522 17.875 2.83831 17.6775 2.48667 17.3258C2.13504 16.9742 1.9375 16.4973 1.9375 16C1.9375 15.5027 2.13504 15.0258 2.48667 14.6742C2.83831 14.3225 3.31522 14.125 3.8125 14.125ZM10.0625 14.125C10.5598 14.125 11.0367 14.3225 11.3883 14.6742C11.74 15.0258 11.9375 15.5027 11.9375 16C11.9375 16.4973 11.74 16.9742 11.3883 17.3258C11.0367 17.6775 10.5598 17.875 10.0625 17.875C9.56522 17.875 9.08831 17.6775 8.73667 17.3258C8.38504 16.9742 8.1875 16.4973 8.1875 16C8.1875 15.5027 8.38504 15.0258 8.73667 14.6742C9.08831 14.3225 9.56522 14.125 10.0625 14.125ZM16.3125 14.125C16.8098 14.125 17.2867 14.3225 17.6383 14.6742C17.99 15.0258 18.1875 15.5027 18.1875 16C18.1875 16.4973 17.99 16.9742 17.6383 17.3258C17.2867 17.6775 16.8098 17.875 16.3125 17.875C15.8152 17.875 15.3383 17.6775 14.9867 17.3258C14.635 16.9742 14.4375 16.4973 14.4375 16C14.4375 15.5027 14.635 15.0258 14.9867 14.6742C15.3383 14.3225 15.8152 14.125 16.3125 14.125Z"
    fill="currentColor"
    fill-opacity="0.6"
  />
</svg>
