<svg width="24" height="24" viewBox="0 0 16 16" fill="none" xmlns="http://www.w3.org/2000/svg">
  <path
    d="M8.16667 1.85645C11.7612 1.85645 14.6667 4.7691 14.6667 8.35646C14.6667 11.9451 11.7612 14.8565 8.16667 14.8565C4.57867 14.8565 1.66667 11.9451 1.66667 8.35646C1.66667 4.7691 4.57867 1.85645 8.16667 1.85645ZM8.16667 10.2616C7.85467 10.2616 7.60117 10.5151 7.60117 10.8271C7.60117 11.1391 7.85467 11.3991 8.17317 11.3991C8.48517 11.3991 8.73867 11.1391 8.73867 10.8271C8.73867 10.5151 8.48517 10.2616 8.16667 10.2616ZM8.16667 5.32095C7.85467 5.32095 7.59467 5.5816 7.59467 5.89295V8.76596C7.59467 9.07861 7.85467 9.33146 8.16667 9.33146C8.47867 9.33146 8.73217 9.07861 8.73217 8.76596V5.89295C8.73217 5.5816 8.47867 5.32095 8.16667 5.32095Z"
    fill="#E9931A"
  />
</svg>
