<svg width="24" height="24" viewBox="0 0 16 16" fill="none" xmlns="http://www.w3.org/2000/svg">
<g clip-path="url(#clip0_3022_2887)">
<path d="M8.00007 14.6662C11.6867 14.6662 14.6667 11.6789 14.6667 7.99953C14.6667 4.31887 11.6867 1.33287 8.00007 1.33287C4.32007 1.33287 1.3334 4.31887 1.3334 7.99953C1.3334 11.6789 4.32007 14.6662 8.00007 14.6662ZM8.00007 6.04553C7.68007 6.04553 7.42007 5.78553 7.42007 5.46553C7.42007 5.14553 7.68007 4.87887 8.00673 4.87887C8.32673 4.87887 8.58673 5.14553 8.58673 5.46553C8.58673 5.78553 8.32673 6.04553 8.00007 6.04553ZM8.00007 11.1129C7.68007 11.1129 7.4134 10.8455 7.4134 10.5262V7.57953C7.4134 7.25887 7.68007 6.99953 8.00007 6.99953C8.32007 6.99953 8.58007 7.25887 8.58007 7.57953V10.5262C8.58007 10.8455 8.32007 11.1129 8.00007 11.1129Z" fill="#5E7BB5"/>
</g>
<defs>
<clipPath id="clip0_3022_2887">
<rect width="16" height="16" fill="white"/>
</clipPath>
</defs>
</svg>
