<svg width="24" height="24" viewBox="0 0 16 16" fill="none" xmlns="http://www.w3.org/2000/svg">
<g clip-path="url(#clip0_3022_2891)">
<path fill-rule="evenodd" clip-rule="evenodd" d="M10.662 6.81466L7.58333 9.89333C7.48533 9.99133 7.358 10.04 7.23 10.04C7.10133 10.04 6.974 9.99133 6.876 9.89333L5.33667 8.354C5.14133 8.15866 5.14133 7.842 5.33667 7.64666C5.532 7.45133 5.848 7.45133 6.04333 7.64666L7.23 8.83266L9.95467 6.10733C10.15 5.912 10.4667 5.912 10.662 6.10733C10.8573 6.30266 10.8573 6.61933 10.662 6.81466ZM8 1.66666C4.508 1.66666 1.66667 4.508 1.66667 8C1.66667 11.4927 4.508 14.3333 8 14.3333C11.492 14.3333 14.3333 11.4927 14.3333 8C14.3333 4.508 11.492 1.66666 8 1.66666Z" fill="#5ABA91"/>
</g>
<defs>
<clipPath id="clip0_3022_2891">
<rect width="16" height="16" fill="white"/>
</clipPath>
</defs>
</svg>
