<svg viewBox="0 0 24 24" fill="none" xmlns="http://www.w3.org/2000/svg">
  <path
    fill-rule="evenodd"
    clip-rule="evenodd"
    d="M18 6H6C4.61929 6 3.5 7.11929 3.5 8.5V15.5C3.5 16.8807 4.61929 18 6 18H18C19.3807 18 20.5 16.8807 20.5 15.5V8.5C20.5 7.11929 19.3807 6 18 6ZM6 4.5C3.79086 4.5 2 6.29086 2 8.5V15.5C2 17.7091 3.79086 19.5 6 19.5H18C20.2091 19.5 22 17.7091 22 15.5V8.5C22 6.29086 20.2091 4.5 18 4.5H6Z"
    fill="currentColor"
    fill-opacity="0.6"
  />
  <path
    d="M7 10.5C7 9.39543 7.89543 8.5 9 8.5H15C16.1046 8.5 17 9.39543 17 10.5V13.5C17 14.6046 16.1046 15.5 15 15.5H9C7.89543 15.5 7 14.6046 7 13.5V10.5Z"
    fill="currentColor"
    fill-opacity="0.6"
  />
</svg>
