<svg viewBox="0 0 24 24" fill="none" xmlns="http://www.w3.org/2000/svg">
  <path
    fill-rule="evenodd"
    clip-rule="evenodd"
    d="M16.8458 21.5019H7.15379C5.69579 21.5019 4.50879 20.3169 4.50879 18.8619V6.70194C4.50879 5.81294 5.10679 5.04294 5.96279 4.82694L14.6948 2.56694C15.3448 2.39994 16.0208 2.53994 16.5498 2.94994C17.0798 3.36094 17.3838 3.98094 17.3838 4.65194V5.54859C17.3838 5.71428 17.2495 5.84859 17.0838 5.84859H8.07104C7.79504 5.84859 7.57104 6.07259 7.57104 6.34859C7.57104 6.62459 7.79504 6.84859 8.07104 6.84859H17.3604C17.3812 6.84859 17.402 6.8507 17.4223 6.85522C18.6041 7.11876 19.4908 8.17357 19.4908 9.43194V18.8619C19.4908 20.3169 18.3048 21.5019 16.8458 21.5019ZM9.54297 11.3223C9.12757 11.3223 8.79297 11.6585 8.79297 12.0723C8.79297 12.486 9.12757 12.8223 9.54297 12.8223H12.328C12.742 12.8223 13.078 12.4863 13.078 12.0723C13.078 11.6582 12.742 11.3223 12.328 11.3223H9.54297ZM8.79297 15.8823C8.79297 15.4672 9.1279 15.1323 9.54297 15.1323H14.491C14.9047 15.1323 15.241 15.4669 15.241 15.8823C15.241 16.2963 14.905 16.6323 14.491 16.6323H9.54297C9.12757 16.6323 8.79297 16.296 8.79297 15.8823Z"
    fill="currentColor"
    fill-opacity="0.6"
  />
</svg>
