<svg viewBox="0 0 24 24" fill="none" xmlns="http://www.w3.org/2000/svg">
  <path
    fill-rule="evenodd"
    clip-rule="evenodd"
    d="M19.045 11.3969C18.645 10.7069 18.265 10.0469 18.265 8.49691C18.265 8.25691 18.245 8.02691 18.205 7.78691C17.645 8.10691 17.005 8.27691 16.325 8.27691C14.155 8.27691 12.385 6.50691 12.385 4.33691C12.385 3.74691 12.515 3.18691 12.755 2.68691C12.515 2.65691 12.265 2.64691 12.005 2.64691C8.25504 2.64691 5.73504 5.67691 5.73504 8.49691C5.73504 10.0469 5.35504 10.7069 4.95504 11.4069C4.56504 12.0769 4.16504 12.7769 4.16504 14.1469V14.1869C4.42504 17.3069 7.23504 17.9169 12.005 17.9169C16.765 17.9169 19.575 17.3069 19.835 14.1469C19.835 12.7769 19.435 12.0769 19.045 11.3969Z"
    fill="currentColor"
    fill-opacity="0.6"
  />
  <path
    fill-rule="evenodd"
    clip-rule="evenodd"
    d="M14.1372 19.3755H9.93522C9.64622 19.3755 9.38422 19.5415 9.25922 19.8005C9.13422 20.0615 9.16922 20.3695 9.34922 20.5945C10.0152 21.4245 10.9922 21.9005 12.0322 21.9005C13.0772 21.9005 14.0572 21.4245 14.7222 20.5945C14.9032 20.3695 14.9382 20.0605 14.8132 19.8005C14.6882 19.5415 14.4262 19.3755 14.1372 19.3755Z"
    fill="currentColor"
    fill-opacity="0.6"
  />
  <path
    fill-rule="evenodd"
    clip-rule="evenodd"
    d="M16.3251 6.57861C17.5591 6.57861 18.5641 5.57361 18.5641 4.33861C18.5641 3.10361 17.5591 2.09961 16.3251 2.09961C15.0911 2.09961 14.0861 3.10361 14.0861 4.33861C14.0861 5.57361 15.0911 6.57861 16.3251 6.57861Z"
    fill="currentColor"
    fill-opacity="0.6"
  />
</svg>
