<svg viewBox="0 0 24 24" fill="none" xmlns="http://www.w3.org/2000/svg">
  <path
    fill-rule="evenodd"
    clip-rule="evenodd"
    d="M17.0504 3.80078H7.25039C4.55039 3.80078 2.65039 5.80078 2.65039 8.60078V15.4008C2.65039 18.2008 4.55039 20.2008 7.25039 20.2008H17.0504C19.7504 20.2008 21.6504 18.2008 21.6504 15.4008V8.60078C21.6504 5.80078 19.7504 3.80078 17.0504 3.80078ZM14.2411 11.2717H17.7481C18.2021 11.2717 18.5701 10.9037 18.5701 10.4497C18.5701 9.99474 18.2021 9.62674 17.7481 9.62674H14.2411C13.7871 9.62674 13.4181 9.99474 13.4181 10.4497C13.4181 10.9037 13.7871 11.2717 14.2411 11.2717ZM17.748 14.9807H15.565C15.111 14.9807 14.743 14.6127 14.743 14.1587C14.743 13.7037 15.111 13.3357 15.565 13.3357H17.748C18.202 13.3357 18.57 13.7037 18.57 14.1587C18.57 14.6127 18.202 14.9807 17.748 14.9807ZM6.07512 16.4237L12.4741 16.4147C12.6801 16.4147 12.8461 16.2487 12.8461 16.0437C12.8461 14.6957 11.7411 13.3357 9.27413 13.3357C6.80713 13.3357 5.70312 14.6997 5.70312 16.0527C5.70312 16.1507 5.74214 16.2457 5.81113 16.3157C5.88112 16.3847 5.97613 16.4237 6.07512 16.4237ZM9.27415 7.55273C10.5521 7.55273 11.5911 8.59173 11.5911 9.86973C11.5911 11.1477 10.5521 12.1877 9.27415 12.1877C7.99615 12.1877 6.95715 11.1477 6.95715 9.86973C6.95715 8.59173 7.99615 7.55273 9.27415 7.55273Z"
    fill="currentColor"
    fill-opacity="0.6"
  />
</svg>
