<svg width="14" height="14" viewBox="0 0 14 14" fill="none" xmlns="http://www.w3.org/2000/svg">
<path fill-rule="evenodd" clip-rule="evenodd" d="M3.54248 2.78828C3.54248 2.0988 4.10124 1.54004 4.79072 1.54004H8.92914C9.61861 1.54004 10.1774 2.0988 10.1774 2.78828V3.25028C10.1774 3.75418 9.87503 4.20724 9.41152 4.40191L9.40878 4.40305L9.39187 4.41001C9.39158 4.41012 9.39131 4.41025 9.39103 4.41037C9.23932 4.4742 9.14082 4.6227 9.14082 4.78636V5.82964C9.14082 5.89549 9.15678 5.95995 9.18713 6.01769L9.18763 6.01858L10.0361 7.64102C10.1283 7.81882 10.1774 8.01666 10.1774 8.2186C10.1774 8.90768 9.61844 9.46628 8.92914 9.46628H7.27983V12.0402C7.27983 12.2722 7.09178 12.4602 6.85983 12.4602C6.62787 12.4602 6.43983 12.2722 6.43983 12.0402V9.46628H4.79072C4.10106 9.46628 3.54248 8.90678 3.54248 8.21804C3.54248 8.01655 3.59156 7.8187 3.68376 7.64102L3.68438 7.63978L4.53197 6.01909C4.53194 6.01914 4.532 6.01903 4.53197 6.01909C4.56243 5.96062 4.57848 5.89549 4.57848 5.82964V4.78636C4.57848 4.62221 4.48004 4.47401 4.32883 4.41036L4.30832 4.40192C3.84482 4.20725 3.54248 3.75418 3.54248 3.25028V2.78828ZM4.79072 2.38004C4.56516 2.38004 4.38248 2.56272 4.38248 2.78828V3.25028C4.38248 3.41461 4.48061 3.56267 4.63248 3.62697L4.65204 3.63503C5.11634 3.82919 5.41848 4.2833 5.41848 4.78636V5.82964C5.41848 6.03141 5.36952 6.22959 5.27683 6.40739L4.42936 8.02786C4.42927 8.02803 4.42919 8.0282 4.4291 8.02837C4.39827 8.08801 4.38248 8.15319 4.38248 8.21804C4.38248 8.44322 4.56535 8.62628 4.79072 8.62628H8.92914C9.15487 8.62628 9.33738 8.44344 9.33738 8.2186C9.33738 8.15302 9.32147 8.08784 9.29073 8.02831C9.29062 8.0282 9.29079 8.02848 9.29073 8.02831L8.44373 6.40879C8.44367 6.40868 8.44379 6.4089 8.44373 6.40879C8.34987 6.23026 8.30082 6.03135 8.30082 5.82964V4.78636C8.30082 4.28281 8.60395 3.82901 9.06779 3.63504L9.06992 3.63415L9.08739 3.62697C9.23921 3.56267 9.33738 3.41461 9.33738 3.25028V2.78828C9.33738 2.56272 9.15471 2.38004 8.92914 2.38004H4.79072Z" fill="#30303D"/>
</svg>
