<svg width="14" height="14" viewBox="0 0 14 14" fill="none" xmlns="http://www.w3.org/2000/svg">
<path fill-rule="evenodd" clip-rule="evenodd" d="M5.13973 2.94865C5.16976 2.94319 5.19902 2.94059 5.22783 2.94059H8.48755C8.76267 2.94059 8.97239 3.13711 8.99429 3.35037C9.0065 3.49977 8.9482 3.63533 8.8469 3.72944C8.57407 3.97711 8.36435 4.335 8.36435 4.7564L8.37426 6.05911C8.37437 6.16579 8.38736 6.26301 8.39671 6.33284L8.39772 6.3404C8.42835 6.57028 8.63964 6.73184 8.86952 6.70121C9.09946 6.67052 9.26102 6.45929 9.23033 6.22935C9.21997 6.15168 9.21426 6.10436 9.21426 6.05732L9.20435 4.75508C9.20479 4.6238 9.27115 4.4784 9.41239 4.35062L9.41547 4.34778C9.69883 4.08626 9.8675 3.69886 9.83104 3.27595L9.83059 3.27157C9.76227 2.5656 9.1316 2.10059 8.48755 2.10059H5.22783C5.15667 2.10059 5.08588 2.10635 5.01566 2.1177C4.80438 2.1397 4.63965 2.31833 4.63965 2.53543C4.63965 2.76738 4.82769 2.95543 5.05965 2.95543H5.0646C5.08979 2.95543 5.11494 2.95316 5.13973 2.94865ZM2.46579 2.60641C2.62981 2.44239 2.89574 2.44239 3.05976 2.60641L5.19474 4.74138C5.21862 4.76057 5.24036 4.78231 5.25953 4.80618L9.26574 8.81238C9.28963 8.83156 9.31137 8.8533 9.33055 8.87718L11.2527 10.7993C11.4167 10.9633 11.4167 11.2293 11.2527 11.3933C11.0886 11.5573 10.8227 11.5573 10.6587 11.3933L8.84024 9.57485H7.27884V11.4823C7.27884 11.7142 7.09085 11.9023 6.85884 11.9023C6.62689 11.9023 6.43884 11.7142 6.43884 11.4823V9.57485H4.87257C3.71288 9.57485 3.0695 8.23208 3.7922 7.32511L4.26005 6.73778C4.41365 6.54928 4.49821 6.3063 4.50206 6.05312L4.51015 5.24475L2.46579 3.20038C2.30177 3.03636 2.30177 2.77044 2.46579 2.60641ZM4.91283 7.26647C5.19071 6.92456 5.33312 6.50069 5.34179 6.07639L8.00024 8.73485H4.87257C4.41973 8.73485 4.16289 8.20778 4.44921 7.84848L4.91283 7.26647Z" fill="#30303D"/>
</svg>
