<svg viewBox="0 0 24 24" fill="none" xmlns="http://www.w3.org/2000/svg">
  <path
    d="M19.8723 13.9227C19.7763 14.0213 19.4136 14.4429 19.0757 14.7897C17.095 16.9708 11.928 20.5408 9.22353 21.6305C8.81281 21.8056 7.77443 22.1762 7.21963 22.2C6.68802 22.2 6.18125 22.0776 5.69766 21.8294C5.09484 21.4826 4.61125 20.9369 4.34627 20.2926C4.17569 19.8455 3.91072 18.5076 3.91072 18.4838C3.64574 17.0201 3.5 14.6418 3.5 12.0136C3.5 9.50949 3.64574 7.22809 3.86269 5.74229C3.88753 5.71849 4.15251 4.05589 4.44233 3.48639C4.97394 2.44599 6.01232 1.79999 7.12358 1.79999H7.21963C7.94335 1.82549 9.46532 2.47149 9.46532 2.49529C12.024 3.58669 17.0718 6.98159 19.1006 9.23749C19.1006 9.23749 19.6719 9.81719 19.9204 10.1793C20.3079 10.6995 20.5 11.3438 20.5 11.9881C20.5 12.7072 20.283 13.377 19.8723 13.9227Z"
    fill="currentColor"
    fill-opacity="0.6"
  />
</svg>
