<svg viewBox="0 0 18 18" fill="none" xmlns="http://www.w3.org/2000/svg">
  <path
    fill-rule="evenodd"
    clip-rule="evenodd"
    d="M8.46001 2.24554C8.46001 1.9473 8.70178 1.70554 9.00001 1.70554C10.5916 1.70554 12.136 2.24639 13.3798 3.23937C14.6236 4.23237 15.4931 5.61856 15.8456 7.17062C16.1981 8.72269 16.0128 10.3485 15.32 11.7813C14.6272 13.2143 13.468 14.3691 12.0326 15.0567C10.5972 15.7443 8.9707 15.9236 7.41997 15.5654C5.86922 15.2072 4.48623 14.3326 3.49781 13.0852C2.50939 11.8377 1.97421 10.2914 1.98006 8.6998C1.9859 7.10819 2.53241 5.56584 3.52996 4.32566C3.71688 4.09327 4.0568 4.05642 4.28918 4.24333C4.52157 4.43026 4.55843 4.77017 4.3715 5.00256C3.52742 6.05195 3.06499 7.357 3.06005 8.70376C3.0551 10.0504 3.50794 11.3589 4.3443 12.4144C5.18066 13.47 6.35088 14.21 7.66304 14.5131C8.97524 14.8163 10.3514 14.6645 11.566 14.0827C12.7807 13.5009 13.7614 12.5236 14.3477 11.3112C14.934 10.0988 15.0908 8.72312 14.7925 7.40984C14.4942 6.09656 13.7584 4.92363 12.706 4.0834C11.6535 3.24317 10.3468 2.78554 9.00001 2.78554C8.70178 2.78554 8.46001 2.54377 8.46001 2.24554ZM8.46001 4.76555C8.46001 4.46732 8.70178 4.22555 9.00001 4.22555C9.87049 4.22555 10.7222 4.47802 11.4521 4.95234C12.182 5.42668 12.7587 6.10252 13.1122 6.89797C13.4657 7.69339 13.5809 8.57431 13.4439 9.43392C13.3069 10.2935 12.9235 11.095 12.3402 11.7411C11.7568 12.3872 10.9987 12.8502 10.1575 13.0742C9.3163 13.298 8.42826 13.2732 7.6009 13.0025C6.77357 12.7319 6.04249 12.2271 5.49627 11.5494C4.95004 10.8716 4.61211 10.05 4.52343 9.18401C4.49304 8.88737 4.70892 8.62219 5.0056 8.59181C5.30228 8.56142 5.56742 8.77728 5.59781 9.07399C5.66521 9.73207 5.92204 10.3565 6.33717 10.8716C6.7523 11.3867 7.30794 11.7704 7.93671 11.976C8.56542 12.1817 9.24034 12.2007 9.8797 12.0305C10.519 11.8603 11.0952 11.5084 11.5385 11.0173C11.9818 10.5263 12.2732 9.91726 12.3774 9.26393C12.4815 8.6106 12.3939 7.94114 12.1252 7.33656C11.8566 6.73205 11.4183 6.21841 10.8637 5.85792C10.3089 5.49742 9.66154 5.30555 9.00001 5.30555C8.70178 5.30555 8.46001 5.06379 8.46001 4.76555ZM9.00001 6.74554C8.70171 6.74554 8.46001 6.98731 8.46001 7.28557C8.46001 7.5838 8.70171 7.82557 9.00001 7.82557C9.1741 7.82557 9.34445 7.87604 9.4904 7.97087C9.63641 8.06576 9.75169 8.20091 9.82239 8.36003C9.8931 8.51908 9.91613 8.69526 9.88877 8.8672C9.86134 9.03913 9.78466 9.1994 9.66802 9.32864C9.55131 9.45788 9.39968 9.55048 9.23149 9.59526C9.06322 9.64004 8.8856 9.63508 8.72014 9.58093C8.43668 9.4882 8.13176 9.64285 8.03902 9.92624C7.94629 10.2097 8.10094 10.5147 8.38433 10.6074C8.74837 10.7265 9.13911 10.7375 9.50926 10.6389C9.87942 10.5404 10.213 10.3366 10.4697 10.0524C10.7263 9.76806 10.895 9.41548 10.9553 9.03726C11.0156 8.65897 10.9649 8.2714 10.8094 7.9214C10.6538 7.57141 10.4 7.27405 10.0789 7.06533C9.75773 6.85663 9.38297 6.74554 9.00001 6.74554Z"
    fill="currentColor"
    fill-opacity="0.6"
  />
</svg>
