<svg viewBox="0 0 24 24" fill="none" xmlns="http://www.w3.org/2000/svg">
  <path
    d="M12 22C17.5228 22 22 17.5228 22 12C22 6.47715 17.5228 2 12 2C6.47715 2 2 6.47715 2 12C2 17.5228 6.47715 22 12 22Z"
    fill="currentColor"
    fill-opacity="0.6"
  />
  <path
    d="M16.76 11.93C16.34 11.86 15.97 12.16 15.91 12.57C15.79 13.44 15.4 14.22 14.8 14.82C13.42 16.2 11.28 16.34 9.73001 15.27H10.48C10.89 15.27 11.23 14.93 11.23 14.52C11.23 14.11 10.89 13.77 10.48 13.77H7.81C7.4 13.77 7.06 14.11 7.06 14.52V17.19C7.06 17.6 7.4 17.94 7.81 17.94C8.22 17.94 8.56 17.6 8.56 17.19V16.25C9.56 17.06 10.77 17.49 11.99 17.49C13.39 17.49 14.79 16.96 15.86 15.89C16.69 15.06 17.22 13.9899 17.39 12.7899C17.46 12.3599 17.17 11.98 16.76 11.93Z"
    fill="white"
  />
  <path
    d="M7.33999 12.08C7.70999 12.08 8.02998 11.81 8.07998 11.44C8.19998 10.57 8.58999 9.79 9.18999 9.19C10.57 7.81 12.71 7.66999 14.26 8.73999H13.51C13.1 8.73999 12.76 9.07999 12.76 9.48999C12.76 9.89999 13.1 10.24 13.51 10.24H16.18C16.59 10.24 16.93 9.89999 16.93 9.48999V6.82001C16.93 6.41001 16.59 6.07001 16.18 6.07001C15.77 6.07001 15.43 6.41001 15.43 6.82001V7.76001C13.28 6.02001 10.13 6.13 8.14001 8.12C7.31001 8.95 6.77998 10.02 6.60998 11.22C6.54998 11.63 6.83999 12.01 7.24999 12.07C7.26999 12.08 7.30999 12.08 7.33999 12.08Z"
    fill="white"
  />
</svg>
