<svg width="16" height="16" viewBox="0 0 16 16" fill="none" xmlns="http://www.w3.org/2000/svg">
<path fill-rule="evenodd" clip-rule="evenodd" d="M7.82616 1.33301C11.4062 1.33301 14.3182 4.24501 14.3182 7.82501C14.3182 9.51404 13.67 11.0545 12.6093 12.2107L14.6964 14.2935C14.8918 14.4888 14.8924 14.8048 14.6971 15.0001C14.5998 15.0988 14.4711 15.1475 14.3431 15.1475C14.2158 15.1475 14.0878 15.0988 13.9898 15.0015L11.8774 12.895C10.7662 13.7849 9.35728 14.3177 7.82616 14.3177C4.24616 14.3177 1.3335 11.405 1.3335 7.82501C1.3335 4.24501 4.24616 1.33301 7.82616 1.33301ZM7.82616 2.33301C4.7975 2.33301 2.3335 4.79634 2.3335 7.82501C2.3335 10.8537 4.7975 13.3177 7.82616 13.3177C10.8542 13.3177 13.3182 10.8537 13.3182 7.82501C13.3182 4.79634 10.8542 2.33301 7.82616 2.33301Z" fill="#9999B1"/>
</svg>
