<svg viewBox="0 0 24 24" fill="none" xmlns="http://www.w3.org/2000/svg">
  <path
    d="M13.3461 17.3096C13.3461 19.5576 15.1751 21.3866 17.4231 21.3866C19.6711 21.3866 21.5001 19.5576 21.5001 17.3096C21.5001 15.0616 19.6711 13.2316 17.4231 13.2316C15.1751 13.2316 13.3461 15.0616 13.3461 17.3096Z"
    fill="currentColor"
    fill-opacity="0.6"
  />
  <path
    d="M8.6386 10.3435H14.4586C14.9366 10.3435 15.3656 10.0965 15.6056 9.68343C15.8466 9.27043 15.8486 8.77443 15.6116 8.35843L12.7206 3.28243C12.4826 2.86443 12.0516 2.61443 11.5706 2.61343H11.5666C11.0866 2.61343 10.6566 2.86143 10.4166 3.27643L7.4876 8.35243C7.2486 8.76743 7.2486 9.26443 7.4886 9.67943C7.7296 10.0955 8.1586 10.3435 8.6386 10.3435Z"
    fill="currentColor"
    fill-opacity="0.6"
  />
  <path
    d="M4.76988 21.1397H7.89088C9.22791 21.1397 10.1609 20.1687 10.1609 18.7787V15.8387C10.1609 14.4487 9.22791 13.4787 7.89088 13.4787H4.76988C3.43388 13.4787 2.49988 14.4487 2.49988 15.8387V18.7787C2.49988 20.1687 3.43388 21.1397 4.76988 21.1397Z"
    fill="currentColor"
    fill-opacity="0.6"
  />
</svg>
