<svg viewBox="0 0 24 24" fill="none" xmlns="http://www.w3.org/2000/svg">
  <path
    fill-rule="evenodd"
    clip-rule="evenodd"
    d="M7.802 15.114C7.521 14.81 7.538 14.335 7.842 14.053L10.054 12L7.842 9.946C7.538 9.665 7.521 9.189 7.802 8.885C8.084 8.583 8.558 8.565 8.862 8.846L11.666 11.45C11.819 11.592 11.906 11.791 11.906 12C11.906 12.209 11.819 12.408 11.666 12.55L8.862 15.153C8.558 15.434 8.084 15.417 7.802 15.114ZM14.709 2.8C14.709 2.63431 14.5747 2.5 14.409 2.5H7.784C4.624 2.5 2.5 4.72 2.5 8.026V15.973C2.5 19.279 4.623 21.5 7.783 21.5H14.409C14.5747 21.5 14.709 21.3657 14.709 21.2V2.8Z"
    fill="currentColor"
    fill-opacity="0.6"
  />
  <path
    fill-rule="evenodd"
    clip-rule="evenodd"
    d="M16.218 21.1998C16.218 21.3654 16.3525 21.5005 16.518 21.493C19.5107 21.3565 21.5 19.173 21.5 15.9738V8.02575C21.5 4.82648 19.5107 2.64297 16.518 2.50653C16.3525 2.49898 16.218 2.63406 16.218 2.79975V21.1998Z"
    fill="currentColor"
    fill-opacity="0.6"
  />
</svg>
