<svg viewBox="0 0 24 24" fill="none" xmlns="http://www.w3.org/2000/svg">
  <path
    fill-rule="evenodd"
    clip-rule="evenodd"
    d="M16.198 15.114C16.479 14.81 16.462 14.335 16.158 14.053L13.946 12L16.158 9.946C16.462 9.665 16.479 9.189 16.198 8.885C15.916 8.583 15.442 8.565 15.138 8.846L12.334 11.45C12.181 11.592 12.094 11.791 12.094 12C12.094 12.209 12.181 12.408 12.334 12.55L15.138 15.153C15.442 15.434 15.916 15.417 16.198 15.114ZM9.29102 2.8C9.29102 2.63431 9.42532 2.5 9.59101 2.5H16.216C19.376 2.5 21.5 4.72 21.5 8.026V15.973C21.5 19.279 19.377 21.5 16.217 21.5H9.59101C9.42532 21.5 9.29102 21.3657 9.29102 21.2V2.8Z"
    fill="currentColor"
    fill-opacity="0.6"
  />
  <path
    fill-rule="evenodd"
    clip-rule="evenodd"
    d="M7.782 21.1998C7.782 21.3654 7.64753 21.5005 7.48201 21.493C4.48933 21.3565 2.5 19.173 2.5 15.9738V8.02575C2.5 4.82648 4.48933 2.64297 7.48201 2.50653C7.64753 2.49898 7.782 2.63406 7.782 2.79975V21.1998Z"
    fill="currentColor"
    fill-opacity="0.6"
  />
</svg>
