<svg viewBox="0 0 24 24" fill="none" xmlns="http://www.w3.org/2000/svg">
  <path
    opacity="0.4"
    fill-rule="evenodd"
    clip-rule="evenodd"
    d="M16.5299 3.69609V2.99609C16.5299 2.58609 16.1899 2.24609 15.7799 2.24609C15.3599 2.24609 15.0299 2.58609 15.0299 2.99609V5.95609C15.0299 6.24609 15.1999 6.49609 15.4399 6.61609C15.3399 6.67609 15.2299 6.70609 15.1099 6.70609C14.6899 6.70609 14.3599 6.37609 14.3599 5.95609V3.86609C14.3599 3.75564 14.2704 3.66609 14.1599 3.66609H9.24993V2.99609C9.24993 2.58609 8.91993 2.24609 8.49993 2.24609C8.08993 2.24609 7.74993 2.58609 7.74993 2.99609V5.95609C7.74993 6.24609 7.92993 6.49609 8.16993 6.61609C8.06993 6.67609 7.95993 6.70609 7.83993 6.70609C7.41993 6.70609 7.08993 6.37609 7.08993 5.95609V4.0007C7.08993 3.87428 6.97392 3.7794 6.85145 3.81077C4.75002 4.34896 3.17993 6.26172 3.17993 8.54609V17.0761C3.17993 19.6461 5.25993 21.7561 7.80993 21.7561H13.2999C13.5699 21.7561 13.7699 21.5361 13.7699 21.2761V17.9361C13.7699 16.0361 15.3199 14.4761 17.1999 14.4661H20.3599C20.6199 14.4661 20.8199 14.2561 20.8199 14.0061V8.32609C20.8199 5.86609 18.9299 3.86609 16.5299 3.69609Z"
    fill="currentColor"
    fill-opacity="0.6"
  />
  <path
    fill-rule="evenodd"
    clip-rule="evenodd"
    d="M19.8974 15.9777C19.0524 15.9747 18.0574 15.9777 17.3414 15.9847C16.2054 15.9847 15.2694 16.9307 15.2694 18.0777V20.8127C15.2694 21.2597 15.8064 21.4827 16.1134 21.1597C16.6694 20.5757 17.4344 19.7727 18.1944 18.9737C18.9534 18.1767 19.7084 17.3837 20.2494 16.8147C20.5494 16.5007 20.3294 15.9787 19.8974 15.9777Z"
    fill="currentColor"
    fill-opacity="0.6"
  />
  <path
    fill-rule="evenodd"
    clip-rule="evenodd"
    d="M14.54 11.2051H7.90002C7.49002 11.2051 7.15002 10.8651 7.15002 10.4551C7.15002 10.0351 7.49002 9.70508 7.90002 9.70508H14.54C14.95 9.70508 15.29 10.0351 15.29 10.4551C15.29 10.8651 14.95 11.2051 14.54 11.2051ZM10.82 15.2751H7.90002C7.49002 15.2751 7.15002 14.9451 7.15002 14.5251C7.15002 14.1151 7.49002 13.7751 7.90002 13.7751H10.82C11.23 13.7751 11.57 14.1151 11.57 14.5251C11.57 14.9451 11.23 15.2751 10.82 15.2751Z"
    fill="currentColor"
    fill-opacity="0.6"
  />
</svg>
