<svg viewBox="0 0 24 24" fill="none" xmlns="http://www.w3.org/2000/svg">
  <path
    fill-rule="evenodd"
    clip-rule="evenodd"
    d="M9.25002 2.5H14.75C17.011 2.5 18.85 4.339 18.85 6.599V17.4C18.85 19.661 17.011 21.5 14.75 21.5H9.25002C6.98902 21.5 5.15002 19.661 5.15002 17.4V6.599C5.15002 4.339 6.98902 2.5 9.25002 2.5ZM10.6 7.4502H13.4C13.814 7.4502 14.15 7.1142 14.15 6.7002C14.15 6.2862 13.814 5.9502 13.4 5.9502H10.6C10.186 5.9502 9.85004 6.2862 9.85004 6.7002C9.85004 7.1142 10.186 7.4502 10.6 7.4502ZM11.05 17.2002C11.05 17.7332 11.467 18.1502 12 18.1502C12.449 18.1502 12.95 17.7442 12.95 17.2002C12.95 16.6562 12.449 16.2502 12 16.2502C11.552 16.2502 11.05 16.6562 11.05 17.2002Z"
    fill="currentColor"
    fill-opacity="0.6"
  />
</svg>
