<svg viewBox="0 0 24 24" fill="none" xmlns="http://www.w3.org/2000/svg">
  <path
    fill-rule="evenodd"
    clip-rule="evenodd"
    d="M7.18966 9.15845C7.18966 9.69411 6.75551 10.1288 6.21939 10.1288C5.68383 10.1288 5.24896 9.69469 5.24896 9.15845C5.24896 8.6222 5.68382 8.18811 6.21939 8.18811C6.75552 8.18811 7.18966 8.62278 7.18966 9.15845Z"
    fill="currentColor"
    fill-opacity="0.6"
  />
  <path
    fill-rule="evenodd"
    clip-rule="evenodd"
    d="M7.18966 15.3722C7.18966 15.9078 6.75551 16.3424 6.21939 16.3424C5.68383 16.3424 5.24896 15.9084 5.24896 15.3722C5.24896 14.8359 5.68382 14.4018 6.21939 14.4018C6.75552 14.4018 7.18966 14.8365 7.18966 15.3722Z"
    fill="currentColor"
    fill-opacity="0.6"
  />
  <path
    fill-rule="evenodd"
    clip-rule="evenodd"
    d="M12.9702 9.15845C12.9702 9.69411 12.5361 10.1288 12 10.1288C11.4645 10.1288 11.0296 9.69469 11.0296 9.15845C11.0296 8.6222 11.4645 8.18811 12 8.18811C12.5361 8.18811 12.9702 8.62278 12.9702 9.15845Z"
    fill="currentColor"
    fill-opacity="0.6"
  />
  <path
    fill-rule="evenodd"
    clip-rule="evenodd"
    d="M12.9702 15.3722C12.9702 15.9078 12.5361 16.3424 12 16.3424C11.4645 16.3424 11.0296 15.9084 11.0296 15.3722C11.0296 14.8359 11.4645 14.4018 12 14.4018C12.5361 14.4018 12.9702 14.8365 12.9702 15.3722Z"
    fill="currentColor"
    fill-opacity="0.6"
  />
  <path
    fill-rule="evenodd"
    clip-rule="evenodd"
    d="M18.7509 9.15845C18.7509 9.69411 18.3168 10.1288 17.7807 10.1288C17.2452 10.1288 16.8103 9.69469 16.8103 9.15845C16.8103 8.6222 17.2452 8.18811 17.7807 8.18811C18.3168 8.18811 18.7509 8.62278 18.7509 9.15845Z"
    fill="currentColor"
    fill-opacity="0.6"
  />
  <path
    fill-rule="evenodd"
    clip-rule="evenodd"
    d="M18.7509 15.3722C18.7509 15.9078 18.3168 16.3424 17.7807 16.3424C17.2452 16.3424 16.8103 15.9084 16.8103 15.3722C16.8103 14.8359 17.2452 14.4018 17.7807 14.4018C18.3168 14.4018 18.7509 14.8365 18.7509 15.3722Z"
    fill="currentColor"
    fill-opacity="0.6"
  />
</svg>
