<svg viewBox="0 0 24 24" fill="none" xmlns="http://www.w3.org/2000/svg">
  <path
    fill-rule="evenodd"
    clip-rule="evenodd"
    d="M14.2777 11.156L16.4007 9.03C16.6927 8.737 16.6927 8.262 16.3997 7.969C16.1057 7.676 15.6307 7.676 15.3387 7.97L13.2847 10.029C12.9517 9.838 12.5707 9.72 12.1597 9.72C10.9007 9.72 9.87669 10.743 9.87669 12C9.87669 13.258 10.9007 14.28 12.1597 14.28C13.4197 14.28 14.4437 13.258 14.4437 12C14.4437 11.702 14.3827 11.418 14.2777 11.156ZM2.65869 12C2.65869 6.762 6.92069 2.5 12.1577 2.5C17.3967 2.5 21.6577 6.762 21.6577 12C21.6577 17.238 17.3967 21.5 12.1577 21.5C6.92069 21.5 2.65869 17.238 2.65869 12ZM11.377 12.0002C11.377 11.5702 11.728 11.2202 12.16 11.2202C12.593 11.2202 12.944 11.5702 12.944 12.0002C12.944 12.4302 12.593 12.7802 12.16 12.7802C11.728 12.7802 11.377 12.4302 11.377 12.0002Z"
    fill="currentColor"
    fill-opacity="0.6"
  />
</svg>
