<svg viewBox="0 0 24 24" fill="none" xmlns="http://www.w3.org/2000/svg">
  <path
    fill-rule="evenodd"
    clip-rule="evenodd"
    d="M6.28151 5.05692C5.95351 4.72092 5.42551 4.72392 5.08951 5.05192C4.75351 5.37992 4.75651 5.92792 5.08451 6.26492C5.25051 6.43492 5.47151 6.52092 5.69251 6.52092C5.90651 6.52092 6.12051 6.43992 6.28651 6.27892C6.62251 5.95192 6.62851 5.41292 6.30151 5.07692L6.28151 5.05692Z"
    fill="currentColor"
    fill-opacity="0.6"
  />
  <path
    fill-rule="evenodd"
    clip-rule="evenodd"
    d="M5.08437 17.737L5.06437 17.757C4.73737 18.093 4.75336 18.621 5.08936 18.949C5.25237 19.108 5.46436 19.186 5.67737 19.186C5.90437 19.186 6.13236 19.097 6.30136 18.924C6.62836 18.588 6.62236 18.05 6.28636 17.722C5.95037 17.395 5.41237 17.402 5.08437 17.737Z"
    fill="currentColor"
    fill-opacity="0.6"
  />
  <path
    fill-rule="evenodd"
    clip-rule="evenodd"
    d="M3.01064 11.1604C2.54164 11.1604 2.16064 11.5414 2.16064 12.0104C2.16064 12.4794 2.54164 12.8604 3.01064 12.8604H3.05964C3.52964 12.8604 3.88564 12.4794 3.88564 12.0104C3.88564 11.5414 3.47964 11.1604 3.01064 11.1604Z"
    fill="currentColor"
    fill-opacity="0.6"
  />
  <path
    fill-rule="evenodd"
    clip-rule="evenodd"
    d="M12.0175 20.1106C11.5485 20.1106 11.1674 20.4916 11.1674 20.9606V20.9906C11.1674 21.4606 11.5485 21.8256 12.0175 21.8256C12.4865 21.8256 12.8674 21.4296 12.8674 20.9606C12.8674 20.4916 12.4865 20.1106 12.0175 20.1106Z"
    fill="currentColor"
    fill-opacity="0.6"
  />
  <path
    fill-rule="evenodd"
    clip-rule="evenodd"
    d="M17.76 5.04809L17.715 5.09809C17.398 5.44509 17.446 5.95809 17.793 6.27409C17.949 6.41709 18.149 6.48509 18.35 6.48509C18.595 6.48509 18.843 6.38409 19.016 6.19409C19.332 5.84609 19.307 5.30909 18.961 4.99309C18.613 4.67409 18.075 4.70109 17.76 5.04809Z"
    fill="currentColor"
    fill-opacity="0.6"
  />
  <path
    fill-rule="evenodd"
    clip-rule="evenodd"
    d="M18.9705 17.758C18.6545 17.411 18.1395 17.412 17.7925 17.728C17.4455 18.044 17.4435 18.606 17.7605 18.953C17.9275 19.137 18.1575 19.231 18.3885 19.231C18.5925 19.231 18.7975 19.157 18.9605 19.008C19.3075 18.693 19.3325 18.155 19.0155 17.808L18.9705 17.758Z"
    fill="currentColor"
    fill-opacity="0.6"
  />
  <path
    fill-rule="evenodd"
    clip-rule="evenodd"
    d="M20.968 11.1604C20.499 11.1604 20.118 11.5414 20.118 12.0104C20.118 12.4794 20.499 12.8604 20.968 12.8604H21.01C21.48 12.8604 21.839 12.4794 21.839 12.0104C21.839 11.5414 21.437 11.1604 20.968 11.1604Z"
    fill="currentColor"
    fill-opacity="0.6"
  />
  <path
    fill-rule="evenodd"
    clip-rule="evenodd"
    d="M12.0175 3.89078C12.4865 3.89078 12.8674 3.50978 12.8674 3.04078V3.01078C12.8674 2.54078 12.4865 2.17578 12.0175 2.17578C11.5485 2.17578 11.1674 2.57178 11.1674 3.04078C11.1674 3.50978 11.5485 3.89078 12.0175 3.89078Z"
    fill="currentColor"
    fill-opacity="0.6"
  />
  <path
    fill-rule="evenodd"
    clip-rule="evenodd"
    d="M12.012 6.57056C9.02004 6.57056 6.58704 9.00256 6.58704 11.9906C6.58704 14.9856 9.02004 17.4206 12.012 17.4206C15.003 17.4206 17.436 14.9856 17.436 11.9906C17.436 9.00256 15.003 6.57056 12.012 6.57056Z"
    fill="currentColor"
    fill-opacity="0.6"
  />
</svg>
