<svg viewBox="0 0 24 24" fill="none" xmlns="http://www.w3.org/2000/svg">
  <path
    fill-rule="evenodd"
    clip-rule="evenodd"
    d="M17.749 2.71582H5.252C3.459 2.71582 2 4.17382 2 5.96682V8.06882C2 9.23382 2.454 10.3298 3.299 11.1758L7.754 15.1388C7.955 15.3408 8.07 15.6188 8.07 15.9028V19.2078C8.07 19.8968 8.411 20.5398 8.98103 20.9268C9.33103 21.1638 9.73703 21.2848 10.147 21.2848C10.407 21.2848 10.667 21.2368 10.916 21.1368L12.845 20.3688C13.64 20.0538 14.154 19.2958 14.154 18.4388V16.4008C14.154 16.0958 14.284 15.8038 14.527 15.5838L19.558 10.6088C20.475 9.78182 21 8.59982 21 7.36582V5.96682C21 4.17382 19.542 2.71582 17.749 2.71582Z"
    fill="currentColor"
    fill-opacity="0.6"
  />
</svg>
