<svg viewBox="0 0 24 24" fill="none" xmlns="http://www.w3.org/2000/svg">
  <path
    fill-rule="evenodd"
    clip-rule="evenodd"
    d="M15.0589 15.3777H7.82995C7.41595 15.3777 7.07995 15.0417 7.07995 14.6277C7.07995 14.2137 7.41595 13.8777 7.82995 13.8777H15.0589C15.4729 13.8777 15.8089 14.2137 15.8089 14.6277C15.8089 15.0417 15.4729 15.3777 15.0589 15.3777ZM7.82995 9.64167H11.1669C11.5809 9.64167 11.9169 9.97767 11.9169 10.3917C11.9169 10.8057 11.5809 11.1417 11.1669 11.1417H7.82995C7.41595 11.1417 7.07995 10.8057 7.07995 10.3917C7.07995 9.97767 7.41595 9.64167 7.82995 9.64167ZM14.7339 5.37967C14.7339 5.05047 14.7749 4.73244 14.8397 4.42215C14.8662 4.29483 14.771 4.17267 14.641 4.17267H7.22695C4.06795 4.17267 1.94495 6.39367 1.94495 9.69867V15.3147C1.94495 18.6197 4.06795 20.8417 7.22695 20.8417H15.6609C18.8219 20.8417 20.9449 18.6197 20.9449 15.3147V10.4768C20.9449 10.3467 20.8227 10.2515 20.6953 10.2781C20.3854 10.3428 20.067 10.3837 19.7379 10.3837C16.9739 10.3837 14.7339 8.14367 14.7339 5.37967Z"
    fill="currentColor"
    fill-opacity="0.6"
  />
  <path
    fill-rule="evenodd"
    clip-rule="evenodd"
    d="M21.2638 6.70793L20.4153 5.8594L21.2645 5.01017C21.5573 4.71743 21.5573 4.24225 21.2645 3.94951C20.9718 3.65677 20.4966 3.65677 20.2038 3.94951L19.3546 4.79874L18.5054 3.94951C18.2126 3.65676 17.7375 3.65676 17.4447 3.94951C17.152 4.24225 17.152 4.71743 17.4447 5.01017L18.294 5.8594L17.4454 6.70793C17.1527 7.00067 17.1527 7.47585 17.4454 7.76859C17.7382 8.06133 18.2133 8.06133 18.5061 7.76859L19.3546 6.92006L20.2031 7.76859C20.4959 8.06133 20.9711 8.06133 21.2638 7.76859C21.5565 7.47585 21.5565 7.00067 21.2638 6.70793Z"
    fill="currentColor"
    fill-opacity="0.6"
  />
</svg>
