<svg viewBox="0 0 24 24" fill="none" xmlns="http://www.w3.org/2000/svg">
  <path
    d="M12.0062 14C13.2945 14 14.4608 14.0675 15.1783 14.1931C15.1895 14.1931 15.8461 14.3175 16.0649 14.3977C16.3808 14.5233 16.6481 14.7501 16.8185 15.0339C16.9403 15.2606 17 15.5002 17 15.7503C16.9888 16.0108 16.806 16.5004 16.7202 16.6934C16.1868 17.9657 14.436 20.3974 13.3678 21.3301C13.1975 21.4883 12.991 21.6593 12.9426 21.7046C12.674 21.8977 12.3469 22 11.995 22C11.6779 22 11.3621 21.9093 11.1072 21.7267C10.9748 21.6395 10.7815 21.4659 10.6931 21.3846L10.6459 21.3406C9.53917 20.387 7.8754 18.011 7.34071 16.8062C7.32931 16.8062 7.06297 16.2052 7.00908 15.8426L7 15.7503V15.7049C7 15.1816 7.31584 14.6931 7.82691 14.4431C8.10669 14.307 8.91992 14.1814 8.93236 14.1698C9.66103 14.0675 10.7789 14 12.0062 14Z"
    fill="currentColor"
    fill-opacity="0.4"
  />
  <path
    d="M12.0062 2C12.3208 2 12.6367 2.09071 12.8928 2.27213C13.0032 2.34554 13.1558 2.47847 13.2547 2.56784L13.3541 2.6594C14.4596 3.61419 16.1246 5.98895 16.6593 7.19378C16.6695 7.19378 16.9368 7.79574 16.9909 8.15853L17 8.25091V8.29626C17 8.81843 16.6829 9.30688 16.1731 9.55691C15.8933 9.69414 15.0801 9.81858 15.0676 9.83021C14.339 9.93255 13.2211 10 11.9938 10C10.7055 10 9.53917 9.93255 8.82169 9.80695C8.80925 9.80695 8.15394 9.68251 7.93509 9.60227C7.61925 9.47783 7.3519 9.24989 7.18155 8.96613C7.05969 8.73935 7 8.49978 7 8.25091C7.01119 7.98924 7.19398 7.5008 7.27854 7.30775C7.81323 6.03431 9.5628 3.60256 10.6322 2.67103C10.8025 2.5117 11.009 2.34075 11.0574 2.29539C11.3248 2.10234 11.6531 2 12.0062 2Z"
    fill="currentColor"
    fill-opacity="0.6"
  />
</svg>
