<svg viewBox="0 0 24 24" fill="none" xmlns="http://www.w3.org/2000/svg">
  <path
    fill-rule="evenodd"
    clip-rule="evenodd"
    d="M20.25 11.6644H18.599C18.185 11.6644 17.849 12.0004 17.849 12.4144C17.849 12.8284 18.185 13.1644 18.599 13.1644H20.25V15.1004C20.25 15.8404 19.66 16.4304 18.92 16.4304H18.76L18.7576 16.4221L18.7563 16.4273C18.8268 16.6667 18.8647 16.9201 18.8647 17.1823C18.8647 17.445 18.8267 17.6987 18.756 17.9384L18.7573 17.9396L18.76 17.9304H18.92C20.48 17.9304 21.75 16.6604 21.75 15.1004V11.6604C21.75 10.4204 21.02 9.30039 19.9 8.82039L16.95 7.52039V6.98039C16.95 5.42039 15.68 4.15039 14.12 4.15039H5.05C3.51 4.15039 2.25 5.41039 2.25 6.95039V15.1004C2.25 16.4476 3.20612 17.5858 4.47229 17.8587C4.77171 19.004 5.8134 19.849 7.05245 19.849C8.52523 19.849 9.71916 18.6551 9.71916 17.1823C9.71916 17.4435 9.68187 17.6959 9.61189 17.9344H13.6385C13.9632 19.041 14.9861 19.849 16.1977 19.849C17.6705 19.849 18.8647 18.6551 18.8647 17.1823C18.8647 15.8587 17.9 14.7602 16.6355 14.5513C16.7426 14.569 16.8476 14.5931 16.95 14.6231V9.16039L19.29 10.1904C19.88 10.4404 20.25 11.0204 20.25 11.6604V11.6644ZM5.88574 17.1823C5.88574 16.538 6.4081 16.0156 7.05245 16.0156C7.69681 16.0156 8.21916 16.538 8.21916 17.1823C8.21916 17.8267 7.69681 18.349 7.05245 18.349C6.4081 18.349 5.88574 17.8267 5.88574 17.1823ZM16.1977 16.0156C15.5534 16.0156 15.031 16.538 15.031 17.1823C15.031 17.8267 15.5534 18.349 16.1977 18.349C16.8421 18.349 17.3644 17.8267 17.3644 17.1823C17.3644 16.538 16.8421 16.0156 16.1977 16.0156Z"
    fill="currentColor"
    fill-opacity="0.6"
  />
</svg>
