<svg viewBox="0 0 24 24" xmlns="http://www.w3.org/2000/svg">
  <circle cx="12.0001" cy="12" r="9.47368" fill="currentColor" fill-opacity="0.6" />
  <path
    fill-rule="evenodd"
    clip-rule="evenodd"
    d="M9.34675 13.1109C9.16389 12.9803 8.92046 12.972 8.73038 13.0909L8.22127 13.4071C7.61491 11.9304 7.90336 10.1602 9.08664 8.96805C10.0298 8.01709 11.3798 7.58914 12.7054 7.82646C13.0055 7.88037 13.2956 7.67917 13.3501 7.37682C13.4046 7.07503 13.2028 6.78602 12.901 6.73211C11.217 6.43087 9.49736 6.97443 8.29742 8.1855C6.74787 9.74671 6.40606 12.0877 7.26976 13.9974L6.70508 14.3481C6.51389 14.467 6.41329 14.6893 6.44997 14.9111C6.48665 15.1334 6.65339 15.3113 6.87293 15.3618L8.51973 15.742C8.56142 15.752 8.6031 15.7565 8.64478 15.7565C8.74816 15.7565 8.85043 15.7276 8.93991 15.672C9.0644 15.5942 9.15333 15.4697 9.18668 15.3257L9.56517 13.6884C9.61519 13.4694 9.52904 13.2415 9.34675 13.1109Z"
    fill="white"
  />
  <path
    fill-rule="evenodd"
    clip-rule="evenodd"
    d="M17.5501 8.80891C17.5134 8.58715 17.3467 8.40929 17.1271 8.35816L15.4809 7.97745C15.3358 7.94354 15.1869 7.96966 15.0613 8.04748C14.9362 8.12584 14.8478 8.25034 14.8139 8.39373L14.4355 10.0322C14.3849 10.2506 14.471 10.4785 14.6533 10.6091C14.75 10.678 14.8634 10.713 14.9768 10.713C15.0785 10.713 15.1797 10.6852 15.2697 10.6291L15.7794 10.3129C16.3857 11.7896 16.0973 13.5598 14.9145 14.7525C13.9714 15.7035 12.6186 16.1314 11.2958 15.8947C10.994 15.8391 10.7056 16.0414 10.6511 16.3437C10.5966 16.6461 10.7984 16.9345 11.1007 16.9884C11.4053 17.0429 11.7121 17.0702 12.0167 17.0702C13.3895 17.0702 14.7206 16.526 15.7038 15.5356C17.2533 13.9738 17.5946 11.6329 16.7303 9.72263L17.295 9.37192C17.4862 9.25298 17.5868 9.03067 17.5501 8.80891Z"
    fill="white"
  />
</svg>
