<svg viewBox="0 0 24 24" fill="none" xmlns="http://www.w3.org/2000/svg">
  <path
    fill-rule="evenodd"
    clip-rule="evenodd"
    d="M14.23 6.675L12.75 5.195V9.29492H11.25V5.195L9.77999 6.675C9.47999 6.965 9.00999 6.965 8.70999 6.675C8.41999 6.385 8.41999 5.905 8.70999 5.615L11.47 2.845C11.485 2.83 11.5 2.8175 11.515 2.805C11.53 2.7925 11.545 2.78 11.56 2.765C11.61 2.735 11.66 2.705 11.72 2.675C11.8 2.645 11.89 2.625 11.98 2.625H12.02C12.11 2.625 12.2 2.645 12.28 2.675C12.295 2.68 12.3075 2.6875 12.32 2.695C12.3325 2.7025 12.345 2.71 12.36 2.715C12.365 2.715 12.3675 2.715 12.3688 2.71625C12.37 2.7175 12.37 2.72 12.37 2.725C12.43 2.755 12.48 2.795 12.53 2.845L15.29 5.615C15.58 5.905 15.58 6.385 15.29 6.675C14.99 6.965 14.52 6.965 14.23 6.675ZM12.75 9.29492H17.27C19.46 9.29492 21.25 11.0849 21.25 13.2749V17.8949C21.25 20.0849 19.46 21.8749 17.26 21.8749H6.74C4.54 21.8749 2.75 20.0849 2.75 17.8949V13.2849C2.75 11.0849 4.54 9.29492 6.74 9.29492H11.25V14.7549C11.25 15.1749 11.59 15.5049 12 15.5049C12.41 15.5049 12.75 15.1749 12.75 14.7549V9.29492Z"
    fill="currentColor"
    fill-opacity="0.6"
  />
</svg>
