<svg viewBox="0 0 24 24" fill="none" xmlns="http://www.w3.org/2000/svg">
  <path
    fill-rule="evenodd"
    clip-rule="evenodd"
    d="M12.1752 7.54961L13.2502 7.04961V4.14961C13.2502 4.09461 13.2352 4.04761 13.2112 4.00861C13.1482 3.90261 13.0222 3.84961 12.9502 3.84961H11.4502C11.2502 3.84961 11.1502 4.04961 11.1502 4.14961V7.04961L12.1752 7.54961ZM14.6502 4.94961H16.6502C19.3502 4.94961 21.2502 6.74961 21.3502 9.54961V16.7496C21.3502 19.6496 19.4502 21.6496 16.6502 21.6496H7.6502C4.85019 21.6496 2.9502 19.6496 2.9502 16.7496V9.84961C2.9502 6.94961 4.85019 4.94961 7.6502 4.94961H9.5502V4.14961C9.5502 3.14961 10.3502 2.34961 11.3502 2.34961H12.9502C13.8502 2.44961 14.6502 3.14961 14.6502 4.14961V4.94961ZM17.6333 11.5686H14.9663C14.5133 11.5686 14.1453 11.2016 14.1453 10.7476C14.1453 10.2946 14.5133 9.92764 14.9663 9.92764H17.6333C18.0873 9.92764 18.4543 10.2946 18.4543 10.7476C18.4543 11.2016 18.0873 11.5686 17.6333 11.5686ZM14.9663 14.7616H17.6333C18.0873 14.7616 18.4543 14.3946 18.4543 13.9416C18.4543 13.4886 18.0873 13.1206 17.6333 13.1206H14.9663C14.5133 13.1206 14.1453 13.4886 14.1453 13.9416C14.1453 14.3946 14.5133 14.7616 14.9663 14.7616ZM17.6333 18.1706H15.8653C15.4123 18.1706 15.0453 17.8036 15.0453 17.3506C15.0453 16.8966 15.4123 16.5296 15.8653 16.5296H17.6333C18.0863 16.5296 18.4543 16.8966 18.4543 17.3506C18.4543 17.8036 18.0863 18.1706 17.6333 18.1706ZM6.38732 18.0836L12.5683 18.0756C12.7673 18.0746 12.9273 17.9146 12.9273 17.7166C12.9273 16.4146 11.8603 15.1006 9.47832 15.1006C7.09532 15.1006 6.02832 16.4186 6.02832 17.7246C6.02832 17.8206 6.06632 17.9116 6.13332 17.9786C6.20032 18.0456 6.29232 18.0836 6.38732 18.0836ZM9.47738 9.51562C10.7124 9.51562 11.7164 10.5196 11.7164 11.7536C11.7164 12.9886 10.7124 13.9926 9.47738 13.9926C8.24338 13.9926 7.23938 12.9886 7.23938 11.7536C7.23938 10.5196 8.24338 9.51562 9.47738 9.51562Z"
    fill="currentColor"
    fill-opacity="0.6"
  />
</svg>
