<svg viewBox="0 0 24 24" fill="none" xmlns="http://www.w3.org/2000/svg">
  <path
    d="M3.54215 20.7009C4.11815 21.2239 4.86415 21.4829 5.62215 21.4829C6.48615 21.4819 7.36615 21.1469 8.02615 20.4869L11.7621 16.7519C14.4091 17.6749 17.3561 17.0109 19.3541 15.0149C21.4421 12.9259 22.0721 9.8169 20.9591 7.0939C20.8961 6.9379 20.7591 6.8259 20.5951 6.7919C20.4301 6.7609 20.2611 6.8099 20.1431 6.9289L16.7441 10.3289C16.5541 10.5179 16.2841 10.6019 16.0221 10.5479L14.4171 10.2309C14.0991 10.1679 13.8521 9.9219 13.7881 9.6029L13.4681 7.9919C13.4151 7.7289 13.4971 7.4599 13.6871 7.2699L17.0851 3.8709C17.2041 3.7529 17.2551 3.5829 17.2221 3.4179C17.1881 3.2539 17.0751 3.1179 16.9191 3.0549C14.1921 1.9489 11.0821 2.5799 9.00015 4.6609C7.00315 6.6579 6.34115 9.6069 7.26915 12.2599L3.42815 16.0999C2.81615 16.7129 2.47815 17.5599 2.49915 18.4259C2.52115 19.3019 2.89115 20.1099 3.54215 20.7009Z"
    fill="currentColor"
    fill-opacity="0.6"
  />
</svg>
