<svg viewBox="0 0 24 24" fill="none" xmlns="http://www.w3.org/2000/svg">
  <path
    d="M9.03251 21.5001H14.9565C15.2325 21.5001 15.4565 21.2761 15.4565 21.0001V17.5271C18.3455 16.1911 20.1935 13.3121 20.1935 10.1001C20.1935 6.77515 18.2125 3.80715 15.1475 2.53815C14.9935 2.47415 14.8175 2.49115 14.6785 2.58415C14.5395 2.67715 14.4565 2.83315 14.4565 3.00015V9.07115C14.4565 9.27215 14.3355 9.45415 14.1505 9.53215L12.1945 10.3551C12.0705 10.4071 11.9285 10.4071 11.8055 10.3561L9.83851 9.53115C9.65251 9.45315 9.53251 9.27215 9.53251 9.07015V3.00015C9.53251 2.83315 9.44851 2.67615 9.30951 2.58315C9.17051 2.49215 8.99252 2.47415 8.83952 2.53915C5.78252 3.82315 3.80652 6.79115 3.80652 10.1001C3.80652 13.2981 5.65052 16.1761 8.53252 17.5251V21.0001C8.53252 21.2761 8.75652 21.5001 9.03251 21.5001Z"
    fill="currentColor"
    fill-opacity="0.6"
  />
</svg>
