<svg viewBox="0 0 24 24" fill="none" xmlns="http://www.w3.org/2000/svg">
  <path
    d="M8.84801 21.5001H15.152C15.428 21.5001 15.652 21.2761 15.652 21.0001V17.8641C15.652 17.7151 15.713 17.5691 15.818 17.4641L19.118 14.2021C19.816 13.5101 20.201 12.5881 20.201 11.6051V7.35811C20.201 6.24611 19.704 5.20911 18.838 4.51311L16.68 2.77611C16.304 2.47411 15.797 2.41411 15.36 2.62411C14.923 2.83311 14.652 3.26411 14.652 3.74811V7.98611C14.652 8.28911 14.491 8.57611 14.233 8.73411L12.459 9.82011C12.176 9.99211 11.825 9.99311 11.543 9.82111L9.76601 8.73311C9.50901 8.57611 9.34801 8.28911 9.34801 7.98611V3.74811C9.34801 3.26411 9.07701 2.83311 8.64001 2.62411C8.20301 2.41511 7.69701 2.47411 7.32001 2.77611L5.16401 4.51311C4.29601 5.20811 3.79901 6.24511 3.79901 7.35811V11.6051C3.79901 12.5721 4.19401 13.5191 4.88301 14.2021L8.18001 17.4631C8.28701 17.5691 8.34801 17.7151 8.34801 17.8641V21.0001C8.34801 21.2761 8.57201 21.5001 8.84801 21.5001Z"
    fill="currentColor"
    fill-opacity="0.6"
  />
</svg>
